M48
; DRILL file {KiCad (5.1.9)-1} date 03/15/21 12:44:02
; FORMAT={-:-/ absolute / inch / decimal}
; #@! TF.CreationDate,2021-03-15T12:44:02+01:00
; #@! TF.GenerationSoftware,Kicad,Pcbnew,(5.1.9)-1
; #@! TF.FileFunction,Plated,1,2,PTH
FMAT,2
INCH
T1C0.0118
T2C0.0157
T3C0.0315
%
G90
G05
T1
X3.6594Y-3.0374
X3.6594Y-3.8287
X3.6594Y-4.6201
X3.6594Y-5.4114
X3.6594Y-6.2028
X3.7342Y-3.2629
X3.7342Y-4.0543
X3.7342Y-4.8456
X3.7342Y-5.6369
X3.7342Y-6.4283
X3.7748Y-3.3516
X3.7748Y-4.1429
X3.7748Y-4.9342
X3.7748Y-5.7256
X3.7748Y-6.5169
X4.099Y-3.2087
X4.099Y-4.0
X4.099Y-4.7913
X4.099Y-5.5827
X4.099Y-6.374
X4.4508Y-3.0374
X4.4508Y-3.8287
X4.4508Y-4.6201
X4.4508Y-5.4114
X4.4508Y-6.2028
X4.5255Y-3.2629
X4.5255Y-4.0543
X4.5255Y-4.8456
X4.5255Y-5.6369
X4.5255Y-6.4283
X4.5661Y-3.3516
X4.5661Y-4.1429
X4.5661Y-4.9342
X4.5661Y-5.7256
X4.5661Y-6.5169
X4.8904Y-3.2087
X4.8904Y-4.0
X4.8904Y-4.7913
X4.8904Y-5.5827
X4.8904Y-6.374
X5.2421Y-3.0374
X5.2421Y-3.8287
X5.2421Y-4.6201
X5.2421Y-5.4114
X5.2421Y-6.2028
X5.3168Y-3.2629
X5.3168Y-4.0543
X5.3168Y-4.8456
X5.3168Y-5.6369
X5.3168Y-6.4283
X5.3575Y-3.3516
X5.3575Y-4.1429
X5.3575Y-4.9342
X5.3575Y-5.7256
X5.3575Y-6.5169
X5.6817Y-3.2087
X5.6817Y-4.0
X5.6817Y-4.7913
X5.6817Y-5.5827
X5.6817Y-6.374
X6.0335Y-3.0374
X6.0335Y-3.8287
X6.0335Y-4.6201
X6.0335Y-5.4114
X6.0335Y-6.2028
X6.1082Y-3.2629
X6.1082Y-4.0543
X6.1082Y-4.8456
X6.1082Y-5.6369
X6.1082Y-6.4283
X6.1488Y-3.3516
X6.1488Y-4.1429
X6.1488Y-4.9342
X6.1488Y-5.7256
X6.1488Y-6.5169
X6.473Y-3.2087
X6.473Y-4.0
X6.473Y-4.7913
X6.473Y-5.5827
X6.473Y-6.374
X6.8248Y-3.0374
X6.8248Y-3.8287
X6.8248Y-4.6201
X6.8248Y-5.4114
X6.8248Y-6.2028
X6.8995Y-3.2629
X6.8995Y-4.0543
X6.8995Y-4.8456
X6.8995Y-5.6369
X6.8995Y-6.4283
X6.9401Y-3.3516
X6.9401Y-4.1429
X6.9401Y-4.9342
X6.9401Y-5.7256
X6.9401Y-6.5169
X7.2644Y-3.2087
X7.2644Y-4.0
X7.2644Y-4.7913
X7.2644Y-5.5827
X7.2644Y-6.374
T2
X3.8189Y-3.1961
X3.8189Y-3.9874
X3.8189Y-4.7788
X3.8189Y-5.5701
X3.8189Y-6.3614
X3.8227Y-3.3438
X3.8227Y-4.1351
X3.8227Y-4.9264
X3.8227Y-5.7178
X3.8227Y-6.5091
X4.0183Y-3.1244
X4.0183Y-3.9158
X4.0183Y-4.7071
X4.0183Y-5.4984
X4.0183Y-6.2898
X4.1339Y-2.9823
X4.1339Y-3.7736
X4.1339Y-4.565
X4.1339Y-5.3563
X4.1339Y-6.1476
X4.6102Y-3.1961
X4.6102Y-3.9874
X4.6102Y-4.7788
X4.6102Y-5.5701
X4.6102Y-6.3614
X4.614Y-3.3438
X4.614Y-4.1351
X4.614Y-4.9264
X4.614Y-5.7178
X4.614Y-6.5091
X4.8096Y-3.1244
X4.8096Y-3.9158
X4.8096Y-4.7071
X4.8096Y-5.4984
X4.8096Y-6.2898
X4.9252Y-2.9823
X4.9252Y-3.7736
X4.9252Y-4.565
X4.9252Y-5.3563
X4.9252Y-6.1476
X5.4016Y-3.1961
X5.4016Y-3.9874
X5.4016Y-4.7788
X5.4016Y-5.5701
X5.4016Y-6.3614
X5.4054Y-3.3438
X5.4054Y-4.1351
X5.4054Y-4.9264
X5.4054Y-5.7178
X5.4054Y-6.5091
X5.601Y-3.1244
X5.601Y-3.9158
X5.601Y-4.7071
X5.601Y-5.4984
X5.601Y-6.2898
X5.7165Y-2.9823
X5.7165Y-3.7736
X5.7165Y-4.565
X5.7165Y-5.3563
X5.7165Y-6.1476
X6.1929Y-3.1961
X6.1929Y-3.9874
X6.1929Y-4.7788
X6.1929Y-5.5701
X6.1929Y-6.3614
X6.1967Y-3.3438
X6.1967Y-4.1351
X6.1967Y-4.9264
X6.1967Y-5.7178
X6.1967Y-6.5091
X6.3923Y-3.1244
X6.3923Y-3.9158
X6.3923Y-4.7071
X6.3923Y-5.4984
X6.3923Y-6.2898
X6.5079Y-2.9823
X6.5079Y-3.7736
X6.5079Y-4.565
X6.5079Y-5.3563
X6.5079Y-6.1476
X6.9843Y-3.1961
X6.9843Y-3.9874
X6.9843Y-4.7788
X6.9843Y-5.5701
X6.9843Y-6.3614
X6.988Y-3.3438
X6.988Y-4.1351
X6.988Y-4.9264
X6.988Y-5.7178
X6.988Y-6.5091
X7.1836Y-3.1244
X7.1836Y-3.9158
X7.1836Y-4.7071
X7.1836Y-5.4984
X7.1836Y-6.2898
X7.2992Y-2.9823
X7.2992Y-3.7736
X7.2992Y-4.565
X7.2992Y-5.3563
X7.2992Y-6.1476
T3
X3.6024Y-2.7362
X3.6024Y-3.0917
X3.6024Y-3.2098
X3.6024Y-3.3858
X3.6024Y-3.5276
X3.6024Y-3.8831
X3.6024Y-4.0012
X3.6024Y-4.1772
X3.6024Y-4.3189
X3.6024Y-4.6744
X3.6024Y-4.7925
X3.6024Y-4.9685
X3.6024Y-5.1102
X3.6024Y-5.4657
X3.6024Y-5.5839
X3.6024Y-5.7598
X3.6024Y-5.9016
X3.6024Y-6.2571
X3.6024Y-6.3752
X3.6024Y-6.5512
X3.7205Y-2.7362
X3.7205Y-3.3858
X3.7205Y-3.5276
X3.7205Y-4.1772
X3.7205Y-4.3189
X3.7205Y-4.9685
X3.7205Y-5.1102
X3.7205Y-5.7598
X3.7205Y-5.9016
X3.7205Y-6.5512
X4.1339Y-2.7362
X4.1339Y-3.3858
X4.1339Y-3.5276
X4.1339Y-4.1772
X4.1339Y-4.3189
X4.1339Y-4.9685
X4.1339Y-5.1102
X4.1339Y-5.7598
X4.1339Y-5.9016
X4.1339Y-6.5512
X4.252Y-2.7362
X4.252Y-3.0917
X4.252Y-3.2098
X4.252Y-3.3858
X4.252Y-3.5276
X4.252Y-3.8831
X4.252Y-4.0012
X4.252Y-4.1772
X4.252Y-4.3189
X4.252Y-4.6744
X4.252Y-4.7925
X4.252Y-4.9685
X4.252Y-5.1102
X4.252Y-5.4657
X4.252Y-5.5839
X4.252Y-5.7598
X4.252Y-5.9016
X4.252Y-6.2571
X4.252Y-6.3752
X4.252Y-6.5512
X4.3937Y-2.7362
X4.3937Y-3.0917
X4.3937Y-3.2098
X4.3937Y-3.3858
X4.3937Y-3.5276
X4.3937Y-3.8831
X4.3937Y-4.0012
X4.3937Y-4.1772
X4.3937Y-4.3189
X4.3937Y-4.6744
X4.3937Y-4.7925
X4.3937Y-4.9685
X4.3937Y-5.1102
X4.3937Y-5.4657
X4.3937Y-5.5839
X4.3937Y-5.7598
X4.3937Y-5.9016
X4.3937Y-6.2571
X4.3937Y-6.3752
X4.3937Y-6.5512
X4.5118Y-2.7362
X4.5118Y-3.3858
X4.5118Y-3.5276
X4.5118Y-4.1772
X4.5118Y-4.3189
X4.5118Y-4.9685
X4.5118Y-5.1102
X4.5118Y-5.7598
X4.5118Y-5.9016
X4.5118Y-6.5512
X4.9252Y-2.7362
X4.9252Y-3.3858
X4.9252Y-3.5276
X4.9252Y-4.1772
X4.9252Y-4.3189
X4.9252Y-4.9685
X4.9252Y-5.1102
X4.9252Y-5.7598
X4.9252Y-5.9016
X4.9252Y-6.5512
X5.0433Y-2.7362
X5.0433Y-3.0917
X5.0433Y-3.2098
X5.0433Y-3.3858
X5.0433Y-3.5276
X5.0433Y-3.8831
X5.0433Y-4.0012
X5.0433Y-4.1772
X5.0433Y-4.3189
X5.0433Y-4.6744
X5.0433Y-4.7925
X5.0433Y-4.9685
X5.0433Y-5.1102
X5.0433Y-5.4657
X5.0433Y-5.5839
X5.0433Y-5.7598
X5.0433Y-5.9016
X5.0433Y-6.2571
X5.0433Y-6.3752
X5.0433Y-6.5512
X5.185Y-2.7362
X5.185Y-3.0917
X5.185Y-3.2098
X5.185Y-3.3858
X5.185Y-3.5276
X5.185Y-3.8831
X5.185Y-4.0012
X5.185Y-4.1772
X5.185Y-4.3189
X5.185Y-4.6744
X5.185Y-4.7925
X5.185Y-4.9685
X5.185Y-5.1102
X5.185Y-5.4657
X5.185Y-5.5839
X5.185Y-5.7598
X5.185Y-5.9016
X5.185Y-6.2571
X5.185Y-6.3752
X5.185Y-6.5512
X5.3031Y-2.7362
X5.3031Y-3.3858
X5.3031Y-3.5276
X5.3031Y-4.1772
X5.3031Y-4.3189
X5.3031Y-4.9685
X5.3031Y-5.1102
X5.3031Y-5.7598
X5.3031Y-5.9016
X5.3031Y-6.5512
X5.7165Y-2.7362
X5.7165Y-3.3858
X5.7165Y-3.5276
X5.7165Y-4.1772
X5.7165Y-4.3189
X5.7165Y-4.9685
X5.7165Y-5.1102
X5.7165Y-5.7598
X5.7165Y-5.9016
X5.7165Y-6.5512
X5.8346Y-2.7362
X5.8346Y-3.0917
X5.8346Y-3.2098
X5.8346Y-3.3858
X5.8346Y-3.5276
X5.8346Y-3.8831
X5.8346Y-4.0012
X5.8346Y-4.1772
X5.8346Y-4.3189
X5.8346Y-4.6744
X5.8346Y-4.7925
X5.8346Y-4.9685
X5.8346Y-5.1102
X5.8346Y-5.4657
X5.8346Y-5.5839
X5.8346Y-5.7598
X5.8346Y-5.9016
X5.8346Y-6.2571
X5.8346Y-6.3752
X5.8346Y-6.5512
X5.9764Y-2.7362
X5.9764Y-3.0917
X5.9764Y-3.2098
X5.9764Y-3.3858
X5.9764Y-3.5276
X5.9764Y-3.8831
X5.9764Y-4.0012
X5.9764Y-4.1772
X5.9764Y-4.3189
X5.9764Y-4.6744
X5.9764Y-4.7925
X5.9764Y-4.9685
X5.9764Y-5.1102
X5.9764Y-5.4657
X5.9764Y-5.5839
X5.9764Y-5.7598
X5.9764Y-5.9016
X5.9764Y-6.2571
X5.9764Y-6.3752
X5.9764Y-6.5512
X6.0945Y-2.7362
X6.0945Y-3.3858
X6.0945Y-3.5276
X6.0945Y-4.1772
X6.0945Y-4.3189
X6.0945Y-4.9685
X6.0945Y-5.1102
X6.0945Y-5.7598
X6.0945Y-5.9016
X6.0945Y-6.5512
X6.5079Y-2.7362
X6.5079Y-3.3858
X6.5079Y-3.5276
X6.5079Y-4.1772
X6.5079Y-4.3189
X6.5079Y-4.9685
X6.5079Y-5.1102
X6.5079Y-5.7598
X6.5079Y-5.9016
X6.5079Y-6.5512
X6.626Y-2.7362
X6.626Y-3.0917
X6.626Y-3.2098
X6.626Y-3.3858
X6.626Y-3.5276
X6.626Y-3.8831
X6.626Y-4.0012
X6.626Y-4.1772
X6.626Y-4.3189
X6.626Y-4.6744
X6.626Y-4.7925
X6.626Y-4.9685
X6.626Y-5.1102
X6.626Y-5.4657
X6.626Y-5.5839
X6.626Y-5.7598
X6.626Y-5.9016
X6.626Y-6.2571
X6.626Y-6.3752
X6.626Y-6.5512
X6.7677Y-2.7362
X6.7677Y-3.0917
X6.7677Y-3.2098
X6.7677Y-3.3858
X6.7677Y-3.5276
X6.7677Y-3.8831
X6.7677Y-4.0012
X6.7677Y-4.1772
X6.7677Y-4.3189
X6.7677Y-4.6744
X6.7677Y-4.7925
X6.7677Y-4.9685
X6.7677Y-5.1102
X6.7677Y-5.4657
X6.7677Y-5.5839
X6.7677Y-5.7598
X6.7677Y-5.9016
X6.7677Y-6.2571
X6.7677Y-6.3752
X6.7677Y-6.5512
X6.8858Y-2.7362
X6.8858Y-3.3858
X6.8858Y-3.5276
X6.8858Y-4.1772
X6.8858Y-4.3189
X6.8858Y-4.9685
X6.8858Y-5.1102
X6.8858Y-5.7598
X6.8858Y-5.9016
X6.8858Y-6.5512
X7.2992Y-2.7362
X7.2992Y-3.3858
X7.2992Y-3.5276
X7.2992Y-4.1772
X7.2992Y-4.3189
X7.2992Y-4.9685
X7.2992Y-5.1102
X7.2992Y-5.7598
X7.2992Y-5.9016
X7.2992Y-6.5512
X7.4173Y-2.7362
X7.4173Y-3.0917
X7.4173Y-3.2098
X7.4173Y-3.3858
X7.4173Y-3.5276
X7.4173Y-3.8831
X7.4173Y-4.0012
X7.4173Y-4.1772
X7.4173Y-4.3189
X7.4173Y-4.6744
X7.4173Y-4.7925
X7.4173Y-4.9685
X7.4173Y-5.1102
X7.4173Y-5.4657
X7.4173Y-5.5839
X7.4173Y-5.7598
X7.4173Y-5.9016
X7.4173Y-6.2571
X7.4173Y-6.3752
X7.4173Y-6.5512
T0
M30
