%TF.GenerationSoftware,KiCad,Pcbnew,(5.1.9)-1*%
%TF.CreationDate,2021-03-15T12:44:13+01:00*%
%TF.ProjectId,cell,63656c6c-2e6b-4696-9361-645f70636258,rev?*%
%TF.SameCoordinates,Original*%
%TF.FileFunction,Soldermask,Bot*%
%TF.FilePolarity,Negative*%
%FSLAX46Y46*%
G04 Gerber Fmt 4.6, Leading zero omitted, Abs format (unit mm)*
G04 Created by KiCad (PCBNEW (5.1.9)-1) date 2021-03-15 12:44:13*
%MOMM*%
%LPD*%
G01*
G04 APERTURE LIST*
%ADD10C,0.500000*%
%ADD11C,1.998980*%
%ADD12R,1.700000X1.000000*%
%ADD13R,2.550000X2.500000*%
%ADD14C,4.100000*%
%ADD15C,1.900000*%
%ADD16C,3.000000*%
G04 APERTURE END LIST*
D10*
%TO.C,REF\u002A\u002A*%
X170105000Y-160595000D03*
X170105000Y-159895000D03*
X170105000Y-159195000D03*
X170105000Y-158495000D03*
X170105000Y-157795000D03*
X170105000Y-157095000D03*
X170105000Y-156395000D03*
X170105000Y-155695000D03*
%TD*%
%TO.C,REF\u002A\u002A*%
X150005000Y-160595000D03*
X150005000Y-159895000D03*
X150005000Y-159195000D03*
X150005000Y-158495000D03*
X150005000Y-157795000D03*
X150005000Y-157095000D03*
X150005000Y-156395000D03*
X150005000Y-155695000D03*
%TD*%
%TO.C,REF\u002A\u002A*%
X129905000Y-160595000D03*
X129905000Y-159895000D03*
X129905000Y-159195000D03*
X129905000Y-158495000D03*
X129905000Y-157795000D03*
X129905000Y-157095000D03*
X129905000Y-156395000D03*
X129905000Y-155695000D03*
%TD*%
%TO.C,REF\u002A\u002A*%
X109805000Y-160595000D03*
X109805000Y-159895000D03*
X109805000Y-159195000D03*
X109805000Y-158495000D03*
X109805000Y-157795000D03*
X109805000Y-157095000D03*
X109805000Y-156395000D03*
X109805000Y-155695000D03*
%TD*%
%TO.C,REF\u002A\u002A*%
X170105000Y-140495000D03*
X170105000Y-139795000D03*
X170105000Y-139095000D03*
X170105000Y-138395000D03*
X170105000Y-137695000D03*
X170105000Y-136995000D03*
X170105000Y-136295000D03*
X170105000Y-135595000D03*
%TD*%
%TO.C,REF\u002A\u002A*%
X150005000Y-140495000D03*
X150005000Y-139795000D03*
X150005000Y-139095000D03*
X150005000Y-138395000D03*
X150005000Y-137695000D03*
X150005000Y-136995000D03*
X150005000Y-136295000D03*
X150005000Y-135595000D03*
%TD*%
%TO.C,REF\u002A\u002A*%
X129905000Y-140495000D03*
X129905000Y-139795000D03*
X129905000Y-139095000D03*
X129905000Y-138395000D03*
X129905000Y-137695000D03*
X129905000Y-136995000D03*
X129905000Y-136295000D03*
X129905000Y-135595000D03*
%TD*%
%TO.C,REF\u002A\u002A*%
X109805000Y-140495000D03*
X109805000Y-139795000D03*
X109805000Y-139095000D03*
X109805000Y-138395000D03*
X109805000Y-137695000D03*
X109805000Y-136995000D03*
X109805000Y-136295000D03*
X109805000Y-135595000D03*
%TD*%
%TO.C,REF\u002A\u002A*%
X170105000Y-120395000D03*
X170105000Y-119695000D03*
X170105000Y-118995000D03*
X170105000Y-118295000D03*
X170105000Y-117595000D03*
X170105000Y-116895000D03*
X170105000Y-116195000D03*
X170105000Y-115495000D03*
%TD*%
%TO.C,REF\u002A\u002A*%
X150005000Y-120395000D03*
X150005000Y-119695000D03*
X150005000Y-118995000D03*
X150005000Y-118295000D03*
X150005000Y-117595000D03*
X150005000Y-116895000D03*
X150005000Y-116195000D03*
X150005000Y-115495000D03*
%TD*%
%TO.C,REF\u002A\u002A*%
X129905000Y-120395000D03*
X129905000Y-119695000D03*
X129905000Y-118995000D03*
X129905000Y-118295000D03*
X129905000Y-117595000D03*
X129905000Y-116895000D03*
X129905000Y-116195000D03*
X129905000Y-115495000D03*
%TD*%
%TO.C,REF\u002A\u002A*%
X109805000Y-120395000D03*
X109805000Y-119695000D03*
X109805000Y-118995000D03*
X109805000Y-118295000D03*
X109805000Y-117595000D03*
X109805000Y-116895000D03*
X109805000Y-116195000D03*
X109805000Y-115495000D03*
%TD*%
%TO.C,REF\u002A\u002A*%
X170105000Y-100295000D03*
X170105000Y-99595000D03*
X170105000Y-98895000D03*
X170105000Y-98195000D03*
X170105000Y-97495000D03*
X170105000Y-96795000D03*
X170105000Y-96095000D03*
X170105000Y-95395000D03*
%TD*%
%TO.C,REF\u002A\u002A*%
X150005000Y-100295000D03*
X150005000Y-99595000D03*
X150005000Y-98895000D03*
X150005000Y-98195000D03*
X150005000Y-97495000D03*
X150005000Y-96795000D03*
X150005000Y-96095000D03*
X150005000Y-95395000D03*
%TD*%
%TO.C,REF\u002A\u002A*%
X129905000Y-100295000D03*
X129905000Y-99595000D03*
X129905000Y-98895000D03*
X129905000Y-98195000D03*
X129905000Y-97495000D03*
X129905000Y-96795000D03*
X129905000Y-96095000D03*
X129905000Y-95395000D03*
%TD*%
%TO.C,REF\u002A\u002A*%
X109805000Y-100295000D03*
X109805000Y-99595000D03*
X109805000Y-98895000D03*
X109805000Y-98195000D03*
X109805000Y-97495000D03*
X109805000Y-96795000D03*
X109805000Y-96095000D03*
X109805000Y-95395000D03*
%TD*%
%TO.C,REF\u002A\u002A*%
X170105000Y-80195000D03*
X170105000Y-79495000D03*
X170105000Y-78795000D03*
X170105000Y-78095000D03*
X170105000Y-77395000D03*
X170105000Y-76695000D03*
X170105000Y-75995000D03*
X170105000Y-75295000D03*
%TD*%
%TO.C,REF\u002A\u002A*%
X150005000Y-80195000D03*
X150005000Y-79495000D03*
X150005000Y-78795000D03*
X150005000Y-78095000D03*
X150005000Y-77395000D03*
X150005000Y-76695000D03*
X150005000Y-75995000D03*
X150005000Y-75295000D03*
%TD*%
%TO.C,REF\u002A\u002A*%
X129905000Y-80195000D03*
X129905000Y-79495000D03*
X129905000Y-78795000D03*
X129905000Y-78095000D03*
X129905000Y-77395000D03*
X129905000Y-76695000D03*
X129905000Y-75995000D03*
X129905000Y-75295000D03*
%TD*%
D11*
%TO.C,J12*%
X185400000Y-149900000D03*
%TD*%
%TO.C,J12*%
X165300000Y-149900000D03*
%TD*%
%TO.C,J12*%
X145200000Y-149900000D03*
%TD*%
%TO.C,J12*%
X125100000Y-149900000D03*
%TD*%
%TO.C,J12*%
X105000000Y-149900000D03*
%TD*%
%TO.C,J12*%
X185400000Y-129800000D03*
%TD*%
%TO.C,J12*%
X165300000Y-129800000D03*
%TD*%
%TO.C,J12*%
X145200000Y-129800000D03*
%TD*%
%TO.C,J12*%
X125100000Y-129800000D03*
%TD*%
%TO.C,J12*%
X105000000Y-129800000D03*
%TD*%
%TO.C,J12*%
X185400000Y-109700000D03*
%TD*%
%TO.C,J12*%
X165300000Y-109700000D03*
%TD*%
%TO.C,J12*%
X145200000Y-109700000D03*
%TD*%
%TO.C,J12*%
X125100000Y-109700000D03*
%TD*%
%TO.C,J12*%
X105000000Y-109700000D03*
%TD*%
%TO.C,J12*%
X185400000Y-89600000D03*
%TD*%
%TO.C,J12*%
X165300000Y-89600000D03*
%TD*%
%TO.C,J12*%
X145200000Y-89600000D03*
%TD*%
%TO.C,J12*%
X125100000Y-89600000D03*
%TD*%
%TO.C,J12*%
X105000000Y-89600000D03*
%TD*%
%TO.C,J12*%
X185400000Y-69500000D03*
%TD*%
%TO.C,J12*%
X165300000Y-69500000D03*
%TD*%
%TO.C,J12*%
X145200000Y-69500000D03*
%TD*%
%TO.C,J12*%
X125100000Y-69500000D03*
%TD*%
%TO.C,J11*%
X171900000Y-161930000D03*
%TD*%
%TO.C,J11*%
X151800000Y-161930000D03*
%TD*%
%TO.C,J11*%
X131700000Y-161930000D03*
%TD*%
%TO.C,J11*%
X111600000Y-161930000D03*
%TD*%
%TO.C,J11*%
X91500000Y-161930000D03*
%TD*%
%TO.C,J11*%
X171900000Y-141830000D03*
%TD*%
%TO.C,J11*%
X151800000Y-141830000D03*
%TD*%
%TO.C,J11*%
X131700000Y-141830000D03*
%TD*%
%TO.C,J11*%
X111600000Y-141830000D03*
%TD*%
%TO.C,J11*%
X91500000Y-141830000D03*
%TD*%
%TO.C,J11*%
X171900000Y-121730000D03*
%TD*%
%TO.C,J11*%
X151800000Y-121730000D03*
%TD*%
%TO.C,J11*%
X131700000Y-121730000D03*
%TD*%
%TO.C,J11*%
X111600000Y-121730000D03*
%TD*%
%TO.C,J11*%
X91500000Y-121730000D03*
%TD*%
%TO.C,J11*%
X171900000Y-101630000D03*
%TD*%
%TO.C,J11*%
X151800000Y-101630000D03*
%TD*%
%TO.C,J11*%
X131700000Y-101630000D03*
%TD*%
%TO.C,J11*%
X111600000Y-101630000D03*
%TD*%
%TO.C,J11*%
X91500000Y-101630000D03*
%TD*%
%TO.C,J11*%
X171900000Y-81530000D03*
%TD*%
%TO.C,J11*%
X151800000Y-81530000D03*
%TD*%
%TO.C,J11*%
X131700000Y-81530000D03*
%TD*%
%TO.C,J11*%
X111600000Y-81530000D03*
%TD*%
%TO.C,J9*%
X188400000Y-158930000D03*
%TD*%
%TO.C,J9*%
X168300000Y-158930000D03*
%TD*%
%TO.C,J9*%
X148200000Y-158930000D03*
%TD*%
%TO.C,J9*%
X128100000Y-158930000D03*
%TD*%
%TO.C,J9*%
X108000000Y-158930000D03*
%TD*%
%TO.C,J9*%
X188400000Y-138830000D03*
%TD*%
%TO.C,J9*%
X168300000Y-138830000D03*
%TD*%
%TO.C,J9*%
X148200000Y-138830000D03*
%TD*%
%TO.C,J9*%
X128100000Y-138830000D03*
%TD*%
%TO.C,J9*%
X108000000Y-138830000D03*
%TD*%
%TO.C,J9*%
X188400000Y-118730000D03*
%TD*%
%TO.C,J9*%
X168300000Y-118730000D03*
%TD*%
%TO.C,J9*%
X148200000Y-118730000D03*
%TD*%
%TO.C,J9*%
X128100000Y-118730000D03*
%TD*%
%TO.C,J9*%
X108000000Y-118730000D03*
%TD*%
%TO.C,J9*%
X188400000Y-98630000D03*
%TD*%
%TO.C,J9*%
X168300000Y-98630000D03*
%TD*%
%TO.C,J9*%
X148200000Y-98630000D03*
%TD*%
%TO.C,J9*%
X128100000Y-98630000D03*
%TD*%
%TO.C,J9*%
X108000000Y-98630000D03*
%TD*%
%TO.C,J9*%
X188400000Y-78530000D03*
%TD*%
%TO.C,J9*%
X168300000Y-78530000D03*
%TD*%
%TO.C,J9*%
X148200000Y-78530000D03*
%TD*%
%TO.C,J9*%
X128100000Y-78530000D03*
%TD*%
%TO.C,J8*%
X171900000Y-166400000D03*
%TD*%
%TO.C,J8*%
X151800000Y-166400000D03*
%TD*%
%TO.C,J8*%
X131700000Y-166400000D03*
%TD*%
%TO.C,J8*%
X111600000Y-166400000D03*
%TD*%
%TO.C,J8*%
X91500000Y-166400000D03*
%TD*%
%TO.C,J8*%
X171900000Y-146300000D03*
%TD*%
%TO.C,J8*%
X151800000Y-146300000D03*
%TD*%
%TO.C,J8*%
X131700000Y-146300000D03*
%TD*%
%TO.C,J8*%
X111600000Y-146300000D03*
%TD*%
%TO.C,J8*%
X91500000Y-146300000D03*
%TD*%
%TO.C,J8*%
X171900000Y-126200000D03*
%TD*%
%TO.C,J8*%
X151800000Y-126200000D03*
%TD*%
%TO.C,J8*%
X131700000Y-126200000D03*
%TD*%
%TO.C,J8*%
X111600000Y-126200000D03*
%TD*%
%TO.C,J8*%
X91500000Y-126200000D03*
%TD*%
%TO.C,J8*%
X171900000Y-106100000D03*
%TD*%
%TO.C,J8*%
X151800000Y-106100000D03*
%TD*%
%TO.C,J8*%
X131700000Y-106100000D03*
%TD*%
%TO.C,J8*%
X111600000Y-106100000D03*
%TD*%
%TO.C,J8*%
X91500000Y-106100000D03*
%TD*%
%TO.C,J8*%
X171900000Y-86000000D03*
%TD*%
%TO.C,J8*%
X151800000Y-86000000D03*
%TD*%
%TO.C,J8*%
X131700000Y-86000000D03*
%TD*%
%TO.C,J8*%
X111600000Y-86000000D03*
%TD*%
%TO.C,J7*%
X188400000Y-149900000D03*
%TD*%
%TO.C,J7*%
X168300000Y-149900000D03*
%TD*%
%TO.C,J7*%
X148200000Y-149900000D03*
%TD*%
%TO.C,J7*%
X128100000Y-149900000D03*
%TD*%
%TO.C,J7*%
X108000000Y-149900000D03*
%TD*%
%TO.C,J7*%
X188400000Y-129800000D03*
%TD*%
%TO.C,J7*%
X168300000Y-129800000D03*
%TD*%
%TO.C,J7*%
X148200000Y-129800000D03*
%TD*%
%TO.C,J7*%
X128100000Y-129800000D03*
%TD*%
%TO.C,J7*%
X108000000Y-129800000D03*
%TD*%
%TO.C,J7*%
X188400000Y-109700000D03*
%TD*%
%TO.C,J7*%
X168300000Y-109700000D03*
%TD*%
%TO.C,J7*%
X148200000Y-109700000D03*
%TD*%
%TO.C,J7*%
X128100000Y-109700000D03*
%TD*%
%TO.C,J7*%
X108000000Y-109700000D03*
%TD*%
%TO.C,J7*%
X188400000Y-89600000D03*
%TD*%
%TO.C,J7*%
X168300000Y-89600000D03*
%TD*%
%TO.C,J7*%
X148200000Y-89600000D03*
%TD*%
%TO.C,J7*%
X128100000Y-89600000D03*
%TD*%
%TO.C,J7*%
X108000000Y-89600000D03*
%TD*%
%TO.C,J7*%
X188400000Y-69500000D03*
%TD*%
%TO.C,J7*%
X168300000Y-69500000D03*
%TD*%
%TO.C,J7*%
X148200000Y-69500000D03*
%TD*%
%TO.C,J7*%
X128100000Y-69500000D03*
%TD*%
%TO.C,J5*%
X185400000Y-166400000D03*
%TD*%
%TO.C,J5*%
X165300000Y-166400000D03*
%TD*%
%TO.C,J5*%
X145200000Y-166400000D03*
%TD*%
%TO.C,J5*%
X125100000Y-166400000D03*
%TD*%
%TO.C,J5*%
X105000000Y-166400000D03*
%TD*%
%TO.C,J5*%
X185400000Y-146300000D03*
%TD*%
%TO.C,J5*%
X165300000Y-146300000D03*
%TD*%
%TO.C,J5*%
X145200000Y-146300000D03*
%TD*%
%TO.C,J5*%
X125100000Y-146300000D03*
%TD*%
%TO.C,J5*%
X105000000Y-146300000D03*
%TD*%
%TO.C,J5*%
X185400000Y-126200000D03*
%TD*%
%TO.C,J5*%
X165300000Y-126200000D03*
%TD*%
%TO.C,J5*%
X145200000Y-126200000D03*
%TD*%
%TO.C,J5*%
X125100000Y-126200000D03*
%TD*%
%TO.C,J5*%
X105000000Y-126200000D03*
%TD*%
%TO.C,J5*%
X185400000Y-106100000D03*
%TD*%
%TO.C,J5*%
X165300000Y-106100000D03*
%TD*%
%TO.C,J5*%
X145200000Y-106100000D03*
%TD*%
%TO.C,J5*%
X125100000Y-106100000D03*
%TD*%
%TO.C,J5*%
X105000000Y-106100000D03*
%TD*%
%TO.C,J5*%
X185400000Y-86000000D03*
%TD*%
%TO.C,J5*%
X165300000Y-86000000D03*
%TD*%
%TO.C,J5*%
X145200000Y-86000000D03*
%TD*%
%TO.C,J5*%
X125100000Y-86000000D03*
%TD*%
%TO.C,J4*%
X174900000Y-166400000D03*
%TD*%
%TO.C,J4*%
X154800000Y-166400000D03*
%TD*%
%TO.C,J4*%
X134700000Y-166400000D03*
%TD*%
%TO.C,J4*%
X114600000Y-166400000D03*
%TD*%
%TO.C,J4*%
X94500000Y-166400000D03*
%TD*%
%TO.C,J4*%
X174900000Y-146300000D03*
%TD*%
%TO.C,J4*%
X154800000Y-146300000D03*
%TD*%
%TO.C,J4*%
X134700000Y-146300000D03*
%TD*%
%TO.C,J4*%
X114600000Y-146300000D03*
%TD*%
%TO.C,J4*%
X94500000Y-146300000D03*
%TD*%
%TO.C,J4*%
X174900000Y-126200000D03*
%TD*%
%TO.C,J4*%
X154800000Y-126200000D03*
%TD*%
%TO.C,J4*%
X134700000Y-126200000D03*
%TD*%
%TO.C,J4*%
X114600000Y-126200000D03*
%TD*%
%TO.C,J4*%
X94500000Y-126200000D03*
%TD*%
%TO.C,J4*%
X174900000Y-106100000D03*
%TD*%
%TO.C,J4*%
X154800000Y-106100000D03*
%TD*%
%TO.C,J4*%
X134700000Y-106100000D03*
%TD*%
%TO.C,J4*%
X114600000Y-106100000D03*
%TD*%
%TO.C,J4*%
X94500000Y-106100000D03*
%TD*%
%TO.C,J4*%
X174900000Y-86000000D03*
%TD*%
%TO.C,J4*%
X154800000Y-86000000D03*
%TD*%
%TO.C,J4*%
X134700000Y-86000000D03*
%TD*%
%TO.C,J4*%
X114600000Y-86000000D03*
%TD*%
%TO.C,J3*%
X171900000Y-158930000D03*
%TD*%
%TO.C,J3*%
X151800000Y-158930000D03*
%TD*%
%TO.C,J3*%
X131700000Y-158930000D03*
%TD*%
%TO.C,J3*%
X111600000Y-158930000D03*
%TD*%
%TO.C,J3*%
X91500000Y-158930000D03*
%TD*%
%TO.C,J3*%
X171900000Y-138830000D03*
%TD*%
%TO.C,J3*%
X151800000Y-138830000D03*
%TD*%
%TO.C,J3*%
X131700000Y-138830000D03*
%TD*%
%TO.C,J3*%
X111600000Y-138830000D03*
%TD*%
%TO.C,J3*%
X91500000Y-138830000D03*
%TD*%
%TO.C,J3*%
X171900000Y-118730000D03*
%TD*%
%TO.C,J3*%
X151800000Y-118730000D03*
%TD*%
%TO.C,J3*%
X131700000Y-118730000D03*
%TD*%
%TO.C,J3*%
X111600000Y-118730000D03*
%TD*%
%TO.C,J3*%
X91500000Y-118730000D03*
%TD*%
%TO.C,J3*%
X171900000Y-98630000D03*
%TD*%
%TO.C,J3*%
X151800000Y-98630000D03*
%TD*%
%TO.C,J3*%
X131700000Y-98630000D03*
%TD*%
%TO.C,J3*%
X111600000Y-98630000D03*
%TD*%
%TO.C,J3*%
X91500000Y-98630000D03*
%TD*%
%TO.C,J3*%
X171900000Y-78530000D03*
%TD*%
%TO.C,J3*%
X151800000Y-78530000D03*
%TD*%
%TO.C,J3*%
X131700000Y-78530000D03*
%TD*%
%TO.C,J3*%
X111600000Y-78530000D03*
%TD*%
%TO.C,J1*%
X188400000Y-166400000D03*
%TD*%
%TO.C,J1*%
X168300000Y-166400000D03*
%TD*%
%TO.C,J1*%
X148200000Y-166400000D03*
%TD*%
%TO.C,J1*%
X128100000Y-166400000D03*
%TD*%
%TO.C,J1*%
X108000000Y-166400000D03*
%TD*%
%TO.C,J1*%
X188400000Y-146300000D03*
%TD*%
%TO.C,J1*%
X168300000Y-146300000D03*
%TD*%
%TO.C,J1*%
X148200000Y-146300000D03*
%TD*%
%TO.C,J1*%
X128100000Y-146300000D03*
%TD*%
%TO.C,J1*%
X108000000Y-146300000D03*
%TD*%
%TO.C,J1*%
X188400000Y-126200000D03*
%TD*%
%TO.C,J1*%
X168300000Y-126200000D03*
%TD*%
%TO.C,J1*%
X148200000Y-126200000D03*
%TD*%
%TO.C,J1*%
X128100000Y-126200000D03*
%TD*%
%TO.C,J1*%
X108000000Y-126200000D03*
%TD*%
%TO.C,J1*%
X188400000Y-106100000D03*
%TD*%
%TO.C,J1*%
X168300000Y-106100000D03*
%TD*%
%TO.C,J1*%
X148200000Y-106100000D03*
%TD*%
%TO.C,J1*%
X128100000Y-106100000D03*
%TD*%
%TO.C,J1*%
X108000000Y-106100000D03*
%TD*%
%TO.C,J1*%
X188400000Y-86000000D03*
%TD*%
%TO.C,J1*%
X168300000Y-86000000D03*
%TD*%
%TO.C,J1*%
X148200000Y-86000000D03*
%TD*%
%TO.C,J1*%
X128100000Y-86000000D03*
%TD*%
D10*
%TO.C,REF\u002A\u002A*%
X182605000Y-148105000D03*
X181905000Y-148105000D03*
X181205000Y-148105000D03*
X180505000Y-148105000D03*
X179805000Y-148105000D03*
X179105000Y-148105000D03*
X178405000Y-148105000D03*
X177705000Y-148105000D03*
%TD*%
%TO.C,REF\u002A\u002A*%
X162505000Y-148105000D03*
X161805000Y-148105000D03*
X161105000Y-148105000D03*
X160405000Y-148105000D03*
X159705000Y-148105000D03*
X159005000Y-148105000D03*
X158305000Y-148105000D03*
X157605000Y-148105000D03*
%TD*%
%TO.C,REF\u002A\u002A*%
X142405000Y-148105000D03*
X141705000Y-148105000D03*
X141005000Y-148105000D03*
X140305000Y-148105000D03*
X139605000Y-148105000D03*
X138905000Y-148105000D03*
X138205000Y-148105000D03*
X137505000Y-148105000D03*
%TD*%
%TO.C,REF\u002A\u002A*%
X122305000Y-148105000D03*
X121605000Y-148105000D03*
X120905000Y-148105000D03*
X120205000Y-148105000D03*
X119505000Y-148105000D03*
X118805000Y-148105000D03*
X118105000Y-148105000D03*
X117405000Y-148105000D03*
%TD*%
%TO.C,REF\u002A\u002A*%
X102205000Y-148105000D03*
X101505000Y-148105000D03*
X100805000Y-148105000D03*
X100105000Y-148105000D03*
X99405000Y-148105000D03*
X98705000Y-148105000D03*
X98005000Y-148105000D03*
X97305000Y-148105000D03*
%TD*%
%TO.C,REF\u002A\u002A*%
X182605000Y-128005000D03*
X181905000Y-128005000D03*
X181205000Y-128005000D03*
X180505000Y-128005000D03*
X179805000Y-128005000D03*
X179105000Y-128005000D03*
X178405000Y-128005000D03*
X177705000Y-128005000D03*
%TD*%
%TO.C,REF\u002A\u002A*%
X162505000Y-128005000D03*
X161805000Y-128005000D03*
X161105000Y-128005000D03*
X160405000Y-128005000D03*
X159705000Y-128005000D03*
X159005000Y-128005000D03*
X158305000Y-128005000D03*
X157605000Y-128005000D03*
%TD*%
%TO.C,REF\u002A\u002A*%
X142405000Y-128005000D03*
X141705000Y-128005000D03*
X141005000Y-128005000D03*
X140305000Y-128005000D03*
X139605000Y-128005000D03*
X138905000Y-128005000D03*
X138205000Y-128005000D03*
X137505000Y-128005000D03*
%TD*%
%TO.C,REF\u002A\u002A*%
X122305000Y-128005000D03*
X121605000Y-128005000D03*
X120905000Y-128005000D03*
X120205000Y-128005000D03*
X119505000Y-128005000D03*
X118805000Y-128005000D03*
X118105000Y-128005000D03*
X117405000Y-128005000D03*
%TD*%
%TO.C,REF\u002A\u002A*%
X102205000Y-128005000D03*
X101505000Y-128005000D03*
X100805000Y-128005000D03*
X100105000Y-128005000D03*
X99405000Y-128005000D03*
X98705000Y-128005000D03*
X98005000Y-128005000D03*
X97305000Y-128005000D03*
%TD*%
%TO.C,REF\u002A\u002A*%
X182605000Y-107905000D03*
X181905000Y-107905000D03*
X181205000Y-107905000D03*
X180505000Y-107905000D03*
X179805000Y-107905000D03*
X179105000Y-107905000D03*
X178405000Y-107905000D03*
X177705000Y-107905000D03*
%TD*%
%TO.C,REF\u002A\u002A*%
X162505000Y-107905000D03*
X161805000Y-107905000D03*
X161105000Y-107905000D03*
X160405000Y-107905000D03*
X159705000Y-107905000D03*
X159005000Y-107905000D03*
X158305000Y-107905000D03*
X157605000Y-107905000D03*
%TD*%
%TO.C,REF\u002A\u002A*%
X142405000Y-107905000D03*
X141705000Y-107905000D03*
X141005000Y-107905000D03*
X140305000Y-107905000D03*
X139605000Y-107905000D03*
X138905000Y-107905000D03*
X138205000Y-107905000D03*
X137505000Y-107905000D03*
%TD*%
%TO.C,REF\u002A\u002A*%
X122305000Y-107905000D03*
X121605000Y-107905000D03*
X120905000Y-107905000D03*
X120205000Y-107905000D03*
X119505000Y-107905000D03*
X118805000Y-107905000D03*
X118105000Y-107905000D03*
X117405000Y-107905000D03*
%TD*%
%TO.C,REF\u002A\u002A*%
X102205000Y-107905000D03*
X101505000Y-107905000D03*
X100805000Y-107905000D03*
X100105000Y-107905000D03*
X99405000Y-107905000D03*
X98705000Y-107905000D03*
X98005000Y-107905000D03*
X97305000Y-107905000D03*
%TD*%
%TO.C,REF\u002A\u002A*%
X182605000Y-87805000D03*
X181905000Y-87805000D03*
X181205000Y-87805000D03*
X180505000Y-87805000D03*
X179805000Y-87805000D03*
X179105000Y-87805000D03*
X178405000Y-87805000D03*
X177705000Y-87805000D03*
%TD*%
%TO.C,REF\u002A\u002A*%
X162505000Y-87805000D03*
X161805000Y-87805000D03*
X161105000Y-87805000D03*
X160405000Y-87805000D03*
X159705000Y-87805000D03*
X159005000Y-87805000D03*
X158305000Y-87805000D03*
X157605000Y-87805000D03*
%TD*%
%TO.C,REF\u002A\u002A*%
X142405000Y-87805000D03*
X141705000Y-87805000D03*
X141005000Y-87805000D03*
X140305000Y-87805000D03*
X139605000Y-87805000D03*
X138905000Y-87805000D03*
X138205000Y-87805000D03*
X137505000Y-87805000D03*
%TD*%
%TO.C,REF\u002A\u002A*%
X122305000Y-87805000D03*
X121605000Y-87805000D03*
X120905000Y-87805000D03*
X120205000Y-87805000D03*
X119505000Y-87805000D03*
X118805000Y-87805000D03*
X118105000Y-87805000D03*
X117405000Y-87805000D03*
%TD*%
%TO.C,C1*%
G36*
G01*
X179250000Y-165849999D02*
X179250000Y-167150001D01*
G75*
G02*
X179000001Y-167400000I-249999J0D01*
G01*
X178349999Y-167400000D01*
G75*
G02*
X178100000Y-167150001I0J249999D01*
G01*
X178100000Y-165849999D01*
G75*
G02*
X178349999Y-165600000I249999J0D01*
G01*
X179000001Y-165600000D01*
G75*
G02*
X179250000Y-165849999I0J-249999D01*
G01*
G37*
G36*
G01*
X182200000Y-165849999D02*
X182200000Y-167150001D01*
G75*
G02*
X181950001Y-167400000I-249999J0D01*
G01*
X181299999Y-167400000D01*
G75*
G02*
X181050000Y-167150001I0J249999D01*
G01*
X181050000Y-165849999D01*
G75*
G02*
X181299999Y-165600000I249999J0D01*
G01*
X181950001Y-165600000D01*
G75*
G02*
X182200000Y-165849999I0J-249999D01*
G01*
G37*
%TD*%
%TO.C,C1*%
G36*
G01*
X159150000Y-165849999D02*
X159150000Y-167150001D01*
G75*
G02*
X158900001Y-167400000I-249999J0D01*
G01*
X158249999Y-167400000D01*
G75*
G02*
X158000000Y-167150001I0J249999D01*
G01*
X158000000Y-165849999D01*
G75*
G02*
X158249999Y-165600000I249999J0D01*
G01*
X158900001Y-165600000D01*
G75*
G02*
X159150000Y-165849999I0J-249999D01*
G01*
G37*
G36*
G01*
X162100000Y-165849999D02*
X162100000Y-167150001D01*
G75*
G02*
X161850001Y-167400000I-249999J0D01*
G01*
X161199999Y-167400000D01*
G75*
G02*
X160950000Y-167150001I0J249999D01*
G01*
X160950000Y-165849999D01*
G75*
G02*
X161199999Y-165600000I249999J0D01*
G01*
X161850001Y-165600000D01*
G75*
G02*
X162100000Y-165849999I0J-249999D01*
G01*
G37*
%TD*%
%TO.C,C1*%
G36*
G01*
X139050000Y-165849999D02*
X139050000Y-167150001D01*
G75*
G02*
X138800001Y-167400000I-249999J0D01*
G01*
X138149999Y-167400000D01*
G75*
G02*
X137900000Y-167150001I0J249999D01*
G01*
X137900000Y-165849999D01*
G75*
G02*
X138149999Y-165600000I249999J0D01*
G01*
X138800001Y-165600000D01*
G75*
G02*
X139050000Y-165849999I0J-249999D01*
G01*
G37*
G36*
G01*
X142000000Y-165849999D02*
X142000000Y-167150001D01*
G75*
G02*
X141750001Y-167400000I-249999J0D01*
G01*
X141099999Y-167400000D01*
G75*
G02*
X140850000Y-167150001I0J249999D01*
G01*
X140850000Y-165849999D01*
G75*
G02*
X141099999Y-165600000I249999J0D01*
G01*
X141750001Y-165600000D01*
G75*
G02*
X142000000Y-165849999I0J-249999D01*
G01*
G37*
%TD*%
%TO.C,C1*%
G36*
G01*
X118950000Y-165849999D02*
X118950000Y-167150001D01*
G75*
G02*
X118700001Y-167400000I-249999J0D01*
G01*
X118049999Y-167400000D01*
G75*
G02*
X117800000Y-167150001I0J249999D01*
G01*
X117800000Y-165849999D01*
G75*
G02*
X118049999Y-165600000I249999J0D01*
G01*
X118700001Y-165600000D01*
G75*
G02*
X118950000Y-165849999I0J-249999D01*
G01*
G37*
G36*
G01*
X121900000Y-165849999D02*
X121900000Y-167150001D01*
G75*
G02*
X121650001Y-167400000I-249999J0D01*
G01*
X120999999Y-167400000D01*
G75*
G02*
X120750000Y-167150001I0J249999D01*
G01*
X120750000Y-165849999D01*
G75*
G02*
X120999999Y-165600000I249999J0D01*
G01*
X121650001Y-165600000D01*
G75*
G02*
X121900000Y-165849999I0J-249999D01*
G01*
G37*
%TD*%
%TO.C,C1*%
G36*
G01*
X98850000Y-165849999D02*
X98850000Y-167150001D01*
G75*
G02*
X98600001Y-167400000I-249999J0D01*
G01*
X97949999Y-167400000D01*
G75*
G02*
X97700000Y-167150001I0J249999D01*
G01*
X97700000Y-165849999D01*
G75*
G02*
X97949999Y-165600000I249999J0D01*
G01*
X98600001Y-165600000D01*
G75*
G02*
X98850000Y-165849999I0J-249999D01*
G01*
G37*
G36*
G01*
X101800000Y-165849999D02*
X101800000Y-167150001D01*
G75*
G02*
X101550001Y-167400000I-249999J0D01*
G01*
X100899999Y-167400000D01*
G75*
G02*
X100650000Y-167150001I0J249999D01*
G01*
X100650000Y-165849999D01*
G75*
G02*
X100899999Y-165600000I249999J0D01*
G01*
X101550001Y-165600000D01*
G75*
G02*
X101800000Y-165849999I0J-249999D01*
G01*
G37*
%TD*%
%TO.C,C1*%
G36*
G01*
X179250000Y-145749999D02*
X179250000Y-147050001D01*
G75*
G02*
X179000001Y-147300000I-249999J0D01*
G01*
X178349999Y-147300000D01*
G75*
G02*
X178100000Y-147050001I0J249999D01*
G01*
X178100000Y-145749999D01*
G75*
G02*
X178349999Y-145500000I249999J0D01*
G01*
X179000001Y-145500000D01*
G75*
G02*
X179250000Y-145749999I0J-249999D01*
G01*
G37*
G36*
G01*
X182200000Y-145749999D02*
X182200000Y-147050001D01*
G75*
G02*
X181950001Y-147300000I-249999J0D01*
G01*
X181299999Y-147300000D01*
G75*
G02*
X181050000Y-147050001I0J249999D01*
G01*
X181050000Y-145749999D01*
G75*
G02*
X181299999Y-145500000I249999J0D01*
G01*
X181950001Y-145500000D01*
G75*
G02*
X182200000Y-145749999I0J-249999D01*
G01*
G37*
%TD*%
%TO.C,C1*%
G36*
G01*
X159150000Y-145749999D02*
X159150000Y-147050001D01*
G75*
G02*
X158900001Y-147300000I-249999J0D01*
G01*
X158249999Y-147300000D01*
G75*
G02*
X158000000Y-147050001I0J249999D01*
G01*
X158000000Y-145749999D01*
G75*
G02*
X158249999Y-145500000I249999J0D01*
G01*
X158900001Y-145500000D01*
G75*
G02*
X159150000Y-145749999I0J-249999D01*
G01*
G37*
G36*
G01*
X162100000Y-145749999D02*
X162100000Y-147050001D01*
G75*
G02*
X161850001Y-147300000I-249999J0D01*
G01*
X161199999Y-147300000D01*
G75*
G02*
X160950000Y-147050001I0J249999D01*
G01*
X160950000Y-145749999D01*
G75*
G02*
X161199999Y-145500000I249999J0D01*
G01*
X161850001Y-145500000D01*
G75*
G02*
X162100000Y-145749999I0J-249999D01*
G01*
G37*
%TD*%
%TO.C,C1*%
G36*
G01*
X139050000Y-145749999D02*
X139050000Y-147050001D01*
G75*
G02*
X138800001Y-147300000I-249999J0D01*
G01*
X138149999Y-147300000D01*
G75*
G02*
X137900000Y-147050001I0J249999D01*
G01*
X137900000Y-145749999D01*
G75*
G02*
X138149999Y-145500000I249999J0D01*
G01*
X138800001Y-145500000D01*
G75*
G02*
X139050000Y-145749999I0J-249999D01*
G01*
G37*
G36*
G01*
X142000000Y-145749999D02*
X142000000Y-147050001D01*
G75*
G02*
X141750001Y-147300000I-249999J0D01*
G01*
X141099999Y-147300000D01*
G75*
G02*
X140850000Y-147050001I0J249999D01*
G01*
X140850000Y-145749999D01*
G75*
G02*
X141099999Y-145500000I249999J0D01*
G01*
X141750001Y-145500000D01*
G75*
G02*
X142000000Y-145749999I0J-249999D01*
G01*
G37*
%TD*%
%TO.C,C1*%
G36*
G01*
X118950000Y-145749999D02*
X118950000Y-147050001D01*
G75*
G02*
X118700001Y-147300000I-249999J0D01*
G01*
X118049999Y-147300000D01*
G75*
G02*
X117800000Y-147050001I0J249999D01*
G01*
X117800000Y-145749999D01*
G75*
G02*
X118049999Y-145500000I249999J0D01*
G01*
X118700001Y-145500000D01*
G75*
G02*
X118950000Y-145749999I0J-249999D01*
G01*
G37*
G36*
G01*
X121900000Y-145749999D02*
X121900000Y-147050001D01*
G75*
G02*
X121650001Y-147300000I-249999J0D01*
G01*
X120999999Y-147300000D01*
G75*
G02*
X120750000Y-147050001I0J249999D01*
G01*
X120750000Y-145749999D01*
G75*
G02*
X120999999Y-145500000I249999J0D01*
G01*
X121650001Y-145500000D01*
G75*
G02*
X121900000Y-145749999I0J-249999D01*
G01*
G37*
%TD*%
%TO.C,C1*%
G36*
G01*
X98850000Y-145749999D02*
X98850000Y-147050001D01*
G75*
G02*
X98600001Y-147300000I-249999J0D01*
G01*
X97949999Y-147300000D01*
G75*
G02*
X97700000Y-147050001I0J249999D01*
G01*
X97700000Y-145749999D01*
G75*
G02*
X97949999Y-145500000I249999J0D01*
G01*
X98600001Y-145500000D01*
G75*
G02*
X98850000Y-145749999I0J-249999D01*
G01*
G37*
G36*
G01*
X101800000Y-145749999D02*
X101800000Y-147050001D01*
G75*
G02*
X101550001Y-147300000I-249999J0D01*
G01*
X100899999Y-147300000D01*
G75*
G02*
X100650000Y-147050001I0J249999D01*
G01*
X100650000Y-145749999D01*
G75*
G02*
X100899999Y-145500000I249999J0D01*
G01*
X101550001Y-145500000D01*
G75*
G02*
X101800000Y-145749999I0J-249999D01*
G01*
G37*
%TD*%
%TO.C,C1*%
G36*
G01*
X179250000Y-125649999D02*
X179250000Y-126950001D01*
G75*
G02*
X179000001Y-127200000I-249999J0D01*
G01*
X178349999Y-127200000D01*
G75*
G02*
X178100000Y-126950001I0J249999D01*
G01*
X178100000Y-125649999D01*
G75*
G02*
X178349999Y-125400000I249999J0D01*
G01*
X179000001Y-125400000D01*
G75*
G02*
X179250000Y-125649999I0J-249999D01*
G01*
G37*
G36*
G01*
X182200000Y-125649999D02*
X182200000Y-126950001D01*
G75*
G02*
X181950001Y-127200000I-249999J0D01*
G01*
X181299999Y-127200000D01*
G75*
G02*
X181050000Y-126950001I0J249999D01*
G01*
X181050000Y-125649999D01*
G75*
G02*
X181299999Y-125400000I249999J0D01*
G01*
X181950001Y-125400000D01*
G75*
G02*
X182200000Y-125649999I0J-249999D01*
G01*
G37*
%TD*%
%TO.C,C1*%
G36*
G01*
X159150000Y-125649999D02*
X159150000Y-126950001D01*
G75*
G02*
X158900001Y-127200000I-249999J0D01*
G01*
X158249999Y-127200000D01*
G75*
G02*
X158000000Y-126950001I0J249999D01*
G01*
X158000000Y-125649999D01*
G75*
G02*
X158249999Y-125400000I249999J0D01*
G01*
X158900001Y-125400000D01*
G75*
G02*
X159150000Y-125649999I0J-249999D01*
G01*
G37*
G36*
G01*
X162100000Y-125649999D02*
X162100000Y-126950001D01*
G75*
G02*
X161850001Y-127200000I-249999J0D01*
G01*
X161199999Y-127200000D01*
G75*
G02*
X160950000Y-126950001I0J249999D01*
G01*
X160950000Y-125649999D01*
G75*
G02*
X161199999Y-125400000I249999J0D01*
G01*
X161850001Y-125400000D01*
G75*
G02*
X162100000Y-125649999I0J-249999D01*
G01*
G37*
%TD*%
%TO.C,C1*%
G36*
G01*
X139050000Y-125649999D02*
X139050000Y-126950001D01*
G75*
G02*
X138800001Y-127200000I-249999J0D01*
G01*
X138149999Y-127200000D01*
G75*
G02*
X137900000Y-126950001I0J249999D01*
G01*
X137900000Y-125649999D01*
G75*
G02*
X138149999Y-125400000I249999J0D01*
G01*
X138800001Y-125400000D01*
G75*
G02*
X139050000Y-125649999I0J-249999D01*
G01*
G37*
G36*
G01*
X142000000Y-125649999D02*
X142000000Y-126950001D01*
G75*
G02*
X141750001Y-127200000I-249999J0D01*
G01*
X141099999Y-127200000D01*
G75*
G02*
X140850000Y-126950001I0J249999D01*
G01*
X140850000Y-125649999D01*
G75*
G02*
X141099999Y-125400000I249999J0D01*
G01*
X141750001Y-125400000D01*
G75*
G02*
X142000000Y-125649999I0J-249999D01*
G01*
G37*
%TD*%
%TO.C,C1*%
G36*
G01*
X118950000Y-125649999D02*
X118950000Y-126950001D01*
G75*
G02*
X118700001Y-127200000I-249999J0D01*
G01*
X118049999Y-127200000D01*
G75*
G02*
X117800000Y-126950001I0J249999D01*
G01*
X117800000Y-125649999D01*
G75*
G02*
X118049999Y-125400000I249999J0D01*
G01*
X118700001Y-125400000D01*
G75*
G02*
X118950000Y-125649999I0J-249999D01*
G01*
G37*
G36*
G01*
X121900000Y-125649999D02*
X121900000Y-126950001D01*
G75*
G02*
X121650001Y-127200000I-249999J0D01*
G01*
X120999999Y-127200000D01*
G75*
G02*
X120750000Y-126950001I0J249999D01*
G01*
X120750000Y-125649999D01*
G75*
G02*
X120999999Y-125400000I249999J0D01*
G01*
X121650001Y-125400000D01*
G75*
G02*
X121900000Y-125649999I0J-249999D01*
G01*
G37*
%TD*%
%TO.C,C1*%
G36*
G01*
X98850000Y-125649999D02*
X98850000Y-126950001D01*
G75*
G02*
X98600001Y-127200000I-249999J0D01*
G01*
X97949999Y-127200000D01*
G75*
G02*
X97700000Y-126950001I0J249999D01*
G01*
X97700000Y-125649999D01*
G75*
G02*
X97949999Y-125400000I249999J0D01*
G01*
X98600001Y-125400000D01*
G75*
G02*
X98850000Y-125649999I0J-249999D01*
G01*
G37*
G36*
G01*
X101800000Y-125649999D02*
X101800000Y-126950001D01*
G75*
G02*
X101550001Y-127200000I-249999J0D01*
G01*
X100899999Y-127200000D01*
G75*
G02*
X100650000Y-126950001I0J249999D01*
G01*
X100650000Y-125649999D01*
G75*
G02*
X100899999Y-125400000I249999J0D01*
G01*
X101550001Y-125400000D01*
G75*
G02*
X101800000Y-125649999I0J-249999D01*
G01*
G37*
%TD*%
%TO.C,C1*%
G36*
G01*
X179250000Y-105549999D02*
X179250000Y-106850001D01*
G75*
G02*
X179000001Y-107100000I-249999J0D01*
G01*
X178349999Y-107100000D01*
G75*
G02*
X178100000Y-106850001I0J249999D01*
G01*
X178100000Y-105549999D01*
G75*
G02*
X178349999Y-105300000I249999J0D01*
G01*
X179000001Y-105300000D01*
G75*
G02*
X179250000Y-105549999I0J-249999D01*
G01*
G37*
G36*
G01*
X182200000Y-105549999D02*
X182200000Y-106850001D01*
G75*
G02*
X181950001Y-107100000I-249999J0D01*
G01*
X181299999Y-107100000D01*
G75*
G02*
X181050000Y-106850001I0J249999D01*
G01*
X181050000Y-105549999D01*
G75*
G02*
X181299999Y-105300000I249999J0D01*
G01*
X181950001Y-105300000D01*
G75*
G02*
X182200000Y-105549999I0J-249999D01*
G01*
G37*
%TD*%
%TO.C,C1*%
G36*
G01*
X159150000Y-105549999D02*
X159150000Y-106850001D01*
G75*
G02*
X158900001Y-107100000I-249999J0D01*
G01*
X158249999Y-107100000D01*
G75*
G02*
X158000000Y-106850001I0J249999D01*
G01*
X158000000Y-105549999D01*
G75*
G02*
X158249999Y-105300000I249999J0D01*
G01*
X158900001Y-105300000D01*
G75*
G02*
X159150000Y-105549999I0J-249999D01*
G01*
G37*
G36*
G01*
X162100000Y-105549999D02*
X162100000Y-106850001D01*
G75*
G02*
X161850001Y-107100000I-249999J0D01*
G01*
X161199999Y-107100000D01*
G75*
G02*
X160950000Y-106850001I0J249999D01*
G01*
X160950000Y-105549999D01*
G75*
G02*
X161199999Y-105300000I249999J0D01*
G01*
X161850001Y-105300000D01*
G75*
G02*
X162100000Y-105549999I0J-249999D01*
G01*
G37*
%TD*%
%TO.C,C1*%
G36*
G01*
X139050000Y-105549999D02*
X139050000Y-106850001D01*
G75*
G02*
X138800001Y-107100000I-249999J0D01*
G01*
X138149999Y-107100000D01*
G75*
G02*
X137900000Y-106850001I0J249999D01*
G01*
X137900000Y-105549999D01*
G75*
G02*
X138149999Y-105300000I249999J0D01*
G01*
X138800001Y-105300000D01*
G75*
G02*
X139050000Y-105549999I0J-249999D01*
G01*
G37*
G36*
G01*
X142000000Y-105549999D02*
X142000000Y-106850001D01*
G75*
G02*
X141750001Y-107100000I-249999J0D01*
G01*
X141099999Y-107100000D01*
G75*
G02*
X140850000Y-106850001I0J249999D01*
G01*
X140850000Y-105549999D01*
G75*
G02*
X141099999Y-105300000I249999J0D01*
G01*
X141750001Y-105300000D01*
G75*
G02*
X142000000Y-105549999I0J-249999D01*
G01*
G37*
%TD*%
%TO.C,C1*%
G36*
G01*
X118950000Y-105549999D02*
X118950000Y-106850001D01*
G75*
G02*
X118700001Y-107100000I-249999J0D01*
G01*
X118049999Y-107100000D01*
G75*
G02*
X117800000Y-106850001I0J249999D01*
G01*
X117800000Y-105549999D01*
G75*
G02*
X118049999Y-105300000I249999J0D01*
G01*
X118700001Y-105300000D01*
G75*
G02*
X118950000Y-105549999I0J-249999D01*
G01*
G37*
G36*
G01*
X121900000Y-105549999D02*
X121900000Y-106850001D01*
G75*
G02*
X121650001Y-107100000I-249999J0D01*
G01*
X120999999Y-107100000D01*
G75*
G02*
X120750000Y-106850001I0J249999D01*
G01*
X120750000Y-105549999D01*
G75*
G02*
X120999999Y-105300000I249999J0D01*
G01*
X121650001Y-105300000D01*
G75*
G02*
X121900000Y-105549999I0J-249999D01*
G01*
G37*
%TD*%
%TO.C,C1*%
G36*
G01*
X98850000Y-105549999D02*
X98850000Y-106850001D01*
G75*
G02*
X98600001Y-107100000I-249999J0D01*
G01*
X97949999Y-107100000D01*
G75*
G02*
X97700000Y-106850001I0J249999D01*
G01*
X97700000Y-105549999D01*
G75*
G02*
X97949999Y-105300000I249999J0D01*
G01*
X98600001Y-105300000D01*
G75*
G02*
X98850000Y-105549999I0J-249999D01*
G01*
G37*
G36*
G01*
X101800000Y-105549999D02*
X101800000Y-106850001D01*
G75*
G02*
X101550001Y-107100000I-249999J0D01*
G01*
X100899999Y-107100000D01*
G75*
G02*
X100650000Y-106850001I0J249999D01*
G01*
X100650000Y-105549999D01*
G75*
G02*
X100899999Y-105300000I249999J0D01*
G01*
X101550001Y-105300000D01*
G75*
G02*
X101800000Y-105549999I0J-249999D01*
G01*
G37*
%TD*%
%TO.C,C1*%
G36*
G01*
X179250000Y-85449999D02*
X179250000Y-86750001D01*
G75*
G02*
X179000001Y-87000000I-249999J0D01*
G01*
X178349999Y-87000000D01*
G75*
G02*
X178100000Y-86750001I0J249999D01*
G01*
X178100000Y-85449999D01*
G75*
G02*
X178349999Y-85200000I249999J0D01*
G01*
X179000001Y-85200000D01*
G75*
G02*
X179250000Y-85449999I0J-249999D01*
G01*
G37*
G36*
G01*
X182200000Y-85449999D02*
X182200000Y-86750001D01*
G75*
G02*
X181950001Y-87000000I-249999J0D01*
G01*
X181299999Y-87000000D01*
G75*
G02*
X181050000Y-86750001I0J249999D01*
G01*
X181050000Y-85449999D01*
G75*
G02*
X181299999Y-85200000I249999J0D01*
G01*
X181950001Y-85200000D01*
G75*
G02*
X182200000Y-85449999I0J-249999D01*
G01*
G37*
%TD*%
%TO.C,C1*%
G36*
G01*
X159150000Y-85449999D02*
X159150000Y-86750001D01*
G75*
G02*
X158900001Y-87000000I-249999J0D01*
G01*
X158249999Y-87000000D01*
G75*
G02*
X158000000Y-86750001I0J249999D01*
G01*
X158000000Y-85449999D01*
G75*
G02*
X158249999Y-85200000I249999J0D01*
G01*
X158900001Y-85200000D01*
G75*
G02*
X159150000Y-85449999I0J-249999D01*
G01*
G37*
G36*
G01*
X162100000Y-85449999D02*
X162100000Y-86750001D01*
G75*
G02*
X161850001Y-87000000I-249999J0D01*
G01*
X161199999Y-87000000D01*
G75*
G02*
X160950000Y-86750001I0J249999D01*
G01*
X160950000Y-85449999D01*
G75*
G02*
X161199999Y-85200000I249999J0D01*
G01*
X161850001Y-85200000D01*
G75*
G02*
X162100000Y-85449999I0J-249999D01*
G01*
G37*
%TD*%
%TO.C,C1*%
G36*
G01*
X139050000Y-85449999D02*
X139050000Y-86750001D01*
G75*
G02*
X138800001Y-87000000I-249999J0D01*
G01*
X138149999Y-87000000D01*
G75*
G02*
X137900000Y-86750001I0J249999D01*
G01*
X137900000Y-85449999D01*
G75*
G02*
X138149999Y-85200000I249999J0D01*
G01*
X138800001Y-85200000D01*
G75*
G02*
X139050000Y-85449999I0J-249999D01*
G01*
G37*
G36*
G01*
X142000000Y-85449999D02*
X142000000Y-86750001D01*
G75*
G02*
X141750001Y-87000000I-249999J0D01*
G01*
X141099999Y-87000000D01*
G75*
G02*
X140850000Y-86750001I0J249999D01*
G01*
X140850000Y-85449999D01*
G75*
G02*
X141099999Y-85200000I249999J0D01*
G01*
X141750001Y-85200000D01*
G75*
G02*
X142000000Y-85449999I0J-249999D01*
G01*
G37*
%TD*%
%TO.C,C1*%
G36*
G01*
X118950000Y-85449999D02*
X118950000Y-86750001D01*
G75*
G02*
X118700001Y-87000000I-249999J0D01*
G01*
X118049999Y-87000000D01*
G75*
G02*
X117800000Y-86750001I0J249999D01*
G01*
X117800000Y-85449999D01*
G75*
G02*
X118049999Y-85200000I249999J0D01*
G01*
X118700001Y-85200000D01*
G75*
G02*
X118950000Y-85449999I0J-249999D01*
G01*
G37*
G36*
G01*
X121900000Y-85449999D02*
X121900000Y-86750001D01*
G75*
G02*
X121650001Y-87000000I-249999J0D01*
G01*
X120999999Y-87000000D01*
G75*
G02*
X120750000Y-86750001I0J249999D01*
G01*
X120750000Y-85449999D01*
G75*
G02*
X120999999Y-85200000I249999J0D01*
G01*
X121650001Y-85200000D01*
G75*
G02*
X121900000Y-85449999I0J-249999D01*
G01*
G37*
%TD*%
D12*
%TO.C,L1*%
X182900000Y-162700000D03*
X182900000Y-164100000D03*
X177400000Y-162700000D03*
X177400000Y-164100000D03*
%TD*%
%TO.C,L1*%
X162800000Y-162700000D03*
X162800000Y-164100000D03*
X157300000Y-162700000D03*
X157300000Y-164100000D03*
%TD*%
%TO.C,L1*%
X142700000Y-162700000D03*
X142700000Y-164100000D03*
X137200000Y-162700000D03*
X137200000Y-164100000D03*
%TD*%
%TO.C,L1*%
X122600000Y-162700000D03*
X122600000Y-164100000D03*
X117100000Y-162700000D03*
X117100000Y-164100000D03*
%TD*%
%TO.C,L1*%
X102500000Y-162700000D03*
X102500000Y-164100000D03*
X97000000Y-162700000D03*
X97000000Y-164100000D03*
%TD*%
%TO.C,L1*%
X182900000Y-142600000D03*
X182900000Y-144000000D03*
X177400000Y-142600000D03*
X177400000Y-144000000D03*
%TD*%
%TO.C,L1*%
X162800000Y-142600000D03*
X162800000Y-144000000D03*
X157300000Y-142600000D03*
X157300000Y-144000000D03*
%TD*%
%TO.C,L1*%
X142700000Y-142600000D03*
X142700000Y-144000000D03*
X137200000Y-142600000D03*
X137200000Y-144000000D03*
%TD*%
%TO.C,L1*%
X122600000Y-142600000D03*
X122600000Y-144000000D03*
X117100000Y-142600000D03*
X117100000Y-144000000D03*
%TD*%
%TO.C,L1*%
X102500000Y-142600000D03*
X102500000Y-144000000D03*
X97000000Y-142600000D03*
X97000000Y-144000000D03*
%TD*%
%TO.C,L1*%
X182900000Y-122500000D03*
X182900000Y-123900000D03*
X177400000Y-122500000D03*
X177400000Y-123900000D03*
%TD*%
%TO.C,L1*%
X162800000Y-122500000D03*
X162800000Y-123900000D03*
X157300000Y-122500000D03*
X157300000Y-123900000D03*
%TD*%
%TO.C,L1*%
X142700000Y-122500000D03*
X142700000Y-123900000D03*
X137200000Y-122500000D03*
X137200000Y-123900000D03*
%TD*%
%TO.C,L1*%
X122600000Y-122500000D03*
X122600000Y-123900000D03*
X117100000Y-122500000D03*
X117100000Y-123900000D03*
%TD*%
%TO.C,L1*%
X102500000Y-122500000D03*
X102500000Y-123900000D03*
X97000000Y-122500000D03*
X97000000Y-123900000D03*
%TD*%
%TO.C,L1*%
X182900000Y-102400000D03*
X182900000Y-103800000D03*
X177400000Y-102400000D03*
X177400000Y-103800000D03*
%TD*%
%TO.C,L1*%
X162800000Y-102400000D03*
X162800000Y-103800000D03*
X157300000Y-102400000D03*
X157300000Y-103800000D03*
%TD*%
%TO.C,L1*%
X142700000Y-102400000D03*
X142700000Y-103800000D03*
X137200000Y-102400000D03*
X137200000Y-103800000D03*
%TD*%
%TO.C,L1*%
X122600000Y-102400000D03*
X122600000Y-103800000D03*
X117100000Y-102400000D03*
X117100000Y-103800000D03*
%TD*%
%TO.C,L1*%
X102500000Y-102400000D03*
X102500000Y-103800000D03*
X97000000Y-102400000D03*
X97000000Y-103800000D03*
%TD*%
%TO.C,L1*%
X182900000Y-82300000D03*
X182900000Y-83700000D03*
X177400000Y-82300000D03*
X177400000Y-83700000D03*
%TD*%
%TO.C,L1*%
X162800000Y-82300000D03*
X162800000Y-83700000D03*
X157300000Y-82300000D03*
X157300000Y-83700000D03*
%TD*%
%TO.C,L1*%
X142700000Y-82300000D03*
X142700000Y-83700000D03*
X137200000Y-82300000D03*
X137200000Y-83700000D03*
%TD*%
%TO.C,L1*%
X122600000Y-82300000D03*
X122600000Y-83700000D03*
X117100000Y-82300000D03*
X117100000Y-83700000D03*
%TD*%
D13*
%TO.C,SW1*%
X173065000Y-155610000D03*
D14*
X180150000Y-158150000D03*
D15*
X185230000Y-158150000D03*
X175070000Y-158150000D03*
D13*
X185992000Y-153070000D03*
D16*
X176340000Y-155610000D03*
X182690000Y-153070000D03*
%TD*%
D13*
%TO.C,SW1*%
X152965000Y-155610000D03*
D14*
X160050000Y-158150000D03*
D15*
X165130000Y-158150000D03*
X154970000Y-158150000D03*
D13*
X165892000Y-153070000D03*
D16*
X156240000Y-155610000D03*
X162590000Y-153070000D03*
%TD*%
D13*
%TO.C,SW1*%
X132865000Y-155610000D03*
D14*
X139950000Y-158150000D03*
D15*
X145030000Y-158150000D03*
X134870000Y-158150000D03*
D13*
X145792000Y-153070000D03*
D16*
X136140000Y-155610000D03*
X142490000Y-153070000D03*
%TD*%
D13*
%TO.C,SW1*%
X112765000Y-155610000D03*
D14*
X119850000Y-158150000D03*
D15*
X124930000Y-158150000D03*
X114770000Y-158150000D03*
D13*
X125692000Y-153070000D03*
D16*
X116040000Y-155610000D03*
X122390000Y-153070000D03*
%TD*%
D13*
%TO.C,SW1*%
X92665000Y-155610000D03*
D14*
X99750000Y-158150000D03*
D15*
X104830000Y-158150000D03*
X94670000Y-158150000D03*
D13*
X105592000Y-153070000D03*
D16*
X95940000Y-155610000D03*
X102290000Y-153070000D03*
%TD*%
D13*
%TO.C,SW1*%
X173065000Y-135510000D03*
D14*
X180150000Y-138050000D03*
D15*
X185230000Y-138050000D03*
X175070000Y-138050000D03*
D13*
X185992000Y-132970000D03*
D16*
X176340000Y-135510000D03*
X182690000Y-132970000D03*
%TD*%
D13*
%TO.C,SW1*%
X152965000Y-135510000D03*
D14*
X160050000Y-138050000D03*
D15*
X165130000Y-138050000D03*
X154970000Y-138050000D03*
D13*
X165892000Y-132970000D03*
D16*
X156240000Y-135510000D03*
X162590000Y-132970000D03*
%TD*%
D13*
%TO.C,SW1*%
X132865000Y-135510000D03*
D14*
X139950000Y-138050000D03*
D15*
X145030000Y-138050000D03*
X134870000Y-138050000D03*
D13*
X145792000Y-132970000D03*
D16*
X136140000Y-135510000D03*
X142490000Y-132970000D03*
%TD*%
D13*
%TO.C,SW1*%
X112765000Y-135510000D03*
D14*
X119850000Y-138050000D03*
D15*
X124930000Y-138050000D03*
X114770000Y-138050000D03*
D13*
X125692000Y-132970000D03*
D16*
X116040000Y-135510000D03*
X122390000Y-132970000D03*
%TD*%
D13*
%TO.C,SW1*%
X92665000Y-135510000D03*
D14*
X99750000Y-138050000D03*
D15*
X104830000Y-138050000D03*
X94670000Y-138050000D03*
D13*
X105592000Y-132970000D03*
D16*
X95940000Y-135510000D03*
X102290000Y-132970000D03*
%TD*%
D13*
%TO.C,SW1*%
X173065000Y-115410000D03*
D14*
X180150000Y-117950000D03*
D15*
X185230000Y-117950000D03*
X175070000Y-117950000D03*
D13*
X185992000Y-112870000D03*
D16*
X176340000Y-115410000D03*
X182690000Y-112870000D03*
%TD*%
D13*
%TO.C,SW1*%
X152965000Y-115410000D03*
D14*
X160050000Y-117950000D03*
D15*
X165130000Y-117950000D03*
X154970000Y-117950000D03*
D13*
X165892000Y-112870000D03*
D16*
X156240000Y-115410000D03*
X162590000Y-112870000D03*
%TD*%
D13*
%TO.C,SW1*%
X132865000Y-115410000D03*
D14*
X139950000Y-117950000D03*
D15*
X145030000Y-117950000D03*
X134870000Y-117950000D03*
D13*
X145792000Y-112870000D03*
D16*
X136140000Y-115410000D03*
X142490000Y-112870000D03*
%TD*%
D13*
%TO.C,SW1*%
X112765000Y-115410000D03*
D14*
X119850000Y-117950000D03*
D15*
X124930000Y-117950000D03*
X114770000Y-117950000D03*
D13*
X125692000Y-112870000D03*
D16*
X116040000Y-115410000D03*
X122390000Y-112870000D03*
%TD*%
D13*
%TO.C,SW1*%
X92665000Y-115410000D03*
D14*
X99750000Y-117950000D03*
D15*
X104830000Y-117950000D03*
X94670000Y-117950000D03*
D13*
X105592000Y-112870000D03*
D16*
X95940000Y-115410000D03*
X102290000Y-112870000D03*
%TD*%
D13*
%TO.C,SW1*%
X173065000Y-95310000D03*
D14*
X180150000Y-97850000D03*
D15*
X185230000Y-97850000D03*
X175070000Y-97850000D03*
D13*
X185992000Y-92770000D03*
D16*
X176340000Y-95310000D03*
X182690000Y-92770000D03*
%TD*%
D13*
%TO.C,SW1*%
X152965000Y-95310000D03*
D14*
X160050000Y-97850000D03*
D15*
X165130000Y-97850000D03*
X154970000Y-97850000D03*
D13*
X165892000Y-92770000D03*
D16*
X156240000Y-95310000D03*
X162590000Y-92770000D03*
%TD*%
D13*
%TO.C,SW1*%
X132865000Y-95310000D03*
D14*
X139950000Y-97850000D03*
D15*
X145030000Y-97850000D03*
X134870000Y-97850000D03*
D13*
X145792000Y-92770000D03*
D16*
X136140000Y-95310000D03*
X142490000Y-92770000D03*
%TD*%
D13*
%TO.C,SW1*%
X112765000Y-95310000D03*
D14*
X119850000Y-97850000D03*
D15*
X124930000Y-97850000D03*
X114770000Y-97850000D03*
D13*
X125692000Y-92770000D03*
D16*
X116040000Y-95310000D03*
X122390000Y-92770000D03*
%TD*%
D13*
%TO.C,SW1*%
X92665000Y-95310000D03*
D14*
X99750000Y-97850000D03*
D15*
X104830000Y-97850000D03*
X94670000Y-97850000D03*
D13*
X105592000Y-92770000D03*
D16*
X95940000Y-95310000D03*
X102290000Y-92770000D03*
%TD*%
D13*
%TO.C,SW1*%
X173065000Y-75210000D03*
D14*
X180150000Y-77750000D03*
D15*
X185230000Y-77750000D03*
X175070000Y-77750000D03*
D13*
X185992000Y-72670000D03*
D16*
X176340000Y-75210000D03*
X182690000Y-72670000D03*
%TD*%
D13*
%TO.C,SW1*%
X152965000Y-75210000D03*
D14*
X160050000Y-77750000D03*
D15*
X165130000Y-77750000D03*
X154970000Y-77750000D03*
D13*
X165892000Y-72670000D03*
D16*
X156240000Y-75210000D03*
X162590000Y-72670000D03*
%TD*%
D13*
%TO.C,SW1*%
X132865000Y-75210000D03*
D14*
X139950000Y-77750000D03*
D15*
X145030000Y-77750000D03*
X134870000Y-77750000D03*
D13*
X145792000Y-72670000D03*
D16*
X136140000Y-75210000D03*
X142490000Y-72670000D03*
%TD*%
D13*
%TO.C,SW1*%
X112765000Y-75210000D03*
D14*
X119850000Y-77750000D03*
D15*
X124930000Y-77750000D03*
X114770000Y-77750000D03*
D13*
X125692000Y-72670000D03*
D16*
X116040000Y-75210000D03*
X122390000Y-72670000D03*
%TD*%
D11*
%TO.C,J10*%
X174900000Y-149900000D03*
%TD*%
%TO.C,J10*%
X154800000Y-149900000D03*
%TD*%
%TO.C,J10*%
X134700000Y-149900000D03*
%TD*%
%TO.C,J10*%
X114600000Y-149900000D03*
%TD*%
%TO.C,J10*%
X94500000Y-149900000D03*
%TD*%
%TO.C,J10*%
X174900000Y-129800000D03*
%TD*%
%TO.C,J10*%
X154800000Y-129800000D03*
%TD*%
%TO.C,J10*%
X134700000Y-129800000D03*
%TD*%
%TO.C,J10*%
X114600000Y-129800000D03*
%TD*%
%TO.C,J10*%
X94500000Y-129800000D03*
%TD*%
%TO.C,J10*%
X174900000Y-109700000D03*
%TD*%
%TO.C,J10*%
X154800000Y-109700000D03*
%TD*%
%TO.C,J10*%
X134700000Y-109700000D03*
%TD*%
%TO.C,J10*%
X114600000Y-109700000D03*
%TD*%
%TO.C,J10*%
X94500000Y-109700000D03*
%TD*%
%TO.C,J10*%
X174900000Y-89600000D03*
%TD*%
%TO.C,J10*%
X154800000Y-89600000D03*
%TD*%
%TO.C,J10*%
X134700000Y-89600000D03*
%TD*%
%TO.C,J10*%
X114600000Y-89600000D03*
%TD*%
%TO.C,J10*%
X94500000Y-89600000D03*
%TD*%
%TO.C,J10*%
X174900000Y-69500000D03*
%TD*%
%TO.C,J10*%
X154800000Y-69500000D03*
%TD*%
%TO.C,J10*%
X134700000Y-69500000D03*
%TD*%
%TO.C,J10*%
X114600000Y-69500000D03*
%TD*%
%TO.C,D1*%
G36*
G01*
X178150000Y-150525000D02*
X178150000Y-149275000D01*
G75*
G02*
X178400000Y-149025000I250000J0D01*
G01*
X179150000Y-149025000D01*
G75*
G02*
X179400000Y-149275000I0J-250000D01*
G01*
X179400000Y-150525000D01*
G75*
G02*
X179150000Y-150775000I-250000J0D01*
G01*
X178400000Y-150775000D01*
G75*
G02*
X178150000Y-150525000I0J250000D01*
G01*
G37*
G36*
G01*
X180950000Y-150525000D02*
X180950000Y-149275000D01*
G75*
G02*
X181200000Y-149025000I250000J0D01*
G01*
X181950000Y-149025000D01*
G75*
G02*
X182200000Y-149275000I0J-250000D01*
G01*
X182200000Y-150525000D01*
G75*
G02*
X181950000Y-150775000I-250000J0D01*
G01*
X181200000Y-150775000D01*
G75*
G02*
X180950000Y-150525000I0J250000D01*
G01*
G37*
%TD*%
%TO.C,D1*%
G36*
G01*
X158050000Y-150525000D02*
X158050000Y-149275000D01*
G75*
G02*
X158300000Y-149025000I250000J0D01*
G01*
X159050000Y-149025000D01*
G75*
G02*
X159300000Y-149275000I0J-250000D01*
G01*
X159300000Y-150525000D01*
G75*
G02*
X159050000Y-150775000I-250000J0D01*
G01*
X158300000Y-150775000D01*
G75*
G02*
X158050000Y-150525000I0J250000D01*
G01*
G37*
G36*
G01*
X160850000Y-150525000D02*
X160850000Y-149275000D01*
G75*
G02*
X161100000Y-149025000I250000J0D01*
G01*
X161850000Y-149025000D01*
G75*
G02*
X162100000Y-149275000I0J-250000D01*
G01*
X162100000Y-150525000D01*
G75*
G02*
X161850000Y-150775000I-250000J0D01*
G01*
X161100000Y-150775000D01*
G75*
G02*
X160850000Y-150525000I0J250000D01*
G01*
G37*
%TD*%
%TO.C,D1*%
G36*
G01*
X137950000Y-150525000D02*
X137950000Y-149275000D01*
G75*
G02*
X138200000Y-149025000I250000J0D01*
G01*
X138950000Y-149025000D01*
G75*
G02*
X139200000Y-149275000I0J-250000D01*
G01*
X139200000Y-150525000D01*
G75*
G02*
X138950000Y-150775000I-250000J0D01*
G01*
X138200000Y-150775000D01*
G75*
G02*
X137950000Y-150525000I0J250000D01*
G01*
G37*
G36*
G01*
X140750000Y-150525000D02*
X140750000Y-149275000D01*
G75*
G02*
X141000000Y-149025000I250000J0D01*
G01*
X141750000Y-149025000D01*
G75*
G02*
X142000000Y-149275000I0J-250000D01*
G01*
X142000000Y-150525000D01*
G75*
G02*
X141750000Y-150775000I-250000J0D01*
G01*
X141000000Y-150775000D01*
G75*
G02*
X140750000Y-150525000I0J250000D01*
G01*
G37*
%TD*%
%TO.C,D1*%
G36*
G01*
X117850000Y-150525000D02*
X117850000Y-149275000D01*
G75*
G02*
X118100000Y-149025000I250000J0D01*
G01*
X118850000Y-149025000D01*
G75*
G02*
X119100000Y-149275000I0J-250000D01*
G01*
X119100000Y-150525000D01*
G75*
G02*
X118850000Y-150775000I-250000J0D01*
G01*
X118100000Y-150775000D01*
G75*
G02*
X117850000Y-150525000I0J250000D01*
G01*
G37*
G36*
G01*
X120650000Y-150525000D02*
X120650000Y-149275000D01*
G75*
G02*
X120900000Y-149025000I250000J0D01*
G01*
X121650000Y-149025000D01*
G75*
G02*
X121900000Y-149275000I0J-250000D01*
G01*
X121900000Y-150525000D01*
G75*
G02*
X121650000Y-150775000I-250000J0D01*
G01*
X120900000Y-150775000D01*
G75*
G02*
X120650000Y-150525000I0J250000D01*
G01*
G37*
%TD*%
%TO.C,D1*%
G36*
G01*
X97750000Y-150525000D02*
X97750000Y-149275000D01*
G75*
G02*
X98000000Y-149025000I250000J0D01*
G01*
X98750000Y-149025000D01*
G75*
G02*
X99000000Y-149275000I0J-250000D01*
G01*
X99000000Y-150525000D01*
G75*
G02*
X98750000Y-150775000I-250000J0D01*
G01*
X98000000Y-150775000D01*
G75*
G02*
X97750000Y-150525000I0J250000D01*
G01*
G37*
G36*
G01*
X100550000Y-150525000D02*
X100550000Y-149275000D01*
G75*
G02*
X100800000Y-149025000I250000J0D01*
G01*
X101550000Y-149025000D01*
G75*
G02*
X101800000Y-149275000I0J-250000D01*
G01*
X101800000Y-150525000D01*
G75*
G02*
X101550000Y-150775000I-250000J0D01*
G01*
X100800000Y-150775000D01*
G75*
G02*
X100550000Y-150525000I0J250000D01*
G01*
G37*
%TD*%
%TO.C,D1*%
G36*
G01*
X178150000Y-130425000D02*
X178150000Y-129175000D01*
G75*
G02*
X178400000Y-128925000I250000J0D01*
G01*
X179150000Y-128925000D01*
G75*
G02*
X179400000Y-129175000I0J-250000D01*
G01*
X179400000Y-130425000D01*
G75*
G02*
X179150000Y-130675000I-250000J0D01*
G01*
X178400000Y-130675000D01*
G75*
G02*
X178150000Y-130425000I0J250000D01*
G01*
G37*
G36*
G01*
X180950000Y-130425000D02*
X180950000Y-129175000D01*
G75*
G02*
X181200000Y-128925000I250000J0D01*
G01*
X181950000Y-128925000D01*
G75*
G02*
X182200000Y-129175000I0J-250000D01*
G01*
X182200000Y-130425000D01*
G75*
G02*
X181950000Y-130675000I-250000J0D01*
G01*
X181200000Y-130675000D01*
G75*
G02*
X180950000Y-130425000I0J250000D01*
G01*
G37*
%TD*%
%TO.C,D1*%
G36*
G01*
X158050000Y-130425000D02*
X158050000Y-129175000D01*
G75*
G02*
X158300000Y-128925000I250000J0D01*
G01*
X159050000Y-128925000D01*
G75*
G02*
X159300000Y-129175000I0J-250000D01*
G01*
X159300000Y-130425000D01*
G75*
G02*
X159050000Y-130675000I-250000J0D01*
G01*
X158300000Y-130675000D01*
G75*
G02*
X158050000Y-130425000I0J250000D01*
G01*
G37*
G36*
G01*
X160850000Y-130425000D02*
X160850000Y-129175000D01*
G75*
G02*
X161100000Y-128925000I250000J0D01*
G01*
X161850000Y-128925000D01*
G75*
G02*
X162100000Y-129175000I0J-250000D01*
G01*
X162100000Y-130425000D01*
G75*
G02*
X161850000Y-130675000I-250000J0D01*
G01*
X161100000Y-130675000D01*
G75*
G02*
X160850000Y-130425000I0J250000D01*
G01*
G37*
%TD*%
%TO.C,D1*%
G36*
G01*
X137950000Y-130425000D02*
X137950000Y-129175000D01*
G75*
G02*
X138200000Y-128925000I250000J0D01*
G01*
X138950000Y-128925000D01*
G75*
G02*
X139200000Y-129175000I0J-250000D01*
G01*
X139200000Y-130425000D01*
G75*
G02*
X138950000Y-130675000I-250000J0D01*
G01*
X138200000Y-130675000D01*
G75*
G02*
X137950000Y-130425000I0J250000D01*
G01*
G37*
G36*
G01*
X140750000Y-130425000D02*
X140750000Y-129175000D01*
G75*
G02*
X141000000Y-128925000I250000J0D01*
G01*
X141750000Y-128925000D01*
G75*
G02*
X142000000Y-129175000I0J-250000D01*
G01*
X142000000Y-130425000D01*
G75*
G02*
X141750000Y-130675000I-250000J0D01*
G01*
X141000000Y-130675000D01*
G75*
G02*
X140750000Y-130425000I0J250000D01*
G01*
G37*
%TD*%
%TO.C,D1*%
G36*
G01*
X117850000Y-130425000D02*
X117850000Y-129175000D01*
G75*
G02*
X118100000Y-128925000I250000J0D01*
G01*
X118850000Y-128925000D01*
G75*
G02*
X119100000Y-129175000I0J-250000D01*
G01*
X119100000Y-130425000D01*
G75*
G02*
X118850000Y-130675000I-250000J0D01*
G01*
X118100000Y-130675000D01*
G75*
G02*
X117850000Y-130425000I0J250000D01*
G01*
G37*
G36*
G01*
X120650000Y-130425000D02*
X120650000Y-129175000D01*
G75*
G02*
X120900000Y-128925000I250000J0D01*
G01*
X121650000Y-128925000D01*
G75*
G02*
X121900000Y-129175000I0J-250000D01*
G01*
X121900000Y-130425000D01*
G75*
G02*
X121650000Y-130675000I-250000J0D01*
G01*
X120900000Y-130675000D01*
G75*
G02*
X120650000Y-130425000I0J250000D01*
G01*
G37*
%TD*%
%TO.C,D1*%
G36*
G01*
X97750000Y-130425000D02*
X97750000Y-129175000D01*
G75*
G02*
X98000000Y-128925000I250000J0D01*
G01*
X98750000Y-128925000D01*
G75*
G02*
X99000000Y-129175000I0J-250000D01*
G01*
X99000000Y-130425000D01*
G75*
G02*
X98750000Y-130675000I-250000J0D01*
G01*
X98000000Y-130675000D01*
G75*
G02*
X97750000Y-130425000I0J250000D01*
G01*
G37*
G36*
G01*
X100550000Y-130425000D02*
X100550000Y-129175000D01*
G75*
G02*
X100800000Y-128925000I250000J0D01*
G01*
X101550000Y-128925000D01*
G75*
G02*
X101800000Y-129175000I0J-250000D01*
G01*
X101800000Y-130425000D01*
G75*
G02*
X101550000Y-130675000I-250000J0D01*
G01*
X100800000Y-130675000D01*
G75*
G02*
X100550000Y-130425000I0J250000D01*
G01*
G37*
%TD*%
%TO.C,D1*%
G36*
G01*
X178150000Y-110325000D02*
X178150000Y-109075000D01*
G75*
G02*
X178400000Y-108825000I250000J0D01*
G01*
X179150000Y-108825000D01*
G75*
G02*
X179400000Y-109075000I0J-250000D01*
G01*
X179400000Y-110325000D01*
G75*
G02*
X179150000Y-110575000I-250000J0D01*
G01*
X178400000Y-110575000D01*
G75*
G02*
X178150000Y-110325000I0J250000D01*
G01*
G37*
G36*
G01*
X180950000Y-110325000D02*
X180950000Y-109075000D01*
G75*
G02*
X181200000Y-108825000I250000J0D01*
G01*
X181950000Y-108825000D01*
G75*
G02*
X182200000Y-109075000I0J-250000D01*
G01*
X182200000Y-110325000D01*
G75*
G02*
X181950000Y-110575000I-250000J0D01*
G01*
X181200000Y-110575000D01*
G75*
G02*
X180950000Y-110325000I0J250000D01*
G01*
G37*
%TD*%
%TO.C,D1*%
G36*
G01*
X158050000Y-110325000D02*
X158050000Y-109075000D01*
G75*
G02*
X158300000Y-108825000I250000J0D01*
G01*
X159050000Y-108825000D01*
G75*
G02*
X159300000Y-109075000I0J-250000D01*
G01*
X159300000Y-110325000D01*
G75*
G02*
X159050000Y-110575000I-250000J0D01*
G01*
X158300000Y-110575000D01*
G75*
G02*
X158050000Y-110325000I0J250000D01*
G01*
G37*
G36*
G01*
X160850000Y-110325000D02*
X160850000Y-109075000D01*
G75*
G02*
X161100000Y-108825000I250000J0D01*
G01*
X161850000Y-108825000D01*
G75*
G02*
X162100000Y-109075000I0J-250000D01*
G01*
X162100000Y-110325000D01*
G75*
G02*
X161850000Y-110575000I-250000J0D01*
G01*
X161100000Y-110575000D01*
G75*
G02*
X160850000Y-110325000I0J250000D01*
G01*
G37*
%TD*%
%TO.C,D1*%
G36*
G01*
X137950000Y-110325000D02*
X137950000Y-109075000D01*
G75*
G02*
X138200000Y-108825000I250000J0D01*
G01*
X138950000Y-108825000D01*
G75*
G02*
X139200000Y-109075000I0J-250000D01*
G01*
X139200000Y-110325000D01*
G75*
G02*
X138950000Y-110575000I-250000J0D01*
G01*
X138200000Y-110575000D01*
G75*
G02*
X137950000Y-110325000I0J250000D01*
G01*
G37*
G36*
G01*
X140750000Y-110325000D02*
X140750000Y-109075000D01*
G75*
G02*
X141000000Y-108825000I250000J0D01*
G01*
X141750000Y-108825000D01*
G75*
G02*
X142000000Y-109075000I0J-250000D01*
G01*
X142000000Y-110325000D01*
G75*
G02*
X141750000Y-110575000I-250000J0D01*
G01*
X141000000Y-110575000D01*
G75*
G02*
X140750000Y-110325000I0J250000D01*
G01*
G37*
%TD*%
%TO.C,D1*%
G36*
G01*
X117850000Y-110325000D02*
X117850000Y-109075000D01*
G75*
G02*
X118100000Y-108825000I250000J0D01*
G01*
X118850000Y-108825000D01*
G75*
G02*
X119100000Y-109075000I0J-250000D01*
G01*
X119100000Y-110325000D01*
G75*
G02*
X118850000Y-110575000I-250000J0D01*
G01*
X118100000Y-110575000D01*
G75*
G02*
X117850000Y-110325000I0J250000D01*
G01*
G37*
G36*
G01*
X120650000Y-110325000D02*
X120650000Y-109075000D01*
G75*
G02*
X120900000Y-108825000I250000J0D01*
G01*
X121650000Y-108825000D01*
G75*
G02*
X121900000Y-109075000I0J-250000D01*
G01*
X121900000Y-110325000D01*
G75*
G02*
X121650000Y-110575000I-250000J0D01*
G01*
X120900000Y-110575000D01*
G75*
G02*
X120650000Y-110325000I0J250000D01*
G01*
G37*
%TD*%
%TO.C,D1*%
G36*
G01*
X97750000Y-110325000D02*
X97750000Y-109075000D01*
G75*
G02*
X98000000Y-108825000I250000J0D01*
G01*
X98750000Y-108825000D01*
G75*
G02*
X99000000Y-109075000I0J-250000D01*
G01*
X99000000Y-110325000D01*
G75*
G02*
X98750000Y-110575000I-250000J0D01*
G01*
X98000000Y-110575000D01*
G75*
G02*
X97750000Y-110325000I0J250000D01*
G01*
G37*
G36*
G01*
X100550000Y-110325000D02*
X100550000Y-109075000D01*
G75*
G02*
X100800000Y-108825000I250000J0D01*
G01*
X101550000Y-108825000D01*
G75*
G02*
X101800000Y-109075000I0J-250000D01*
G01*
X101800000Y-110325000D01*
G75*
G02*
X101550000Y-110575000I-250000J0D01*
G01*
X100800000Y-110575000D01*
G75*
G02*
X100550000Y-110325000I0J250000D01*
G01*
G37*
%TD*%
%TO.C,D1*%
G36*
G01*
X178150000Y-90225000D02*
X178150000Y-88975000D01*
G75*
G02*
X178400000Y-88725000I250000J0D01*
G01*
X179150000Y-88725000D01*
G75*
G02*
X179400000Y-88975000I0J-250000D01*
G01*
X179400000Y-90225000D01*
G75*
G02*
X179150000Y-90475000I-250000J0D01*
G01*
X178400000Y-90475000D01*
G75*
G02*
X178150000Y-90225000I0J250000D01*
G01*
G37*
G36*
G01*
X180950000Y-90225000D02*
X180950000Y-88975000D01*
G75*
G02*
X181200000Y-88725000I250000J0D01*
G01*
X181950000Y-88725000D01*
G75*
G02*
X182200000Y-88975000I0J-250000D01*
G01*
X182200000Y-90225000D01*
G75*
G02*
X181950000Y-90475000I-250000J0D01*
G01*
X181200000Y-90475000D01*
G75*
G02*
X180950000Y-90225000I0J250000D01*
G01*
G37*
%TD*%
%TO.C,D1*%
G36*
G01*
X158050000Y-90225000D02*
X158050000Y-88975000D01*
G75*
G02*
X158300000Y-88725000I250000J0D01*
G01*
X159050000Y-88725000D01*
G75*
G02*
X159300000Y-88975000I0J-250000D01*
G01*
X159300000Y-90225000D01*
G75*
G02*
X159050000Y-90475000I-250000J0D01*
G01*
X158300000Y-90475000D01*
G75*
G02*
X158050000Y-90225000I0J250000D01*
G01*
G37*
G36*
G01*
X160850000Y-90225000D02*
X160850000Y-88975000D01*
G75*
G02*
X161100000Y-88725000I250000J0D01*
G01*
X161850000Y-88725000D01*
G75*
G02*
X162100000Y-88975000I0J-250000D01*
G01*
X162100000Y-90225000D01*
G75*
G02*
X161850000Y-90475000I-250000J0D01*
G01*
X161100000Y-90475000D01*
G75*
G02*
X160850000Y-90225000I0J250000D01*
G01*
G37*
%TD*%
%TO.C,D1*%
G36*
G01*
X137950000Y-90225000D02*
X137950000Y-88975000D01*
G75*
G02*
X138200000Y-88725000I250000J0D01*
G01*
X138950000Y-88725000D01*
G75*
G02*
X139200000Y-88975000I0J-250000D01*
G01*
X139200000Y-90225000D01*
G75*
G02*
X138950000Y-90475000I-250000J0D01*
G01*
X138200000Y-90475000D01*
G75*
G02*
X137950000Y-90225000I0J250000D01*
G01*
G37*
G36*
G01*
X140750000Y-90225000D02*
X140750000Y-88975000D01*
G75*
G02*
X141000000Y-88725000I250000J0D01*
G01*
X141750000Y-88725000D01*
G75*
G02*
X142000000Y-88975000I0J-250000D01*
G01*
X142000000Y-90225000D01*
G75*
G02*
X141750000Y-90475000I-250000J0D01*
G01*
X141000000Y-90475000D01*
G75*
G02*
X140750000Y-90225000I0J250000D01*
G01*
G37*
%TD*%
%TO.C,D1*%
G36*
G01*
X117850000Y-90225000D02*
X117850000Y-88975000D01*
G75*
G02*
X118100000Y-88725000I250000J0D01*
G01*
X118850000Y-88725000D01*
G75*
G02*
X119100000Y-88975000I0J-250000D01*
G01*
X119100000Y-90225000D01*
G75*
G02*
X118850000Y-90475000I-250000J0D01*
G01*
X118100000Y-90475000D01*
G75*
G02*
X117850000Y-90225000I0J250000D01*
G01*
G37*
G36*
G01*
X120650000Y-90225000D02*
X120650000Y-88975000D01*
G75*
G02*
X120900000Y-88725000I250000J0D01*
G01*
X121650000Y-88725000D01*
G75*
G02*
X121900000Y-88975000I0J-250000D01*
G01*
X121900000Y-90225000D01*
G75*
G02*
X121650000Y-90475000I-250000J0D01*
G01*
X120900000Y-90475000D01*
G75*
G02*
X120650000Y-90225000I0J250000D01*
G01*
G37*
%TD*%
%TO.C,D1*%
G36*
G01*
X97750000Y-90225000D02*
X97750000Y-88975000D01*
G75*
G02*
X98000000Y-88725000I250000J0D01*
G01*
X98750000Y-88725000D01*
G75*
G02*
X99000000Y-88975000I0J-250000D01*
G01*
X99000000Y-90225000D01*
G75*
G02*
X98750000Y-90475000I-250000J0D01*
G01*
X98000000Y-90475000D01*
G75*
G02*
X97750000Y-90225000I0J250000D01*
G01*
G37*
G36*
G01*
X100550000Y-90225000D02*
X100550000Y-88975000D01*
G75*
G02*
X100800000Y-88725000I250000J0D01*
G01*
X101550000Y-88725000D01*
G75*
G02*
X101800000Y-88975000I0J-250000D01*
G01*
X101800000Y-90225000D01*
G75*
G02*
X101550000Y-90475000I-250000J0D01*
G01*
X100800000Y-90475000D01*
G75*
G02*
X100550000Y-90225000I0J250000D01*
G01*
G37*
%TD*%
%TO.C,D1*%
G36*
G01*
X178150000Y-70125000D02*
X178150000Y-68875000D01*
G75*
G02*
X178400000Y-68625000I250000J0D01*
G01*
X179150000Y-68625000D01*
G75*
G02*
X179400000Y-68875000I0J-250000D01*
G01*
X179400000Y-70125000D01*
G75*
G02*
X179150000Y-70375000I-250000J0D01*
G01*
X178400000Y-70375000D01*
G75*
G02*
X178150000Y-70125000I0J250000D01*
G01*
G37*
G36*
G01*
X180950000Y-70125000D02*
X180950000Y-68875000D01*
G75*
G02*
X181200000Y-68625000I250000J0D01*
G01*
X181950000Y-68625000D01*
G75*
G02*
X182200000Y-68875000I0J-250000D01*
G01*
X182200000Y-70125000D01*
G75*
G02*
X181950000Y-70375000I-250000J0D01*
G01*
X181200000Y-70375000D01*
G75*
G02*
X180950000Y-70125000I0J250000D01*
G01*
G37*
%TD*%
%TO.C,D1*%
G36*
G01*
X158050000Y-70125000D02*
X158050000Y-68875000D01*
G75*
G02*
X158300000Y-68625000I250000J0D01*
G01*
X159050000Y-68625000D01*
G75*
G02*
X159300000Y-68875000I0J-250000D01*
G01*
X159300000Y-70125000D01*
G75*
G02*
X159050000Y-70375000I-250000J0D01*
G01*
X158300000Y-70375000D01*
G75*
G02*
X158050000Y-70125000I0J250000D01*
G01*
G37*
G36*
G01*
X160850000Y-70125000D02*
X160850000Y-68875000D01*
G75*
G02*
X161100000Y-68625000I250000J0D01*
G01*
X161850000Y-68625000D01*
G75*
G02*
X162100000Y-68875000I0J-250000D01*
G01*
X162100000Y-70125000D01*
G75*
G02*
X161850000Y-70375000I-250000J0D01*
G01*
X161100000Y-70375000D01*
G75*
G02*
X160850000Y-70125000I0J250000D01*
G01*
G37*
%TD*%
%TO.C,D1*%
G36*
G01*
X137950000Y-70125000D02*
X137950000Y-68875000D01*
G75*
G02*
X138200000Y-68625000I250000J0D01*
G01*
X138950000Y-68625000D01*
G75*
G02*
X139200000Y-68875000I0J-250000D01*
G01*
X139200000Y-70125000D01*
G75*
G02*
X138950000Y-70375000I-250000J0D01*
G01*
X138200000Y-70375000D01*
G75*
G02*
X137950000Y-70125000I0J250000D01*
G01*
G37*
G36*
G01*
X140750000Y-70125000D02*
X140750000Y-68875000D01*
G75*
G02*
X141000000Y-68625000I250000J0D01*
G01*
X141750000Y-68625000D01*
G75*
G02*
X142000000Y-68875000I0J-250000D01*
G01*
X142000000Y-70125000D01*
G75*
G02*
X141750000Y-70375000I-250000J0D01*
G01*
X141000000Y-70375000D01*
G75*
G02*
X140750000Y-70125000I0J250000D01*
G01*
G37*
%TD*%
%TO.C,D1*%
G36*
G01*
X117850000Y-70125000D02*
X117850000Y-68875000D01*
G75*
G02*
X118100000Y-68625000I250000J0D01*
G01*
X118850000Y-68625000D01*
G75*
G02*
X119100000Y-68875000I0J-250000D01*
G01*
X119100000Y-70125000D01*
G75*
G02*
X118850000Y-70375000I-250000J0D01*
G01*
X118100000Y-70375000D01*
G75*
G02*
X117850000Y-70125000I0J250000D01*
G01*
G37*
G36*
G01*
X120650000Y-70125000D02*
X120650000Y-68875000D01*
G75*
G02*
X120900000Y-68625000I250000J0D01*
G01*
X121650000Y-68625000D01*
G75*
G02*
X121900000Y-68875000I0J-250000D01*
G01*
X121900000Y-70125000D01*
G75*
G02*
X121650000Y-70375000I-250000J0D01*
G01*
X120900000Y-70375000D01*
G75*
G02*
X120650000Y-70125000I0J250000D01*
G01*
G37*
%TD*%
%TO.C,J6*%
X188400000Y-161930000D03*
%TD*%
%TO.C,J6*%
X168300000Y-161930000D03*
%TD*%
%TO.C,J6*%
X148200000Y-161930000D03*
%TD*%
%TO.C,J6*%
X128100000Y-161930000D03*
%TD*%
%TO.C,J6*%
X108000000Y-161930000D03*
%TD*%
%TO.C,J6*%
X188400000Y-141830000D03*
%TD*%
%TO.C,J6*%
X168300000Y-141830000D03*
%TD*%
%TO.C,J6*%
X148200000Y-141830000D03*
%TD*%
%TO.C,J6*%
X128100000Y-141830000D03*
%TD*%
%TO.C,J6*%
X108000000Y-141830000D03*
%TD*%
%TO.C,J6*%
X188400000Y-121730000D03*
%TD*%
%TO.C,J6*%
X168300000Y-121730000D03*
%TD*%
%TO.C,J6*%
X148200000Y-121730000D03*
%TD*%
%TO.C,J6*%
X128100000Y-121730000D03*
%TD*%
%TO.C,J6*%
X108000000Y-121730000D03*
%TD*%
%TO.C,J6*%
X188400000Y-101630000D03*
%TD*%
%TO.C,J6*%
X168300000Y-101630000D03*
%TD*%
%TO.C,J6*%
X148200000Y-101630000D03*
%TD*%
%TO.C,J6*%
X128100000Y-101630000D03*
%TD*%
%TO.C,J6*%
X108000000Y-101630000D03*
%TD*%
%TO.C,J6*%
X188400000Y-81530000D03*
%TD*%
%TO.C,J6*%
X168300000Y-81530000D03*
%TD*%
%TO.C,J6*%
X148200000Y-81530000D03*
%TD*%
%TO.C,J6*%
X128100000Y-81530000D03*
%TD*%
%TO.C,J2*%
X171900000Y-149900000D03*
%TD*%
%TO.C,J2*%
X151800000Y-149900000D03*
%TD*%
%TO.C,J2*%
X131700000Y-149900000D03*
%TD*%
%TO.C,J2*%
X111600000Y-149900000D03*
%TD*%
%TO.C,J2*%
X91500000Y-149900000D03*
%TD*%
%TO.C,J2*%
X171900000Y-129800000D03*
%TD*%
%TO.C,J2*%
X151800000Y-129800000D03*
%TD*%
%TO.C,J2*%
X131700000Y-129800000D03*
%TD*%
%TO.C,J2*%
X111600000Y-129800000D03*
%TD*%
%TO.C,J2*%
X91500000Y-129800000D03*
%TD*%
%TO.C,J2*%
X171900000Y-109700000D03*
%TD*%
%TO.C,J2*%
X151800000Y-109700000D03*
%TD*%
%TO.C,J2*%
X131700000Y-109700000D03*
%TD*%
%TO.C,J2*%
X111600000Y-109700000D03*
%TD*%
%TO.C,J2*%
X91500000Y-109700000D03*
%TD*%
%TO.C,J2*%
X171900000Y-89600000D03*
%TD*%
%TO.C,J2*%
X151800000Y-89600000D03*
%TD*%
%TO.C,J2*%
X131700000Y-89600000D03*
%TD*%
%TO.C,J2*%
X111600000Y-89600000D03*
%TD*%
%TO.C,J2*%
X91500000Y-89600000D03*
%TD*%
%TO.C,J2*%
X171900000Y-69500000D03*
%TD*%
%TO.C,J2*%
X151800000Y-69500000D03*
%TD*%
%TO.C,J2*%
X131700000Y-69500000D03*
%TD*%
%TO.C,J2*%
X111600000Y-69500000D03*
%TD*%
D10*
%TO.C,REF\u002A\u002A*%
X109805000Y-75295000D03*
X109805000Y-75995000D03*
X109805000Y-76695000D03*
X109805000Y-77395000D03*
X109805000Y-78095000D03*
X109805000Y-78795000D03*
X109805000Y-79495000D03*
X109805000Y-80195000D03*
%TD*%
%TO.C,REF\u002A\u002A*%
X97305000Y-87805000D03*
X98005000Y-87805000D03*
X98705000Y-87805000D03*
X99405000Y-87805000D03*
X100105000Y-87805000D03*
X100805000Y-87805000D03*
X101505000Y-87805000D03*
X102205000Y-87805000D03*
%TD*%
D12*
%TO.C,L1*%
X97000000Y-83700000D03*
X97000000Y-82300000D03*
X102500000Y-83700000D03*
X102500000Y-82300000D03*
%TD*%
D16*
%TO.C,SW1*%
X102290000Y-72670000D03*
X95940000Y-75210000D03*
D13*
X105592000Y-72670000D03*
D15*
X94670000Y-77750000D03*
X104830000Y-77750000D03*
D14*
X99750000Y-77750000D03*
D13*
X92665000Y-75210000D03*
%TD*%
D11*
%TO.C,J1*%
X108000000Y-86000000D03*
%TD*%
%TO.C,J2*%
X91500000Y-69500000D03*
%TD*%
%TO.C,J3*%
X91500000Y-78530000D03*
%TD*%
%TO.C,J4*%
X94500000Y-86000000D03*
%TD*%
%TO.C,J5*%
X105000000Y-86000000D03*
%TD*%
%TO.C,J6*%
X108000000Y-81530000D03*
%TD*%
%TO.C,J7*%
X108000000Y-69500000D03*
%TD*%
%TO.C,J8*%
X91500000Y-86000000D03*
%TD*%
%TO.C,J9*%
X108000000Y-78530000D03*
%TD*%
%TO.C,J10*%
X94500000Y-69500000D03*
%TD*%
%TO.C,J11*%
X91500000Y-81530000D03*
%TD*%
%TO.C,J12*%
X105000000Y-69500000D03*
%TD*%
%TO.C,C1*%
G36*
G01*
X101800000Y-85449999D02*
X101800000Y-86750001D01*
G75*
G02*
X101550001Y-87000000I-249999J0D01*
G01*
X100899999Y-87000000D01*
G75*
G02*
X100650000Y-86750001I0J249999D01*
G01*
X100650000Y-85449999D01*
G75*
G02*
X100899999Y-85200000I249999J0D01*
G01*
X101550001Y-85200000D01*
G75*
G02*
X101800000Y-85449999I0J-249999D01*
G01*
G37*
G36*
G01*
X98850000Y-85449999D02*
X98850000Y-86750001D01*
G75*
G02*
X98600001Y-87000000I-249999J0D01*
G01*
X97949999Y-87000000D01*
G75*
G02*
X97700000Y-86750001I0J249999D01*
G01*
X97700000Y-85449999D01*
G75*
G02*
X97949999Y-85200000I249999J0D01*
G01*
X98600001Y-85200000D01*
G75*
G02*
X98850000Y-85449999I0J-249999D01*
G01*
G37*
%TD*%
%TO.C,D1*%
G36*
G01*
X100550000Y-70125000D02*
X100550000Y-68875000D01*
G75*
G02*
X100800000Y-68625000I250000J0D01*
G01*
X101550000Y-68625000D01*
G75*
G02*
X101800000Y-68875000I0J-250000D01*
G01*
X101800000Y-70125000D01*
G75*
G02*
X101550000Y-70375000I-250000J0D01*
G01*
X100800000Y-70375000D01*
G75*
G02*
X100550000Y-70125000I0J250000D01*
G01*
G37*
G36*
G01*
X97750000Y-70125000D02*
X97750000Y-68875000D01*
G75*
G02*
X98000000Y-68625000I250000J0D01*
G01*
X98750000Y-68625000D01*
G75*
G02*
X99000000Y-68875000I0J-250000D01*
G01*
X99000000Y-70125000D01*
G75*
G02*
X98750000Y-70375000I-250000J0D01*
G01*
X98000000Y-70375000D01*
G75*
G02*
X97750000Y-70125000I0J250000D01*
G01*
G37*
%TD*%
M02*
