M48
; DRILL file {KiCad (5.1.9)-1} date 03/09/21 21:07:36
; FORMAT={-:-/ absolute / inch / decimal}
; #@! TF.CreationDate,2021-03-09T21:07:36+01:00
; #@! TF.GenerationSoftware,Kicad,Pcbnew,(5.1.9)-1
; #@! TF.FileFunction,Plated,1,2,PTH
FMAT,2
INCH
T1C0.0118
T2C0.0157
T3C0.0315
%
G90
G05
T1
X3.6594Y-3.0374
X3.6594Y-3.8071
X3.6594Y-4.5768
X3.6594Y-5.3465
X3.6594Y-6.1161
X3.7342Y-3.2629
X3.7342Y-4.0326
X3.7342Y-4.8023
X3.7342Y-5.572
X3.7342Y-6.3417
X3.7748Y-3.3516
X3.7748Y-4.1212
X3.7748Y-4.8909
X3.7748Y-5.6606
X3.7748Y-6.4303
X4.099Y-3.2087
X4.099Y-3.9783
X4.099Y-4.748
X4.099Y-5.5177
X4.099Y-6.2874
X4.4291Y-3.0374
X4.4291Y-3.8071
X4.4291Y-4.5768
X4.4291Y-5.3465
X4.4291Y-6.1161
X4.5039Y-3.2629
X4.5039Y-4.0326
X4.5039Y-4.8023
X4.5039Y-5.572
X4.5039Y-6.3417
X4.5445Y-3.3516
X4.5445Y-4.1212
X4.5445Y-4.8909
X4.5445Y-5.6606
X4.5445Y-6.4303
X4.8687Y-3.2087
X4.8687Y-3.9783
X4.8687Y-4.748
X4.8687Y-5.5177
X4.8687Y-6.2874
X5.1988Y-3.0374
X5.1988Y-3.8071
X5.1988Y-4.5768
X5.1988Y-5.3465
X5.1988Y-6.1161
X5.2735Y-3.2629
X5.2735Y-4.0326
X5.2735Y-4.8023
X5.2735Y-5.572
X5.2735Y-6.3417
X5.3142Y-3.3516
X5.3142Y-4.1212
X5.3142Y-4.8909
X5.3142Y-5.6606
X5.3142Y-6.4303
X5.6384Y-3.2087
X5.6384Y-3.9783
X5.6384Y-4.748
X5.6384Y-5.5177
X5.6384Y-6.2874
X5.9685Y-3.0374
X5.9685Y-3.8071
X5.9685Y-4.5768
X5.9685Y-5.3465
X5.9685Y-6.1161
X6.0432Y-3.2629
X6.0432Y-4.0326
X6.0432Y-4.8023
X6.0432Y-5.572
X6.0432Y-6.3417
X6.0838Y-3.3516
X6.0838Y-4.1212
X6.0838Y-4.8909
X6.0838Y-5.6606
X6.0838Y-6.4303
X6.4081Y-3.2087
X6.4081Y-3.9783
X6.4081Y-4.748
X6.4081Y-5.5177
X6.4081Y-6.2874
X6.7382Y-3.0374
X6.7382Y-3.8071
X6.7382Y-4.5768
X6.7382Y-5.3465
X6.7382Y-6.1161
X6.8129Y-3.2629
X6.8129Y-4.0326
X6.8129Y-4.8023
X6.8129Y-5.572
X6.8129Y-6.3417
X6.8535Y-3.3516
X6.8535Y-4.1212
X6.8535Y-4.8909
X6.8535Y-5.6606
X6.8535Y-6.4303
X7.1778Y-3.2087
X7.1778Y-3.9783
X7.1778Y-4.748
X7.1778Y-5.5177
X7.1778Y-6.2874
T2
X3.8189Y-3.1961
X3.8189Y-3.9658
X3.8189Y-4.7354
X3.8189Y-5.5051
X3.8189Y-6.2748
X3.8227Y-3.3438
X3.8227Y-4.1134
X3.8227Y-4.8831
X3.8227Y-5.6528
X3.8227Y-6.4225
X4.0183Y-3.1244
X4.0183Y-3.8941
X4.0183Y-4.6638
X4.0183Y-5.4335
X4.0183Y-6.2032
X4.1339Y-2.9823
X4.1339Y-3.752
X4.1339Y-4.5217
X4.1339Y-5.2913
X4.1339Y-6.061
X4.5886Y-3.1961
X4.5886Y-3.9658
X4.5886Y-4.7354
X4.5886Y-5.5051
X4.5886Y-6.2748
X4.5924Y-3.3438
X4.5924Y-4.1134
X4.5924Y-4.8831
X4.5924Y-5.6528
X4.5924Y-6.4225
X4.788Y-3.1244
X4.788Y-3.8941
X4.788Y-4.6638
X4.788Y-5.4335
X4.788Y-6.2032
X4.9035Y-2.9823
X4.9035Y-3.752
X4.9035Y-4.5217
X4.9035Y-5.2913
X4.9035Y-6.061
X5.3583Y-3.1961
X5.3583Y-3.9658
X5.3583Y-4.7354
X5.3583Y-5.5051
X5.3583Y-6.2748
X5.3621Y-3.3438
X5.3621Y-4.1134
X5.3621Y-4.8831
X5.3621Y-5.6528
X5.3621Y-6.4225
X5.5577Y-3.1244
X5.5577Y-3.8941
X5.5577Y-4.6638
X5.5577Y-5.4335
X5.5577Y-6.2032
X5.6732Y-2.9823
X5.6732Y-3.752
X5.6732Y-4.5217
X5.6732Y-5.2913
X5.6732Y-6.061
X6.128Y-3.1961
X6.128Y-3.9658
X6.128Y-4.7354
X6.128Y-5.5051
X6.128Y-6.2748
X6.1317Y-3.3438
X6.1317Y-4.1134
X6.1317Y-4.8831
X6.1317Y-5.6528
X6.1317Y-6.4225
X6.3273Y-3.1244
X6.3273Y-3.8941
X6.3273Y-4.6638
X6.3273Y-5.4335
X6.3273Y-6.2032
X6.4429Y-2.9823
X6.4429Y-3.752
X6.4429Y-4.5217
X6.4429Y-5.2913
X6.4429Y-6.061
X6.8976Y-3.1961
X6.8976Y-3.9658
X6.8976Y-4.7354
X6.8976Y-5.5051
X6.8976Y-6.2748
X6.9014Y-3.3438
X6.9014Y-4.1134
X6.9014Y-4.8831
X6.9014Y-5.6528
X6.9014Y-6.4225
X7.097Y-3.1244
X7.097Y-3.8941
X7.097Y-4.6638
X7.097Y-5.4335
X7.097Y-6.2032
X7.2126Y-2.9823
X7.2126Y-3.752
X7.2126Y-4.5217
X7.2126Y-5.2913
X7.2126Y-6.061
T3
X3.6024Y-2.7362
X3.6024Y-3.0906
X3.6024Y-3.2087
X3.6024Y-3.3858
X3.6024Y-3.5059
X3.6024Y-3.8602
X3.6024Y-3.9783
X3.6024Y-4.1555
X3.6024Y-4.2756
X3.6024Y-4.6299
X3.6024Y-4.748
X3.6024Y-4.9252
X3.6024Y-5.0453
X3.6024Y-5.3996
X3.6024Y-5.5177
X3.6024Y-5.6949
X3.6024Y-5.815
X3.6024Y-6.1693
X3.6024Y-6.2874
X3.6024Y-6.4646
X3.7205Y-2.7362
X3.7205Y-3.3858
X3.7205Y-3.5059
X3.7205Y-4.1555
X3.7205Y-4.2756
X3.7205Y-4.9252
X3.7205Y-5.0453
X3.7205Y-5.6949
X3.7205Y-5.815
X3.7205Y-6.4646
X4.1339Y-2.7362
X4.1339Y-3.3858
X4.1339Y-3.5059
X4.1339Y-4.1555
X4.1339Y-4.2756
X4.1339Y-4.9252
X4.1339Y-5.0453
X4.1339Y-5.6949
X4.1339Y-5.815
X4.1339Y-6.4646
X4.252Y-2.7362
X4.252Y-3.09
X4.252Y-3.2087
X4.252Y-3.3858
X4.252Y-3.5059
X4.252Y-3.8597
X4.252Y-3.9783
X4.252Y-4.1555
X4.252Y-4.2756
X4.252Y-4.6294
X4.252Y-4.748
X4.252Y-4.9252
X4.252Y-5.0453
X4.252Y-5.3991
X4.252Y-5.5177
X4.252Y-5.6949
X4.252Y-5.815
X4.252Y-6.1687
X4.252Y-6.2874
X4.252Y-6.4646
X4.372Y-2.7362
X4.372Y-3.0906
X4.372Y-3.2087
X4.372Y-3.3858
X4.372Y-3.5059
X4.372Y-3.8602
X4.372Y-3.9783
X4.372Y-4.1555
X4.372Y-4.2756
X4.372Y-4.6299
X4.372Y-4.748
X4.372Y-4.9252
X4.372Y-5.0453
X4.372Y-5.3996
X4.372Y-5.5177
X4.372Y-5.6949
X4.372Y-5.815
X4.372Y-6.1693
X4.372Y-6.2874
X4.372Y-6.4646
X4.4902Y-2.7362
X4.4902Y-3.3858
X4.4902Y-3.5059
X4.4902Y-4.1555
X4.4902Y-4.2756
X4.4902Y-4.9252
X4.4902Y-5.0453
X4.4902Y-5.6949
X4.4902Y-5.815
X4.4902Y-6.4646
X4.9035Y-2.7362
X4.9035Y-3.3858
X4.9035Y-3.5059
X4.9035Y-4.1555
X4.9035Y-4.2756
X4.9035Y-4.9252
X4.9035Y-5.0453
X4.9035Y-5.6949
X4.9035Y-5.815
X4.9035Y-6.4646
X5.0217Y-2.7362
X5.0217Y-3.09
X5.0217Y-3.2087
X5.0217Y-3.3858
X5.0217Y-3.5059
X5.0217Y-3.8597
X5.0217Y-3.9783
X5.0217Y-4.1555
X5.0217Y-4.2756
X5.0217Y-4.6294
X5.0217Y-4.748
X5.0217Y-4.9252
X5.0217Y-5.0453
X5.0217Y-5.3991
X5.0217Y-5.5177
X5.0217Y-5.6949
X5.0217Y-5.815
X5.0217Y-6.1687
X5.0217Y-6.2874
X5.0217Y-6.4646
X5.1417Y-2.7362
X5.1417Y-3.0906
X5.1417Y-3.2087
X5.1417Y-3.3858
X5.1417Y-3.5059
X5.1417Y-3.8602
X5.1417Y-3.9783
X5.1417Y-4.1555
X5.1417Y-4.2756
X5.1417Y-4.6299
X5.1417Y-4.748
X5.1417Y-4.9252
X5.1417Y-5.0453
X5.1417Y-5.3996
X5.1417Y-5.5177
X5.1417Y-5.6949
X5.1417Y-5.815
X5.1417Y-6.1693
X5.1417Y-6.2874
X5.1417Y-6.4646
X5.2598Y-2.7362
X5.2598Y-3.3858
X5.2598Y-3.5059
X5.2598Y-4.1555
X5.2598Y-4.2756
X5.2598Y-4.9252
X5.2598Y-5.0453
X5.2598Y-5.6949
X5.2598Y-5.815
X5.2598Y-6.4646
X5.6732Y-2.7362
X5.6732Y-3.3858
X5.6732Y-3.5059
X5.6732Y-4.1555
X5.6732Y-4.2756
X5.6732Y-4.9252
X5.6732Y-5.0453
X5.6732Y-5.6949
X5.6732Y-5.815
X5.6732Y-6.4646
X5.7913Y-2.7362
X5.7913Y-3.09
X5.7913Y-3.2087
X5.7913Y-3.3858
X5.7913Y-3.5059
X5.7913Y-3.8597
X5.7913Y-3.9783
X5.7913Y-4.1555
X5.7913Y-4.2756
X5.7913Y-4.6294
X5.7913Y-4.748
X5.7913Y-4.9252
X5.7913Y-5.0453
X5.7913Y-5.3991
X5.7913Y-5.5177
X5.7913Y-5.6949
X5.7913Y-5.815
X5.7913Y-6.1687
X5.7913Y-6.2874
X5.7913Y-6.4646
X5.9114Y-2.7362
X5.9114Y-3.0906
X5.9114Y-3.2087
X5.9114Y-3.3858
X5.9114Y-3.5059
X5.9114Y-3.8602
X5.9114Y-3.9783
X5.9114Y-4.1555
X5.9114Y-4.2756
X5.9114Y-4.6299
X5.9114Y-4.748
X5.9114Y-4.9252
X5.9114Y-5.0453
X5.9114Y-5.3996
X5.9114Y-5.5177
X5.9114Y-5.6949
X5.9114Y-5.815
X5.9114Y-6.1693
X5.9114Y-6.2874
X5.9114Y-6.4646
X6.0295Y-2.7362
X6.0295Y-3.3858
X6.0295Y-3.5059
X6.0295Y-4.1555
X6.0295Y-4.2756
X6.0295Y-4.9252
X6.0295Y-5.0453
X6.0295Y-5.6949
X6.0295Y-5.815
X6.0295Y-6.4646
X6.4429Y-2.7362
X6.4429Y-3.3858
X6.4429Y-3.5059
X6.4429Y-4.1555
X6.4429Y-4.2756
X6.4429Y-4.9252
X6.4429Y-5.0453
X6.4429Y-5.6949
X6.4429Y-5.815
X6.4429Y-6.4646
X6.561Y-2.7362
X6.561Y-3.09
X6.561Y-3.2087
X6.561Y-3.3858
X6.561Y-3.5059
X6.561Y-3.8597
X6.561Y-3.9783
X6.561Y-4.1555
X6.561Y-4.2756
X6.561Y-4.6294
X6.561Y-4.748
X6.561Y-4.9252
X6.561Y-5.0453
X6.561Y-5.3991
X6.561Y-5.5177
X6.561Y-5.6949
X6.561Y-5.815
X6.561Y-6.1687
X6.561Y-6.2874
X6.561Y-6.4646
X6.6811Y-2.7362
X6.6811Y-3.0906
X6.6811Y-3.2087
X6.6811Y-3.3858
X6.6811Y-3.5059
X6.6811Y-3.8602
X6.6811Y-3.9783
X6.6811Y-4.1555
X6.6811Y-4.2756
X6.6811Y-4.6299
X6.6811Y-4.748
X6.6811Y-4.9252
X6.6811Y-5.0453
X6.6811Y-5.3996
X6.6811Y-5.5177
X6.6811Y-5.6949
X6.6811Y-5.815
X6.6811Y-6.1693
X6.6811Y-6.2874
X6.6811Y-6.4646
X6.7992Y-2.7362
X6.7992Y-3.3858
X6.7992Y-3.5059
X6.7992Y-4.1555
X6.7992Y-4.2756
X6.7992Y-4.9252
X6.7992Y-5.0453
X6.7992Y-5.6949
X6.7992Y-5.815
X6.7992Y-6.4646
X7.2126Y-2.7362
X7.2126Y-3.3858
X7.2126Y-3.5059
X7.2126Y-4.1555
X7.2126Y-4.2756
X7.2126Y-4.9252
X7.2126Y-5.0453
X7.2126Y-5.6949
X7.2126Y-5.815
X7.2126Y-6.4646
X7.3307Y-2.7362
X7.3307Y-3.09
X7.3307Y-3.2087
X7.3307Y-3.3858
X7.3307Y-3.5059
X7.3307Y-3.8597
X7.3307Y-3.9783
X7.3307Y-4.1555
X7.3307Y-4.2756
X7.3307Y-4.6294
X7.3307Y-4.748
X7.3307Y-4.9252
X7.3307Y-5.0453
X7.3307Y-5.3991
X7.3307Y-5.5177
X7.3307Y-5.6949
X7.3307Y-5.815
X7.3307Y-6.1687
X7.3307Y-6.2874
X7.3307Y-6.4646
T0
M30
