%TF.GenerationSoftware,KiCad,Pcbnew,(5.1.9)-1*%
%TF.CreationDate,2021-03-14T01:38:56+01:00*%
%TF.ProjectId,cell,63656c6c-2e6b-4696-9361-645f70636258,rev?*%
%TF.SameCoordinates,Original*%
%TF.FileFunction,Soldermask,Bot*%
%TF.FilePolarity,Negative*%
%FSLAX46Y46*%
G04 Gerber Fmt 4.6, Leading zero omitted, Abs format (unit mm)*
G04 Created by KiCad (PCBNEW (5.1.9)-1) date 2021-03-14 01:38:56*
%MOMM*%
%LPD*%
G01*
G04 APERTURE LIST*
%ADD10C,0.500000*%
%ADD11C,1.998980*%
%ADD12C,3.000000*%
%ADD13R,2.550000X2.500000*%
%ADD14C,1.900000*%
%ADD15C,4.100000*%
%ADD16R,1.700000X1.000000*%
G04 APERTURE END LIST*
D10*
%TO.C,REF\u002A\u002A*%
X168180000Y-158405000D03*
X168180000Y-157705000D03*
X168180000Y-157005000D03*
X168180000Y-156305000D03*
X168180000Y-155605000D03*
X168180000Y-154905000D03*
X168180000Y-154205000D03*
X168180000Y-153505000D03*
%TD*%
%TO.C,REF\u002A\u002A*%
X148630000Y-158405000D03*
X148630000Y-157705000D03*
X148630000Y-157005000D03*
X148630000Y-156305000D03*
X148630000Y-155605000D03*
X148630000Y-154905000D03*
X148630000Y-154205000D03*
X148630000Y-153505000D03*
%TD*%
%TO.C,REF\u002A\u002A*%
X129080000Y-158405000D03*
X129080000Y-157705000D03*
X129080000Y-157005000D03*
X129080000Y-156305000D03*
X129080000Y-155605000D03*
X129080000Y-154905000D03*
X129080000Y-154205000D03*
X129080000Y-153505000D03*
%TD*%
%TO.C,REF\u002A\u002A*%
X109530000Y-158405000D03*
X109530000Y-157705000D03*
X109530000Y-157005000D03*
X109530000Y-156305000D03*
X109530000Y-155605000D03*
X109530000Y-154905000D03*
X109530000Y-154205000D03*
X109530000Y-153505000D03*
%TD*%
%TO.C,REF\u002A\u002A*%
X168180000Y-138855000D03*
X168180000Y-138155000D03*
X168180000Y-137455000D03*
X168180000Y-136755000D03*
X168180000Y-136055000D03*
X168180000Y-135355000D03*
X168180000Y-134655000D03*
X168180000Y-133955000D03*
%TD*%
%TO.C,REF\u002A\u002A*%
X148630000Y-138855000D03*
X148630000Y-138155000D03*
X148630000Y-137455000D03*
X148630000Y-136755000D03*
X148630000Y-136055000D03*
X148630000Y-135355000D03*
X148630000Y-134655000D03*
X148630000Y-133955000D03*
%TD*%
%TO.C,REF\u002A\u002A*%
X129080000Y-138855000D03*
X129080000Y-138155000D03*
X129080000Y-137455000D03*
X129080000Y-136755000D03*
X129080000Y-136055000D03*
X129080000Y-135355000D03*
X129080000Y-134655000D03*
X129080000Y-133955000D03*
%TD*%
%TO.C,REF\u002A\u002A*%
X109530000Y-138855000D03*
X109530000Y-138155000D03*
X109530000Y-137455000D03*
X109530000Y-136755000D03*
X109530000Y-136055000D03*
X109530000Y-135355000D03*
X109530000Y-134655000D03*
X109530000Y-133955000D03*
%TD*%
%TO.C,REF\u002A\u002A*%
X168180000Y-119305000D03*
X168180000Y-118605000D03*
X168180000Y-117905000D03*
X168180000Y-117205000D03*
X168180000Y-116505000D03*
X168180000Y-115805000D03*
X168180000Y-115105000D03*
X168180000Y-114405000D03*
%TD*%
%TO.C,REF\u002A\u002A*%
X148630000Y-119305000D03*
X148630000Y-118605000D03*
X148630000Y-117905000D03*
X148630000Y-117205000D03*
X148630000Y-116505000D03*
X148630000Y-115805000D03*
X148630000Y-115105000D03*
X148630000Y-114405000D03*
%TD*%
%TO.C,REF\u002A\u002A*%
X129080000Y-119305000D03*
X129080000Y-118605000D03*
X129080000Y-117905000D03*
X129080000Y-117205000D03*
X129080000Y-116505000D03*
X129080000Y-115805000D03*
X129080000Y-115105000D03*
X129080000Y-114405000D03*
%TD*%
%TO.C,REF\u002A\u002A*%
X109530000Y-119305000D03*
X109530000Y-118605000D03*
X109530000Y-117905000D03*
X109530000Y-117205000D03*
X109530000Y-116505000D03*
X109530000Y-115805000D03*
X109530000Y-115105000D03*
X109530000Y-114405000D03*
%TD*%
%TO.C,REF\u002A\u002A*%
X168180000Y-99755000D03*
X168180000Y-99055000D03*
X168180000Y-98355000D03*
X168180000Y-97655000D03*
X168180000Y-96955000D03*
X168180000Y-96255000D03*
X168180000Y-95555000D03*
X168180000Y-94855000D03*
%TD*%
%TO.C,REF\u002A\u002A*%
X148630000Y-99755000D03*
X148630000Y-99055000D03*
X148630000Y-98355000D03*
X148630000Y-97655000D03*
X148630000Y-96955000D03*
X148630000Y-96255000D03*
X148630000Y-95555000D03*
X148630000Y-94855000D03*
%TD*%
%TO.C,REF\u002A\u002A*%
X129080000Y-99755000D03*
X129080000Y-99055000D03*
X129080000Y-98355000D03*
X129080000Y-97655000D03*
X129080000Y-96955000D03*
X129080000Y-96255000D03*
X129080000Y-95555000D03*
X129080000Y-94855000D03*
%TD*%
%TO.C,REF\u002A\u002A*%
X109530000Y-99755000D03*
X109530000Y-99055000D03*
X109530000Y-98355000D03*
X109530000Y-97655000D03*
X109530000Y-96955000D03*
X109530000Y-96255000D03*
X109530000Y-95555000D03*
X109530000Y-94855000D03*
%TD*%
%TO.C,REF\u002A\u002A*%
X168180000Y-80205000D03*
X168180000Y-79505000D03*
X168180000Y-78805000D03*
X168180000Y-78105000D03*
X168180000Y-77405000D03*
X168180000Y-76705000D03*
X168180000Y-76005000D03*
X168180000Y-75305000D03*
%TD*%
%TO.C,REF\u002A\u002A*%
X148630000Y-80205000D03*
X148630000Y-79505000D03*
X148630000Y-78805000D03*
X148630000Y-78105000D03*
X148630000Y-77405000D03*
X148630000Y-76705000D03*
X148630000Y-76005000D03*
X148630000Y-75305000D03*
%TD*%
%TO.C,REF\u002A\u002A*%
X129080000Y-80205000D03*
X129080000Y-79505000D03*
X129080000Y-78805000D03*
X129080000Y-78105000D03*
X129080000Y-77405000D03*
X129080000Y-76705000D03*
X129080000Y-76005000D03*
X129080000Y-75305000D03*
%TD*%
%TO.C,REF\u002A\u002A*%
X175505000Y-146180000D03*
X176205000Y-146180000D03*
X176905000Y-146180000D03*
X177605000Y-146180000D03*
X178305000Y-146180000D03*
X179005000Y-146180000D03*
X179705000Y-146180000D03*
X180405000Y-146180000D03*
%TD*%
%TO.C,REF\u002A\u002A*%
X155955000Y-146180000D03*
X156655000Y-146180000D03*
X157355000Y-146180000D03*
X158055000Y-146180000D03*
X158755000Y-146180000D03*
X159455000Y-146180000D03*
X160155000Y-146180000D03*
X160855000Y-146180000D03*
%TD*%
%TO.C,REF\u002A\u002A*%
X136405000Y-146180000D03*
X137105000Y-146180000D03*
X137805000Y-146180000D03*
X138505000Y-146180000D03*
X139205000Y-146180000D03*
X139905000Y-146180000D03*
X140605000Y-146180000D03*
X141305000Y-146180000D03*
%TD*%
%TO.C,REF\u002A\u002A*%
X116855000Y-146180000D03*
X117555000Y-146180000D03*
X118255000Y-146180000D03*
X118955000Y-146180000D03*
X119655000Y-146180000D03*
X120355000Y-146180000D03*
X121055000Y-146180000D03*
X121755000Y-146180000D03*
%TD*%
%TO.C,REF\u002A\u002A*%
X97305000Y-146180000D03*
X98005000Y-146180000D03*
X98705000Y-146180000D03*
X99405000Y-146180000D03*
X100105000Y-146180000D03*
X100805000Y-146180000D03*
X101505000Y-146180000D03*
X102205000Y-146180000D03*
%TD*%
%TO.C,REF\u002A\u002A*%
X175505000Y-126630000D03*
X176205000Y-126630000D03*
X176905000Y-126630000D03*
X177605000Y-126630000D03*
X178305000Y-126630000D03*
X179005000Y-126630000D03*
X179705000Y-126630000D03*
X180405000Y-126630000D03*
%TD*%
%TO.C,REF\u002A\u002A*%
X155955000Y-126630000D03*
X156655000Y-126630000D03*
X157355000Y-126630000D03*
X158055000Y-126630000D03*
X158755000Y-126630000D03*
X159455000Y-126630000D03*
X160155000Y-126630000D03*
X160855000Y-126630000D03*
%TD*%
%TO.C,REF\u002A\u002A*%
X136405000Y-126630000D03*
X137105000Y-126630000D03*
X137805000Y-126630000D03*
X138505000Y-126630000D03*
X139205000Y-126630000D03*
X139905000Y-126630000D03*
X140605000Y-126630000D03*
X141305000Y-126630000D03*
%TD*%
%TO.C,REF\u002A\u002A*%
X116855000Y-126630000D03*
X117555000Y-126630000D03*
X118255000Y-126630000D03*
X118955000Y-126630000D03*
X119655000Y-126630000D03*
X120355000Y-126630000D03*
X121055000Y-126630000D03*
X121755000Y-126630000D03*
%TD*%
%TO.C,REF\u002A\u002A*%
X97305000Y-126630000D03*
X98005000Y-126630000D03*
X98705000Y-126630000D03*
X99405000Y-126630000D03*
X100105000Y-126630000D03*
X100805000Y-126630000D03*
X101505000Y-126630000D03*
X102205000Y-126630000D03*
%TD*%
%TO.C,REF\u002A\u002A*%
X175505000Y-107080000D03*
X176205000Y-107080000D03*
X176905000Y-107080000D03*
X177605000Y-107080000D03*
X178305000Y-107080000D03*
X179005000Y-107080000D03*
X179705000Y-107080000D03*
X180405000Y-107080000D03*
%TD*%
%TO.C,REF\u002A\u002A*%
X155955000Y-107080000D03*
X156655000Y-107080000D03*
X157355000Y-107080000D03*
X158055000Y-107080000D03*
X158755000Y-107080000D03*
X159455000Y-107080000D03*
X160155000Y-107080000D03*
X160855000Y-107080000D03*
%TD*%
%TO.C,REF\u002A\u002A*%
X136405000Y-107080000D03*
X137105000Y-107080000D03*
X137805000Y-107080000D03*
X138505000Y-107080000D03*
X139205000Y-107080000D03*
X139905000Y-107080000D03*
X140605000Y-107080000D03*
X141305000Y-107080000D03*
%TD*%
%TO.C,REF\u002A\u002A*%
X116855000Y-107080000D03*
X117555000Y-107080000D03*
X118255000Y-107080000D03*
X118955000Y-107080000D03*
X119655000Y-107080000D03*
X120355000Y-107080000D03*
X121055000Y-107080000D03*
X121755000Y-107080000D03*
%TD*%
%TO.C,REF\u002A\u002A*%
X97305000Y-107080000D03*
X98005000Y-107080000D03*
X98705000Y-107080000D03*
X99405000Y-107080000D03*
X100105000Y-107080000D03*
X100805000Y-107080000D03*
X101505000Y-107080000D03*
X102205000Y-107080000D03*
%TD*%
%TO.C,REF\u002A\u002A*%
X175505000Y-87530000D03*
X176205000Y-87530000D03*
X176905000Y-87530000D03*
X177605000Y-87530000D03*
X178305000Y-87530000D03*
X179005000Y-87530000D03*
X179705000Y-87530000D03*
X180405000Y-87530000D03*
%TD*%
%TO.C,REF\u002A\u002A*%
X155955000Y-87530000D03*
X156655000Y-87530000D03*
X157355000Y-87530000D03*
X158055000Y-87530000D03*
X158755000Y-87530000D03*
X159455000Y-87530000D03*
X160155000Y-87530000D03*
X160855000Y-87530000D03*
%TD*%
%TO.C,REF\u002A\u002A*%
X136405000Y-87530000D03*
X137105000Y-87530000D03*
X137805000Y-87530000D03*
X138505000Y-87530000D03*
X139205000Y-87530000D03*
X139905000Y-87530000D03*
X140605000Y-87530000D03*
X141305000Y-87530000D03*
%TD*%
%TO.C,REF\u002A\u002A*%
X116855000Y-87530000D03*
X117555000Y-87530000D03*
X118255000Y-87530000D03*
X118955000Y-87530000D03*
X119655000Y-87530000D03*
X120355000Y-87530000D03*
X121055000Y-87530000D03*
X121755000Y-87530000D03*
%TD*%
D11*
%TO.C,J2*%
X169700000Y-147700000D03*
%TD*%
%TO.C,J2*%
X150150000Y-147700000D03*
%TD*%
%TO.C,J2*%
X130600000Y-147700000D03*
%TD*%
%TO.C,J2*%
X111050000Y-147700000D03*
%TD*%
%TO.C,J2*%
X91500000Y-147700000D03*
%TD*%
%TO.C,J2*%
X169700000Y-128150000D03*
%TD*%
%TO.C,J2*%
X150150000Y-128150000D03*
%TD*%
%TO.C,J2*%
X130600000Y-128150000D03*
%TD*%
%TO.C,J2*%
X111050000Y-128150000D03*
%TD*%
%TO.C,J2*%
X91500000Y-128150000D03*
%TD*%
%TO.C,J2*%
X169700000Y-108600000D03*
%TD*%
%TO.C,J2*%
X150150000Y-108600000D03*
%TD*%
%TO.C,J2*%
X130600000Y-108600000D03*
%TD*%
%TO.C,J2*%
X111050000Y-108600000D03*
%TD*%
%TO.C,J2*%
X91500000Y-108600000D03*
%TD*%
%TO.C,J2*%
X169700000Y-89050000D03*
%TD*%
%TO.C,J2*%
X150150000Y-89050000D03*
%TD*%
%TO.C,J2*%
X130600000Y-89050000D03*
%TD*%
%TO.C,J2*%
X111050000Y-89050000D03*
%TD*%
%TO.C,J2*%
X91500000Y-89050000D03*
%TD*%
%TO.C,J2*%
X169700000Y-69500000D03*
%TD*%
%TO.C,J2*%
X150150000Y-69500000D03*
%TD*%
%TO.C,J2*%
X130600000Y-69500000D03*
%TD*%
%TO.C,J2*%
X111050000Y-69500000D03*
%TD*%
%TO.C,J1*%
X186200000Y-164200000D03*
%TD*%
%TO.C,J1*%
X166650000Y-164200000D03*
%TD*%
%TO.C,J1*%
X147100000Y-164200000D03*
%TD*%
%TO.C,J1*%
X127550000Y-164200000D03*
%TD*%
%TO.C,J1*%
X108000000Y-164200000D03*
%TD*%
%TO.C,J1*%
X186200000Y-144650000D03*
%TD*%
%TO.C,J1*%
X166650000Y-144650000D03*
%TD*%
%TO.C,J1*%
X147100000Y-144650000D03*
%TD*%
%TO.C,J1*%
X127550000Y-144650000D03*
%TD*%
%TO.C,J1*%
X108000000Y-144650000D03*
%TD*%
%TO.C,J1*%
X186200000Y-125100000D03*
%TD*%
%TO.C,J1*%
X166650000Y-125100000D03*
%TD*%
%TO.C,J1*%
X147100000Y-125100000D03*
%TD*%
%TO.C,J1*%
X127550000Y-125100000D03*
%TD*%
%TO.C,J1*%
X108000000Y-125100000D03*
%TD*%
%TO.C,J1*%
X186200000Y-105550000D03*
%TD*%
%TO.C,J1*%
X166650000Y-105550000D03*
%TD*%
%TO.C,J1*%
X147100000Y-105550000D03*
%TD*%
%TO.C,J1*%
X127550000Y-105550000D03*
%TD*%
%TO.C,J1*%
X108000000Y-105550000D03*
%TD*%
%TO.C,J1*%
X186200000Y-86000000D03*
%TD*%
%TO.C,J1*%
X166650000Y-86000000D03*
%TD*%
%TO.C,J1*%
X147100000Y-86000000D03*
%TD*%
%TO.C,J1*%
X127550000Y-86000000D03*
%TD*%
D12*
%TO.C,SW1*%
X180490000Y-150870000D03*
X174140000Y-153410000D03*
D13*
X183792000Y-150870000D03*
D14*
X172870000Y-155950000D03*
X183030000Y-155950000D03*
D15*
X177950000Y-155950000D03*
D13*
X170865000Y-153410000D03*
%TD*%
D12*
%TO.C,SW1*%
X160940000Y-150870000D03*
X154590000Y-153410000D03*
D13*
X164242000Y-150870000D03*
D14*
X153320000Y-155950000D03*
X163480000Y-155950000D03*
D15*
X158400000Y-155950000D03*
D13*
X151315000Y-153410000D03*
%TD*%
D12*
%TO.C,SW1*%
X141390000Y-150870000D03*
X135040000Y-153410000D03*
D13*
X144692000Y-150870000D03*
D14*
X133770000Y-155950000D03*
X143930000Y-155950000D03*
D15*
X138850000Y-155950000D03*
D13*
X131765000Y-153410000D03*
%TD*%
D12*
%TO.C,SW1*%
X121840000Y-150870000D03*
X115490000Y-153410000D03*
D13*
X125142000Y-150870000D03*
D14*
X114220000Y-155950000D03*
X124380000Y-155950000D03*
D15*
X119300000Y-155950000D03*
D13*
X112215000Y-153410000D03*
%TD*%
D12*
%TO.C,SW1*%
X102290000Y-150870000D03*
X95940000Y-153410000D03*
D13*
X105592000Y-150870000D03*
D14*
X94670000Y-155950000D03*
X104830000Y-155950000D03*
D15*
X99750000Y-155950000D03*
D13*
X92665000Y-153410000D03*
%TD*%
D12*
%TO.C,SW1*%
X180490000Y-131320000D03*
X174140000Y-133860000D03*
D13*
X183792000Y-131320000D03*
D14*
X172870000Y-136400000D03*
X183030000Y-136400000D03*
D15*
X177950000Y-136400000D03*
D13*
X170865000Y-133860000D03*
%TD*%
D12*
%TO.C,SW1*%
X160940000Y-131320000D03*
X154590000Y-133860000D03*
D13*
X164242000Y-131320000D03*
D14*
X153320000Y-136400000D03*
X163480000Y-136400000D03*
D15*
X158400000Y-136400000D03*
D13*
X151315000Y-133860000D03*
%TD*%
D12*
%TO.C,SW1*%
X141390000Y-131320000D03*
X135040000Y-133860000D03*
D13*
X144692000Y-131320000D03*
D14*
X133770000Y-136400000D03*
X143930000Y-136400000D03*
D15*
X138850000Y-136400000D03*
D13*
X131765000Y-133860000D03*
%TD*%
D12*
%TO.C,SW1*%
X121840000Y-131320000D03*
X115490000Y-133860000D03*
D13*
X125142000Y-131320000D03*
D14*
X114220000Y-136400000D03*
X124380000Y-136400000D03*
D15*
X119300000Y-136400000D03*
D13*
X112215000Y-133860000D03*
%TD*%
D12*
%TO.C,SW1*%
X102290000Y-131320000D03*
X95940000Y-133860000D03*
D13*
X105592000Y-131320000D03*
D14*
X94670000Y-136400000D03*
X104830000Y-136400000D03*
D15*
X99750000Y-136400000D03*
D13*
X92665000Y-133860000D03*
%TD*%
D12*
%TO.C,SW1*%
X180490000Y-111770000D03*
X174140000Y-114310000D03*
D13*
X183792000Y-111770000D03*
D14*
X172870000Y-116850000D03*
X183030000Y-116850000D03*
D15*
X177950000Y-116850000D03*
D13*
X170865000Y-114310000D03*
%TD*%
D12*
%TO.C,SW1*%
X160940000Y-111770000D03*
X154590000Y-114310000D03*
D13*
X164242000Y-111770000D03*
D14*
X153320000Y-116850000D03*
X163480000Y-116850000D03*
D15*
X158400000Y-116850000D03*
D13*
X151315000Y-114310000D03*
%TD*%
D12*
%TO.C,SW1*%
X141390000Y-111770000D03*
X135040000Y-114310000D03*
D13*
X144692000Y-111770000D03*
D14*
X133770000Y-116850000D03*
X143930000Y-116850000D03*
D15*
X138850000Y-116850000D03*
D13*
X131765000Y-114310000D03*
%TD*%
D12*
%TO.C,SW1*%
X121840000Y-111770000D03*
X115490000Y-114310000D03*
D13*
X125142000Y-111770000D03*
D14*
X114220000Y-116850000D03*
X124380000Y-116850000D03*
D15*
X119300000Y-116850000D03*
D13*
X112215000Y-114310000D03*
%TD*%
D12*
%TO.C,SW1*%
X102290000Y-111770000D03*
X95940000Y-114310000D03*
D13*
X105592000Y-111770000D03*
D14*
X94670000Y-116850000D03*
X104830000Y-116850000D03*
D15*
X99750000Y-116850000D03*
D13*
X92665000Y-114310000D03*
%TD*%
D12*
%TO.C,SW1*%
X180490000Y-92220000D03*
X174140000Y-94760000D03*
D13*
X183792000Y-92220000D03*
D14*
X172870000Y-97300000D03*
X183030000Y-97300000D03*
D15*
X177950000Y-97300000D03*
D13*
X170865000Y-94760000D03*
%TD*%
D12*
%TO.C,SW1*%
X160940000Y-92220000D03*
X154590000Y-94760000D03*
D13*
X164242000Y-92220000D03*
D14*
X153320000Y-97300000D03*
X163480000Y-97300000D03*
D15*
X158400000Y-97300000D03*
D13*
X151315000Y-94760000D03*
%TD*%
D12*
%TO.C,SW1*%
X141390000Y-92220000D03*
X135040000Y-94760000D03*
D13*
X144692000Y-92220000D03*
D14*
X133770000Y-97300000D03*
X143930000Y-97300000D03*
D15*
X138850000Y-97300000D03*
D13*
X131765000Y-94760000D03*
%TD*%
D12*
%TO.C,SW1*%
X121840000Y-92220000D03*
X115490000Y-94760000D03*
D13*
X125142000Y-92220000D03*
D14*
X114220000Y-97300000D03*
X124380000Y-97300000D03*
D15*
X119300000Y-97300000D03*
D13*
X112215000Y-94760000D03*
%TD*%
D12*
%TO.C,SW1*%
X102290000Y-92220000D03*
X95940000Y-94760000D03*
D13*
X105592000Y-92220000D03*
D14*
X94670000Y-97300000D03*
X104830000Y-97300000D03*
D15*
X99750000Y-97300000D03*
D13*
X92665000Y-94760000D03*
%TD*%
D12*
%TO.C,SW1*%
X180490000Y-72670000D03*
X174140000Y-75210000D03*
D13*
X183792000Y-72670000D03*
D14*
X172870000Y-77750000D03*
X183030000Y-77750000D03*
D15*
X177950000Y-77750000D03*
D13*
X170865000Y-75210000D03*
%TD*%
D12*
%TO.C,SW1*%
X160940000Y-72670000D03*
X154590000Y-75210000D03*
D13*
X164242000Y-72670000D03*
D14*
X153320000Y-77750000D03*
X163480000Y-77750000D03*
D15*
X158400000Y-77750000D03*
D13*
X151315000Y-75210000D03*
%TD*%
D12*
%TO.C,SW1*%
X141390000Y-72670000D03*
X135040000Y-75210000D03*
D13*
X144692000Y-72670000D03*
D14*
X133770000Y-77750000D03*
X143930000Y-77750000D03*
D15*
X138850000Y-77750000D03*
D13*
X131765000Y-75210000D03*
%TD*%
D12*
%TO.C,SW1*%
X121840000Y-72670000D03*
X115490000Y-75210000D03*
D13*
X125142000Y-72670000D03*
D14*
X114220000Y-77750000D03*
X124380000Y-77750000D03*
D15*
X119300000Y-77750000D03*
D13*
X112215000Y-75210000D03*
%TD*%
D16*
%TO.C,L1*%
X175200000Y-161900000D03*
X175200000Y-160500000D03*
X180700000Y-161900000D03*
X180700000Y-160500000D03*
%TD*%
%TO.C,L1*%
X155650000Y-161900000D03*
X155650000Y-160500000D03*
X161150000Y-161900000D03*
X161150000Y-160500000D03*
%TD*%
%TO.C,L1*%
X136100000Y-161900000D03*
X136100000Y-160500000D03*
X141600000Y-161900000D03*
X141600000Y-160500000D03*
%TD*%
%TO.C,L1*%
X116550000Y-161900000D03*
X116550000Y-160500000D03*
X122050000Y-161900000D03*
X122050000Y-160500000D03*
%TD*%
%TO.C,L1*%
X97000000Y-161900000D03*
X97000000Y-160500000D03*
X102500000Y-161900000D03*
X102500000Y-160500000D03*
%TD*%
%TO.C,L1*%
X175200000Y-142350000D03*
X175200000Y-140950000D03*
X180700000Y-142350000D03*
X180700000Y-140950000D03*
%TD*%
%TO.C,L1*%
X155650000Y-142350000D03*
X155650000Y-140950000D03*
X161150000Y-142350000D03*
X161150000Y-140950000D03*
%TD*%
%TO.C,L1*%
X136100000Y-142350000D03*
X136100000Y-140950000D03*
X141600000Y-142350000D03*
X141600000Y-140950000D03*
%TD*%
%TO.C,L1*%
X116550000Y-142350000D03*
X116550000Y-140950000D03*
X122050000Y-142350000D03*
X122050000Y-140950000D03*
%TD*%
%TO.C,L1*%
X97000000Y-142350000D03*
X97000000Y-140950000D03*
X102500000Y-142350000D03*
X102500000Y-140950000D03*
%TD*%
%TO.C,L1*%
X175200000Y-122800000D03*
X175200000Y-121400000D03*
X180700000Y-122800000D03*
X180700000Y-121400000D03*
%TD*%
%TO.C,L1*%
X155650000Y-122800000D03*
X155650000Y-121400000D03*
X161150000Y-122800000D03*
X161150000Y-121400000D03*
%TD*%
%TO.C,L1*%
X136100000Y-122800000D03*
X136100000Y-121400000D03*
X141600000Y-122800000D03*
X141600000Y-121400000D03*
%TD*%
%TO.C,L1*%
X116550000Y-122800000D03*
X116550000Y-121400000D03*
X122050000Y-122800000D03*
X122050000Y-121400000D03*
%TD*%
%TO.C,L1*%
X97000000Y-122800000D03*
X97000000Y-121400000D03*
X102500000Y-122800000D03*
X102500000Y-121400000D03*
%TD*%
%TO.C,L1*%
X175200000Y-103250000D03*
X175200000Y-101850000D03*
X180700000Y-103250000D03*
X180700000Y-101850000D03*
%TD*%
%TO.C,L1*%
X155650000Y-103250000D03*
X155650000Y-101850000D03*
X161150000Y-103250000D03*
X161150000Y-101850000D03*
%TD*%
%TO.C,L1*%
X136100000Y-103250000D03*
X136100000Y-101850000D03*
X141600000Y-103250000D03*
X141600000Y-101850000D03*
%TD*%
%TO.C,L1*%
X116550000Y-103250000D03*
X116550000Y-101850000D03*
X122050000Y-103250000D03*
X122050000Y-101850000D03*
%TD*%
%TO.C,L1*%
X97000000Y-103250000D03*
X97000000Y-101850000D03*
X102500000Y-103250000D03*
X102500000Y-101850000D03*
%TD*%
%TO.C,L1*%
X175200000Y-83700000D03*
X175200000Y-82300000D03*
X180700000Y-83700000D03*
X180700000Y-82300000D03*
%TD*%
%TO.C,L1*%
X155650000Y-83700000D03*
X155650000Y-82300000D03*
X161150000Y-83700000D03*
X161150000Y-82300000D03*
%TD*%
%TO.C,L1*%
X136100000Y-83700000D03*
X136100000Y-82300000D03*
X141600000Y-83700000D03*
X141600000Y-82300000D03*
%TD*%
%TO.C,L1*%
X116550000Y-83700000D03*
X116550000Y-82300000D03*
X122050000Y-83700000D03*
X122050000Y-82300000D03*
%TD*%
D11*
%TO.C,J3*%
X169700000Y-156730000D03*
%TD*%
%TO.C,J3*%
X150150000Y-156730000D03*
%TD*%
%TO.C,J3*%
X130600000Y-156730000D03*
%TD*%
%TO.C,J3*%
X111050000Y-156730000D03*
%TD*%
%TO.C,J3*%
X91500000Y-156730000D03*
%TD*%
%TO.C,J3*%
X169700000Y-137180000D03*
%TD*%
%TO.C,J3*%
X150150000Y-137180000D03*
%TD*%
%TO.C,J3*%
X130600000Y-137180000D03*
%TD*%
%TO.C,J3*%
X111050000Y-137180000D03*
%TD*%
%TO.C,J3*%
X91500000Y-137180000D03*
%TD*%
%TO.C,J3*%
X169700000Y-117630000D03*
%TD*%
%TO.C,J3*%
X150150000Y-117630000D03*
%TD*%
%TO.C,J3*%
X130600000Y-117630000D03*
%TD*%
%TO.C,J3*%
X111050000Y-117630000D03*
%TD*%
%TO.C,J3*%
X91500000Y-117630000D03*
%TD*%
%TO.C,J3*%
X169700000Y-98080000D03*
%TD*%
%TO.C,J3*%
X150150000Y-98080000D03*
%TD*%
%TO.C,J3*%
X130600000Y-98080000D03*
%TD*%
%TO.C,J3*%
X111050000Y-98080000D03*
%TD*%
%TO.C,J3*%
X91500000Y-98080000D03*
%TD*%
%TO.C,J3*%
X169700000Y-78530000D03*
%TD*%
%TO.C,J3*%
X150150000Y-78530000D03*
%TD*%
%TO.C,J3*%
X130600000Y-78530000D03*
%TD*%
%TO.C,J3*%
X111050000Y-78530000D03*
%TD*%
%TO.C,J5*%
X183200000Y-164200000D03*
%TD*%
%TO.C,J5*%
X163650000Y-164200000D03*
%TD*%
%TO.C,J5*%
X144100000Y-164200000D03*
%TD*%
%TO.C,J5*%
X124550000Y-164200000D03*
%TD*%
%TO.C,J5*%
X105000000Y-164200000D03*
%TD*%
%TO.C,J5*%
X183200000Y-144650000D03*
%TD*%
%TO.C,J5*%
X163650000Y-144650000D03*
%TD*%
%TO.C,J5*%
X144100000Y-144650000D03*
%TD*%
%TO.C,J5*%
X124550000Y-144650000D03*
%TD*%
%TO.C,J5*%
X105000000Y-144650000D03*
%TD*%
%TO.C,J5*%
X183200000Y-125100000D03*
%TD*%
%TO.C,J5*%
X163650000Y-125100000D03*
%TD*%
%TO.C,J5*%
X144100000Y-125100000D03*
%TD*%
%TO.C,J5*%
X124550000Y-125100000D03*
%TD*%
%TO.C,J5*%
X105000000Y-125100000D03*
%TD*%
%TO.C,J5*%
X183200000Y-105550000D03*
%TD*%
%TO.C,J5*%
X163650000Y-105550000D03*
%TD*%
%TO.C,J5*%
X144100000Y-105550000D03*
%TD*%
%TO.C,J5*%
X124550000Y-105550000D03*
%TD*%
%TO.C,J5*%
X105000000Y-105550000D03*
%TD*%
%TO.C,J5*%
X183200000Y-86000000D03*
%TD*%
%TO.C,J5*%
X163650000Y-86000000D03*
%TD*%
%TO.C,J5*%
X144100000Y-86000000D03*
%TD*%
%TO.C,J5*%
X124550000Y-86000000D03*
%TD*%
%TO.C,J7*%
X186200000Y-147700000D03*
%TD*%
%TO.C,J7*%
X166650000Y-147700000D03*
%TD*%
%TO.C,J7*%
X147100000Y-147700000D03*
%TD*%
%TO.C,J7*%
X127550000Y-147700000D03*
%TD*%
%TO.C,J7*%
X108000000Y-147700000D03*
%TD*%
%TO.C,J7*%
X186200000Y-128150000D03*
%TD*%
%TO.C,J7*%
X166650000Y-128150000D03*
%TD*%
%TO.C,J7*%
X147100000Y-128150000D03*
%TD*%
%TO.C,J7*%
X127550000Y-128150000D03*
%TD*%
%TO.C,J7*%
X108000000Y-128150000D03*
%TD*%
%TO.C,J7*%
X186200000Y-108600000D03*
%TD*%
%TO.C,J7*%
X166650000Y-108600000D03*
%TD*%
%TO.C,J7*%
X147100000Y-108600000D03*
%TD*%
%TO.C,J7*%
X127550000Y-108600000D03*
%TD*%
%TO.C,J7*%
X108000000Y-108600000D03*
%TD*%
%TO.C,J7*%
X186200000Y-89050000D03*
%TD*%
%TO.C,J7*%
X166650000Y-89050000D03*
%TD*%
%TO.C,J7*%
X147100000Y-89050000D03*
%TD*%
%TO.C,J7*%
X127550000Y-89050000D03*
%TD*%
%TO.C,J7*%
X108000000Y-89050000D03*
%TD*%
%TO.C,J7*%
X186200000Y-69500000D03*
%TD*%
%TO.C,J7*%
X166650000Y-69500000D03*
%TD*%
%TO.C,J7*%
X147100000Y-69500000D03*
%TD*%
%TO.C,J7*%
X127550000Y-69500000D03*
%TD*%
%TO.C,J9*%
X186200000Y-156730000D03*
%TD*%
%TO.C,J9*%
X166650000Y-156730000D03*
%TD*%
%TO.C,J9*%
X147100000Y-156730000D03*
%TD*%
%TO.C,J9*%
X127550000Y-156730000D03*
%TD*%
%TO.C,J9*%
X108000000Y-156730000D03*
%TD*%
%TO.C,J9*%
X186200000Y-137180000D03*
%TD*%
%TO.C,J9*%
X166650000Y-137180000D03*
%TD*%
%TO.C,J9*%
X147100000Y-137180000D03*
%TD*%
%TO.C,J9*%
X127550000Y-137180000D03*
%TD*%
%TO.C,J9*%
X108000000Y-137180000D03*
%TD*%
%TO.C,J9*%
X186200000Y-117630000D03*
%TD*%
%TO.C,J9*%
X166650000Y-117630000D03*
%TD*%
%TO.C,J9*%
X147100000Y-117630000D03*
%TD*%
%TO.C,J9*%
X127550000Y-117630000D03*
%TD*%
%TO.C,J9*%
X108000000Y-117630000D03*
%TD*%
%TO.C,J9*%
X186200000Y-98080000D03*
%TD*%
%TO.C,J9*%
X166650000Y-98080000D03*
%TD*%
%TO.C,J9*%
X147100000Y-98080000D03*
%TD*%
%TO.C,J9*%
X127550000Y-98080000D03*
%TD*%
%TO.C,J9*%
X108000000Y-98080000D03*
%TD*%
%TO.C,J9*%
X186200000Y-78530000D03*
%TD*%
%TO.C,J9*%
X166650000Y-78530000D03*
%TD*%
%TO.C,J9*%
X147100000Y-78530000D03*
%TD*%
%TO.C,J9*%
X127550000Y-78530000D03*
%TD*%
%TO.C,J8*%
X169700000Y-164200000D03*
%TD*%
%TO.C,J8*%
X150150000Y-164200000D03*
%TD*%
%TO.C,J8*%
X130600000Y-164200000D03*
%TD*%
%TO.C,J8*%
X111050000Y-164200000D03*
%TD*%
%TO.C,J8*%
X91500000Y-164200000D03*
%TD*%
%TO.C,J8*%
X169700000Y-144650000D03*
%TD*%
%TO.C,J8*%
X150150000Y-144650000D03*
%TD*%
%TO.C,J8*%
X130600000Y-144650000D03*
%TD*%
%TO.C,J8*%
X111050000Y-144650000D03*
%TD*%
%TO.C,J8*%
X91500000Y-144650000D03*
%TD*%
%TO.C,J8*%
X169700000Y-125100000D03*
%TD*%
%TO.C,J8*%
X150150000Y-125100000D03*
%TD*%
%TO.C,J8*%
X130600000Y-125100000D03*
%TD*%
%TO.C,J8*%
X111050000Y-125100000D03*
%TD*%
%TO.C,J8*%
X91500000Y-125100000D03*
%TD*%
%TO.C,J8*%
X169700000Y-105550000D03*
%TD*%
%TO.C,J8*%
X150150000Y-105550000D03*
%TD*%
%TO.C,J8*%
X130600000Y-105550000D03*
%TD*%
%TO.C,J8*%
X111050000Y-105550000D03*
%TD*%
%TO.C,J8*%
X91500000Y-105550000D03*
%TD*%
%TO.C,J8*%
X169700000Y-86000000D03*
%TD*%
%TO.C,J8*%
X150150000Y-86000000D03*
%TD*%
%TO.C,J8*%
X130600000Y-86000000D03*
%TD*%
%TO.C,J8*%
X111050000Y-86000000D03*
%TD*%
%TO.C,J10*%
X172700000Y-147700000D03*
%TD*%
%TO.C,J10*%
X153150000Y-147700000D03*
%TD*%
%TO.C,J10*%
X133600000Y-147700000D03*
%TD*%
%TO.C,J10*%
X114050000Y-147700000D03*
%TD*%
%TO.C,J10*%
X94500000Y-147700000D03*
%TD*%
%TO.C,J10*%
X172700000Y-128150000D03*
%TD*%
%TO.C,J10*%
X153150000Y-128150000D03*
%TD*%
%TO.C,J10*%
X133600000Y-128150000D03*
%TD*%
%TO.C,J10*%
X114050000Y-128150000D03*
%TD*%
%TO.C,J10*%
X94500000Y-128150000D03*
%TD*%
%TO.C,J10*%
X172700000Y-108600000D03*
%TD*%
%TO.C,J10*%
X153150000Y-108600000D03*
%TD*%
%TO.C,J10*%
X133600000Y-108600000D03*
%TD*%
%TO.C,J10*%
X114050000Y-108600000D03*
%TD*%
%TO.C,J10*%
X94500000Y-108600000D03*
%TD*%
%TO.C,J10*%
X172700000Y-89050000D03*
%TD*%
%TO.C,J10*%
X153150000Y-89050000D03*
%TD*%
%TO.C,J10*%
X133600000Y-89050000D03*
%TD*%
%TO.C,J10*%
X114050000Y-89050000D03*
%TD*%
%TO.C,J10*%
X94500000Y-89050000D03*
%TD*%
%TO.C,J10*%
X172700000Y-69500000D03*
%TD*%
%TO.C,J10*%
X153150000Y-69500000D03*
%TD*%
%TO.C,J10*%
X133600000Y-69500000D03*
%TD*%
%TO.C,J10*%
X114050000Y-69500000D03*
%TD*%
%TO.C,J6*%
X186200000Y-159730000D03*
%TD*%
%TO.C,J6*%
X166650000Y-159730000D03*
%TD*%
%TO.C,J6*%
X147100000Y-159730000D03*
%TD*%
%TO.C,J6*%
X127550000Y-159730000D03*
%TD*%
%TO.C,J6*%
X108000000Y-159730000D03*
%TD*%
%TO.C,J6*%
X186200000Y-140180000D03*
%TD*%
%TO.C,J6*%
X166650000Y-140180000D03*
%TD*%
%TO.C,J6*%
X147100000Y-140180000D03*
%TD*%
%TO.C,J6*%
X127550000Y-140180000D03*
%TD*%
%TO.C,J6*%
X108000000Y-140180000D03*
%TD*%
%TO.C,J6*%
X186200000Y-120630000D03*
%TD*%
%TO.C,J6*%
X166650000Y-120630000D03*
%TD*%
%TO.C,J6*%
X147100000Y-120630000D03*
%TD*%
%TO.C,J6*%
X127550000Y-120630000D03*
%TD*%
%TO.C,J6*%
X108000000Y-120630000D03*
%TD*%
%TO.C,J6*%
X186200000Y-101080000D03*
%TD*%
%TO.C,J6*%
X166650000Y-101080000D03*
%TD*%
%TO.C,J6*%
X147100000Y-101080000D03*
%TD*%
%TO.C,J6*%
X127550000Y-101080000D03*
%TD*%
%TO.C,J6*%
X108000000Y-101080000D03*
%TD*%
%TO.C,J6*%
X186200000Y-81530000D03*
%TD*%
%TO.C,J6*%
X166650000Y-81530000D03*
%TD*%
%TO.C,J6*%
X147100000Y-81530000D03*
%TD*%
%TO.C,J6*%
X127550000Y-81530000D03*
%TD*%
%TO.C,J4*%
X172700000Y-164200000D03*
%TD*%
%TO.C,J4*%
X153150000Y-164200000D03*
%TD*%
%TO.C,J4*%
X133600000Y-164200000D03*
%TD*%
%TO.C,J4*%
X114050000Y-164200000D03*
%TD*%
%TO.C,J4*%
X94500000Y-164200000D03*
%TD*%
%TO.C,J4*%
X172700000Y-144650000D03*
%TD*%
%TO.C,J4*%
X153150000Y-144650000D03*
%TD*%
%TO.C,J4*%
X133600000Y-144650000D03*
%TD*%
%TO.C,J4*%
X114050000Y-144650000D03*
%TD*%
%TO.C,J4*%
X94500000Y-144650000D03*
%TD*%
%TO.C,J4*%
X172700000Y-125100000D03*
%TD*%
%TO.C,J4*%
X153150000Y-125100000D03*
%TD*%
%TO.C,J4*%
X133600000Y-125100000D03*
%TD*%
%TO.C,J4*%
X114050000Y-125100000D03*
%TD*%
%TO.C,J4*%
X94500000Y-125100000D03*
%TD*%
%TO.C,J4*%
X172700000Y-105550000D03*
%TD*%
%TO.C,J4*%
X153150000Y-105550000D03*
%TD*%
%TO.C,J4*%
X133600000Y-105550000D03*
%TD*%
%TO.C,J4*%
X114050000Y-105550000D03*
%TD*%
%TO.C,J4*%
X94500000Y-105550000D03*
%TD*%
%TO.C,J4*%
X172700000Y-86000000D03*
%TD*%
%TO.C,J4*%
X153150000Y-86000000D03*
%TD*%
%TO.C,J4*%
X133600000Y-86000000D03*
%TD*%
%TO.C,J4*%
X114050000Y-86000000D03*
%TD*%
%TO.C,C1*%
G36*
G01*
X180000000Y-163649999D02*
X180000000Y-164950001D01*
G75*
G02*
X179750001Y-165200000I-249999J0D01*
G01*
X179099999Y-165200000D01*
G75*
G02*
X178850000Y-164950001I0J249999D01*
G01*
X178850000Y-163649999D01*
G75*
G02*
X179099999Y-163400000I249999J0D01*
G01*
X179750001Y-163400000D01*
G75*
G02*
X180000000Y-163649999I0J-249999D01*
G01*
G37*
G36*
G01*
X177050000Y-163649999D02*
X177050000Y-164950001D01*
G75*
G02*
X176800001Y-165200000I-249999J0D01*
G01*
X176149999Y-165200000D01*
G75*
G02*
X175900000Y-164950001I0J249999D01*
G01*
X175900000Y-163649999D01*
G75*
G02*
X176149999Y-163400000I249999J0D01*
G01*
X176800001Y-163400000D01*
G75*
G02*
X177050000Y-163649999I0J-249999D01*
G01*
G37*
%TD*%
%TO.C,C1*%
G36*
G01*
X160450000Y-163649999D02*
X160450000Y-164950001D01*
G75*
G02*
X160200001Y-165200000I-249999J0D01*
G01*
X159549999Y-165200000D01*
G75*
G02*
X159300000Y-164950001I0J249999D01*
G01*
X159300000Y-163649999D01*
G75*
G02*
X159549999Y-163400000I249999J0D01*
G01*
X160200001Y-163400000D01*
G75*
G02*
X160450000Y-163649999I0J-249999D01*
G01*
G37*
G36*
G01*
X157500000Y-163649999D02*
X157500000Y-164950001D01*
G75*
G02*
X157250001Y-165200000I-249999J0D01*
G01*
X156599999Y-165200000D01*
G75*
G02*
X156350000Y-164950001I0J249999D01*
G01*
X156350000Y-163649999D01*
G75*
G02*
X156599999Y-163400000I249999J0D01*
G01*
X157250001Y-163400000D01*
G75*
G02*
X157500000Y-163649999I0J-249999D01*
G01*
G37*
%TD*%
%TO.C,C1*%
G36*
G01*
X140900000Y-163649999D02*
X140900000Y-164950001D01*
G75*
G02*
X140650001Y-165200000I-249999J0D01*
G01*
X139999999Y-165200000D01*
G75*
G02*
X139750000Y-164950001I0J249999D01*
G01*
X139750000Y-163649999D01*
G75*
G02*
X139999999Y-163400000I249999J0D01*
G01*
X140650001Y-163400000D01*
G75*
G02*
X140900000Y-163649999I0J-249999D01*
G01*
G37*
G36*
G01*
X137950000Y-163649999D02*
X137950000Y-164950001D01*
G75*
G02*
X137700001Y-165200000I-249999J0D01*
G01*
X137049999Y-165200000D01*
G75*
G02*
X136800000Y-164950001I0J249999D01*
G01*
X136800000Y-163649999D01*
G75*
G02*
X137049999Y-163400000I249999J0D01*
G01*
X137700001Y-163400000D01*
G75*
G02*
X137950000Y-163649999I0J-249999D01*
G01*
G37*
%TD*%
%TO.C,C1*%
G36*
G01*
X121350000Y-163649999D02*
X121350000Y-164950001D01*
G75*
G02*
X121100001Y-165200000I-249999J0D01*
G01*
X120449999Y-165200000D01*
G75*
G02*
X120200000Y-164950001I0J249999D01*
G01*
X120200000Y-163649999D01*
G75*
G02*
X120449999Y-163400000I249999J0D01*
G01*
X121100001Y-163400000D01*
G75*
G02*
X121350000Y-163649999I0J-249999D01*
G01*
G37*
G36*
G01*
X118400000Y-163649999D02*
X118400000Y-164950001D01*
G75*
G02*
X118150001Y-165200000I-249999J0D01*
G01*
X117499999Y-165200000D01*
G75*
G02*
X117250000Y-164950001I0J249999D01*
G01*
X117250000Y-163649999D01*
G75*
G02*
X117499999Y-163400000I249999J0D01*
G01*
X118150001Y-163400000D01*
G75*
G02*
X118400000Y-163649999I0J-249999D01*
G01*
G37*
%TD*%
%TO.C,C1*%
G36*
G01*
X101800000Y-163649999D02*
X101800000Y-164950001D01*
G75*
G02*
X101550001Y-165200000I-249999J0D01*
G01*
X100899999Y-165200000D01*
G75*
G02*
X100650000Y-164950001I0J249999D01*
G01*
X100650000Y-163649999D01*
G75*
G02*
X100899999Y-163400000I249999J0D01*
G01*
X101550001Y-163400000D01*
G75*
G02*
X101800000Y-163649999I0J-249999D01*
G01*
G37*
G36*
G01*
X98850000Y-163649999D02*
X98850000Y-164950001D01*
G75*
G02*
X98600001Y-165200000I-249999J0D01*
G01*
X97949999Y-165200000D01*
G75*
G02*
X97700000Y-164950001I0J249999D01*
G01*
X97700000Y-163649999D01*
G75*
G02*
X97949999Y-163400000I249999J0D01*
G01*
X98600001Y-163400000D01*
G75*
G02*
X98850000Y-163649999I0J-249999D01*
G01*
G37*
%TD*%
%TO.C,C1*%
G36*
G01*
X180000000Y-144099999D02*
X180000000Y-145400001D01*
G75*
G02*
X179750001Y-145650000I-249999J0D01*
G01*
X179099999Y-145650000D01*
G75*
G02*
X178850000Y-145400001I0J249999D01*
G01*
X178850000Y-144099999D01*
G75*
G02*
X179099999Y-143850000I249999J0D01*
G01*
X179750001Y-143850000D01*
G75*
G02*
X180000000Y-144099999I0J-249999D01*
G01*
G37*
G36*
G01*
X177050000Y-144099999D02*
X177050000Y-145400001D01*
G75*
G02*
X176800001Y-145650000I-249999J0D01*
G01*
X176149999Y-145650000D01*
G75*
G02*
X175900000Y-145400001I0J249999D01*
G01*
X175900000Y-144099999D01*
G75*
G02*
X176149999Y-143850000I249999J0D01*
G01*
X176800001Y-143850000D01*
G75*
G02*
X177050000Y-144099999I0J-249999D01*
G01*
G37*
%TD*%
%TO.C,C1*%
G36*
G01*
X160450000Y-144099999D02*
X160450000Y-145400001D01*
G75*
G02*
X160200001Y-145650000I-249999J0D01*
G01*
X159549999Y-145650000D01*
G75*
G02*
X159300000Y-145400001I0J249999D01*
G01*
X159300000Y-144099999D01*
G75*
G02*
X159549999Y-143850000I249999J0D01*
G01*
X160200001Y-143850000D01*
G75*
G02*
X160450000Y-144099999I0J-249999D01*
G01*
G37*
G36*
G01*
X157500000Y-144099999D02*
X157500000Y-145400001D01*
G75*
G02*
X157250001Y-145650000I-249999J0D01*
G01*
X156599999Y-145650000D01*
G75*
G02*
X156350000Y-145400001I0J249999D01*
G01*
X156350000Y-144099999D01*
G75*
G02*
X156599999Y-143850000I249999J0D01*
G01*
X157250001Y-143850000D01*
G75*
G02*
X157500000Y-144099999I0J-249999D01*
G01*
G37*
%TD*%
%TO.C,C1*%
G36*
G01*
X140900000Y-144099999D02*
X140900000Y-145400001D01*
G75*
G02*
X140650001Y-145650000I-249999J0D01*
G01*
X139999999Y-145650000D01*
G75*
G02*
X139750000Y-145400001I0J249999D01*
G01*
X139750000Y-144099999D01*
G75*
G02*
X139999999Y-143850000I249999J0D01*
G01*
X140650001Y-143850000D01*
G75*
G02*
X140900000Y-144099999I0J-249999D01*
G01*
G37*
G36*
G01*
X137950000Y-144099999D02*
X137950000Y-145400001D01*
G75*
G02*
X137700001Y-145650000I-249999J0D01*
G01*
X137049999Y-145650000D01*
G75*
G02*
X136800000Y-145400001I0J249999D01*
G01*
X136800000Y-144099999D01*
G75*
G02*
X137049999Y-143850000I249999J0D01*
G01*
X137700001Y-143850000D01*
G75*
G02*
X137950000Y-144099999I0J-249999D01*
G01*
G37*
%TD*%
%TO.C,C1*%
G36*
G01*
X121350000Y-144099999D02*
X121350000Y-145400001D01*
G75*
G02*
X121100001Y-145650000I-249999J0D01*
G01*
X120449999Y-145650000D01*
G75*
G02*
X120200000Y-145400001I0J249999D01*
G01*
X120200000Y-144099999D01*
G75*
G02*
X120449999Y-143850000I249999J0D01*
G01*
X121100001Y-143850000D01*
G75*
G02*
X121350000Y-144099999I0J-249999D01*
G01*
G37*
G36*
G01*
X118400000Y-144099999D02*
X118400000Y-145400001D01*
G75*
G02*
X118150001Y-145650000I-249999J0D01*
G01*
X117499999Y-145650000D01*
G75*
G02*
X117250000Y-145400001I0J249999D01*
G01*
X117250000Y-144099999D01*
G75*
G02*
X117499999Y-143850000I249999J0D01*
G01*
X118150001Y-143850000D01*
G75*
G02*
X118400000Y-144099999I0J-249999D01*
G01*
G37*
%TD*%
%TO.C,C1*%
G36*
G01*
X101800000Y-144099999D02*
X101800000Y-145400001D01*
G75*
G02*
X101550001Y-145650000I-249999J0D01*
G01*
X100899999Y-145650000D01*
G75*
G02*
X100650000Y-145400001I0J249999D01*
G01*
X100650000Y-144099999D01*
G75*
G02*
X100899999Y-143850000I249999J0D01*
G01*
X101550001Y-143850000D01*
G75*
G02*
X101800000Y-144099999I0J-249999D01*
G01*
G37*
G36*
G01*
X98850000Y-144099999D02*
X98850000Y-145400001D01*
G75*
G02*
X98600001Y-145650000I-249999J0D01*
G01*
X97949999Y-145650000D01*
G75*
G02*
X97700000Y-145400001I0J249999D01*
G01*
X97700000Y-144099999D01*
G75*
G02*
X97949999Y-143850000I249999J0D01*
G01*
X98600001Y-143850000D01*
G75*
G02*
X98850000Y-144099999I0J-249999D01*
G01*
G37*
%TD*%
%TO.C,C1*%
G36*
G01*
X180000000Y-124549999D02*
X180000000Y-125850001D01*
G75*
G02*
X179750001Y-126100000I-249999J0D01*
G01*
X179099999Y-126100000D01*
G75*
G02*
X178850000Y-125850001I0J249999D01*
G01*
X178850000Y-124549999D01*
G75*
G02*
X179099999Y-124300000I249999J0D01*
G01*
X179750001Y-124300000D01*
G75*
G02*
X180000000Y-124549999I0J-249999D01*
G01*
G37*
G36*
G01*
X177050000Y-124549999D02*
X177050000Y-125850001D01*
G75*
G02*
X176800001Y-126100000I-249999J0D01*
G01*
X176149999Y-126100000D01*
G75*
G02*
X175900000Y-125850001I0J249999D01*
G01*
X175900000Y-124549999D01*
G75*
G02*
X176149999Y-124300000I249999J0D01*
G01*
X176800001Y-124300000D01*
G75*
G02*
X177050000Y-124549999I0J-249999D01*
G01*
G37*
%TD*%
%TO.C,C1*%
G36*
G01*
X160450000Y-124549999D02*
X160450000Y-125850001D01*
G75*
G02*
X160200001Y-126100000I-249999J0D01*
G01*
X159549999Y-126100000D01*
G75*
G02*
X159300000Y-125850001I0J249999D01*
G01*
X159300000Y-124549999D01*
G75*
G02*
X159549999Y-124300000I249999J0D01*
G01*
X160200001Y-124300000D01*
G75*
G02*
X160450000Y-124549999I0J-249999D01*
G01*
G37*
G36*
G01*
X157500000Y-124549999D02*
X157500000Y-125850001D01*
G75*
G02*
X157250001Y-126100000I-249999J0D01*
G01*
X156599999Y-126100000D01*
G75*
G02*
X156350000Y-125850001I0J249999D01*
G01*
X156350000Y-124549999D01*
G75*
G02*
X156599999Y-124300000I249999J0D01*
G01*
X157250001Y-124300000D01*
G75*
G02*
X157500000Y-124549999I0J-249999D01*
G01*
G37*
%TD*%
%TO.C,C1*%
G36*
G01*
X140900000Y-124549999D02*
X140900000Y-125850001D01*
G75*
G02*
X140650001Y-126100000I-249999J0D01*
G01*
X139999999Y-126100000D01*
G75*
G02*
X139750000Y-125850001I0J249999D01*
G01*
X139750000Y-124549999D01*
G75*
G02*
X139999999Y-124300000I249999J0D01*
G01*
X140650001Y-124300000D01*
G75*
G02*
X140900000Y-124549999I0J-249999D01*
G01*
G37*
G36*
G01*
X137950000Y-124549999D02*
X137950000Y-125850001D01*
G75*
G02*
X137700001Y-126100000I-249999J0D01*
G01*
X137049999Y-126100000D01*
G75*
G02*
X136800000Y-125850001I0J249999D01*
G01*
X136800000Y-124549999D01*
G75*
G02*
X137049999Y-124300000I249999J0D01*
G01*
X137700001Y-124300000D01*
G75*
G02*
X137950000Y-124549999I0J-249999D01*
G01*
G37*
%TD*%
%TO.C,C1*%
G36*
G01*
X121350000Y-124549999D02*
X121350000Y-125850001D01*
G75*
G02*
X121100001Y-126100000I-249999J0D01*
G01*
X120449999Y-126100000D01*
G75*
G02*
X120200000Y-125850001I0J249999D01*
G01*
X120200000Y-124549999D01*
G75*
G02*
X120449999Y-124300000I249999J0D01*
G01*
X121100001Y-124300000D01*
G75*
G02*
X121350000Y-124549999I0J-249999D01*
G01*
G37*
G36*
G01*
X118400000Y-124549999D02*
X118400000Y-125850001D01*
G75*
G02*
X118150001Y-126100000I-249999J0D01*
G01*
X117499999Y-126100000D01*
G75*
G02*
X117250000Y-125850001I0J249999D01*
G01*
X117250000Y-124549999D01*
G75*
G02*
X117499999Y-124300000I249999J0D01*
G01*
X118150001Y-124300000D01*
G75*
G02*
X118400000Y-124549999I0J-249999D01*
G01*
G37*
%TD*%
%TO.C,C1*%
G36*
G01*
X101800000Y-124549999D02*
X101800000Y-125850001D01*
G75*
G02*
X101550001Y-126100000I-249999J0D01*
G01*
X100899999Y-126100000D01*
G75*
G02*
X100650000Y-125850001I0J249999D01*
G01*
X100650000Y-124549999D01*
G75*
G02*
X100899999Y-124300000I249999J0D01*
G01*
X101550001Y-124300000D01*
G75*
G02*
X101800000Y-124549999I0J-249999D01*
G01*
G37*
G36*
G01*
X98850000Y-124549999D02*
X98850000Y-125850001D01*
G75*
G02*
X98600001Y-126100000I-249999J0D01*
G01*
X97949999Y-126100000D01*
G75*
G02*
X97700000Y-125850001I0J249999D01*
G01*
X97700000Y-124549999D01*
G75*
G02*
X97949999Y-124300000I249999J0D01*
G01*
X98600001Y-124300000D01*
G75*
G02*
X98850000Y-124549999I0J-249999D01*
G01*
G37*
%TD*%
%TO.C,C1*%
G36*
G01*
X180000000Y-104999999D02*
X180000000Y-106300001D01*
G75*
G02*
X179750001Y-106550000I-249999J0D01*
G01*
X179099999Y-106550000D01*
G75*
G02*
X178850000Y-106300001I0J249999D01*
G01*
X178850000Y-104999999D01*
G75*
G02*
X179099999Y-104750000I249999J0D01*
G01*
X179750001Y-104750000D01*
G75*
G02*
X180000000Y-104999999I0J-249999D01*
G01*
G37*
G36*
G01*
X177050000Y-104999999D02*
X177050000Y-106300001D01*
G75*
G02*
X176800001Y-106550000I-249999J0D01*
G01*
X176149999Y-106550000D01*
G75*
G02*
X175900000Y-106300001I0J249999D01*
G01*
X175900000Y-104999999D01*
G75*
G02*
X176149999Y-104750000I249999J0D01*
G01*
X176800001Y-104750000D01*
G75*
G02*
X177050000Y-104999999I0J-249999D01*
G01*
G37*
%TD*%
%TO.C,C1*%
G36*
G01*
X160450000Y-104999999D02*
X160450000Y-106300001D01*
G75*
G02*
X160200001Y-106550000I-249999J0D01*
G01*
X159549999Y-106550000D01*
G75*
G02*
X159300000Y-106300001I0J249999D01*
G01*
X159300000Y-104999999D01*
G75*
G02*
X159549999Y-104750000I249999J0D01*
G01*
X160200001Y-104750000D01*
G75*
G02*
X160450000Y-104999999I0J-249999D01*
G01*
G37*
G36*
G01*
X157500000Y-104999999D02*
X157500000Y-106300001D01*
G75*
G02*
X157250001Y-106550000I-249999J0D01*
G01*
X156599999Y-106550000D01*
G75*
G02*
X156350000Y-106300001I0J249999D01*
G01*
X156350000Y-104999999D01*
G75*
G02*
X156599999Y-104750000I249999J0D01*
G01*
X157250001Y-104750000D01*
G75*
G02*
X157500000Y-104999999I0J-249999D01*
G01*
G37*
%TD*%
%TO.C,C1*%
G36*
G01*
X140900000Y-104999999D02*
X140900000Y-106300001D01*
G75*
G02*
X140650001Y-106550000I-249999J0D01*
G01*
X139999999Y-106550000D01*
G75*
G02*
X139750000Y-106300001I0J249999D01*
G01*
X139750000Y-104999999D01*
G75*
G02*
X139999999Y-104750000I249999J0D01*
G01*
X140650001Y-104750000D01*
G75*
G02*
X140900000Y-104999999I0J-249999D01*
G01*
G37*
G36*
G01*
X137950000Y-104999999D02*
X137950000Y-106300001D01*
G75*
G02*
X137700001Y-106550000I-249999J0D01*
G01*
X137049999Y-106550000D01*
G75*
G02*
X136800000Y-106300001I0J249999D01*
G01*
X136800000Y-104999999D01*
G75*
G02*
X137049999Y-104750000I249999J0D01*
G01*
X137700001Y-104750000D01*
G75*
G02*
X137950000Y-104999999I0J-249999D01*
G01*
G37*
%TD*%
%TO.C,C1*%
G36*
G01*
X121350000Y-104999999D02*
X121350000Y-106300001D01*
G75*
G02*
X121100001Y-106550000I-249999J0D01*
G01*
X120449999Y-106550000D01*
G75*
G02*
X120200000Y-106300001I0J249999D01*
G01*
X120200000Y-104999999D01*
G75*
G02*
X120449999Y-104750000I249999J0D01*
G01*
X121100001Y-104750000D01*
G75*
G02*
X121350000Y-104999999I0J-249999D01*
G01*
G37*
G36*
G01*
X118400000Y-104999999D02*
X118400000Y-106300001D01*
G75*
G02*
X118150001Y-106550000I-249999J0D01*
G01*
X117499999Y-106550000D01*
G75*
G02*
X117250000Y-106300001I0J249999D01*
G01*
X117250000Y-104999999D01*
G75*
G02*
X117499999Y-104750000I249999J0D01*
G01*
X118150001Y-104750000D01*
G75*
G02*
X118400000Y-104999999I0J-249999D01*
G01*
G37*
%TD*%
%TO.C,C1*%
G36*
G01*
X101800000Y-104999999D02*
X101800000Y-106300001D01*
G75*
G02*
X101550001Y-106550000I-249999J0D01*
G01*
X100899999Y-106550000D01*
G75*
G02*
X100650000Y-106300001I0J249999D01*
G01*
X100650000Y-104999999D01*
G75*
G02*
X100899999Y-104750000I249999J0D01*
G01*
X101550001Y-104750000D01*
G75*
G02*
X101800000Y-104999999I0J-249999D01*
G01*
G37*
G36*
G01*
X98850000Y-104999999D02*
X98850000Y-106300001D01*
G75*
G02*
X98600001Y-106550000I-249999J0D01*
G01*
X97949999Y-106550000D01*
G75*
G02*
X97700000Y-106300001I0J249999D01*
G01*
X97700000Y-104999999D01*
G75*
G02*
X97949999Y-104750000I249999J0D01*
G01*
X98600001Y-104750000D01*
G75*
G02*
X98850000Y-104999999I0J-249999D01*
G01*
G37*
%TD*%
%TO.C,C1*%
G36*
G01*
X180000000Y-85449999D02*
X180000000Y-86750001D01*
G75*
G02*
X179750001Y-87000000I-249999J0D01*
G01*
X179099999Y-87000000D01*
G75*
G02*
X178850000Y-86750001I0J249999D01*
G01*
X178850000Y-85449999D01*
G75*
G02*
X179099999Y-85200000I249999J0D01*
G01*
X179750001Y-85200000D01*
G75*
G02*
X180000000Y-85449999I0J-249999D01*
G01*
G37*
G36*
G01*
X177050000Y-85449999D02*
X177050000Y-86750001D01*
G75*
G02*
X176800001Y-87000000I-249999J0D01*
G01*
X176149999Y-87000000D01*
G75*
G02*
X175900000Y-86750001I0J249999D01*
G01*
X175900000Y-85449999D01*
G75*
G02*
X176149999Y-85200000I249999J0D01*
G01*
X176800001Y-85200000D01*
G75*
G02*
X177050000Y-85449999I0J-249999D01*
G01*
G37*
%TD*%
%TO.C,C1*%
G36*
G01*
X160450000Y-85449999D02*
X160450000Y-86750001D01*
G75*
G02*
X160200001Y-87000000I-249999J0D01*
G01*
X159549999Y-87000000D01*
G75*
G02*
X159300000Y-86750001I0J249999D01*
G01*
X159300000Y-85449999D01*
G75*
G02*
X159549999Y-85200000I249999J0D01*
G01*
X160200001Y-85200000D01*
G75*
G02*
X160450000Y-85449999I0J-249999D01*
G01*
G37*
G36*
G01*
X157500000Y-85449999D02*
X157500000Y-86750001D01*
G75*
G02*
X157250001Y-87000000I-249999J0D01*
G01*
X156599999Y-87000000D01*
G75*
G02*
X156350000Y-86750001I0J249999D01*
G01*
X156350000Y-85449999D01*
G75*
G02*
X156599999Y-85200000I249999J0D01*
G01*
X157250001Y-85200000D01*
G75*
G02*
X157500000Y-85449999I0J-249999D01*
G01*
G37*
%TD*%
%TO.C,C1*%
G36*
G01*
X140900000Y-85449999D02*
X140900000Y-86750001D01*
G75*
G02*
X140650001Y-87000000I-249999J0D01*
G01*
X139999999Y-87000000D01*
G75*
G02*
X139750000Y-86750001I0J249999D01*
G01*
X139750000Y-85449999D01*
G75*
G02*
X139999999Y-85200000I249999J0D01*
G01*
X140650001Y-85200000D01*
G75*
G02*
X140900000Y-85449999I0J-249999D01*
G01*
G37*
G36*
G01*
X137950000Y-85449999D02*
X137950000Y-86750001D01*
G75*
G02*
X137700001Y-87000000I-249999J0D01*
G01*
X137049999Y-87000000D01*
G75*
G02*
X136800000Y-86750001I0J249999D01*
G01*
X136800000Y-85449999D01*
G75*
G02*
X137049999Y-85200000I249999J0D01*
G01*
X137700001Y-85200000D01*
G75*
G02*
X137950000Y-85449999I0J-249999D01*
G01*
G37*
%TD*%
%TO.C,C1*%
G36*
G01*
X121350000Y-85449999D02*
X121350000Y-86750001D01*
G75*
G02*
X121100001Y-87000000I-249999J0D01*
G01*
X120449999Y-87000000D01*
G75*
G02*
X120200000Y-86750001I0J249999D01*
G01*
X120200000Y-85449999D01*
G75*
G02*
X120449999Y-85200000I249999J0D01*
G01*
X121100001Y-85200000D01*
G75*
G02*
X121350000Y-85449999I0J-249999D01*
G01*
G37*
G36*
G01*
X118400000Y-85449999D02*
X118400000Y-86750001D01*
G75*
G02*
X118150001Y-87000000I-249999J0D01*
G01*
X117499999Y-87000000D01*
G75*
G02*
X117250000Y-86750001I0J249999D01*
G01*
X117250000Y-85449999D01*
G75*
G02*
X117499999Y-85200000I249999J0D01*
G01*
X118150001Y-85200000D01*
G75*
G02*
X118400000Y-85449999I0J-249999D01*
G01*
G37*
%TD*%
%TO.C,J11*%
X169700000Y-159730000D03*
%TD*%
%TO.C,J11*%
X150150000Y-159730000D03*
%TD*%
%TO.C,J11*%
X130600000Y-159730000D03*
%TD*%
%TO.C,J11*%
X111050000Y-159730000D03*
%TD*%
%TO.C,J11*%
X91500000Y-159730000D03*
%TD*%
%TO.C,J11*%
X169700000Y-140180000D03*
%TD*%
%TO.C,J11*%
X150150000Y-140180000D03*
%TD*%
%TO.C,J11*%
X130600000Y-140180000D03*
%TD*%
%TO.C,J11*%
X111050000Y-140180000D03*
%TD*%
%TO.C,J11*%
X91500000Y-140180000D03*
%TD*%
%TO.C,J11*%
X169700000Y-120630000D03*
%TD*%
%TO.C,J11*%
X150150000Y-120630000D03*
%TD*%
%TO.C,J11*%
X130600000Y-120630000D03*
%TD*%
%TO.C,J11*%
X111050000Y-120630000D03*
%TD*%
%TO.C,J11*%
X91500000Y-120630000D03*
%TD*%
%TO.C,J11*%
X169700000Y-101080000D03*
%TD*%
%TO.C,J11*%
X150150000Y-101080000D03*
%TD*%
%TO.C,J11*%
X130600000Y-101080000D03*
%TD*%
%TO.C,J11*%
X111050000Y-101080000D03*
%TD*%
%TO.C,J11*%
X91500000Y-101080000D03*
%TD*%
%TO.C,J11*%
X169700000Y-81530000D03*
%TD*%
%TO.C,J11*%
X150150000Y-81530000D03*
%TD*%
%TO.C,J11*%
X130600000Y-81530000D03*
%TD*%
%TO.C,J11*%
X111050000Y-81530000D03*
%TD*%
%TO.C,D1*%
G36*
G01*
X178750000Y-148325000D02*
X178750000Y-147075000D01*
G75*
G02*
X179000000Y-146825000I250000J0D01*
G01*
X179750000Y-146825000D01*
G75*
G02*
X180000000Y-147075000I0J-250000D01*
G01*
X180000000Y-148325000D01*
G75*
G02*
X179750000Y-148575000I-250000J0D01*
G01*
X179000000Y-148575000D01*
G75*
G02*
X178750000Y-148325000I0J250000D01*
G01*
G37*
G36*
G01*
X175950000Y-148325000D02*
X175950000Y-147075000D01*
G75*
G02*
X176200000Y-146825000I250000J0D01*
G01*
X176950000Y-146825000D01*
G75*
G02*
X177200000Y-147075000I0J-250000D01*
G01*
X177200000Y-148325000D01*
G75*
G02*
X176950000Y-148575000I-250000J0D01*
G01*
X176200000Y-148575000D01*
G75*
G02*
X175950000Y-148325000I0J250000D01*
G01*
G37*
%TD*%
%TO.C,D1*%
G36*
G01*
X159200000Y-148325000D02*
X159200000Y-147075000D01*
G75*
G02*
X159450000Y-146825000I250000J0D01*
G01*
X160200000Y-146825000D01*
G75*
G02*
X160450000Y-147075000I0J-250000D01*
G01*
X160450000Y-148325000D01*
G75*
G02*
X160200000Y-148575000I-250000J0D01*
G01*
X159450000Y-148575000D01*
G75*
G02*
X159200000Y-148325000I0J250000D01*
G01*
G37*
G36*
G01*
X156400000Y-148325000D02*
X156400000Y-147075000D01*
G75*
G02*
X156650000Y-146825000I250000J0D01*
G01*
X157400000Y-146825000D01*
G75*
G02*
X157650000Y-147075000I0J-250000D01*
G01*
X157650000Y-148325000D01*
G75*
G02*
X157400000Y-148575000I-250000J0D01*
G01*
X156650000Y-148575000D01*
G75*
G02*
X156400000Y-148325000I0J250000D01*
G01*
G37*
%TD*%
%TO.C,D1*%
G36*
G01*
X139650000Y-148325000D02*
X139650000Y-147075000D01*
G75*
G02*
X139900000Y-146825000I250000J0D01*
G01*
X140650000Y-146825000D01*
G75*
G02*
X140900000Y-147075000I0J-250000D01*
G01*
X140900000Y-148325000D01*
G75*
G02*
X140650000Y-148575000I-250000J0D01*
G01*
X139900000Y-148575000D01*
G75*
G02*
X139650000Y-148325000I0J250000D01*
G01*
G37*
G36*
G01*
X136850000Y-148325000D02*
X136850000Y-147075000D01*
G75*
G02*
X137100000Y-146825000I250000J0D01*
G01*
X137850000Y-146825000D01*
G75*
G02*
X138100000Y-147075000I0J-250000D01*
G01*
X138100000Y-148325000D01*
G75*
G02*
X137850000Y-148575000I-250000J0D01*
G01*
X137100000Y-148575000D01*
G75*
G02*
X136850000Y-148325000I0J250000D01*
G01*
G37*
%TD*%
%TO.C,D1*%
G36*
G01*
X120100000Y-148325000D02*
X120100000Y-147075000D01*
G75*
G02*
X120350000Y-146825000I250000J0D01*
G01*
X121100000Y-146825000D01*
G75*
G02*
X121350000Y-147075000I0J-250000D01*
G01*
X121350000Y-148325000D01*
G75*
G02*
X121100000Y-148575000I-250000J0D01*
G01*
X120350000Y-148575000D01*
G75*
G02*
X120100000Y-148325000I0J250000D01*
G01*
G37*
G36*
G01*
X117300000Y-148325000D02*
X117300000Y-147075000D01*
G75*
G02*
X117550000Y-146825000I250000J0D01*
G01*
X118300000Y-146825000D01*
G75*
G02*
X118550000Y-147075000I0J-250000D01*
G01*
X118550000Y-148325000D01*
G75*
G02*
X118300000Y-148575000I-250000J0D01*
G01*
X117550000Y-148575000D01*
G75*
G02*
X117300000Y-148325000I0J250000D01*
G01*
G37*
%TD*%
%TO.C,D1*%
G36*
G01*
X100550000Y-148325000D02*
X100550000Y-147075000D01*
G75*
G02*
X100800000Y-146825000I250000J0D01*
G01*
X101550000Y-146825000D01*
G75*
G02*
X101800000Y-147075000I0J-250000D01*
G01*
X101800000Y-148325000D01*
G75*
G02*
X101550000Y-148575000I-250000J0D01*
G01*
X100800000Y-148575000D01*
G75*
G02*
X100550000Y-148325000I0J250000D01*
G01*
G37*
G36*
G01*
X97750000Y-148325000D02*
X97750000Y-147075000D01*
G75*
G02*
X98000000Y-146825000I250000J0D01*
G01*
X98750000Y-146825000D01*
G75*
G02*
X99000000Y-147075000I0J-250000D01*
G01*
X99000000Y-148325000D01*
G75*
G02*
X98750000Y-148575000I-250000J0D01*
G01*
X98000000Y-148575000D01*
G75*
G02*
X97750000Y-148325000I0J250000D01*
G01*
G37*
%TD*%
%TO.C,D1*%
G36*
G01*
X178750000Y-128775000D02*
X178750000Y-127525000D01*
G75*
G02*
X179000000Y-127275000I250000J0D01*
G01*
X179750000Y-127275000D01*
G75*
G02*
X180000000Y-127525000I0J-250000D01*
G01*
X180000000Y-128775000D01*
G75*
G02*
X179750000Y-129025000I-250000J0D01*
G01*
X179000000Y-129025000D01*
G75*
G02*
X178750000Y-128775000I0J250000D01*
G01*
G37*
G36*
G01*
X175950000Y-128775000D02*
X175950000Y-127525000D01*
G75*
G02*
X176200000Y-127275000I250000J0D01*
G01*
X176950000Y-127275000D01*
G75*
G02*
X177200000Y-127525000I0J-250000D01*
G01*
X177200000Y-128775000D01*
G75*
G02*
X176950000Y-129025000I-250000J0D01*
G01*
X176200000Y-129025000D01*
G75*
G02*
X175950000Y-128775000I0J250000D01*
G01*
G37*
%TD*%
%TO.C,D1*%
G36*
G01*
X159200000Y-128775000D02*
X159200000Y-127525000D01*
G75*
G02*
X159450000Y-127275000I250000J0D01*
G01*
X160200000Y-127275000D01*
G75*
G02*
X160450000Y-127525000I0J-250000D01*
G01*
X160450000Y-128775000D01*
G75*
G02*
X160200000Y-129025000I-250000J0D01*
G01*
X159450000Y-129025000D01*
G75*
G02*
X159200000Y-128775000I0J250000D01*
G01*
G37*
G36*
G01*
X156400000Y-128775000D02*
X156400000Y-127525000D01*
G75*
G02*
X156650000Y-127275000I250000J0D01*
G01*
X157400000Y-127275000D01*
G75*
G02*
X157650000Y-127525000I0J-250000D01*
G01*
X157650000Y-128775000D01*
G75*
G02*
X157400000Y-129025000I-250000J0D01*
G01*
X156650000Y-129025000D01*
G75*
G02*
X156400000Y-128775000I0J250000D01*
G01*
G37*
%TD*%
%TO.C,D1*%
G36*
G01*
X139650000Y-128775000D02*
X139650000Y-127525000D01*
G75*
G02*
X139900000Y-127275000I250000J0D01*
G01*
X140650000Y-127275000D01*
G75*
G02*
X140900000Y-127525000I0J-250000D01*
G01*
X140900000Y-128775000D01*
G75*
G02*
X140650000Y-129025000I-250000J0D01*
G01*
X139900000Y-129025000D01*
G75*
G02*
X139650000Y-128775000I0J250000D01*
G01*
G37*
G36*
G01*
X136850000Y-128775000D02*
X136850000Y-127525000D01*
G75*
G02*
X137100000Y-127275000I250000J0D01*
G01*
X137850000Y-127275000D01*
G75*
G02*
X138100000Y-127525000I0J-250000D01*
G01*
X138100000Y-128775000D01*
G75*
G02*
X137850000Y-129025000I-250000J0D01*
G01*
X137100000Y-129025000D01*
G75*
G02*
X136850000Y-128775000I0J250000D01*
G01*
G37*
%TD*%
%TO.C,D1*%
G36*
G01*
X120100000Y-128775000D02*
X120100000Y-127525000D01*
G75*
G02*
X120350000Y-127275000I250000J0D01*
G01*
X121100000Y-127275000D01*
G75*
G02*
X121350000Y-127525000I0J-250000D01*
G01*
X121350000Y-128775000D01*
G75*
G02*
X121100000Y-129025000I-250000J0D01*
G01*
X120350000Y-129025000D01*
G75*
G02*
X120100000Y-128775000I0J250000D01*
G01*
G37*
G36*
G01*
X117300000Y-128775000D02*
X117300000Y-127525000D01*
G75*
G02*
X117550000Y-127275000I250000J0D01*
G01*
X118300000Y-127275000D01*
G75*
G02*
X118550000Y-127525000I0J-250000D01*
G01*
X118550000Y-128775000D01*
G75*
G02*
X118300000Y-129025000I-250000J0D01*
G01*
X117550000Y-129025000D01*
G75*
G02*
X117300000Y-128775000I0J250000D01*
G01*
G37*
%TD*%
%TO.C,D1*%
G36*
G01*
X100550000Y-128775000D02*
X100550000Y-127525000D01*
G75*
G02*
X100800000Y-127275000I250000J0D01*
G01*
X101550000Y-127275000D01*
G75*
G02*
X101800000Y-127525000I0J-250000D01*
G01*
X101800000Y-128775000D01*
G75*
G02*
X101550000Y-129025000I-250000J0D01*
G01*
X100800000Y-129025000D01*
G75*
G02*
X100550000Y-128775000I0J250000D01*
G01*
G37*
G36*
G01*
X97750000Y-128775000D02*
X97750000Y-127525000D01*
G75*
G02*
X98000000Y-127275000I250000J0D01*
G01*
X98750000Y-127275000D01*
G75*
G02*
X99000000Y-127525000I0J-250000D01*
G01*
X99000000Y-128775000D01*
G75*
G02*
X98750000Y-129025000I-250000J0D01*
G01*
X98000000Y-129025000D01*
G75*
G02*
X97750000Y-128775000I0J250000D01*
G01*
G37*
%TD*%
%TO.C,D1*%
G36*
G01*
X178750000Y-109225000D02*
X178750000Y-107975000D01*
G75*
G02*
X179000000Y-107725000I250000J0D01*
G01*
X179750000Y-107725000D01*
G75*
G02*
X180000000Y-107975000I0J-250000D01*
G01*
X180000000Y-109225000D01*
G75*
G02*
X179750000Y-109475000I-250000J0D01*
G01*
X179000000Y-109475000D01*
G75*
G02*
X178750000Y-109225000I0J250000D01*
G01*
G37*
G36*
G01*
X175950000Y-109225000D02*
X175950000Y-107975000D01*
G75*
G02*
X176200000Y-107725000I250000J0D01*
G01*
X176950000Y-107725000D01*
G75*
G02*
X177200000Y-107975000I0J-250000D01*
G01*
X177200000Y-109225000D01*
G75*
G02*
X176950000Y-109475000I-250000J0D01*
G01*
X176200000Y-109475000D01*
G75*
G02*
X175950000Y-109225000I0J250000D01*
G01*
G37*
%TD*%
%TO.C,D1*%
G36*
G01*
X159200000Y-109225000D02*
X159200000Y-107975000D01*
G75*
G02*
X159450000Y-107725000I250000J0D01*
G01*
X160200000Y-107725000D01*
G75*
G02*
X160450000Y-107975000I0J-250000D01*
G01*
X160450000Y-109225000D01*
G75*
G02*
X160200000Y-109475000I-250000J0D01*
G01*
X159450000Y-109475000D01*
G75*
G02*
X159200000Y-109225000I0J250000D01*
G01*
G37*
G36*
G01*
X156400000Y-109225000D02*
X156400000Y-107975000D01*
G75*
G02*
X156650000Y-107725000I250000J0D01*
G01*
X157400000Y-107725000D01*
G75*
G02*
X157650000Y-107975000I0J-250000D01*
G01*
X157650000Y-109225000D01*
G75*
G02*
X157400000Y-109475000I-250000J0D01*
G01*
X156650000Y-109475000D01*
G75*
G02*
X156400000Y-109225000I0J250000D01*
G01*
G37*
%TD*%
%TO.C,D1*%
G36*
G01*
X139650000Y-109225000D02*
X139650000Y-107975000D01*
G75*
G02*
X139900000Y-107725000I250000J0D01*
G01*
X140650000Y-107725000D01*
G75*
G02*
X140900000Y-107975000I0J-250000D01*
G01*
X140900000Y-109225000D01*
G75*
G02*
X140650000Y-109475000I-250000J0D01*
G01*
X139900000Y-109475000D01*
G75*
G02*
X139650000Y-109225000I0J250000D01*
G01*
G37*
G36*
G01*
X136850000Y-109225000D02*
X136850000Y-107975000D01*
G75*
G02*
X137100000Y-107725000I250000J0D01*
G01*
X137850000Y-107725000D01*
G75*
G02*
X138100000Y-107975000I0J-250000D01*
G01*
X138100000Y-109225000D01*
G75*
G02*
X137850000Y-109475000I-250000J0D01*
G01*
X137100000Y-109475000D01*
G75*
G02*
X136850000Y-109225000I0J250000D01*
G01*
G37*
%TD*%
%TO.C,D1*%
G36*
G01*
X120100000Y-109225000D02*
X120100000Y-107975000D01*
G75*
G02*
X120350000Y-107725000I250000J0D01*
G01*
X121100000Y-107725000D01*
G75*
G02*
X121350000Y-107975000I0J-250000D01*
G01*
X121350000Y-109225000D01*
G75*
G02*
X121100000Y-109475000I-250000J0D01*
G01*
X120350000Y-109475000D01*
G75*
G02*
X120100000Y-109225000I0J250000D01*
G01*
G37*
G36*
G01*
X117300000Y-109225000D02*
X117300000Y-107975000D01*
G75*
G02*
X117550000Y-107725000I250000J0D01*
G01*
X118300000Y-107725000D01*
G75*
G02*
X118550000Y-107975000I0J-250000D01*
G01*
X118550000Y-109225000D01*
G75*
G02*
X118300000Y-109475000I-250000J0D01*
G01*
X117550000Y-109475000D01*
G75*
G02*
X117300000Y-109225000I0J250000D01*
G01*
G37*
%TD*%
%TO.C,D1*%
G36*
G01*
X100550000Y-109225000D02*
X100550000Y-107975000D01*
G75*
G02*
X100800000Y-107725000I250000J0D01*
G01*
X101550000Y-107725000D01*
G75*
G02*
X101800000Y-107975000I0J-250000D01*
G01*
X101800000Y-109225000D01*
G75*
G02*
X101550000Y-109475000I-250000J0D01*
G01*
X100800000Y-109475000D01*
G75*
G02*
X100550000Y-109225000I0J250000D01*
G01*
G37*
G36*
G01*
X97750000Y-109225000D02*
X97750000Y-107975000D01*
G75*
G02*
X98000000Y-107725000I250000J0D01*
G01*
X98750000Y-107725000D01*
G75*
G02*
X99000000Y-107975000I0J-250000D01*
G01*
X99000000Y-109225000D01*
G75*
G02*
X98750000Y-109475000I-250000J0D01*
G01*
X98000000Y-109475000D01*
G75*
G02*
X97750000Y-109225000I0J250000D01*
G01*
G37*
%TD*%
%TO.C,D1*%
G36*
G01*
X178750000Y-89675000D02*
X178750000Y-88425000D01*
G75*
G02*
X179000000Y-88175000I250000J0D01*
G01*
X179750000Y-88175000D01*
G75*
G02*
X180000000Y-88425000I0J-250000D01*
G01*
X180000000Y-89675000D01*
G75*
G02*
X179750000Y-89925000I-250000J0D01*
G01*
X179000000Y-89925000D01*
G75*
G02*
X178750000Y-89675000I0J250000D01*
G01*
G37*
G36*
G01*
X175950000Y-89675000D02*
X175950000Y-88425000D01*
G75*
G02*
X176200000Y-88175000I250000J0D01*
G01*
X176950000Y-88175000D01*
G75*
G02*
X177200000Y-88425000I0J-250000D01*
G01*
X177200000Y-89675000D01*
G75*
G02*
X176950000Y-89925000I-250000J0D01*
G01*
X176200000Y-89925000D01*
G75*
G02*
X175950000Y-89675000I0J250000D01*
G01*
G37*
%TD*%
%TO.C,D1*%
G36*
G01*
X159200000Y-89675000D02*
X159200000Y-88425000D01*
G75*
G02*
X159450000Y-88175000I250000J0D01*
G01*
X160200000Y-88175000D01*
G75*
G02*
X160450000Y-88425000I0J-250000D01*
G01*
X160450000Y-89675000D01*
G75*
G02*
X160200000Y-89925000I-250000J0D01*
G01*
X159450000Y-89925000D01*
G75*
G02*
X159200000Y-89675000I0J250000D01*
G01*
G37*
G36*
G01*
X156400000Y-89675000D02*
X156400000Y-88425000D01*
G75*
G02*
X156650000Y-88175000I250000J0D01*
G01*
X157400000Y-88175000D01*
G75*
G02*
X157650000Y-88425000I0J-250000D01*
G01*
X157650000Y-89675000D01*
G75*
G02*
X157400000Y-89925000I-250000J0D01*
G01*
X156650000Y-89925000D01*
G75*
G02*
X156400000Y-89675000I0J250000D01*
G01*
G37*
%TD*%
%TO.C,D1*%
G36*
G01*
X139650000Y-89675000D02*
X139650000Y-88425000D01*
G75*
G02*
X139900000Y-88175000I250000J0D01*
G01*
X140650000Y-88175000D01*
G75*
G02*
X140900000Y-88425000I0J-250000D01*
G01*
X140900000Y-89675000D01*
G75*
G02*
X140650000Y-89925000I-250000J0D01*
G01*
X139900000Y-89925000D01*
G75*
G02*
X139650000Y-89675000I0J250000D01*
G01*
G37*
G36*
G01*
X136850000Y-89675000D02*
X136850000Y-88425000D01*
G75*
G02*
X137100000Y-88175000I250000J0D01*
G01*
X137850000Y-88175000D01*
G75*
G02*
X138100000Y-88425000I0J-250000D01*
G01*
X138100000Y-89675000D01*
G75*
G02*
X137850000Y-89925000I-250000J0D01*
G01*
X137100000Y-89925000D01*
G75*
G02*
X136850000Y-89675000I0J250000D01*
G01*
G37*
%TD*%
%TO.C,D1*%
G36*
G01*
X120100000Y-89675000D02*
X120100000Y-88425000D01*
G75*
G02*
X120350000Y-88175000I250000J0D01*
G01*
X121100000Y-88175000D01*
G75*
G02*
X121350000Y-88425000I0J-250000D01*
G01*
X121350000Y-89675000D01*
G75*
G02*
X121100000Y-89925000I-250000J0D01*
G01*
X120350000Y-89925000D01*
G75*
G02*
X120100000Y-89675000I0J250000D01*
G01*
G37*
G36*
G01*
X117300000Y-89675000D02*
X117300000Y-88425000D01*
G75*
G02*
X117550000Y-88175000I250000J0D01*
G01*
X118300000Y-88175000D01*
G75*
G02*
X118550000Y-88425000I0J-250000D01*
G01*
X118550000Y-89675000D01*
G75*
G02*
X118300000Y-89925000I-250000J0D01*
G01*
X117550000Y-89925000D01*
G75*
G02*
X117300000Y-89675000I0J250000D01*
G01*
G37*
%TD*%
%TO.C,D1*%
G36*
G01*
X100550000Y-89675000D02*
X100550000Y-88425000D01*
G75*
G02*
X100800000Y-88175000I250000J0D01*
G01*
X101550000Y-88175000D01*
G75*
G02*
X101800000Y-88425000I0J-250000D01*
G01*
X101800000Y-89675000D01*
G75*
G02*
X101550000Y-89925000I-250000J0D01*
G01*
X100800000Y-89925000D01*
G75*
G02*
X100550000Y-89675000I0J250000D01*
G01*
G37*
G36*
G01*
X97750000Y-89675000D02*
X97750000Y-88425000D01*
G75*
G02*
X98000000Y-88175000I250000J0D01*
G01*
X98750000Y-88175000D01*
G75*
G02*
X99000000Y-88425000I0J-250000D01*
G01*
X99000000Y-89675000D01*
G75*
G02*
X98750000Y-89925000I-250000J0D01*
G01*
X98000000Y-89925000D01*
G75*
G02*
X97750000Y-89675000I0J250000D01*
G01*
G37*
%TD*%
%TO.C,D1*%
G36*
G01*
X178750000Y-70125000D02*
X178750000Y-68875000D01*
G75*
G02*
X179000000Y-68625000I250000J0D01*
G01*
X179750000Y-68625000D01*
G75*
G02*
X180000000Y-68875000I0J-250000D01*
G01*
X180000000Y-70125000D01*
G75*
G02*
X179750000Y-70375000I-250000J0D01*
G01*
X179000000Y-70375000D01*
G75*
G02*
X178750000Y-70125000I0J250000D01*
G01*
G37*
G36*
G01*
X175950000Y-70125000D02*
X175950000Y-68875000D01*
G75*
G02*
X176200000Y-68625000I250000J0D01*
G01*
X176950000Y-68625000D01*
G75*
G02*
X177200000Y-68875000I0J-250000D01*
G01*
X177200000Y-70125000D01*
G75*
G02*
X176950000Y-70375000I-250000J0D01*
G01*
X176200000Y-70375000D01*
G75*
G02*
X175950000Y-70125000I0J250000D01*
G01*
G37*
%TD*%
%TO.C,D1*%
G36*
G01*
X159200000Y-70125000D02*
X159200000Y-68875000D01*
G75*
G02*
X159450000Y-68625000I250000J0D01*
G01*
X160200000Y-68625000D01*
G75*
G02*
X160450000Y-68875000I0J-250000D01*
G01*
X160450000Y-70125000D01*
G75*
G02*
X160200000Y-70375000I-250000J0D01*
G01*
X159450000Y-70375000D01*
G75*
G02*
X159200000Y-70125000I0J250000D01*
G01*
G37*
G36*
G01*
X156400000Y-70125000D02*
X156400000Y-68875000D01*
G75*
G02*
X156650000Y-68625000I250000J0D01*
G01*
X157400000Y-68625000D01*
G75*
G02*
X157650000Y-68875000I0J-250000D01*
G01*
X157650000Y-70125000D01*
G75*
G02*
X157400000Y-70375000I-250000J0D01*
G01*
X156650000Y-70375000D01*
G75*
G02*
X156400000Y-70125000I0J250000D01*
G01*
G37*
%TD*%
%TO.C,D1*%
G36*
G01*
X139650000Y-70125000D02*
X139650000Y-68875000D01*
G75*
G02*
X139900000Y-68625000I250000J0D01*
G01*
X140650000Y-68625000D01*
G75*
G02*
X140900000Y-68875000I0J-250000D01*
G01*
X140900000Y-70125000D01*
G75*
G02*
X140650000Y-70375000I-250000J0D01*
G01*
X139900000Y-70375000D01*
G75*
G02*
X139650000Y-70125000I0J250000D01*
G01*
G37*
G36*
G01*
X136850000Y-70125000D02*
X136850000Y-68875000D01*
G75*
G02*
X137100000Y-68625000I250000J0D01*
G01*
X137850000Y-68625000D01*
G75*
G02*
X138100000Y-68875000I0J-250000D01*
G01*
X138100000Y-70125000D01*
G75*
G02*
X137850000Y-70375000I-250000J0D01*
G01*
X137100000Y-70375000D01*
G75*
G02*
X136850000Y-70125000I0J250000D01*
G01*
G37*
%TD*%
%TO.C,D1*%
G36*
G01*
X120100000Y-70125000D02*
X120100000Y-68875000D01*
G75*
G02*
X120350000Y-68625000I250000J0D01*
G01*
X121100000Y-68625000D01*
G75*
G02*
X121350000Y-68875000I0J-250000D01*
G01*
X121350000Y-70125000D01*
G75*
G02*
X121100000Y-70375000I-250000J0D01*
G01*
X120350000Y-70375000D01*
G75*
G02*
X120100000Y-70125000I0J250000D01*
G01*
G37*
G36*
G01*
X117300000Y-70125000D02*
X117300000Y-68875000D01*
G75*
G02*
X117550000Y-68625000I250000J0D01*
G01*
X118300000Y-68625000D01*
G75*
G02*
X118550000Y-68875000I0J-250000D01*
G01*
X118550000Y-70125000D01*
G75*
G02*
X118300000Y-70375000I-250000J0D01*
G01*
X117550000Y-70375000D01*
G75*
G02*
X117300000Y-70125000I0J250000D01*
G01*
G37*
%TD*%
%TO.C,J12*%
X183200000Y-147700000D03*
%TD*%
%TO.C,J12*%
X163650000Y-147700000D03*
%TD*%
%TO.C,J12*%
X144100000Y-147700000D03*
%TD*%
%TO.C,J12*%
X124550000Y-147700000D03*
%TD*%
%TO.C,J12*%
X105000000Y-147700000D03*
%TD*%
%TO.C,J12*%
X183200000Y-128150000D03*
%TD*%
%TO.C,J12*%
X163650000Y-128150000D03*
%TD*%
%TO.C,J12*%
X144100000Y-128150000D03*
%TD*%
%TO.C,J12*%
X124550000Y-128150000D03*
%TD*%
%TO.C,J12*%
X105000000Y-128150000D03*
%TD*%
%TO.C,J12*%
X183200000Y-108600000D03*
%TD*%
%TO.C,J12*%
X163650000Y-108600000D03*
%TD*%
%TO.C,J12*%
X144100000Y-108600000D03*
%TD*%
%TO.C,J12*%
X124550000Y-108600000D03*
%TD*%
%TO.C,J12*%
X105000000Y-108600000D03*
%TD*%
%TO.C,J12*%
X183200000Y-89050000D03*
%TD*%
%TO.C,J12*%
X163650000Y-89050000D03*
%TD*%
%TO.C,J12*%
X144100000Y-89050000D03*
%TD*%
%TO.C,J12*%
X124550000Y-89050000D03*
%TD*%
%TO.C,J12*%
X105000000Y-89050000D03*
%TD*%
%TO.C,J12*%
X183200000Y-69500000D03*
%TD*%
%TO.C,J12*%
X163650000Y-69500000D03*
%TD*%
%TO.C,J12*%
X144100000Y-69500000D03*
%TD*%
%TO.C,J12*%
X124550000Y-69500000D03*
%TD*%
D10*
%TO.C,REF\u002A\u002A*%
X102205000Y-87530000D03*
X101505000Y-87530000D03*
X100805000Y-87530000D03*
X100105000Y-87530000D03*
X99405000Y-87530000D03*
X98705000Y-87530000D03*
X98005000Y-87530000D03*
X97305000Y-87530000D03*
%TD*%
%TO.C,REF\u002A\u002A*%
X109530000Y-75305000D03*
X109530000Y-76005000D03*
X109530000Y-76705000D03*
X109530000Y-77405000D03*
X109530000Y-78105000D03*
X109530000Y-78805000D03*
X109530000Y-79505000D03*
X109530000Y-80205000D03*
%TD*%
D16*
%TO.C,L1*%
X102500000Y-82300000D03*
X102500000Y-83700000D03*
X97000000Y-82300000D03*
X97000000Y-83700000D03*
%TD*%
D13*
%TO.C,SW1*%
X92665000Y-75210000D03*
D15*
X99750000Y-77750000D03*
D14*
X104830000Y-77750000D03*
X94670000Y-77750000D03*
D13*
X105592000Y-72670000D03*
D12*
X95940000Y-75210000D03*
X102290000Y-72670000D03*
%TD*%
D11*
%TO.C,J1*%
X108000000Y-86000000D03*
%TD*%
%TO.C,J2*%
X91500000Y-69500000D03*
%TD*%
%TO.C,J3*%
X91500000Y-78530000D03*
%TD*%
%TO.C,J4*%
X94500000Y-86000000D03*
%TD*%
%TO.C,J5*%
X105000000Y-86000000D03*
%TD*%
%TO.C,J6*%
X108000000Y-81530000D03*
%TD*%
%TO.C,J7*%
X108000000Y-69500000D03*
%TD*%
%TO.C,J8*%
X91500000Y-86000000D03*
%TD*%
%TO.C,J9*%
X108000000Y-78530000D03*
%TD*%
%TO.C,J10*%
X94500000Y-69500000D03*
%TD*%
%TO.C,J11*%
X91500000Y-81530000D03*
%TD*%
%TO.C,J12*%
X105000000Y-69500000D03*
%TD*%
%TO.C,C1*%
G36*
G01*
X98850000Y-85449999D02*
X98850000Y-86750001D01*
G75*
G02*
X98600001Y-87000000I-249999J0D01*
G01*
X97949999Y-87000000D01*
G75*
G02*
X97700000Y-86750001I0J249999D01*
G01*
X97700000Y-85449999D01*
G75*
G02*
X97949999Y-85200000I249999J0D01*
G01*
X98600001Y-85200000D01*
G75*
G02*
X98850000Y-85449999I0J-249999D01*
G01*
G37*
G36*
G01*
X101800000Y-85449999D02*
X101800000Y-86750001D01*
G75*
G02*
X101550001Y-87000000I-249999J0D01*
G01*
X100899999Y-87000000D01*
G75*
G02*
X100650000Y-86750001I0J249999D01*
G01*
X100650000Y-85449999D01*
G75*
G02*
X100899999Y-85200000I249999J0D01*
G01*
X101550001Y-85200000D01*
G75*
G02*
X101800000Y-85449999I0J-249999D01*
G01*
G37*
%TD*%
%TO.C,D1*%
G36*
G01*
X97750000Y-70125000D02*
X97750000Y-68875000D01*
G75*
G02*
X98000000Y-68625000I250000J0D01*
G01*
X98750000Y-68625000D01*
G75*
G02*
X99000000Y-68875000I0J-250000D01*
G01*
X99000000Y-70125000D01*
G75*
G02*
X98750000Y-70375000I-250000J0D01*
G01*
X98000000Y-70375000D01*
G75*
G02*
X97750000Y-70125000I0J250000D01*
G01*
G37*
G36*
G01*
X100550000Y-70125000D02*
X100550000Y-68875000D01*
G75*
G02*
X100800000Y-68625000I250000J0D01*
G01*
X101550000Y-68625000D01*
G75*
G02*
X101800000Y-68875000I0J-250000D01*
G01*
X101800000Y-70125000D01*
G75*
G02*
X101550000Y-70375000I-250000J0D01*
G01*
X100800000Y-70375000D01*
G75*
G02*
X100550000Y-70125000I0J250000D01*
G01*
G37*
%TD*%
M02*
