M48
; DRILL file {KiCad (5.1.9)-1} date 03/14/21 01:38:53
; FORMAT={-:-/ absolute / inch / decimal}
; #@! TF.CreationDate,2021-03-14T01:38:53+01:00
; #@! TF.GenerationSoftware,Kicad,Pcbnew,(5.1.9)-1
; #@! TF.FileFunction,NonPlated,1,2,NPTH
FMAT,2
INCH
T1C0.0197
T2C0.0748
T3C0.1181
T4C0.1614
%
G90
G05
T1
X3.8309Y-3.4461
X3.8309Y-4.2157
X3.8309Y-4.9854
X3.8309Y-5.7551
X3.8585Y-3.4461
X3.8585Y-4.2157
X3.8585Y-4.9854
X3.8585Y-5.7551
X3.886Y-3.4461
X3.886Y-4.2157
X3.886Y-4.9854
X3.886Y-5.7551
X3.9136Y-3.4461
X3.9136Y-4.2157
X3.9136Y-4.9854
X3.9136Y-5.7551
X3.9411Y-3.4461
X3.9411Y-4.2157
X3.9411Y-4.9854
X3.9411Y-5.7551
X3.9687Y-3.4461
X3.9687Y-4.2157
X3.9687Y-4.9854
X3.9687Y-5.7551
X3.9963Y-3.4461
X3.9963Y-4.2157
X3.9963Y-4.9854
X3.9963Y-5.7551
X4.0238Y-3.4461
X4.0238Y-4.2157
X4.0238Y-4.9854
X4.0238Y-5.7551
X4.3122Y-2.9648
X4.3122Y-2.9923
X4.3122Y-3.0199
X4.3122Y-3.0474
X4.3122Y-3.075
X4.3122Y-3.1026
X4.3122Y-3.1301
X4.3122Y-3.1577
X4.3122Y-3.7344
X4.3122Y-3.762
X4.3122Y-3.7896
X4.3122Y-3.8171
X4.3122Y-3.8447
X4.3122Y-3.8722
X4.3122Y-3.8998
X4.3122Y-3.9274
X4.3122Y-4.5041
X4.3122Y-4.5317
X4.3122Y-4.5593
X4.3122Y-4.5868
X4.3122Y-4.6144
X4.3122Y-4.6419
X4.3122Y-4.6695
X4.3122Y-4.697
X4.3122Y-5.2738
X4.3122Y-5.3014
X4.3122Y-5.3289
X4.3122Y-5.3565
X4.3122Y-5.3841
X4.3122Y-5.4116
X4.3122Y-5.4392
X4.3122Y-5.4667
X4.3122Y-6.0435
X4.3122Y-6.0711
X4.3122Y-6.0986
X4.3122Y-6.1262
X4.3122Y-6.1537
X4.3122Y-6.1813
X4.3122Y-6.2089
X4.3122Y-6.2364
X4.6006Y-3.4461
X4.6006Y-4.2157
X4.6006Y-4.9854
X4.6006Y-5.7551
X4.6281Y-3.4461
X4.6281Y-4.2157
X4.6281Y-4.9854
X4.6281Y-5.7551
X4.6557Y-3.4461
X4.6557Y-4.2157
X4.6557Y-4.9854
X4.6557Y-5.7551
X4.6833Y-3.4461
X4.6833Y-4.2157
X4.6833Y-4.9854
X4.6833Y-5.7551
X4.7108Y-3.4461
X4.7108Y-4.2157
X4.7108Y-4.9854
X4.7108Y-5.7551
X4.7384Y-3.4461
X4.7384Y-4.2157
X4.7384Y-4.9854
X4.7384Y-5.7551
X4.7659Y-3.4461
X4.7659Y-4.2157
X4.7659Y-4.9854
X4.7659Y-5.7551
X4.7935Y-3.4461
X4.7935Y-4.2157
X4.7935Y-4.9854
X4.7935Y-5.7551
X5.0819Y-2.9648
X5.0819Y-2.9923
X5.0819Y-3.0199
X5.0819Y-3.0474
X5.0819Y-3.075
X5.0819Y-3.1026
X5.0819Y-3.1301
X5.0819Y-3.1577
X5.0819Y-3.7344
X5.0819Y-3.762
X5.0819Y-3.7896
X5.0819Y-3.8171
X5.0819Y-3.8447
X5.0819Y-3.8722
X5.0819Y-3.8998
X5.0819Y-3.9274
X5.0819Y-4.5041
X5.0819Y-4.5317
X5.0819Y-4.5593
X5.0819Y-4.5868
X5.0819Y-4.6144
X5.0819Y-4.6419
X5.0819Y-4.6695
X5.0819Y-4.697
X5.0819Y-5.2738
X5.0819Y-5.3014
X5.0819Y-5.3289
X5.0819Y-5.3565
X5.0819Y-5.3841
X5.0819Y-5.4116
X5.0819Y-5.4392
X5.0819Y-5.4667
X5.0819Y-6.0435
X5.0819Y-6.0711
X5.0819Y-6.0986
X5.0819Y-6.1262
X5.0819Y-6.1537
X5.0819Y-6.1813
X5.0819Y-6.2089
X5.0819Y-6.2364
X5.3703Y-3.4461
X5.3703Y-4.2157
X5.3703Y-4.9854
X5.3703Y-5.7551
X5.3978Y-3.4461
X5.3978Y-4.2157
X5.3978Y-4.9854
X5.3978Y-5.7551
X5.4254Y-3.4461
X5.4254Y-4.2157
X5.4254Y-4.9854
X5.4254Y-5.7551
X5.453Y-3.4461
X5.453Y-4.2157
X5.453Y-4.9854
X5.453Y-5.7551
X5.4805Y-3.4461
X5.4805Y-4.2157
X5.4805Y-4.9854
X5.4805Y-5.7551
X5.5081Y-3.4461
X5.5081Y-4.2157
X5.5081Y-4.9854
X5.5081Y-5.7551
X5.5356Y-3.4461
X5.5356Y-4.2157
X5.5356Y-4.9854
X5.5356Y-5.7551
X5.5632Y-3.4461
X5.5632Y-4.2157
X5.5632Y-4.9854
X5.5632Y-5.7551
X5.8516Y-2.9648
X5.8516Y-2.9923
X5.8516Y-3.0199
X5.8516Y-3.0474
X5.8516Y-3.075
X5.8516Y-3.1026
X5.8516Y-3.1301
X5.8516Y-3.1577
X5.8516Y-3.7344
X5.8516Y-3.762
X5.8516Y-3.7896
X5.8516Y-3.8171
X5.8516Y-3.8447
X5.8516Y-3.8722
X5.8516Y-3.8998
X5.8516Y-3.9274
X5.8516Y-4.5041
X5.8516Y-4.5317
X5.8516Y-4.5593
X5.8516Y-4.5868
X5.8516Y-4.6144
X5.8516Y-4.6419
X5.8516Y-4.6695
X5.8516Y-4.697
X5.8516Y-5.2738
X5.8516Y-5.3014
X5.8516Y-5.3289
X5.8516Y-5.3565
X5.8516Y-5.3841
X5.8516Y-5.4116
X5.8516Y-5.4392
X5.8516Y-5.4667
X5.8516Y-6.0435
X5.8516Y-6.0711
X5.8516Y-6.0986
X5.8516Y-6.1262
X5.8516Y-6.1537
X5.8516Y-6.1813
X5.8516Y-6.2089
X5.8516Y-6.2364
X6.14Y-3.4461
X6.14Y-4.2157
X6.14Y-4.9854
X6.14Y-5.7551
X6.1675Y-3.4461
X6.1675Y-4.2157
X6.1675Y-4.9854
X6.1675Y-5.7551
X6.1951Y-3.4461
X6.1951Y-4.2157
X6.1951Y-4.9854
X6.1951Y-5.7551
X6.2226Y-3.4461
X6.2226Y-4.2157
X6.2226Y-4.9854
X6.2226Y-5.7551
X6.2502Y-3.4461
X6.2502Y-4.2157
X6.2502Y-4.9854
X6.2502Y-5.7551
X6.2778Y-3.4461
X6.2778Y-4.2157
X6.2778Y-4.9854
X6.2778Y-5.7551
X6.3053Y-3.4461
X6.3053Y-4.2157
X6.3053Y-4.9854
X6.3053Y-5.7551
X6.3329Y-3.4461
X6.3329Y-4.2157
X6.3329Y-4.9854
X6.3329Y-5.7551
X6.6213Y-2.9648
X6.6213Y-2.9923
X6.6213Y-3.0199
X6.6213Y-3.0474
X6.6213Y-3.075
X6.6213Y-3.1026
X6.6213Y-3.1301
X6.6213Y-3.1577
X6.6213Y-3.7344
X6.6213Y-3.762
X6.6213Y-3.7896
X6.6213Y-3.8171
X6.6213Y-3.8447
X6.6213Y-3.8722
X6.6213Y-3.8998
X6.6213Y-3.9274
X6.6213Y-4.5041
X6.6213Y-4.5317
X6.6213Y-4.5593
X6.6213Y-4.5868
X6.6213Y-4.6144
X6.6213Y-4.6419
X6.6213Y-4.6695
X6.6213Y-4.697
X6.6213Y-5.2738
X6.6213Y-5.3014
X6.6213Y-5.3289
X6.6213Y-5.3565
X6.6213Y-5.3841
X6.6213Y-5.4116
X6.6213Y-5.4392
X6.6213Y-5.4667
X6.6213Y-6.0435
X6.6213Y-6.0711
X6.6213Y-6.0986
X6.6213Y-6.1262
X6.6213Y-6.1537
X6.6213Y-6.1813
X6.6213Y-6.2089
X6.6213Y-6.2364
X6.9096Y-3.4461
X6.9096Y-4.2157
X6.9096Y-4.9854
X6.9096Y-5.7551
X6.9372Y-3.4461
X6.9372Y-4.2157
X6.9372Y-4.9854
X6.9372Y-5.7551
X6.9648Y-3.4461
X6.9648Y-4.2157
X6.9648Y-4.9854
X6.9648Y-5.7551
X6.9923Y-3.4461
X6.9923Y-4.2157
X6.9923Y-4.9854
X6.9923Y-5.7551
X7.0199Y-3.4461
X7.0199Y-4.2157
X7.0199Y-4.9854
X7.0199Y-5.7551
X7.0474Y-3.4461
X7.0474Y-4.2157
X7.0474Y-4.9854
X7.0474Y-5.7551
X7.075Y-3.4461
X7.075Y-4.2157
X7.075Y-4.9854
X7.075Y-5.7551
X7.1026Y-3.4461
X7.1026Y-4.2157
X7.1026Y-4.9854
X7.1026Y-5.7551
T2
X3.7272Y-3.061
X3.7272Y-3.8307
X3.7272Y-4.6004
X3.7272Y-5.3701
X3.7272Y-6.1398
X4.1272Y-3.061
X4.1272Y-3.8307
X4.1272Y-4.6004
X4.1272Y-5.3701
X4.1272Y-6.1398
X4.4969Y-3.061
X4.4969Y-3.8307
X4.4969Y-4.6004
X4.4969Y-5.3701
X4.4969Y-6.1398
X4.8969Y-3.061
X4.8969Y-3.8307
X4.8969Y-4.6004
X4.8969Y-5.3701
X4.8969Y-6.1398
X5.2665Y-3.061
X5.2665Y-3.8307
X5.2665Y-4.6004
X5.2665Y-5.3701
X5.2665Y-6.1398
X5.6665Y-3.061
X5.6665Y-3.8307
X5.6665Y-4.6004
X5.6665Y-5.3701
X5.6665Y-6.1398
X6.0362Y-3.061
X6.0362Y-3.8307
X6.0362Y-4.6004
X6.0362Y-5.3701
X6.0362Y-6.1398
X6.4362Y-3.061
X6.4362Y-3.8307
X6.4362Y-4.6004
X6.4362Y-5.3701
X6.4362Y-6.1398
X6.8059Y-3.061
X6.8059Y-3.8307
X6.8059Y-4.6004
X6.8059Y-5.3701
X6.8059Y-6.1398
X7.2059Y-3.061
X7.2059Y-3.8307
X7.2059Y-4.6004
X7.2059Y-5.3701
X7.2059Y-6.1398
T3
X3.7772Y-2.961
X3.7772Y-3.7307
X3.7772Y-4.5004
X3.7772Y-5.2701
X3.7772Y-6.0398
X4.0272Y-2.861
X4.0272Y-3.6307
X4.0272Y-4.4004
X4.0272Y-5.1701
X4.0272Y-5.9398
X4.5469Y-2.961
X4.5469Y-3.7307
X4.5469Y-4.5004
X4.5469Y-5.2701
X4.5469Y-6.0398
X4.7969Y-2.861
X4.7969Y-3.6307
X4.7969Y-4.4004
X4.7969Y-5.1701
X4.7969Y-5.9398
X5.3165Y-2.961
X5.3165Y-3.7307
X5.3165Y-4.5004
X5.3165Y-5.2701
X5.3165Y-6.0398
X5.5665Y-2.861
X5.5665Y-3.6307
X5.5665Y-4.4004
X5.5665Y-5.1701
X5.5665Y-5.9398
X6.0862Y-2.961
X6.0862Y-3.7307
X6.0862Y-4.5004
X6.0862Y-5.2701
X6.0862Y-6.0398
X6.3362Y-2.861
X6.3362Y-3.6307
X6.3362Y-4.4004
X6.3362Y-5.1701
X6.3362Y-5.9398
X6.8559Y-2.961
X6.8559Y-3.7307
X6.8559Y-4.5004
X6.8559Y-5.2701
X6.8559Y-6.0398
X7.1059Y-2.861
X7.1059Y-3.6307
X7.1059Y-4.4004
X7.1059Y-5.1701
X7.1059Y-5.9398
T4
X3.9272Y-3.061
X3.9272Y-3.8307
X3.9272Y-4.6004
X3.9272Y-5.3701
X3.9272Y-6.1398
X4.6969Y-3.061
X4.6969Y-3.8307
X4.6969Y-4.6004
X4.6969Y-5.3701
X4.6969Y-6.1398
X5.4665Y-3.061
X5.4665Y-3.8307
X5.4665Y-4.6004
X5.4665Y-5.3701
X5.4665Y-6.1398
X6.2362Y-3.061
X6.2362Y-3.8307
X6.2362Y-4.6004
X6.2362Y-5.3701
X6.2362Y-6.1398
X7.0059Y-3.061
X7.0059Y-3.8307
X7.0059Y-4.6004
X7.0059Y-5.3701
X7.0059Y-6.1398
T0
M30
