M48
; DRILL file {KiCad (5.1.9)-1} date 03/15/21 12:44:02
; FORMAT={-:-/ absolute / inch / decimal}
; #@! TF.CreationDate,2021-03-15T12:44:02+01:00
; #@! TF.GenerationSoftware,Kicad,Pcbnew,(5.1.9)-1
; #@! TF.FileFunction,NonPlated,1,2,NPTH
FMAT,2
INCH
T1C0.0197
T2C0.0748
T3C0.1181
T4C0.1614
%
G90
G05
T1
X3.8309Y-3.4569
X3.8309Y-4.2482
X3.8309Y-5.0396
X3.8309Y-5.8309
X3.8585Y-3.4569
X3.8585Y-4.2482
X3.8585Y-5.0396
X3.8585Y-5.8309
X3.886Y-3.4569
X3.886Y-4.2482
X3.886Y-5.0396
X3.886Y-5.8309
X3.9136Y-3.4569
X3.9136Y-4.2482
X3.9136Y-5.0396
X3.9136Y-5.8309
X3.9411Y-3.4569
X3.9411Y-4.2482
X3.9411Y-5.0396
X3.9411Y-5.8309
X3.9687Y-3.4569
X3.9687Y-4.2482
X3.9687Y-5.0396
X3.9687Y-5.8309
X3.9963Y-3.4569
X3.9963Y-4.2482
X3.9963Y-5.0396
X3.9963Y-5.8309
X4.0238Y-3.4569
X4.0238Y-4.2482
X4.0238Y-5.0396
X4.0238Y-5.8309
X4.323Y-2.9644
X4.323Y-2.9919
X4.323Y-3.0195
X4.323Y-3.047
X4.323Y-3.0746
X4.323Y-3.1022
X4.323Y-3.1297
X4.323Y-3.1573
X4.323Y-3.7557
X4.323Y-3.7833
X4.323Y-3.8108
X4.323Y-3.8384
X4.323Y-3.8659
X4.323Y-3.8935
X4.323Y-3.9211
X4.323Y-3.9486
X4.323Y-4.547
X4.323Y-4.5746
X4.323Y-4.6022
X4.323Y-4.6297
X4.323Y-4.6573
X4.323Y-4.6848
X4.323Y-4.7124
X4.323Y-4.74
X4.323Y-5.3384
X4.323Y-5.3659
X4.323Y-5.3935
X4.323Y-5.4211
X4.323Y-5.4486
X4.323Y-5.4762
X4.323Y-5.5037
X4.323Y-5.5313
X4.323Y-6.1297
X4.323Y-6.1573
X4.323Y-6.1848
X4.323Y-6.2124
X4.323Y-6.24
X4.323Y-6.2675
X4.323Y-6.2951
X4.323Y-6.3226
X4.6222Y-3.4569
X4.6222Y-4.2482
X4.6222Y-5.0396
X4.6222Y-5.8309
X4.6498Y-3.4569
X4.6498Y-4.2482
X4.6498Y-5.0396
X4.6498Y-5.8309
X4.6774Y-3.4569
X4.6774Y-4.2482
X4.6774Y-5.0396
X4.6774Y-5.8309
X4.7049Y-3.4569
X4.7049Y-4.2482
X4.7049Y-5.0396
X4.7049Y-5.8309
X4.7325Y-3.4569
X4.7325Y-4.2482
X4.7325Y-5.0396
X4.7325Y-5.8309
X4.76Y-3.4569
X4.76Y-4.2482
X4.76Y-5.0396
X4.76Y-5.8309
X4.7876Y-3.4569
X4.7876Y-4.2482
X4.7876Y-5.0396
X4.7876Y-5.8309
X4.8152Y-3.4569
X4.8152Y-4.2482
X4.8152Y-5.0396
X4.8152Y-5.8309
X5.1144Y-2.9644
X5.1144Y-2.9919
X5.1144Y-3.0195
X5.1144Y-3.047
X5.1144Y-3.0746
X5.1144Y-3.1022
X5.1144Y-3.1297
X5.1144Y-3.1573
X5.1144Y-3.7557
X5.1144Y-3.7833
X5.1144Y-3.8108
X5.1144Y-3.8384
X5.1144Y-3.8659
X5.1144Y-3.8935
X5.1144Y-3.9211
X5.1144Y-3.9486
X5.1144Y-4.547
X5.1144Y-4.5746
X5.1144Y-4.6022
X5.1144Y-4.6297
X5.1144Y-4.6573
X5.1144Y-4.6848
X5.1144Y-4.7124
X5.1144Y-4.74
X5.1144Y-5.3384
X5.1144Y-5.3659
X5.1144Y-5.3935
X5.1144Y-5.4211
X5.1144Y-5.4486
X5.1144Y-5.4762
X5.1144Y-5.5037
X5.1144Y-5.5313
X5.1144Y-6.1297
X5.1144Y-6.1573
X5.1144Y-6.1848
X5.1144Y-6.2124
X5.1144Y-6.24
X5.1144Y-6.2675
X5.1144Y-6.2951
X5.1144Y-6.3226
X5.4136Y-3.4569
X5.4136Y-4.2482
X5.4136Y-5.0396
X5.4136Y-5.8309
X5.4411Y-3.4569
X5.4411Y-4.2482
X5.4411Y-5.0396
X5.4411Y-5.8309
X5.4687Y-3.4569
X5.4687Y-4.2482
X5.4687Y-5.0396
X5.4687Y-5.8309
X5.4963Y-3.4569
X5.4963Y-4.2482
X5.4963Y-5.0396
X5.4963Y-5.8309
X5.5238Y-3.4569
X5.5238Y-4.2482
X5.5238Y-5.0396
X5.5238Y-5.8309
X5.5514Y-3.4569
X5.5514Y-4.2482
X5.5514Y-5.0396
X5.5514Y-5.8309
X5.5789Y-3.4569
X5.5789Y-4.2482
X5.5789Y-5.0396
X5.5789Y-5.8309
X5.6065Y-3.4569
X5.6065Y-4.2482
X5.6065Y-5.0396
X5.6065Y-5.8309
X5.9057Y-2.9644
X5.9057Y-2.9919
X5.9057Y-3.0195
X5.9057Y-3.047
X5.9057Y-3.0746
X5.9057Y-3.1022
X5.9057Y-3.1297
X5.9057Y-3.1573
X5.9057Y-3.7557
X5.9057Y-3.7833
X5.9057Y-3.8108
X5.9057Y-3.8384
X5.9057Y-3.8659
X5.9057Y-3.8935
X5.9057Y-3.9211
X5.9057Y-3.9486
X5.9057Y-4.547
X5.9057Y-4.5746
X5.9057Y-4.6022
X5.9057Y-4.6297
X5.9057Y-4.6573
X5.9057Y-4.6848
X5.9057Y-4.7124
X5.9057Y-4.74
X5.9057Y-5.3384
X5.9057Y-5.3659
X5.9057Y-5.3935
X5.9057Y-5.4211
X5.9057Y-5.4486
X5.9057Y-5.4762
X5.9057Y-5.5037
X5.9057Y-5.5313
X5.9057Y-6.1297
X5.9057Y-6.1573
X5.9057Y-6.1848
X5.9057Y-6.2124
X5.9057Y-6.24
X5.9057Y-6.2675
X5.9057Y-6.2951
X5.9057Y-6.3226
X6.2049Y-3.4569
X6.2049Y-4.2482
X6.2049Y-5.0396
X6.2049Y-5.8309
X6.2325Y-3.4569
X6.2325Y-4.2482
X6.2325Y-5.0396
X6.2325Y-5.8309
X6.26Y-3.4569
X6.26Y-4.2482
X6.26Y-5.0396
X6.26Y-5.8309
X6.2876Y-3.4569
X6.2876Y-4.2482
X6.2876Y-5.0396
X6.2876Y-5.8309
X6.3152Y-3.4569
X6.3152Y-4.2482
X6.3152Y-5.0396
X6.3152Y-5.8309
X6.3427Y-3.4569
X6.3427Y-4.2482
X6.3427Y-5.0396
X6.3427Y-5.8309
X6.3703Y-3.4569
X6.3703Y-4.2482
X6.3703Y-5.0396
X6.3703Y-5.8309
X6.3978Y-3.4569
X6.3978Y-4.2482
X6.3978Y-5.0396
X6.3978Y-5.8309
X6.697Y-2.9644
X6.697Y-2.9919
X6.697Y-3.0195
X6.697Y-3.047
X6.697Y-3.0746
X6.697Y-3.1022
X6.697Y-3.1297
X6.697Y-3.1573
X6.697Y-3.7557
X6.697Y-3.7833
X6.697Y-3.8108
X6.697Y-3.8384
X6.697Y-3.8659
X6.697Y-3.8935
X6.697Y-3.9211
X6.697Y-3.9486
X6.697Y-4.547
X6.697Y-4.5746
X6.697Y-4.6022
X6.697Y-4.6297
X6.697Y-4.6573
X6.697Y-4.6848
X6.697Y-4.7124
X6.697Y-4.74
X6.697Y-5.3384
X6.697Y-5.3659
X6.697Y-5.3935
X6.697Y-5.4211
X6.697Y-5.4486
X6.697Y-5.4762
X6.697Y-5.5037
X6.697Y-5.5313
X6.697Y-6.1297
X6.697Y-6.1573
X6.697Y-6.1848
X6.697Y-6.2124
X6.697Y-6.24
X6.697Y-6.2675
X6.697Y-6.2951
X6.697Y-6.3226
X6.9963Y-3.4569
X6.9963Y-4.2482
X6.9963Y-5.0396
X6.9963Y-5.8309
X7.0238Y-3.4569
X7.0238Y-4.2482
X7.0238Y-5.0396
X7.0238Y-5.8309
X7.0514Y-3.4569
X7.0514Y-4.2482
X7.0514Y-5.0396
X7.0514Y-5.8309
X7.0789Y-3.4569
X7.0789Y-4.2482
X7.0789Y-5.0396
X7.0789Y-5.8309
X7.1065Y-3.4569
X7.1065Y-4.2482
X7.1065Y-5.0396
X7.1065Y-5.8309
X7.1341Y-3.4569
X7.1341Y-4.2482
X7.1341Y-5.0396
X7.1341Y-5.8309
X7.1616Y-3.4569
X7.1616Y-4.2482
X7.1616Y-5.0396
X7.1616Y-5.8309
X7.1892Y-3.4569
X7.1892Y-4.2482
X7.1892Y-5.0396
X7.1892Y-5.8309
T2
X3.7272Y-3.061
X3.7272Y-3.8524
X3.7272Y-4.6437
X3.7272Y-5.435
X3.7272Y-6.2264
X4.1272Y-3.061
X4.1272Y-3.8524
X4.1272Y-4.6437
X4.1272Y-5.435
X4.1272Y-6.2264
X4.5185Y-3.061
X4.5185Y-3.8524
X4.5185Y-4.6437
X4.5185Y-5.435
X4.5185Y-6.2264
X4.9185Y-3.061
X4.9185Y-3.8524
X4.9185Y-4.6437
X4.9185Y-5.435
X4.9185Y-6.2264
X5.3098Y-3.061
X5.3098Y-3.8524
X5.3098Y-4.6437
X5.3098Y-5.435
X5.3098Y-6.2264
X5.7098Y-3.061
X5.7098Y-3.8524
X5.7098Y-4.6437
X5.7098Y-5.435
X5.7098Y-6.2264
X6.1012Y-3.061
X6.1012Y-3.8524
X6.1012Y-4.6437
X6.1012Y-5.435
X6.1012Y-6.2264
X6.5012Y-3.061
X6.5012Y-3.8524
X6.5012Y-4.6437
X6.5012Y-5.435
X6.5012Y-6.2264
X6.8925Y-3.061
X6.8925Y-3.8524
X6.8925Y-4.6437
X6.8925Y-5.435
X6.8925Y-6.2264
X7.2925Y-3.061
X7.2925Y-3.8524
X7.2925Y-4.6437
X7.2925Y-5.435
X7.2925Y-6.2264
T3
X3.7772Y-2.961
X3.7772Y-3.7524
X3.7772Y-4.5437
X3.7772Y-5.335
X3.7772Y-6.1264
X4.0272Y-2.861
X4.0272Y-3.6524
X4.0272Y-4.4437
X4.0272Y-5.235
X4.0272Y-6.0264
X4.5685Y-2.961
X4.5685Y-3.7524
X4.5685Y-4.5437
X4.5685Y-5.335
X4.5685Y-6.1264
X4.8185Y-2.861
X4.8185Y-3.6524
X4.8185Y-4.4437
X4.8185Y-5.235
X4.8185Y-6.0264
X5.3598Y-2.961
X5.3598Y-3.7524
X5.3598Y-4.5437
X5.3598Y-5.335
X5.3598Y-6.1264
X5.6098Y-2.861
X5.6098Y-3.6524
X5.6098Y-4.4437
X5.6098Y-5.235
X5.6098Y-6.0264
X6.1512Y-2.961
X6.1512Y-3.7524
X6.1512Y-4.5437
X6.1512Y-5.335
X6.1512Y-6.1264
X6.4012Y-2.861
X6.4012Y-3.6524
X6.4012Y-4.4437
X6.4012Y-5.235
X6.4012Y-6.0264
X6.9425Y-2.961
X6.9425Y-3.7524
X6.9425Y-4.5437
X6.9425Y-5.335
X6.9425Y-6.1264
X7.1925Y-2.861
X7.1925Y-3.6524
X7.1925Y-4.4437
X7.1925Y-5.235
X7.1925Y-6.0264
T4
X3.9272Y-3.061
X3.9272Y-3.8524
X3.9272Y-4.6437
X3.9272Y-5.435
X3.9272Y-6.2264
X4.7185Y-3.061
X4.7185Y-3.8524
X4.7185Y-4.6437
X4.7185Y-5.435
X4.7185Y-6.2264
X5.5098Y-3.061
X5.5098Y-3.8524
X5.5098Y-4.6437
X5.5098Y-5.435
X5.5098Y-6.2264
X6.3012Y-3.061
X6.3012Y-3.8524
X6.3012Y-4.6437
X6.3012Y-5.435
X6.3012Y-6.2264
X7.0925Y-3.061
X7.0925Y-3.8524
X7.0925Y-4.6437
X7.0925Y-5.435
X7.0925Y-6.2264
T0
M30
