%TF.GenerationSoftware,KiCad,Pcbnew,(5.1.9)-1*%
%TF.CreationDate,2021-02-24T13:10:21+01:00*%
%TF.ProjectId,cell,63656c6c-2e6b-4696-9361-645f70636258,rev?*%
%TF.SameCoordinates,Original*%
%TF.FileFunction,Legend,Bot*%
%TF.FilePolarity,Positive*%
%FSLAX46Y46*%
G04 Gerber Fmt 4.6, Leading zero omitted, Abs format (unit mm)*
G04 Created by KiCad (PCBNEW (5.1.9)-1) date 2021-02-24 13:10:21*
%MOMM*%
%LPD*%
G01*
G04 APERTURE LIST*
%ADD10C,0.150000*%
%ADD11C,0.120000*%
%ADD12C,1.000000*%
%ADD13C,0.300000*%
%ADD14C,0.800000*%
%ADD15C,3.000000*%
%ADD16C,0.500000*%
%ADD17C,3.500000*%
%ADD18C,0.400000*%
%ADD19C,0.062500*%
G04 APERTURE END LIST*
D10*
X96200000Y-81700000D02*
G75*
G02*
X96400000Y-81500000I0J200000D01*
G01*
D11*
%TO.C,L1*%
X95850000Y-81150000D02*
X103650000Y-81150000D01*
X103650000Y-84850000D02*
X95850000Y-84850000D01*
X95850000Y-82750000D02*
X95850000Y-81150000D01*
D10*
%TO.C,SW1*%
X97133682Y-76628529D02*
G75*
G02*
X99350000Y-74750000I2151318J-291471D01*
G01*
X93850000Y-73050001D02*
G75*
G02*
X95949999Y-71150000I2000000J-99999D01*
G01*
D12*
X96733682Y-76228529D02*
G75*
G02*
X98950000Y-74350000I2151318J-291471D01*
G01*
D13*
X93950000Y-73700000D02*
X93950000Y-73050000D01*
D14*
X94450000Y-76150000D02*
X94450000Y-74350001D01*
D15*
X95580000Y-72650000D02*
X95580000Y-74890000D01*
D16*
X103950000Y-74500000D02*
X102650000Y-74450000D01*
D12*
X103650000Y-71750000D02*
X103650000Y-74250000D01*
D17*
X102350000Y-72950000D02*
X95650000Y-72950000D01*
D10*
X104150000Y-74750000D02*
X104150000Y-71150000D01*
X104130000Y-73750000D02*
X104130000Y-71500000D01*
X93850000Y-73800000D02*
X94050000Y-73800000D01*
X94100000Y-72200000D02*
X94100000Y-76650000D01*
X93850000Y-73050000D02*
X93850000Y-73800000D01*
X94100000Y-76650000D02*
X97130000Y-76650000D01*
X99350000Y-74750000D02*
X104150000Y-74750000D01*
X104150000Y-71150000D02*
X95949999Y-71150000D01*
D16*
X94300000Y-76450000D02*
X96750000Y-76450000D01*
D18*
X104000000Y-71350000D02*
X102750000Y-71350000D01*
D11*
%TO.C,C1*%
X100461252Y-87010000D02*
X99038748Y-87010000D01*
X100461252Y-85190000D02*
X99038748Y-85190000D01*
%TO.C,D1*%
X101375000Y-70635000D02*
X97490000Y-70635000D01*
X97490000Y-70635000D02*
X97490000Y-68365000D01*
X97490000Y-68365000D02*
X101375000Y-68365000D01*
%TO.C,*%
D10*
%TO.C,J1*%
D19*
X108783511Y-83629263D02*
X109042783Y-84077098D01*
X108594949Y-83817825D01*
X108854221Y-84265659D02*
X108500668Y-83912106D01*
X108433324Y-83979450D01*
X108409754Y-84036692D01*
X108416488Y-84097301D01*
X108436692Y-84144441D01*
X108490566Y-84225253D01*
X108541074Y-84275761D01*
X108621886Y-84329636D01*
X108669027Y-84349839D01*
X108729636Y-84356573D01*
X108786878Y-84333003D01*
X108854221Y-84265659D01*
X108571379Y-84548502D02*
X108217825Y-84194949D01*
X108150482Y-84262292D01*
X108126911Y-84319534D01*
X108133646Y-84380143D01*
X108153849Y-84427284D01*
X108207724Y-84508096D01*
X108258231Y-84558604D01*
X108339043Y-84612478D01*
X108386184Y-84632682D01*
X108446793Y-84639416D01*
X108504035Y-84615846D01*
X108571379Y-84548502D01*
%TO.C,J2*%
X90938722Y-70807724D02*
X90948824Y-70763950D01*
X90989230Y-70723544D01*
X91046472Y-70699974D01*
X91107081Y-70706708D01*
X91154221Y-70726911D01*
X91235033Y-70780786D01*
X91285541Y-70831294D01*
X91339416Y-70912106D01*
X91359619Y-70959246D01*
X91366353Y-71019856D01*
X91342783Y-71077098D01*
X91315846Y-71104035D01*
X91258604Y-71127605D01*
X91228299Y-71124238D01*
X91110448Y-71006387D01*
X91164323Y-70952512D01*
X91140753Y-71279128D02*
X90787199Y-70925575D01*
X90979128Y-71440753D01*
X90625575Y-71087199D01*
X90844441Y-71575440D02*
X90490888Y-71221886D01*
X90423544Y-71289230D01*
X90399974Y-71346472D01*
X90406708Y-71407081D01*
X90426911Y-71454221D01*
X90480786Y-71535033D01*
X90531294Y-71585541D01*
X90612106Y-71639416D01*
X90659246Y-71659619D01*
X90719856Y-71666353D01*
X90777098Y-71642783D01*
X90844441Y-71575440D01*
%TO.C,J3*%
X93248824Y-79801362D02*
X93245456Y-79831666D01*
X93269027Y-79888908D01*
X93295964Y-79915846D01*
X93353206Y-79939416D01*
X93413815Y-79932682D01*
X93460956Y-79912478D01*
X93541768Y-79858604D01*
X93592275Y-79808096D01*
X93646150Y-79727284D01*
X93666353Y-79680143D01*
X93673088Y-79619534D01*
X93649517Y-79562292D01*
X93622580Y-79535355D01*
X93565338Y-79511785D01*
X93535033Y-79515152D01*
X93393612Y-79306387D02*
X93339737Y-79252512D01*
X93295964Y-79242411D01*
X93235355Y-79249145D01*
X93154543Y-79303020D01*
X93036692Y-79420871D01*
X92982817Y-79501683D01*
X92976082Y-79562292D01*
X92986184Y-79606066D01*
X93040059Y-79659940D01*
X93083832Y-79670042D01*
X93144441Y-79663307D01*
X93225253Y-79609433D01*
X93343104Y-79491582D01*
X93396979Y-79410769D01*
X93403714Y-79350160D01*
X93393612Y-79306387D01*
X92662935Y-79282817D02*
X92797622Y-79417504D01*
X93151175Y-79063950D01*
%TO.C,J4*%
X93962292Y-84582174D02*
X94224932Y-84508096D01*
X94123917Y-84743798D02*
X94477470Y-84390245D01*
X94369720Y-84282495D01*
X94325947Y-84272394D01*
X94295643Y-84275761D01*
X94248502Y-84295964D01*
X94197995Y-84346472D01*
X94177791Y-84393612D01*
X94174424Y-84423917D01*
X94184526Y-84467690D01*
X94292275Y-84575440D01*
X94140753Y-84053527D02*
X94086878Y-83999653D01*
X94043104Y-83989551D01*
X93982495Y-83996285D01*
X93901683Y-84050160D01*
X93783832Y-84168011D01*
X93729957Y-84248824D01*
X93723223Y-84309433D01*
X93733324Y-84353206D01*
X93787199Y-84407081D01*
X93830972Y-84417182D01*
X93891582Y-84410448D01*
X93972394Y-84356573D01*
X94090245Y-84238722D01*
X94144120Y-84157910D01*
X94150854Y-84097301D01*
X94140753Y-84053527D01*
X93925253Y-83838028D02*
X93504356Y-84124238D01*
X93703020Y-83817825D01*
X93396607Y-84016488D01*
X93682817Y-83595592D01*
%TO.C,J5*%
X106649517Y-84270363D02*
X106295964Y-83916810D01*
X106228620Y-83984153D01*
X106205050Y-84041395D01*
X106211785Y-84102004D01*
X106231988Y-84149145D01*
X106285862Y-84229957D01*
X106336370Y-84280465D01*
X106417182Y-84334340D01*
X106464323Y-84354543D01*
X106524932Y-84361277D01*
X106582174Y-84337707D01*
X106649517Y-84270363D01*
X106366675Y-84553206D02*
X106013121Y-84199653D01*
X106231988Y-84687893D02*
X105878434Y-84334340D01*
X106070363Y-84849517D01*
X105716810Y-84495964D01*
%TO.C,J6*%
X107038079Y-82381801D02*
X106684526Y-82028248D01*
X106617182Y-82095592D01*
X106593612Y-82152834D01*
X106600346Y-82213443D01*
X106620549Y-82260583D01*
X106674424Y-82341395D01*
X106724932Y-82391903D01*
X106805744Y-82445778D01*
X106852885Y-82465981D01*
X106913494Y-82472715D01*
X106970736Y-82449145D01*
X107038079Y-82381801D01*
X106347808Y-82364966D02*
X106293933Y-82418840D01*
X106283832Y-82462614D01*
X106290566Y-82523223D01*
X106344441Y-82604035D01*
X106462292Y-82721886D01*
X106543104Y-82775761D01*
X106603714Y-82782495D01*
X106647487Y-82772394D01*
X106701362Y-82718519D01*
X106711463Y-82674746D01*
X106704729Y-82614137D01*
X106650854Y-82533324D01*
X106533003Y-82415473D01*
X106452191Y-82361598D01*
X106391582Y-82354864D01*
X106347808Y-82364966D01*
X106105372Y-82607402D02*
X106391582Y-82893612D01*
X106411785Y-82940753D01*
X106415152Y-82971057D01*
X106405050Y-83014830D01*
X106351175Y-83068705D01*
X106307402Y-83078807D01*
X106277098Y-83075440D01*
X106229957Y-83055236D01*
X105943747Y-82769027D01*
X105849466Y-82863307D02*
X105687842Y-83024932D01*
X106122208Y-83297673D02*
X105768654Y-82944120D01*
%TO.C,J7*%
X109170736Y-71383511D02*
X108722901Y-71642783D01*
X108982174Y-71194949D01*
X108534340Y-71454221D02*
X108887893Y-71100668D01*
X108820549Y-71033324D01*
X108763307Y-71009754D01*
X108702698Y-71016488D01*
X108655558Y-71036692D01*
X108574746Y-71090566D01*
X108524238Y-71141074D01*
X108470363Y-71221886D01*
X108450160Y-71269027D01*
X108443426Y-71329636D01*
X108466996Y-71386878D01*
X108534340Y-71454221D01*
X108251497Y-71171379D02*
X108605050Y-70817825D01*
X108537707Y-70750482D01*
X108480465Y-70726911D01*
X108419856Y-70733646D01*
X108372715Y-70753849D01*
X108291903Y-70807724D01*
X108241395Y-70858231D01*
X108187521Y-70939043D01*
X108167317Y-70986184D01*
X108160583Y-71046793D01*
X108184153Y-71104035D01*
X108251497Y-71171379D01*
%TO.C,J8*%
X91392275Y-84138722D02*
X91436049Y-84148824D01*
X91476455Y-84189230D01*
X91500025Y-84246472D01*
X91493291Y-84307081D01*
X91473088Y-84354221D01*
X91419213Y-84435033D01*
X91368705Y-84485541D01*
X91287893Y-84539416D01*
X91240753Y-84559619D01*
X91180143Y-84566353D01*
X91122901Y-84542783D01*
X91095964Y-84515846D01*
X91072394Y-84458604D01*
X91075761Y-84428299D01*
X91193612Y-84310448D01*
X91247487Y-84364323D01*
X90920871Y-84340753D02*
X91274424Y-83987199D01*
X90759246Y-84179128D01*
X91112800Y-83825575D01*
X90624559Y-84044441D02*
X90978113Y-83690888D01*
X90910769Y-83623544D01*
X90853527Y-83599974D01*
X90792918Y-83606708D01*
X90745778Y-83626911D01*
X90664966Y-83680786D01*
X90614458Y-83731294D01*
X90560583Y-83812106D01*
X90540380Y-83859246D01*
X90533646Y-83919856D01*
X90557216Y-83977098D01*
X90624559Y-84044441D01*
%TO.C,J9*%
X106701362Y-79251175D02*
X106731666Y-79254543D01*
X106788908Y-79230972D01*
X106815846Y-79204035D01*
X106839416Y-79146793D01*
X106832682Y-79086184D01*
X106812478Y-79039043D01*
X106758604Y-78958231D01*
X106708096Y-78907724D01*
X106627284Y-78853849D01*
X106580143Y-78833646D01*
X106519534Y-78826911D01*
X106462292Y-78850482D01*
X106435355Y-78877419D01*
X106411785Y-78934661D01*
X106415152Y-78964966D01*
X106206387Y-79106387D02*
X106152512Y-79160262D01*
X106142411Y-79204035D01*
X106149145Y-79264644D01*
X106203020Y-79345456D01*
X106320871Y-79463307D01*
X106401683Y-79517182D01*
X106462292Y-79523917D01*
X106506066Y-79513815D01*
X106559940Y-79459940D01*
X106570042Y-79416167D01*
X106563307Y-79355558D01*
X106509433Y-79274746D01*
X106391582Y-79156895D01*
X106310769Y-79103020D01*
X106250160Y-79096285D01*
X106206387Y-79106387D01*
X106182817Y-79837064D02*
X106317504Y-79702377D01*
X105963950Y-79348824D01*
%TO.C,J10*%
X93782174Y-70937707D02*
X93708096Y-70675067D01*
X93943798Y-70776082D02*
X93590245Y-70422529D01*
X93482495Y-70530279D01*
X93472394Y-70574052D01*
X93475761Y-70604356D01*
X93495964Y-70651497D01*
X93546472Y-70702004D01*
X93593612Y-70722208D01*
X93623917Y-70725575D01*
X93667690Y-70715473D01*
X93775440Y-70607724D01*
X93253527Y-70759246D02*
X93199653Y-70813121D01*
X93189551Y-70856895D01*
X93196285Y-70917504D01*
X93250160Y-70998316D01*
X93368011Y-71116167D01*
X93448824Y-71170042D01*
X93509433Y-71176776D01*
X93553206Y-71166675D01*
X93607081Y-71112800D01*
X93617182Y-71069027D01*
X93610448Y-71008417D01*
X93556573Y-70927605D01*
X93438722Y-70809754D01*
X93357910Y-70755879D01*
X93297301Y-70749145D01*
X93253527Y-70759246D01*
X93038028Y-70974746D02*
X93324238Y-71395643D01*
X93017825Y-71196979D01*
X93216488Y-71503392D01*
X92795592Y-71217182D01*
%TO.C,J11*%
X93229636Y-82949517D02*
X93583189Y-82595964D01*
X93515846Y-82528620D01*
X93458604Y-82505050D01*
X93397995Y-82511785D01*
X93350854Y-82531988D01*
X93270042Y-82585862D01*
X93219534Y-82636370D01*
X93165659Y-82717182D01*
X93145456Y-82764323D01*
X93138722Y-82824932D01*
X93162292Y-82882174D01*
X93229636Y-82949517D01*
X92946793Y-82666675D02*
X93300346Y-82313121D01*
X92812106Y-82531988D02*
X93165659Y-82178434D01*
X92650482Y-82370363D01*
X93004035Y-82016810D01*
%TO.C,J12*%
X106918198Y-71338079D02*
X107271751Y-70984526D01*
X107204407Y-70917182D01*
X107147165Y-70893612D01*
X107086556Y-70900346D01*
X107039416Y-70920549D01*
X106958604Y-70974424D01*
X106908096Y-71024932D01*
X106854221Y-71105744D01*
X106834018Y-71152885D01*
X106827284Y-71213494D01*
X106850854Y-71270736D01*
X106918198Y-71338079D01*
X106935033Y-70647808D02*
X106881159Y-70593933D01*
X106837385Y-70583832D01*
X106776776Y-70590566D01*
X106695964Y-70644441D01*
X106578113Y-70762292D01*
X106524238Y-70843104D01*
X106517504Y-70903714D01*
X106527605Y-70947487D01*
X106581480Y-71001362D01*
X106625253Y-71011463D01*
X106685862Y-71004729D01*
X106766675Y-70950854D01*
X106884526Y-70833003D01*
X106938401Y-70752191D01*
X106945135Y-70691582D01*
X106935033Y-70647808D01*
X106692597Y-70405372D02*
X106406387Y-70691582D01*
X106359246Y-70711785D01*
X106328942Y-70715152D01*
X106285169Y-70705050D01*
X106231294Y-70651175D01*
X106221192Y-70607402D01*
X106224559Y-70577098D01*
X106244763Y-70529957D01*
X106530972Y-70243747D01*
X106436692Y-70149466D02*
X106275067Y-69987842D01*
X106002326Y-70422208D02*
X106355879Y-70068654D01*
%TO.C,C1*%
X102771057Y-85441717D02*
X102744120Y-85468654D01*
X102734018Y-85512427D01*
X102737385Y-85542732D01*
X102757588Y-85589872D01*
X102811463Y-85670685D01*
X102895643Y-85754864D01*
X102976455Y-85808739D01*
X103023595Y-85828942D01*
X103053900Y-85832309D01*
X103097673Y-85822208D01*
X103124610Y-85795270D01*
X103134712Y-85751497D01*
X103131345Y-85721192D01*
X103111142Y-85674052D01*
X103057267Y-85593240D01*
X102973088Y-85509060D01*
X102892275Y-85455185D01*
X102845135Y-85434982D01*
X102814830Y-85431615D01*
X102771057Y-85441717D01*
X102875440Y-85977098D02*
X102878807Y-86007402D01*
X102909111Y-86010769D01*
X102905744Y-85980465D01*
X102875440Y-85977098D01*
X102909111Y-86010769D01*
X102626269Y-86293612D02*
X102787893Y-86131988D01*
X102707081Y-86212800D02*
X102353527Y-85859246D01*
X102430972Y-85882817D01*
X102491582Y-85889551D01*
X102535355Y-85879450D01*
X102148130Y-86300346D02*
X102383832Y-86536049D01*
X102269348Y-86179128D02*
X102454543Y-86364323D01*
X102474746Y-86411463D01*
X102464644Y-86455236D01*
X102424238Y-86495643D01*
X102380465Y-86505744D01*
X102350160Y-86502377D01*
X101969669Y-86579822D02*
X102063950Y-86485541D01*
X102249145Y-86670736D02*
X101895592Y-86317182D01*
X101760905Y-86451869D01*
%TO.C,D1*%
X103346150Y-70466032D02*
X103507775Y-70627656D01*
X103426962Y-70546844D02*
X103780516Y-70193291D01*
X103756946Y-70270736D01*
X103750211Y-70331345D01*
X103760313Y-70375118D01*
X103224932Y-70344814D02*
X103578485Y-69991260D01*
X103063307Y-70183189D01*
X103416861Y-69829636D01*
X103043104Y-69691582D02*
X102807402Y-69927284D01*
X103245135Y-69624238D02*
X103059940Y-69944120D01*
X102884847Y-69769027D01*
X102511091Y-69630972D02*
X102672715Y-69792597D01*
X102591903Y-69711785D02*
X102945456Y-69358231D01*
X102921886Y-69435676D01*
X102915152Y-69496285D01*
X102925253Y-69540059D01*
X102504356Y-69152834D02*
X102268654Y-69388536D01*
X102706387Y-69085490D02*
X102521192Y-69405372D01*
X102346099Y-69230279D01*
X102282123Y-68997943D02*
X102325896Y-69008045D01*
X102356201Y-69004678D01*
X102403341Y-68984475D01*
X102420177Y-68967639D01*
X102440380Y-68920498D01*
X102443747Y-68890194D01*
X102433646Y-68846421D01*
X102379771Y-68792546D01*
X102335998Y-68782444D01*
X102305693Y-68785811D01*
X102258553Y-68806014D01*
X102241717Y-68822850D01*
X102221514Y-68869991D01*
X102218147Y-68900295D01*
X102228248Y-68944069D01*
X102282123Y-68997943D01*
X102292224Y-69041717D01*
X102288857Y-69072021D01*
X102268654Y-69119162D01*
X102201311Y-69186505D01*
X102154170Y-69206708D01*
X102123866Y-69210076D01*
X102080092Y-69199974D01*
X102026218Y-69146099D01*
X102016116Y-69102326D01*
X102019483Y-69072021D01*
X102039686Y-69024881D01*
X102107030Y-68957537D01*
X102154170Y-68937334D01*
X102184475Y-68933967D01*
X102228248Y-68944069D01*
%TD*%
M02*
