%TF.GenerationSoftware,KiCad,Pcbnew,(5.1.9)-1*%
%TF.CreationDate,2021-03-14T01:38:56+01:00*%
%TF.ProjectId,cell,63656c6c-2e6b-4696-9361-645f70636258,rev?*%
%TF.SameCoordinates,Original*%
%TF.FileFunction,Profile,NP*%
%FSLAX46Y46*%
G04 Gerber Fmt 4.6, Leading zero omitted, Abs format (unit mm)*
G04 Created by KiCad (PCBNEW (5.1.9)-1) date 2021-03-14 01:38:56*
%MOMM*%
%LPD*%
G01*
G04 APERTURE LIST*
%TA.AperFunction,Profile*%
%ADD10C,0.100000*%
%TD*%
%TA.AperFunction,Profile*%
%ADD11C,0.120000*%
%TD*%
G04 APERTURE END LIST*
D10*
X96700000Y-68200000D02*
X102800000Y-68200000D01*
X187500000Y-159000000D02*
X187500000Y-152900000D01*
X187500000Y-139450000D02*
X187500000Y-133350000D01*
X187500000Y-119900000D02*
X187500000Y-113800000D01*
X187500000Y-100350000D02*
X187500000Y-94250000D01*
X187500000Y-80800000D02*
X187500000Y-74700000D01*
X181000000Y-165500000D02*
X174900000Y-165500000D01*
X161450000Y-165500000D02*
X155350000Y-165500000D01*
X141900000Y-165500000D02*
X135800000Y-165500000D01*
X122350000Y-165500000D02*
X116250000Y-165500000D01*
X102800000Y-165500000D02*
X96700000Y-165500000D01*
X90200000Y-159000000D02*
X90200000Y-152900000D01*
X90200000Y-139450000D02*
X90200000Y-133350000D01*
X90200000Y-119900000D02*
X90200000Y-113800000D01*
X90200000Y-100350000D02*
X90200000Y-94250000D01*
X90200000Y-80800000D02*
X90200000Y-74700000D01*
X174900000Y-68200000D02*
X181000000Y-68200000D01*
X155350000Y-68200000D02*
X161450000Y-68200000D01*
X135800000Y-68200000D02*
X141900000Y-68200000D01*
X116250000Y-68200000D02*
X122350000Y-68200000D01*
X168400000Y-159000000D02*
X168400000Y-165500000D01*
X148850000Y-159000000D02*
X148850000Y-165500000D01*
X129300000Y-159000000D02*
X129300000Y-165500000D01*
X109750000Y-159000000D02*
X109750000Y-165500000D01*
X90200000Y-159000000D02*
X90200000Y-165500000D01*
X168400000Y-139450000D02*
X168400000Y-145950000D01*
X148850000Y-139450000D02*
X148850000Y-145950000D01*
X129300000Y-139450000D02*
X129300000Y-145950000D01*
X109750000Y-139450000D02*
X109750000Y-145950000D01*
X90200000Y-139450000D02*
X90200000Y-145950000D01*
X168400000Y-119900000D02*
X168400000Y-126400000D01*
X148850000Y-119900000D02*
X148850000Y-126400000D01*
X129300000Y-119900000D02*
X129300000Y-126400000D01*
X109750000Y-119900000D02*
X109750000Y-126400000D01*
X90200000Y-119900000D02*
X90200000Y-126400000D01*
X168400000Y-100350000D02*
X168400000Y-106850000D01*
X148850000Y-100350000D02*
X148850000Y-106850000D01*
X129300000Y-100350000D02*
X129300000Y-106850000D01*
X109750000Y-100350000D02*
X109750000Y-106850000D01*
X90200000Y-100350000D02*
X90200000Y-106850000D01*
X168400000Y-80800000D02*
X168400000Y-87300000D01*
X148850000Y-80800000D02*
X148850000Y-87300000D01*
X129300000Y-80800000D02*
X129300000Y-87300000D01*
X109750000Y-80800000D02*
X109750000Y-87300000D01*
X181000000Y-165500000D02*
X187500000Y-165500000D01*
X161450000Y-165500000D02*
X167950000Y-165500000D01*
X141900000Y-165500000D02*
X148400000Y-165500000D01*
X122350000Y-165500000D02*
X128850000Y-165500000D01*
X102800000Y-165500000D02*
X109300000Y-165500000D01*
X181000000Y-145950000D02*
X187500000Y-145950000D01*
X161450000Y-145950000D02*
X167950000Y-145950000D01*
X141900000Y-145950000D02*
X148400000Y-145950000D01*
X122350000Y-145950000D02*
X128850000Y-145950000D01*
X102800000Y-145950000D02*
X109300000Y-145950000D01*
X181000000Y-126400000D02*
X187500000Y-126400000D01*
X161450000Y-126400000D02*
X167950000Y-126400000D01*
X141900000Y-126400000D02*
X148400000Y-126400000D01*
X122350000Y-126400000D02*
X128850000Y-126400000D01*
X102800000Y-126400000D02*
X109300000Y-126400000D01*
X181000000Y-106850000D02*
X187500000Y-106850000D01*
X161450000Y-106850000D02*
X167950000Y-106850000D01*
X141900000Y-106850000D02*
X148400000Y-106850000D01*
X122350000Y-106850000D02*
X128850000Y-106850000D01*
X102800000Y-106850000D02*
X109300000Y-106850000D01*
X181000000Y-87300000D02*
X187500000Y-87300000D01*
X161450000Y-87300000D02*
X167950000Y-87300000D01*
X141900000Y-87300000D02*
X148400000Y-87300000D01*
X122350000Y-87300000D02*
X128850000Y-87300000D01*
X174900000Y-145950000D02*
G75*
G02*
X174900000Y-146400000I0J-225000D01*
G01*
X155350000Y-145950000D02*
G75*
G02*
X155350000Y-146400000I0J-225000D01*
G01*
X135800000Y-145950000D02*
G75*
G02*
X135800000Y-146400000I0J-225000D01*
G01*
X116250000Y-145950000D02*
G75*
G02*
X116250000Y-146400000I0J-225000D01*
G01*
X96700000Y-145950000D02*
G75*
G02*
X96700000Y-146400000I0J-225000D01*
G01*
X174900000Y-126400000D02*
G75*
G02*
X174900000Y-126850000I0J-225000D01*
G01*
X155350000Y-126400000D02*
G75*
G02*
X155350000Y-126850000I0J-225000D01*
G01*
X135800000Y-126400000D02*
G75*
G02*
X135800000Y-126850000I0J-225000D01*
G01*
X116250000Y-126400000D02*
G75*
G02*
X116250000Y-126850000I0J-225000D01*
G01*
X96700000Y-126400000D02*
G75*
G02*
X96700000Y-126850000I0J-225000D01*
G01*
X174900000Y-106850000D02*
G75*
G02*
X174900000Y-107300000I0J-225000D01*
G01*
X155350000Y-106850000D02*
G75*
G02*
X155350000Y-107300000I0J-225000D01*
G01*
X135800000Y-106850000D02*
G75*
G02*
X135800000Y-107300000I0J-225000D01*
G01*
X116250000Y-106850000D02*
G75*
G02*
X116250000Y-107300000I0J-225000D01*
G01*
X96700000Y-106850000D02*
G75*
G02*
X96700000Y-107300000I0J-225000D01*
G01*
X174900000Y-87300000D02*
G75*
G02*
X174900000Y-87750000I0J-225000D01*
G01*
X155350000Y-87300000D02*
G75*
G02*
X155350000Y-87750000I0J-225000D01*
G01*
X135800000Y-87300000D02*
G75*
G02*
X135800000Y-87750000I0J-225000D01*
G01*
X116250000Y-87300000D02*
G75*
G02*
X116250000Y-87750000I0J-225000D01*
G01*
X168400000Y-146400000D02*
X168400000Y-152900000D01*
X148850000Y-146400000D02*
X148850000Y-152900000D01*
X129300000Y-146400000D02*
X129300000Y-152900000D01*
X109750000Y-146400000D02*
X109750000Y-152900000D01*
X90200000Y-146400000D02*
X90200000Y-152900000D01*
X168400000Y-126850000D02*
X168400000Y-133350000D01*
X148850000Y-126850000D02*
X148850000Y-133350000D01*
X129300000Y-126850000D02*
X129300000Y-133350000D01*
X109750000Y-126850000D02*
X109750000Y-133350000D01*
X90200000Y-126850000D02*
X90200000Y-133350000D01*
X168400000Y-107300000D02*
X168400000Y-113800000D01*
X148850000Y-107300000D02*
X148850000Y-113800000D01*
X129300000Y-107300000D02*
X129300000Y-113800000D01*
X109750000Y-107300000D02*
X109750000Y-113800000D01*
X90200000Y-107300000D02*
X90200000Y-113800000D01*
X168400000Y-87750000D02*
X168400000Y-94250000D01*
X148850000Y-87750000D02*
X148850000Y-94250000D01*
X129300000Y-87750000D02*
X129300000Y-94250000D01*
X109750000Y-87750000D02*
X109750000Y-94250000D01*
X90200000Y-87750000D02*
X90200000Y-94250000D01*
X168400000Y-68200000D02*
X168400000Y-74700000D01*
X148850000Y-68200000D02*
X148850000Y-74700000D01*
X129300000Y-68200000D02*
X129300000Y-74700000D01*
X109750000Y-68200000D02*
X109750000Y-74700000D01*
X187500000Y-146400000D02*
X187500000Y-152900000D01*
X167950000Y-146400000D02*
X167950000Y-152900000D01*
X148400000Y-146400000D02*
X148400000Y-152900000D01*
X128850000Y-146400000D02*
X128850000Y-152900000D01*
X109300000Y-146400000D02*
X109300000Y-152900000D01*
X187500000Y-126850000D02*
X187500000Y-133350000D01*
X167950000Y-126850000D02*
X167950000Y-133350000D01*
X148400000Y-126850000D02*
X148400000Y-133350000D01*
X128850000Y-126850000D02*
X128850000Y-133350000D01*
X109300000Y-126850000D02*
X109300000Y-133350000D01*
X187500000Y-107300000D02*
X187500000Y-113800000D01*
X167950000Y-107300000D02*
X167950000Y-113800000D01*
X148400000Y-107300000D02*
X148400000Y-113800000D01*
X128850000Y-107300000D02*
X128850000Y-113800000D01*
X109300000Y-107300000D02*
X109300000Y-113800000D01*
X187500000Y-87750000D02*
X187500000Y-94250000D01*
X167950000Y-87750000D02*
X167950000Y-94250000D01*
X148400000Y-87750000D02*
X148400000Y-94250000D01*
X128850000Y-87750000D02*
X128850000Y-94250000D01*
X109300000Y-87750000D02*
X109300000Y-94250000D01*
X187500000Y-68200000D02*
X187500000Y-74700000D01*
X167950000Y-68200000D02*
X167950000Y-74700000D01*
X148400000Y-68200000D02*
X148400000Y-74700000D01*
X128850000Y-68200000D02*
X128850000Y-74700000D01*
X168400000Y-152900000D02*
G75*
G02*
X167950000Y-152900000I-225000J0D01*
G01*
X148850000Y-152900000D02*
G75*
G02*
X148400000Y-152900000I-225000J0D01*
G01*
X129300000Y-152900000D02*
G75*
G02*
X128850000Y-152900000I-225000J0D01*
G01*
X109750000Y-152900000D02*
G75*
G02*
X109300000Y-152900000I-225000J0D01*
G01*
X168400000Y-133350000D02*
G75*
G02*
X167950000Y-133350000I-225000J0D01*
G01*
X148850000Y-133350000D02*
G75*
G02*
X148400000Y-133350000I-225000J0D01*
G01*
X129300000Y-133350000D02*
G75*
G02*
X128850000Y-133350000I-225000J0D01*
G01*
X109750000Y-133350000D02*
G75*
G02*
X109300000Y-133350000I-225000J0D01*
G01*
X168400000Y-113800000D02*
G75*
G02*
X167950000Y-113800000I-225000J0D01*
G01*
X148850000Y-113800000D02*
G75*
G02*
X148400000Y-113800000I-225000J0D01*
G01*
X129300000Y-113800000D02*
G75*
G02*
X128850000Y-113800000I-225000J0D01*
G01*
X109750000Y-113800000D02*
G75*
G02*
X109300000Y-113800000I-225000J0D01*
G01*
X168400000Y-94250000D02*
G75*
G02*
X167950000Y-94250000I-225000J0D01*
G01*
X148850000Y-94250000D02*
G75*
G02*
X148400000Y-94250000I-225000J0D01*
G01*
X129300000Y-94250000D02*
G75*
G02*
X128850000Y-94250000I-225000J0D01*
G01*
X109750000Y-94250000D02*
G75*
G02*
X109300000Y-94250000I-225000J0D01*
G01*
X168400000Y-74700000D02*
G75*
G02*
X167950000Y-74700000I-225000J0D01*
G01*
X148850000Y-74700000D02*
G75*
G02*
X148400000Y-74700000I-225000J0D01*
G01*
X129300000Y-74700000D02*
G75*
G02*
X128850000Y-74700000I-225000J0D01*
G01*
X187500000Y-159000000D02*
X187500000Y-165500000D01*
X167950000Y-159000000D02*
X167950000Y-165500000D01*
X148400000Y-159000000D02*
X148400000Y-165500000D01*
X128850000Y-159000000D02*
X128850000Y-165500000D01*
X109300000Y-159000000D02*
X109300000Y-165500000D01*
X187500000Y-139450000D02*
X187500000Y-145950000D01*
X167950000Y-139450000D02*
X167950000Y-145950000D01*
X148400000Y-139450000D02*
X148400000Y-145950000D01*
X128850000Y-139450000D02*
X128850000Y-145950000D01*
X109300000Y-139450000D02*
X109300000Y-145950000D01*
X187500000Y-119900000D02*
X187500000Y-126400000D01*
X167950000Y-119900000D02*
X167950000Y-126400000D01*
X148400000Y-119900000D02*
X148400000Y-126400000D01*
X128850000Y-119900000D02*
X128850000Y-126400000D01*
X109300000Y-119900000D02*
X109300000Y-126400000D01*
X187500000Y-100350000D02*
X187500000Y-106850000D01*
X167950000Y-100350000D02*
X167950000Y-106850000D01*
X148400000Y-100350000D02*
X148400000Y-106850000D01*
X128850000Y-100350000D02*
X128850000Y-106850000D01*
X109300000Y-100350000D02*
X109300000Y-106850000D01*
X187500000Y-80800000D02*
X187500000Y-87300000D01*
X167950000Y-80800000D02*
X167950000Y-87300000D01*
X148400000Y-80800000D02*
X148400000Y-87300000D01*
X128850000Y-80800000D02*
X128850000Y-87300000D01*
X167950000Y-159000000D02*
G75*
G02*
X168400000Y-159000000I225000J0D01*
G01*
X148400000Y-159000000D02*
G75*
G02*
X148850000Y-159000000I225000J0D01*
G01*
X128850000Y-159000000D02*
G75*
G02*
X129300000Y-159000000I225000J0D01*
G01*
X109300000Y-159000000D02*
G75*
G02*
X109750000Y-159000000I225000J0D01*
G01*
X167950000Y-139450000D02*
G75*
G02*
X168400000Y-139450000I225000J0D01*
G01*
X148400000Y-139450000D02*
G75*
G02*
X148850000Y-139450000I225000J0D01*
G01*
X128850000Y-139450000D02*
G75*
G02*
X129300000Y-139450000I225000J0D01*
G01*
X109300000Y-139450000D02*
G75*
G02*
X109750000Y-139450000I225000J0D01*
G01*
X167950000Y-119900000D02*
G75*
G02*
X168400000Y-119900000I225000J0D01*
G01*
X148400000Y-119900000D02*
G75*
G02*
X148850000Y-119900000I225000J0D01*
G01*
X128850000Y-119900000D02*
G75*
G02*
X129300000Y-119900000I225000J0D01*
G01*
X109300000Y-119900000D02*
G75*
G02*
X109750000Y-119900000I225000J0D01*
G01*
X167950000Y-100350000D02*
G75*
G02*
X168400000Y-100350000I225000J0D01*
G01*
X148400000Y-100350000D02*
G75*
G02*
X148850000Y-100350000I225000J0D01*
G01*
X128850000Y-100350000D02*
G75*
G02*
X129300000Y-100350000I225000J0D01*
G01*
X109300000Y-100350000D02*
G75*
G02*
X109750000Y-100350000I225000J0D01*
G01*
X167950000Y-80800000D02*
G75*
G02*
X168400000Y-80800000I225000J0D01*
G01*
X148400000Y-80800000D02*
G75*
G02*
X148850000Y-80800000I225000J0D01*
G01*
X128850000Y-80800000D02*
G75*
G02*
X129300000Y-80800000I225000J0D01*
G01*
X168400000Y-165500000D02*
X174900000Y-165500000D01*
X148850000Y-165500000D02*
X155350000Y-165500000D01*
X129300000Y-165500000D02*
X135800000Y-165500000D01*
X109750000Y-165500000D02*
X116250000Y-165500000D01*
X90200000Y-165500000D02*
X96700000Y-165500000D01*
X168400000Y-145950000D02*
X174900000Y-145950000D01*
X148850000Y-145950000D02*
X155350000Y-145950000D01*
X129300000Y-145950000D02*
X135800000Y-145950000D01*
X109750000Y-145950000D02*
X116250000Y-145950000D01*
X90200000Y-145950000D02*
X96700000Y-145950000D01*
X168400000Y-126400000D02*
X174900000Y-126400000D01*
X148850000Y-126400000D02*
X155350000Y-126400000D01*
X129300000Y-126400000D02*
X135800000Y-126400000D01*
X109750000Y-126400000D02*
X116250000Y-126400000D01*
X90200000Y-126400000D02*
X96700000Y-126400000D01*
X168400000Y-106850000D02*
X174900000Y-106850000D01*
X148850000Y-106850000D02*
X155350000Y-106850000D01*
X129300000Y-106850000D02*
X135800000Y-106850000D01*
X109750000Y-106850000D02*
X116250000Y-106850000D01*
X90200000Y-106850000D02*
X96700000Y-106850000D01*
X168400000Y-87300000D02*
X174900000Y-87300000D01*
X148850000Y-87300000D02*
X155350000Y-87300000D01*
X129300000Y-87300000D02*
X135800000Y-87300000D01*
X109750000Y-87300000D02*
X116250000Y-87300000D01*
X181000000Y-146400000D02*
G75*
G02*
X181000000Y-145950000I0J225000D01*
G01*
X161450000Y-146400000D02*
G75*
G02*
X161450000Y-145950000I0J225000D01*
G01*
X141900000Y-146400000D02*
G75*
G02*
X141900000Y-145950000I0J225000D01*
G01*
X122350000Y-146400000D02*
G75*
G02*
X122350000Y-145950000I0J225000D01*
G01*
X102800000Y-146400000D02*
G75*
G02*
X102800000Y-145950000I0J225000D01*
G01*
X181000000Y-126850000D02*
G75*
G02*
X181000000Y-126400000I0J225000D01*
G01*
X161450000Y-126850000D02*
G75*
G02*
X161450000Y-126400000I0J225000D01*
G01*
X141900000Y-126850000D02*
G75*
G02*
X141900000Y-126400000I0J225000D01*
G01*
X122350000Y-126850000D02*
G75*
G02*
X122350000Y-126400000I0J225000D01*
G01*
X102800000Y-126850000D02*
G75*
G02*
X102800000Y-126400000I0J225000D01*
G01*
X181000000Y-107300000D02*
G75*
G02*
X181000000Y-106850000I0J225000D01*
G01*
X161450000Y-107300000D02*
G75*
G02*
X161450000Y-106850000I0J225000D01*
G01*
X141900000Y-107300000D02*
G75*
G02*
X141900000Y-106850000I0J225000D01*
G01*
X122350000Y-107300000D02*
G75*
G02*
X122350000Y-106850000I0J225000D01*
G01*
X102800000Y-107300000D02*
G75*
G02*
X102800000Y-106850000I0J225000D01*
G01*
X181000000Y-87750000D02*
G75*
G02*
X181000000Y-87300000I0J225000D01*
G01*
X161450000Y-87750000D02*
G75*
G02*
X161450000Y-87300000I0J225000D01*
G01*
X141900000Y-87750000D02*
G75*
G02*
X141900000Y-87300000I0J225000D01*
G01*
X122350000Y-87750000D02*
G75*
G02*
X122350000Y-87300000I0J225000D01*
G01*
X174900000Y-146400000D02*
X168400000Y-146400000D01*
X155350000Y-146400000D02*
X148850000Y-146400000D01*
X135800000Y-146400000D02*
X129300000Y-146400000D01*
X116250000Y-146400000D02*
X109750000Y-146400000D01*
X96700000Y-146400000D02*
X90200000Y-146400000D01*
X174900000Y-126850000D02*
X168400000Y-126850000D01*
X155350000Y-126850000D02*
X148850000Y-126850000D01*
X135800000Y-126850000D02*
X129300000Y-126850000D01*
X116250000Y-126850000D02*
X109750000Y-126850000D01*
X96700000Y-126850000D02*
X90200000Y-126850000D01*
X174900000Y-107300000D02*
X168400000Y-107300000D01*
X155350000Y-107300000D02*
X148850000Y-107300000D01*
X135800000Y-107300000D02*
X129300000Y-107300000D01*
X116250000Y-107300000D02*
X109750000Y-107300000D01*
X96700000Y-107300000D02*
X90200000Y-107300000D01*
X174900000Y-87750000D02*
X168400000Y-87750000D01*
X155350000Y-87750000D02*
X148850000Y-87750000D01*
X135800000Y-87750000D02*
X129300000Y-87750000D01*
X116250000Y-87750000D02*
X109750000Y-87750000D01*
X96700000Y-87750000D02*
X90200000Y-87750000D01*
X174900000Y-68200000D02*
X168400000Y-68200000D01*
X155350000Y-68200000D02*
X148850000Y-68200000D01*
X135800000Y-68200000D02*
X129300000Y-68200000D01*
X116250000Y-68200000D02*
X109750000Y-68200000D01*
X187500000Y-146400000D02*
X181000000Y-146400000D01*
X167950000Y-146400000D02*
X161450000Y-146400000D01*
X148400000Y-146400000D02*
X141900000Y-146400000D01*
X128850000Y-146400000D02*
X122350000Y-146400000D01*
X109300000Y-146400000D02*
X102800000Y-146400000D01*
X187500000Y-126850000D02*
X181000000Y-126850000D01*
X167950000Y-126850000D02*
X161450000Y-126850000D01*
X148400000Y-126850000D02*
X141900000Y-126850000D01*
X128850000Y-126850000D02*
X122350000Y-126850000D01*
X109300000Y-126850000D02*
X102800000Y-126850000D01*
X187500000Y-107300000D02*
X181000000Y-107300000D01*
X167950000Y-107300000D02*
X161450000Y-107300000D01*
X148400000Y-107300000D02*
X141900000Y-107300000D01*
X128850000Y-107300000D02*
X122350000Y-107300000D01*
X109300000Y-107300000D02*
X102800000Y-107300000D01*
X187500000Y-87750000D02*
X181000000Y-87750000D01*
X167950000Y-87750000D02*
X161450000Y-87750000D01*
X148400000Y-87750000D02*
X141900000Y-87750000D01*
X128850000Y-87750000D02*
X122350000Y-87750000D01*
X109300000Y-87750000D02*
X102800000Y-87750000D01*
X187500000Y-68200000D02*
X181000000Y-68200000D01*
X167950000Y-68200000D02*
X161450000Y-68200000D01*
X148400000Y-68200000D02*
X141900000Y-68200000D01*
X128850000Y-68200000D02*
X122350000Y-68200000D01*
X90200000Y-68200000D02*
X90200000Y-74700000D01*
X90200000Y-80800000D02*
X90200000Y-87300000D01*
X109300000Y-68200000D02*
X102800000Y-68200000D01*
X96700000Y-68200000D02*
X90200000Y-68200000D01*
X96700000Y-87300000D02*
G75*
G02*
X96700000Y-87750000I0J-225000D01*
G01*
X90200000Y-87300000D02*
X96700000Y-87300000D01*
X102800000Y-87750000D02*
G75*
G02*
X102800000Y-87300000I0J225000D01*
G01*
X102800000Y-87300000D02*
X109300000Y-87300000D01*
X109300000Y-80800000D02*
G75*
G02*
X109750000Y-80800000I225000J0D01*
G01*
X109300000Y-80800000D02*
X109300000Y-87300000D01*
X109750000Y-74700000D02*
G75*
G02*
X109300000Y-74700000I-225000J0D01*
G01*
X109300000Y-68200000D02*
X109300000Y-74700000D01*
D11*
%TO.C,L1*%
X179750000Y-162750000D02*
X176150000Y-162750000D01*
X179750000Y-159650000D02*
X179750000Y-162750000D01*
X176150000Y-159650000D02*
X179750000Y-159650000D01*
X176150000Y-162750000D02*
X176150000Y-159650000D01*
X160200000Y-162750000D02*
X156600000Y-162750000D01*
X160200000Y-159650000D02*
X160200000Y-162750000D01*
X156600000Y-159650000D02*
X160200000Y-159650000D01*
X156600000Y-162750000D02*
X156600000Y-159650000D01*
X140650000Y-162750000D02*
X137050000Y-162750000D01*
X140650000Y-159650000D02*
X140650000Y-162750000D01*
X137050000Y-159650000D02*
X140650000Y-159650000D01*
X137050000Y-162750000D02*
X137050000Y-159650000D01*
X121100000Y-162750000D02*
X117500000Y-162750000D01*
X121100000Y-159650000D02*
X121100000Y-162750000D01*
X117500000Y-159650000D02*
X121100000Y-159650000D01*
X117500000Y-162750000D02*
X117500000Y-159650000D01*
X101550000Y-162750000D02*
X97950000Y-162750000D01*
X101550000Y-159650000D02*
X101550000Y-162750000D01*
X97950000Y-159650000D02*
X101550000Y-159650000D01*
X97950000Y-162750000D02*
X97950000Y-159650000D01*
X179750000Y-143200000D02*
X176150000Y-143200000D01*
X179750000Y-140100000D02*
X179750000Y-143200000D01*
X176150000Y-140100000D02*
X179750000Y-140100000D01*
X176150000Y-143200000D02*
X176150000Y-140100000D01*
X160200000Y-143200000D02*
X156600000Y-143200000D01*
X160200000Y-140100000D02*
X160200000Y-143200000D01*
X156600000Y-140100000D02*
X160200000Y-140100000D01*
X156600000Y-143200000D02*
X156600000Y-140100000D01*
X140650000Y-143200000D02*
X137050000Y-143200000D01*
X140650000Y-140100000D02*
X140650000Y-143200000D01*
X137050000Y-140100000D02*
X140650000Y-140100000D01*
X137050000Y-143200000D02*
X137050000Y-140100000D01*
X121100000Y-143200000D02*
X117500000Y-143200000D01*
X121100000Y-140100000D02*
X121100000Y-143200000D01*
X117500000Y-140100000D02*
X121100000Y-140100000D01*
X117500000Y-143200000D02*
X117500000Y-140100000D01*
X101550000Y-143200000D02*
X97950000Y-143200000D01*
X101550000Y-140100000D02*
X101550000Y-143200000D01*
X97950000Y-140100000D02*
X101550000Y-140100000D01*
X97950000Y-143200000D02*
X97950000Y-140100000D01*
X179750000Y-123650000D02*
X176150000Y-123650000D01*
X179750000Y-120550000D02*
X179750000Y-123650000D01*
X176150000Y-120550000D02*
X179750000Y-120550000D01*
X176150000Y-123650000D02*
X176150000Y-120550000D01*
X160200000Y-123650000D02*
X156600000Y-123650000D01*
X160200000Y-120550000D02*
X160200000Y-123650000D01*
X156600000Y-120550000D02*
X160200000Y-120550000D01*
X156600000Y-123650000D02*
X156600000Y-120550000D01*
X140650000Y-123650000D02*
X137050000Y-123650000D01*
X140650000Y-120550000D02*
X140650000Y-123650000D01*
X137050000Y-120550000D02*
X140650000Y-120550000D01*
X137050000Y-123650000D02*
X137050000Y-120550000D01*
X121100000Y-123650000D02*
X117500000Y-123650000D01*
X121100000Y-120550000D02*
X121100000Y-123650000D01*
X117500000Y-120550000D02*
X121100000Y-120550000D01*
X117500000Y-123650000D02*
X117500000Y-120550000D01*
X101550000Y-123650000D02*
X97950000Y-123650000D01*
X101550000Y-120550000D02*
X101550000Y-123650000D01*
X97950000Y-120550000D02*
X101550000Y-120550000D01*
X97950000Y-123650000D02*
X97950000Y-120550000D01*
X179750000Y-104100000D02*
X176150000Y-104100000D01*
X179750000Y-101000000D02*
X179750000Y-104100000D01*
X176150000Y-101000000D02*
X179750000Y-101000000D01*
X176150000Y-104100000D02*
X176150000Y-101000000D01*
X160200000Y-104100000D02*
X156600000Y-104100000D01*
X160200000Y-101000000D02*
X160200000Y-104100000D01*
X156600000Y-101000000D02*
X160200000Y-101000000D01*
X156600000Y-104100000D02*
X156600000Y-101000000D01*
X140650000Y-104100000D02*
X137050000Y-104100000D01*
X140650000Y-101000000D02*
X140650000Y-104100000D01*
X137050000Y-101000000D02*
X140650000Y-101000000D01*
X137050000Y-104100000D02*
X137050000Y-101000000D01*
X121100000Y-104100000D02*
X117500000Y-104100000D01*
X121100000Y-101000000D02*
X121100000Y-104100000D01*
X117500000Y-101000000D02*
X121100000Y-101000000D01*
X117500000Y-104100000D02*
X117500000Y-101000000D01*
X101550000Y-104100000D02*
X97950000Y-104100000D01*
X101550000Y-101000000D02*
X101550000Y-104100000D01*
X97950000Y-101000000D02*
X101550000Y-101000000D01*
X97950000Y-104100000D02*
X97950000Y-101000000D01*
X179750000Y-84550000D02*
X176150000Y-84550000D01*
X179750000Y-81450000D02*
X179750000Y-84550000D01*
X176150000Y-81450000D02*
X179750000Y-81450000D01*
X176150000Y-84550000D02*
X176150000Y-81450000D01*
X160200000Y-84550000D02*
X156600000Y-84550000D01*
X160200000Y-81450000D02*
X160200000Y-84550000D01*
X156600000Y-81450000D02*
X160200000Y-81450000D01*
X156600000Y-84550000D02*
X156600000Y-81450000D01*
X140650000Y-84550000D02*
X137050000Y-84550000D01*
X140650000Y-81450000D02*
X140650000Y-84550000D01*
X137050000Y-81450000D02*
X140650000Y-81450000D01*
X137050000Y-84550000D02*
X137050000Y-81450000D01*
X121100000Y-84550000D02*
X117500000Y-84550000D01*
X121100000Y-81450000D02*
X121100000Y-84550000D01*
X117500000Y-81450000D02*
X121100000Y-81450000D01*
X117500000Y-84550000D02*
X117500000Y-81450000D01*
X97950000Y-84550000D02*
X97950000Y-81450000D01*
X97950000Y-81450000D02*
X101550000Y-81450000D01*
X101550000Y-81450000D02*
X101550000Y-84550000D01*
X101550000Y-84550000D02*
X97950000Y-84550000D01*
%TD*%
M02*
