M48
; DRILL file {KiCad (5.1.9)-1} date 03/09/21 21:07:36
; FORMAT={-:-/ absolute / inch / decimal}
; #@! TF.CreationDate,2021-03-09T21:07:36+01:00
; #@! TF.GenerationSoftware,Kicad,Pcbnew,(5.1.9)-1
; #@! TF.FileFunction,NonPlated,1,2,NPTH
FMAT,2
INCH
T1C0.0118
T2C0.0748
T3C0.1181
T4C0.1614
%
G90
G05
T1
X3.8337Y-3.4459
X3.8337Y-4.2156
X3.8337Y-4.9852
X3.8337Y-5.7549
X3.857Y-3.4459
X3.857Y-4.2156
X3.857Y-4.9852
X3.857Y-5.7549
X3.8804Y-3.4459
X3.8804Y-4.2156
X3.8804Y-4.9852
X3.8804Y-5.7549
X3.9038Y-3.4459
X3.9038Y-4.2156
X3.9038Y-4.9852
X3.9038Y-5.7549
X3.9272Y-3.4459
X3.9272Y-4.2156
X3.9272Y-4.9852
X3.9272Y-5.7549
X3.9505Y-3.4459
X3.9505Y-4.2156
X3.9505Y-4.9852
X3.9505Y-5.7549
X3.9739Y-3.4459
X3.9739Y-4.2156
X3.9739Y-4.9852
X3.9739Y-5.7549
X3.9973Y-3.4459
X3.9973Y-4.2156
X3.9973Y-4.9852
X3.9973Y-5.7549
X4.0207Y-3.4459
X4.0207Y-4.2156
X4.0207Y-4.9852
X4.0207Y-5.7549
X4.312Y-2.9675
X4.312Y-2.9909
X4.312Y-3.0143
X4.312Y-3.0376
X4.312Y-3.061
X4.312Y-3.0844
X4.312Y-3.1078
X4.312Y-3.1312
X4.312Y-3.1545
X4.312Y-3.7372
X4.312Y-3.7606
X4.312Y-3.784
X4.312Y-3.8073
X4.312Y-3.8307
X4.312Y-3.8541
X4.312Y-3.8775
X4.312Y-3.9008
X4.312Y-3.9242
X4.312Y-4.5069
X4.312Y-4.5303
X4.312Y-4.5536
X4.312Y-4.577
X4.312Y-4.6004
X4.312Y-4.6238
X4.312Y-4.6471
X4.312Y-4.6705
X4.312Y-4.6939
X4.312Y-5.2766
X4.312Y-5.3
X4.312Y-5.3233
X4.312Y-5.3467
X4.312Y-5.3701
X4.312Y-5.3935
X4.312Y-5.4168
X4.312Y-5.4402
X4.312Y-5.4636
X4.312Y-6.0463
X4.312Y-6.0696
X4.312Y-6.093
X4.312Y-6.1164
X4.312Y-6.1398
X4.312Y-6.1631
X4.312Y-6.1865
X4.312Y-6.2099
X4.312Y-6.2333
X4.6033Y-3.4459
X4.6033Y-4.2156
X4.6033Y-4.9852
X4.6033Y-5.7549
X4.6267Y-3.4459
X4.6267Y-4.2156
X4.6267Y-4.9852
X4.6267Y-5.7549
X4.6501Y-3.4459
X4.6501Y-4.2156
X4.6501Y-4.9852
X4.6501Y-5.7549
X4.6735Y-3.4459
X4.6735Y-4.2156
X4.6735Y-4.9852
X4.6735Y-5.7549
X4.6969Y-3.4459
X4.6969Y-4.2156
X4.6969Y-4.9852
X4.6969Y-5.7549
X4.7202Y-3.4459
X4.7202Y-4.2156
X4.7202Y-4.9852
X4.7202Y-5.7549
X4.7436Y-3.4459
X4.7436Y-4.2156
X4.7436Y-4.9852
X4.7436Y-5.7549
X4.767Y-3.4459
X4.767Y-4.2156
X4.767Y-4.9852
X4.767Y-5.7549
X4.7904Y-3.4459
X4.7904Y-4.2156
X4.7904Y-4.9852
X4.7904Y-5.7549
X5.0817Y-2.9675
X5.0817Y-2.9909
X5.0817Y-3.0143
X5.0817Y-3.0376
X5.0817Y-3.061
X5.0817Y-3.0844
X5.0817Y-3.1078
X5.0817Y-3.1312
X5.0817Y-3.1545
X5.0817Y-3.7372
X5.0817Y-3.7606
X5.0817Y-3.784
X5.0817Y-3.8073
X5.0817Y-3.8307
X5.0817Y-3.8541
X5.0817Y-3.8775
X5.0817Y-3.9008
X5.0817Y-3.9242
X5.0817Y-4.5069
X5.0817Y-4.5303
X5.0817Y-4.5536
X5.0817Y-4.577
X5.0817Y-4.6004
X5.0817Y-4.6238
X5.0817Y-4.6471
X5.0817Y-4.6705
X5.0817Y-4.6939
X5.0817Y-5.2766
X5.0817Y-5.3
X5.0817Y-5.3233
X5.0817Y-5.3467
X5.0817Y-5.3701
X5.0817Y-5.3935
X5.0817Y-5.4168
X5.0817Y-5.4402
X5.0817Y-5.4636
X5.0817Y-6.0463
X5.0817Y-6.0696
X5.0817Y-6.093
X5.0817Y-6.1164
X5.0817Y-6.1398
X5.0817Y-6.1631
X5.0817Y-6.1865
X5.0817Y-6.2099
X5.0817Y-6.2333
X5.373Y-3.4459
X5.373Y-4.2156
X5.373Y-4.9852
X5.373Y-5.7549
X5.3964Y-3.4459
X5.3964Y-4.2156
X5.3964Y-4.9852
X5.3964Y-5.7549
X5.4198Y-3.4459
X5.4198Y-4.2156
X5.4198Y-4.9852
X5.4198Y-5.7549
X5.4432Y-3.4459
X5.4432Y-4.2156
X5.4432Y-4.9852
X5.4432Y-5.7549
X5.4665Y-3.4459
X5.4665Y-4.2156
X5.4665Y-4.9852
X5.4665Y-5.7549
X5.4899Y-3.4459
X5.4899Y-4.2156
X5.4899Y-4.9852
X5.4899Y-5.7549
X5.5133Y-3.4459
X5.5133Y-4.2156
X5.5133Y-4.9852
X5.5133Y-5.7549
X5.5367Y-3.4459
X5.5367Y-4.2156
X5.5367Y-4.9852
X5.5367Y-5.7549
X5.56Y-3.4459
X5.56Y-4.2156
X5.56Y-4.9852
X5.56Y-5.7549
X5.8514Y-2.9675
X5.8514Y-2.9909
X5.8514Y-3.0143
X5.8514Y-3.0376
X5.8514Y-3.061
X5.8514Y-3.0844
X5.8514Y-3.1078
X5.8514Y-3.1312
X5.8514Y-3.1545
X5.8514Y-3.7372
X5.8514Y-3.7606
X5.8514Y-3.784
X5.8514Y-3.8073
X5.8514Y-3.8307
X5.8514Y-3.8541
X5.8514Y-3.8775
X5.8514Y-3.9008
X5.8514Y-3.9242
X5.8514Y-4.5069
X5.8514Y-4.5303
X5.8514Y-4.5536
X5.8514Y-4.577
X5.8514Y-4.6004
X5.8514Y-4.6238
X5.8514Y-4.6471
X5.8514Y-4.6705
X5.8514Y-4.6939
X5.8514Y-5.2766
X5.8514Y-5.3
X5.8514Y-5.3233
X5.8514Y-5.3467
X5.8514Y-5.3701
X5.8514Y-5.3935
X5.8514Y-5.4168
X5.8514Y-5.4402
X5.8514Y-5.4636
X5.8514Y-6.0463
X5.8514Y-6.0696
X5.8514Y-6.093
X5.8514Y-6.1164
X5.8514Y-6.1398
X5.8514Y-6.1631
X5.8514Y-6.1865
X5.8514Y-6.2099
X5.8514Y-6.2333
X6.1427Y-3.4459
X6.1427Y-4.2156
X6.1427Y-4.9852
X6.1427Y-5.7549
X6.1661Y-3.4459
X6.1661Y-4.2156
X6.1661Y-4.9852
X6.1661Y-5.7549
X6.1895Y-3.4459
X6.1895Y-4.2156
X6.1895Y-4.9852
X6.1895Y-5.7549
X6.2128Y-3.4459
X6.2128Y-4.2156
X6.2128Y-4.9852
X6.2128Y-5.7549
X6.2362Y-3.4459
X6.2362Y-4.2156
X6.2362Y-4.9852
X6.2362Y-5.7549
X6.2596Y-3.4459
X6.2596Y-4.2156
X6.2596Y-4.9852
X6.2596Y-5.7549
X6.283Y-3.4459
X6.283Y-4.2156
X6.283Y-4.9852
X6.283Y-5.7549
X6.3063Y-3.4459
X6.3063Y-4.2156
X6.3063Y-4.9852
X6.3063Y-5.7549
X6.3297Y-3.4459
X6.3297Y-4.2156
X6.3297Y-4.9852
X6.3297Y-5.7549
X6.6211Y-2.9675
X6.6211Y-2.9909
X6.6211Y-3.0143
X6.6211Y-3.0376
X6.6211Y-3.061
X6.6211Y-3.0844
X6.6211Y-3.1078
X6.6211Y-3.1312
X6.6211Y-3.1545
X6.6211Y-3.7372
X6.6211Y-3.7606
X6.6211Y-3.784
X6.6211Y-3.8073
X6.6211Y-3.8307
X6.6211Y-3.8541
X6.6211Y-3.8775
X6.6211Y-3.9008
X6.6211Y-3.9242
X6.6211Y-4.5069
X6.6211Y-4.5303
X6.6211Y-4.5536
X6.6211Y-4.577
X6.6211Y-4.6004
X6.6211Y-4.6238
X6.6211Y-4.6471
X6.6211Y-4.6705
X6.6211Y-4.6939
X6.6211Y-5.2766
X6.6211Y-5.3
X6.6211Y-5.3233
X6.6211Y-5.3467
X6.6211Y-5.3701
X6.6211Y-5.3935
X6.6211Y-5.4168
X6.6211Y-5.4402
X6.6211Y-5.4636
X6.6211Y-6.0463
X6.6211Y-6.0696
X6.6211Y-6.093
X6.6211Y-6.1164
X6.6211Y-6.1398
X6.6211Y-6.1631
X6.6211Y-6.1865
X6.6211Y-6.2099
X6.6211Y-6.2333
X6.9124Y-3.4459
X6.9124Y-4.2156
X6.9124Y-4.9852
X6.9124Y-5.7549
X6.9358Y-3.4459
X6.9358Y-4.2156
X6.9358Y-4.9852
X6.9358Y-5.7549
X6.9592Y-3.4459
X6.9592Y-4.2156
X6.9592Y-4.9852
X6.9592Y-5.7549
X6.9825Y-3.4459
X6.9825Y-4.2156
X6.9825Y-4.9852
X6.9825Y-5.7549
X7.0059Y-3.4459
X7.0059Y-4.2156
X7.0059Y-4.9852
X7.0059Y-5.7549
X7.0293Y-3.4459
X7.0293Y-4.2156
X7.0293Y-4.9852
X7.0293Y-5.7549
X7.0527Y-3.4459
X7.0527Y-4.2156
X7.0527Y-4.9852
X7.0527Y-5.7549
X7.076Y-3.4459
X7.076Y-4.2156
X7.076Y-4.9852
X7.076Y-5.7549
X7.0994Y-3.4459
X7.0994Y-4.2156
X7.0994Y-4.9852
X7.0994Y-5.7549
T2
X3.7272Y-3.061
X3.7272Y-3.8307
X3.7272Y-4.6004
X3.7272Y-5.3701
X3.7272Y-6.1398
X4.1272Y-3.061
X4.1272Y-3.8307
X4.1272Y-4.6004
X4.1272Y-5.3701
X4.1272Y-6.1398
X4.4969Y-3.061
X4.4969Y-3.8307
X4.4969Y-4.6004
X4.4969Y-5.3701
X4.4969Y-6.1398
X4.8969Y-3.061
X4.8969Y-3.8307
X4.8969Y-4.6004
X4.8969Y-5.3701
X4.8969Y-6.1398
X5.2665Y-3.061
X5.2665Y-3.8307
X5.2665Y-4.6004
X5.2665Y-5.3701
X5.2665Y-6.1398
X5.6665Y-3.061
X5.6665Y-3.8307
X5.6665Y-4.6004
X5.6665Y-5.3701
X5.6665Y-6.1398
X6.0362Y-3.061
X6.0362Y-3.8307
X6.0362Y-4.6004
X6.0362Y-5.3701
X6.0362Y-6.1398
X6.4362Y-3.061
X6.4362Y-3.8307
X6.4362Y-4.6004
X6.4362Y-5.3701
X6.4362Y-6.1398
X6.8059Y-3.061
X6.8059Y-3.8307
X6.8059Y-4.6004
X6.8059Y-5.3701
X6.8059Y-6.1398
X7.2059Y-3.061
X7.2059Y-3.8307
X7.2059Y-4.6004
X7.2059Y-5.3701
X7.2059Y-6.1398
T3
X3.7772Y-2.961
X3.7772Y-3.7307
X3.7772Y-4.5004
X3.7772Y-5.2701
X3.7772Y-6.0398
X4.0272Y-2.861
X4.0272Y-3.6307
X4.0272Y-4.4004
X4.0272Y-5.1701
X4.0272Y-5.9398
X4.5469Y-2.961
X4.5469Y-3.7307
X4.5469Y-4.5004
X4.5469Y-5.2701
X4.5469Y-6.0398
X4.7969Y-2.861
X4.7969Y-3.6307
X4.7969Y-4.4004
X4.7969Y-5.1701
X4.7969Y-5.9398
X5.3165Y-2.961
X5.3165Y-3.7307
X5.3165Y-4.5004
X5.3165Y-5.2701
X5.3165Y-6.0398
X5.5665Y-2.861
X5.5665Y-3.6307
X5.5665Y-4.4004
X5.5665Y-5.1701
X5.5665Y-5.9398
X6.0862Y-2.961
X6.0862Y-3.7307
X6.0862Y-4.5004
X6.0862Y-5.2701
X6.0862Y-6.0398
X6.3362Y-2.861
X6.3362Y-3.6307
X6.3362Y-4.4004
X6.3362Y-5.1701
X6.3362Y-5.9398
X6.8559Y-2.961
X6.8559Y-3.7307
X6.8559Y-4.5004
X6.8559Y-5.2701
X6.8559Y-6.0398
X7.1059Y-2.861
X7.1059Y-3.6307
X7.1059Y-4.4004
X7.1059Y-5.1701
X7.1059Y-5.9398
T4
X3.9272Y-3.061
X3.9272Y-3.8307
X3.9272Y-4.6004
X3.9272Y-5.3701
X3.9272Y-6.1398
X4.6969Y-3.061
X4.6969Y-3.8307
X4.6969Y-4.6004
X4.6969Y-5.3701
X4.6969Y-6.1398
X5.4665Y-3.061
X5.4665Y-3.8307
X5.4665Y-4.6004
X5.4665Y-5.3701
X5.4665Y-6.1398
X6.2362Y-3.061
X6.2362Y-3.8307
X6.2362Y-4.6004
X6.2362Y-5.3701
X6.2362Y-6.1398
X7.0059Y-3.061
X7.0059Y-3.8307
X7.0059Y-4.6004
X7.0059Y-5.3701
X7.0059Y-6.1398
T0
M30
