%TF.GenerationSoftware,KiCad,Pcbnew,(5.1.9)-1*%
%TF.CreationDate,2021-02-24T13:10:21+01:00*%
%TF.ProjectId,cell,63656c6c-2e6b-4696-9361-645f70636258,rev?*%
%TF.SameCoordinates,Original*%
%TF.FileFunction,Paste,Bot*%
%TF.FilePolarity,Positive*%
%FSLAX46Y46*%
G04 Gerber Fmt 4.6, Leading zero omitted, Abs format (unit mm)*
G04 Created by KiCad (PCBNEW (5.1.9)-1) date 2021-02-24 13:10:21*
%MOMM*%
%LPD*%
G01*
G04 APERTURE LIST*
%ADD10R,1.700000X1.000000*%
%ADD11R,2.550000X2.500000*%
G04 APERTURE END LIST*
D10*
%TO.C,L1*%
X97000000Y-83700000D03*
X97000000Y-82300000D03*
X102500000Y-83700000D03*
X102500000Y-82300000D03*
%TD*%
D11*
%TO.C,SW1*%
X105592000Y-72670000D03*
X92665000Y-75210000D03*
%TD*%
%TO.C,C1*%
G36*
G01*
X101800000Y-85449999D02*
X101800000Y-86750001D01*
G75*
G02*
X101550001Y-87000000I-249999J0D01*
G01*
X100899999Y-87000000D01*
G75*
G02*
X100650000Y-86750001I0J249999D01*
G01*
X100650000Y-85449999D01*
G75*
G02*
X100899999Y-85200000I249999J0D01*
G01*
X101550001Y-85200000D01*
G75*
G02*
X101800000Y-85449999I0J-249999D01*
G01*
G37*
G36*
G01*
X98850000Y-85449999D02*
X98850000Y-86750001D01*
G75*
G02*
X98600001Y-87000000I-249999J0D01*
G01*
X97949999Y-87000000D01*
G75*
G02*
X97700000Y-86750001I0J249999D01*
G01*
X97700000Y-85449999D01*
G75*
G02*
X97949999Y-85200000I249999J0D01*
G01*
X98600001Y-85200000D01*
G75*
G02*
X98850000Y-85449999I0J-249999D01*
G01*
G37*
%TD*%
%TO.C,D1*%
G36*
G01*
X100550000Y-70125000D02*
X100550000Y-68875000D01*
G75*
G02*
X100800000Y-68625000I250000J0D01*
G01*
X101550000Y-68625000D01*
G75*
G02*
X101800000Y-68875000I0J-250000D01*
G01*
X101800000Y-70125000D01*
G75*
G02*
X101550000Y-70375000I-250000J0D01*
G01*
X100800000Y-70375000D01*
G75*
G02*
X100550000Y-70125000I0J250000D01*
G01*
G37*
G36*
G01*
X97750000Y-70125000D02*
X97750000Y-68875000D01*
G75*
G02*
X98000000Y-68625000I250000J0D01*
G01*
X98750000Y-68625000D01*
G75*
G02*
X99000000Y-68875000I0J-250000D01*
G01*
X99000000Y-70125000D01*
G75*
G02*
X98750000Y-70375000I-250000J0D01*
G01*
X98000000Y-70375000D01*
G75*
G02*
X97750000Y-70125000I0J250000D01*
G01*
G37*
%TD*%
M02*
