%TF.GenerationSoftware,KiCad,Pcbnew,(5.1.9)-1*%
%TF.CreationDate,2021-03-09T21:07:52+01:00*%
%TF.ProjectId,cell,63656c6c-2e6b-4696-9361-645f70636258,rev?*%
%TF.SameCoordinates,Original*%
%TF.FileFunction,Paste,Bot*%
%TF.FilePolarity,Positive*%
%FSLAX46Y46*%
G04 Gerber Fmt 4.6, Leading zero omitted, Abs format (unit mm)*
G04 Created by KiCad (PCBNEW (5.1.9)-1) date 2021-03-09 21:07:52*
%MOMM*%
%LPD*%
G01*
G04 APERTURE LIST*
%ADD10R,1.700000X1.000000*%
%ADD11R,2.550000X2.500000*%
G04 APERTURE END LIST*
D10*
%TO.C,L1*%
X175200000Y-161900000D03*
X175200000Y-160500000D03*
X180700000Y-161900000D03*
X180700000Y-160500000D03*
%TD*%
%TO.C,L1*%
X155650000Y-161900000D03*
X155650000Y-160500000D03*
X161150000Y-161900000D03*
X161150000Y-160500000D03*
%TD*%
%TO.C,L1*%
X136100000Y-161900000D03*
X136100000Y-160500000D03*
X141600000Y-161900000D03*
X141600000Y-160500000D03*
%TD*%
%TO.C,L1*%
X116550000Y-161900000D03*
X116550000Y-160500000D03*
X122050000Y-161900000D03*
X122050000Y-160500000D03*
%TD*%
%TO.C,L1*%
X97000000Y-161900000D03*
X97000000Y-160500000D03*
X102500000Y-161900000D03*
X102500000Y-160500000D03*
%TD*%
%TO.C,L1*%
X175200000Y-142350000D03*
X175200000Y-140950000D03*
X180700000Y-142350000D03*
X180700000Y-140950000D03*
%TD*%
%TO.C,L1*%
X155650000Y-142350000D03*
X155650000Y-140950000D03*
X161150000Y-142350000D03*
X161150000Y-140950000D03*
%TD*%
%TO.C,L1*%
X136100000Y-142350000D03*
X136100000Y-140950000D03*
X141600000Y-142350000D03*
X141600000Y-140950000D03*
%TD*%
%TO.C,L1*%
X116550000Y-142350000D03*
X116550000Y-140950000D03*
X122050000Y-142350000D03*
X122050000Y-140950000D03*
%TD*%
%TO.C,L1*%
X97000000Y-142350000D03*
X97000000Y-140950000D03*
X102500000Y-142350000D03*
X102500000Y-140950000D03*
%TD*%
%TO.C,L1*%
X175200000Y-122800000D03*
X175200000Y-121400000D03*
X180700000Y-122800000D03*
X180700000Y-121400000D03*
%TD*%
%TO.C,L1*%
X155650000Y-122800000D03*
X155650000Y-121400000D03*
X161150000Y-122800000D03*
X161150000Y-121400000D03*
%TD*%
%TO.C,L1*%
X136100000Y-122800000D03*
X136100000Y-121400000D03*
X141600000Y-122800000D03*
X141600000Y-121400000D03*
%TD*%
%TO.C,L1*%
X116550000Y-122800000D03*
X116550000Y-121400000D03*
X122050000Y-122800000D03*
X122050000Y-121400000D03*
%TD*%
%TO.C,L1*%
X97000000Y-122800000D03*
X97000000Y-121400000D03*
X102500000Y-122800000D03*
X102500000Y-121400000D03*
%TD*%
%TO.C,L1*%
X175200000Y-103250000D03*
X175200000Y-101850000D03*
X180700000Y-103250000D03*
X180700000Y-101850000D03*
%TD*%
%TO.C,L1*%
X155650000Y-103250000D03*
X155650000Y-101850000D03*
X161150000Y-103250000D03*
X161150000Y-101850000D03*
%TD*%
%TO.C,L1*%
X136100000Y-103250000D03*
X136100000Y-101850000D03*
X141600000Y-103250000D03*
X141600000Y-101850000D03*
%TD*%
%TO.C,L1*%
X116550000Y-103250000D03*
X116550000Y-101850000D03*
X122050000Y-103250000D03*
X122050000Y-101850000D03*
%TD*%
%TO.C,L1*%
X97000000Y-103250000D03*
X97000000Y-101850000D03*
X102500000Y-103250000D03*
X102500000Y-101850000D03*
%TD*%
%TO.C,L1*%
X175200000Y-83700000D03*
X175200000Y-82300000D03*
X180700000Y-83700000D03*
X180700000Y-82300000D03*
%TD*%
%TO.C,L1*%
X155650000Y-83700000D03*
X155650000Y-82300000D03*
X161150000Y-83700000D03*
X161150000Y-82300000D03*
%TD*%
%TO.C,L1*%
X136100000Y-83700000D03*
X136100000Y-82300000D03*
X141600000Y-83700000D03*
X141600000Y-82300000D03*
%TD*%
%TO.C,L1*%
X116550000Y-83700000D03*
X116550000Y-82300000D03*
X122050000Y-83700000D03*
X122050000Y-82300000D03*
%TD*%
D11*
%TO.C,SW1*%
X183792000Y-150870000D03*
X170865000Y-153410000D03*
%TD*%
%TO.C,SW1*%
X164242000Y-150870000D03*
X151315000Y-153410000D03*
%TD*%
%TO.C,SW1*%
X144692000Y-150870000D03*
X131765000Y-153410000D03*
%TD*%
%TO.C,SW1*%
X125142000Y-150870000D03*
X112215000Y-153410000D03*
%TD*%
%TO.C,SW1*%
X105592000Y-150870000D03*
X92665000Y-153410000D03*
%TD*%
%TO.C,SW1*%
X183792000Y-131320000D03*
X170865000Y-133860000D03*
%TD*%
%TO.C,SW1*%
X164242000Y-131320000D03*
X151315000Y-133860000D03*
%TD*%
%TO.C,SW1*%
X144692000Y-131320000D03*
X131765000Y-133860000D03*
%TD*%
%TO.C,SW1*%
X125142000Y-131320000D03*
X112215000Y-133860000D03*
%TD*%
%TO.C,SW1*%
X105592000Y-131320000D03*
X92665000Y-133860000D03*
%TD*%
%TO.C,SW1*%
X183792000Y-111770000D03*
X170865000Y-114310000D03*
%TD*%
%TO.C,SW1*%
X164242000Y-111770000D03*
X151315000Y-114310000D03*
%TD*%
%TO.C,SW1*%
X144692000Y-111770000D03*
X131765000Y-114310000D03*
%TD*%
%TO.C,SW1*%
X125142000Y-111770000D03*
X112215000Y-114310000D03*
%TD*%
%TO.C,SW1*%
X105592000Y-111770000D03*
X92665000Y-114310000D03*
%TD*%
%TO.C,SW1*%
X183792000Y-92220000D03*
X170865000Y-94760000D03*
%TD*%
%TO.C,SW1*%
X164242000Y-92220000D03*
X151315000Y-94760000D03*
%TD*%
%TO.C,SW1*%
X144692000Y-92220000D03*
X131765000Y-94760000D03*
%TD*%
%TO.C,SW1*%
X125142000Y-92220000D03*
X112215000Y-94760000D03*
%TD*%
%TO.C,SW1*%
X105592000Y-92220000D03*
X92665000Y-94760000D03*
%TD*%
%TO.C,SW1*%
X183792000Y-72670000D03*
X170865000Y-75210000D03*
%TD*%
%TO.C,SW1*%
X164242000Y-72670000D03*
X151315000Y-75210000D03*
%TD*%
%TO.C,SW1*%
X144692000Y-72670000D03*
X131765000Y-75210000D03*
%TD*%
%TO.C,SW1*%
X125142000Y-72670000D03*
X112215000Y-75210000D03*
%TD*%
%TO.C,D1*%
G36*
G01*
X178750000Y-148325000D02*
X178750000Y-147075000D01*
G75*
G02*
X179000000Y-146825000I250000J0D01*
G01*
X179750000Y-146825000D01*
G75*
G02*
X180000000Y-147075000I0J-250000D01*
G01*
X180000000Y-148325000D01*
G75*
G02*
X179750000Y-148575000I-250000J0D01*
G01*
X179000000Y-148575000D01*
G75*
G02*
X178750000Y-148325000I0J250000D01*
G01*
G37*
G36*
G01*
X175950000Y-148325000D02*
X175950000Y-147075000D01*
G75*
G02*
X176200000Y-146825000I250000J0D01*
G01*
X176950000Y-146825000D01*
G75*
G02*
X177200000Y-147075000I0J-250000D01*
G01*
X177200000Y-148325000D01*
G75*
G02*
X176950000Y-148575000I-250000J0D01*
G01*
X176200000Y-148575000D01*
G75*
G02*
X175950000Y-148325000I0J250000D01*
G01*
G37*
%TD*%
%TO.C,D1*%
G36*
G01*
X159200000Y-148325000D02*
X159200000Y-147075000D01*
G75*
G02*
X159450000Y-146825000I250000J0D01*
G01*
X160200000Y-146825000D01*
G75*
G02*
X160450000Y-147075000I0J-250000D01*
G01*
X160450000Y-148325000D01*
G75*
G02*
X160200000Y-148575000I-250000J0D01*
G01*
X159450000Y-148575000D01*
G75*
G02*
X159200000Y-148325000I0J250000D01*
G01*
G37*
G36*
G01*
X156400000Y-148325000D02*
X156400000Y-147075000D01*
G75*
G02*
X156650000Y-146825000I250000J0D01*
G01*
X157400000Y-146825000D01*
G75*
G02*
X157650000Y-147075000I0J-250000D01*
G01*
X157650000Y-148325000D01*
G75*
G02*
X157400000Y-148575000I-250000J0D01*
G01*
X156650000Y-148575000D01*
G75*
G02*
X156400000Y-148325000I0J250000D01*
G01*
G37*
%TD*%
%TO.C,D1*%
G36*
G01*
X139650000Y-148325000D02*
X139650000Y-147075000D01*
G75*
G02*
X139900000Y-146825000I250000J0D01*
G01*
X140650000Y-146825000D01*
G75*
G02*
X140900000Y-147075000I0J-250000D01*
G01*
X140900000Y-148325000D01*
G75*
G02*
X140650000Y-148575000I-250000J0D01*
G01*
X139900000Y-148575000D01*
G75*
G02*
X139650000Y-148325000I0J250000D01*
G01*
G37*
G36*
G01*
X136850000Y-148325000D02*
X136850000Y-147075000D01*
G75*
G02*
X137100000Y-146825000I250000J0D01*
G01*
X137850000Y-146825000D01*
G75*
G02*
X138100000Y-147075000I0J-250000D01*
G01*
X138100000Y-148325000D01*
G75*
G02*
X137850000Y-148575000I-250000J0D01*
G01*
X137100000Y-148575000D01*
G75*
G02*
X136850000Y-148325000I0J250000D01*
G01*
G37*
%TD*%
%TO.C,D1*%
G36*
G01*
X120100000Y-148325000D02*
X120100000Y-147075000D01*
G75*
G02*
X120350000Y-146825000I250000J0D01*
G01*
X121100000Y-146825000D01*
G75*
G02*
X121350000Y-147075000I0J-250000D01*
G01*
X121350000Y-148325000D01*
G75*
G02*
X121100000Y-148575000I-250000J0D01*
G01*
X120350000Y-148575000D01*
G75*
G02*
X120100000Y-148325000I0J250000D01*
G01*
G37*
G36*
G01*
X117300000Y-148325000D02*
X117300000Y-147075000D01*
G75*
G02*
X117550000Y-146825000I250000J0D01*
G01*
X118300000Y-146825000D01*
G75*
G02*
X118550000Y-147075000I0J-250000D01*
G01*
X118550000Y-148325000D01*
G75*
G02*
X118300000Y-148575000I-250000J0D01*
G01*
X117550000Y-148575000D01*
G75*
G02*
X117300000Y-148325000I0J250000D01*
G01*
G37*
%TD*%
%TO.C,D1*%
G36*
G01*
X100550000Y-148325000D02*
X100550000Y-147075000D01*
G75*
G02*
X100800000Y-146825000I250000J0D01*
G01*
X101550000Y-146825000D01*
G75*
G02*
X101800000Y-147075000I0J-250000D01*
G01*
X101800000Y-148325000D01*
G75*
G02*
X101550000Y-148575000I-250000J0D01*
G01*
X100800000Y-148575000D01*
G75*
G02*
X100550000Y-148325000I0J250000D01*
G01*
G37*
G36*
G01*
X97750000Y-148325000D02*
X97750000Y-147075000D01*
G75*
G02*
X98000000Y-146825000I250000J0D01*
G01*
X98750000Y-146825000D01*
G75*
G02*
X99000000Y-147075000I0J-250000D01*
G01*
X99000000Y-148325000D01*
G75*
G02*
X98750000Y-148575000I-250000J0D01*
G01*
X98000000Y-148575000D01*
G75*
G02*
X97750000Y-148325000I0J250000D01*
G01*
G37*
%TD*%
%TO.C,D1*%
G36*
G01*
X178750000Y-128775000D02*
X178750000Y-127525000D01*
G75*
G02*
X179000000Y-127275000I250000J0D01*
G01*
X179750000Y-127275000D01*
G75*
G02*
X180000000Y-127525000I0J-250000D01*
G01*
X180000000Y-128775000D01*
G75*
G02*
X179750000Y-129025000I-250000J0D01*
G01*
X179000000Y-129025000D01*
G75*
G02*
X178750000Y-128775000I0J250000D01*
G01*
G37*
G36*
G01*
X175950000Y-128775000D02*
X175950000Y-127525000D01*
G75*
G02*
X176200000Y-127275000I250000J0D01*
G01*
X176950000Y-127275000D01*
G75*
G02*
X177200000Y-127525000I0J-250000D01*
G01*
X177200000Y-128775000D01*
G75*
G02*
X176950000Y-129025000I-250000J0D01*
G01*
X176200000Y-129025000D01*
G75*
G02*
X175950000Y-128775000I0J250000D01*
G01*
G37*
%TD*%
%TO.C,D1*%
G36*
G01*
X159200000Y-128775000D02*
X159200000Y-127525000D01*
G75*
G02*
X159450000Y-127275000I250000J0D01*
G01*
X160200000Y-127275000D01*
G75*
G02*
X160450000Y-127525000I0J-250000D01*
G01*
X160450000Y-128775000D01*
G75*
G02*
X160200000Y-129025000I-250000J0D01*
G01*
X159450000Y-129025000D01*
G75*
G02*
X159200000Y-128775000I0J250000D01*
G01*
G37*
G36*
G01*
X156400000Y-128775000D02*
X156400000Y-127525000D01*
G75*
G02*
X156650000Y-127275000I250000J0D01*
G01*
X157400000Y-127275000D01*
G75*
G02*
X157650000Y-127525000I0J-250000D01*
G01*
X157650000Y-128775000D01*
G75*
G02*
X157400000Y-129025000I-250000J0D01*
G01*
X156650000Y-129025000D01*
G75*
G02*
X156400000Y-128775000I0J250000D01*
G01*
G37*
%TD*%
%TO.C,D1*%
G36*
G01*
X139650000Y-128775000D02*
X139650000Y-127525000D01*
G75*
G02*
X139900000Y-127275000I250000J0D01*
G01*
X140650000Y-127275000D01*
G75*
G02*
X140900000Y-127525000I0J-250000D01*
G01*
X140900000Y-128775000D01*
G75*
G02*
X140650000Y-129025000I-250000J0D01*
G01*
X139900000Y-129025000D01*
G75*
G02*
X139650000Y-128775000I0J250000D01*
G01*
G37*
G36*
G01*
X136850000Y-128775000D02*
X136850000Y-127525000D01*
G75*
G02*
X137100000Y-127275000I250000J0D01*
G01*
X137850000Y-127275000D01*
G75*
G02*
X138100000Y-127525000I0J-250000D01*
G01*
X138100000Y-128775000D01*
G75*
G02*
X137850000Y-129025000I-250000J0D01*
G01*
X137100000Y-129025000D01*
G75*
G02*
X136850000Y-128775000I0J250000D01*
G01*
G37*
%TD*%
%TO.C,D1*%
G36*
G01*
X120100000Y-128775000D02*
X120100000Y-127525000D01*
G75*
G02*
X120350000Y-127275000I250000J0D01*
G01*
X121100000Y-127275000D01*
G75*
G02*
X121350000Y-127525000I0J-250000D01*
G01*
X121350000Y-128775000D01*
G75*
G02*
X121100000Y-129025000I-250000J0D01*
G01*
X120350000Y-129025000D01*
G75*
G02*
X120100000Y-128775000I0J250000D01*
G01*
G37*
G36*
G01*
X117300000Y-128775000D02*
X117300000Y-127525000D01*
G75*
G02*
X117550000Y-127275000I250000J0D01*
G01*
X118300000Y-127275000D01*
G75*
G02*
X118550000Y-127525000I0J-250000D01*
G01*
X118550000Y-128775000D01*
G75*
G02*
X118300000Y-129025000I-250000J0D01*
G01*
X117550000Y-129025000D01*
G75*
G02*
X117300000Y-128775000I0J250000D01*
G01*
G37*
%TD*%
%TO.C,D1*%
G36*
G01*
X100550000Y-128775000D02*
X100550000Y-127525000D01*
G75*
G02*
X100800000Y-127275000I250000J0D01*
G01*
X101550000Y-127275000D01*
G75*
G02*
X101800000Y-127525000I0J-250000D01*
G01*
X101800000Y-128775000D01*
G75*
G02*
X101550000Y-129025000I-250000J0D01*
G01*
X100800000Y-129025000D01*
G75*
G02*
X100550000Y-128775000I0J250000D01*
G01*
G37*
G36*
G01*
X97750000Y-128775000D02*
X97750000Y-127525000D01*
G75*
G02*
X98000000Y-127275000I250000J0D01*
G01*
X98750000Y-127275000D01*
G75*
G02*
X99000000Y-127525000I0J-250000D01*
G01*
X99000000Y-128775000D01*
G75*
G02*
X98750000Y-129025000I-250000J0D01*
G01*
X98000000Y-129025000D01*
G75*
G02*
X97750000Y-128775000I0J250000D01*
G01*
G37*
%TD*%
%TO.C,D1*%
G36*
G01*
X178750000Y-109225000D02*
X178750000Y-107975000D01*
G75*
G02*
X179000000Y-107725000I250000J0D01*
G01*
X179750000Y-107725000D01*
G75*
G02*
X180000000Y-107975000I0J-250000D01*
G01*
X180000000Y-109225000D01*
G75*
G02*
X179750000Y-109475000I-250000J0D01*
G01*
X179000000Y-109475000D01*
G75*
G02*
X178750000Y-109225000I0J250000D01*
G01*
G37*
G36*
G01*
X175950000Y-109225000D02*
X175950000Y-107975000D01*
G75*
G02*
X176200000Y-107725000I250000J0D01*
G01*
X176950000Y-107725000D01*
G75*
G02*
X177200000Y-107975000I0J-250000D01*
G01*
X177200000Y-109225000D01*
G75*
G02*
X176950000Y-109475000I-250000J0D01*
G01*
X176200000Y-109475000D01*
G75*
G02*
X175950000Y-109225000I0J250000D01*
G01*
G37*
%TD*%
%TO.C,D1*%
G36*
G01*
X159200000Y-109225000D02*
X159200000Y-107975000D01*
G75*
G02*
X159450000Y-107725000I250000J0D01*
G01*
X160200000Y-107725000D01*
G75*
G02*
X160450000Y-107975000I0J-250000D01*
G01*
X160450000Y-109225000D01*
G75*
G02*
X160200000Y-109475000I-250000J0D01*
G01*
X159450000Y-109475000D01*
G75*
G02*
X159200000Y-109225000I0J250000D01*
G01*
G37*
G36*
G01*
X156400000Y-109225000D02*
X156400000Y-107975000D01*
G75*
G02*
X156650000Y-107725000I250000J0D01*
G01*
X157400000Y-107725000D01*
G75*
G02*
X157650000Y-107975000I0J-250000D01*
G01*
X157650000Y-109225000D01*
G75*
G02*
X157400000Y-109475000I-250000J0D01*
G01*
X156650000Y-109475000D01*
G75*
G02*
X156400000Y-109225000I0J250000D01*
G01*
G37*
%TD*%
%TO.C,D1*%
G36*
G01*
X139650000Y-109225000D02*
X139650000Y-107975000D01*
G75*
G02*
X139900000Y-107725000I250000J0D01*
G01*
X140650000Y-107725000D01*
G75*
G02*
X140900000Y-107975000I0J-250000D01*
G01*
X140900000Y-109225000D01*
G75*
G02*
X140650000Y-109475000I-250000J0D01*
G01*
X139900000Y-109475000D01*
G75*
G02*
X139650000Y-109225000I0J250000D01*
G01*
G37*
G36*
G01*
X136850000Y-109225000D02*
X136850000Y-107975000D01*
G75*
G02*
X137100000Y-107725000I250000J0D01*
G01*
X137850000Y-107725000D01*
G75*
G02*
X138100000Y-107975000I0J-250000D01*
G01*
X138100000Y-109225000D01*
G75*
G02*
X137850000Y-109475000I-250000J0D01*
G01*
X137100000Y-109475000D01*
G75*
G02*
X136850000Y-109225000I0J250000D01*
G01*
G37*
%TD*%
%TO.C,D1*%
G36*
G01*
X120100000Y-109225000D02*
X120100000Y-107975000D01*
G75*
G02*
X120350000Y-107725000I250000J0D01*
G01*
X121100000Y-107725000D01*
G75*
G02*
X121350000Y-107975000I0J-250000D01*
G01*
X121350000Y-109225000D01*
G75*
G02*
X121100000Y-109475000I-250000J0D01*
G01*
X120350000Y-109475000D01*
G75*
G02*
X120100000Y-109225000I0J250000D01*
G01*
G37*
G36*
G01*
X117300000Y-109225000D02*
X117300000Y-107975000D01*
G75*
G02*
X117550000Y-107725000I250000J0D01*
G01*
X118300000Y-107725000D01*
G75*
G02*
X118550000Y-107975000I0J-250000D01*
G01*
X118550000Y-109225000D01*
G75*
G02*
X118300000Y-109475000I-250000J0D01*
G01*
X117550000Y-109475000D01*
G75*
G02*
X117300000Y-109225000I0J250000D01*
G01*
G37*
%TD*%
%TO.C,D1*%
G36*
G01*
X100550000Y-109225000D02*
X100550000Y-107975000D01*
G75*
G02*
X100800000Y-107725000I250000J0D01*
G01*
X101550000Y-107725000D01*
G75*
G02*
X101800000Y-107975000I0J-250000D01*
G01*
X101800000Y-109225000D01*
G75*
G02*
X101550000Y-109475000I-250000J0D01*
G01*
X100800000Y-109475000D01*
G75*
G02*
X100550000Y-109225000I0J250000D01*
G01*
G37*
G36*
G01*
X97750000Y-109225000D02*
X97750000Y-107975000D01*
G75*
G02*
X98000000Y-107725000I250000J0D01*
G01*
X98750000Y-107725000D01*
G75*
G02*
X99000000Y-107975000I0J-250000D01*
G01*
X99000000Y-109225000D01*
G75*
G02*
X98750000Y-109475000I-250000J0D01*
G01*
X98000000Y-109475000D01*
G75*
G02*
X97750000Y-109225000I0J250000D01*
G01*
G37*
%TD*%
%TO.C,D1*%
G36*
G01*
X178750000Y-89675000D02*
X178750000Y-88425000D01*
G75*
G02*
X179000000Y-88175000I250000J0D01*
G01*
X179750000Y-88175000D01*
G75*
G02*
X180000000Y-88425000I0J-250000D01*
G01*
X180000000Y-89675000D01*
G75*
G02*
X179750000Y-89925000I-250000J0D01*
G01*
X179000000Y-89925000D01*
G75*
G02*
X178750000Y-89675000I0J250000D01*
G01*
G37*
G36*
G01*
X175950000Y-89675000D02*
X175950000Y-88425000D01*
G75*
G02*
X176200000Y-88175000I250000J0D01*
G01*
X176950000Y-88175000D01*
G75*
G02*
X177200000Y-88425000I0J-250000D01*
G01*
X177200000Y-89675000D01*
G75*
G02*
X176950000Y-89925000I-250000J0D01*
G01*
X176200000Y-89925000D01*
G75*
G02*
X175950000Y-89675000I0J250000D01*
G01*
G37*
%TD*%
%TO.C,D1*%
G36*
G01*
X159200000Y-89675000D02*
X159200000Y-88425000D01*
G75*
G02*
X159450000Y-88175000I250000J0D01*
G01*
X160200000Y-88175000D01*
G75*
G02*
X160450000Y-88425000I0J-250000D01*
G01*
X160450000Y-89675000D01*
G75*
G02*
X160200000Y-89925000I-250000J0D01*
G01*
X159450000Y-89925000D01*
G75*
G02*
X159200000Y-89675000I0J250000D01*
G01*
G37*
G36*
G01*
X156400000Y-89675000D02*
X156400000Y-88425000D01*
G75*
G02*
X156650000Y-88175000I250000J0D01*
G01*
X157400000Y-88175000D01*
G75*
G02*
X157650000Y-88425000I0J-250000D01*
G01*
X157650000Y-89675000D01*
G75*
G02*
X157400000Y-89925000I-250000J0D01*
G01*
X156650000Y-89925000D01*
G75*
G02*
X156400000Y-89675000I0J250000D01*
G01*
G37*
%TD*%
%TO.C,D1*%
G36*
G01*
X139650000Y-89675000D02*
X139650000Y-88425000D01*
G75*
G02*
X139900000Y-88175000I250000J0D01*
G01*
X140650000Y-88175000D01*
G75*
G02*
X140900000Y-88425000I0J-250000D01*
G01*
X140900000Y-89675000D01*
G75*
G02*
X140650000Y-89925000I-250000J0D01*
G01*
X139900000Y-89925000D01*
G75*
G02*
X139650000Y-89675000I0J250000D01*
G01*
G37*
G36*
G01*
X136850000Y-89675000D02*
X136850000Y-88425000D01*
G75*
G02*
X137100000Y-88175000I250000J0D01*
G01*
X137850000Y-88175000D01*
G75*
G02*
X138100000Y-88425000I0J-250000D01*
G01*
X138100000Y-89675000D01*
G75*
G02*
X137850000Y-89925000I-250000J0D01*
G01*
X137100000Y-89925000D01*
G75*
G02*
X136850000Y-89675000I0J250000D01*
G01*
G37*
%TD*%
%TO.C,D1*%
G36*
G01*
X120100000Y-89675000D02*
X120100000Y-88425000D01*
G75*
G02*
X120350000Y-88175000I250000J0D01*
G01*
X121100000Y-88175000D01*
G75*
G02*
X121350000Y-88425000I0J-250000D01*
G01*
X121350000Y-89675000D01*
G75*
G02*
X121100000Y-89925000I-250000J0D01*
G01*
X120350000Y-89925000D01*
G75*
G02*
X120100000Y-89675000I0J250000D01*
G01*
G37*
G36*
G01*
X117300000Y-89675000D02*
X117300000Y-88425000D01*
G75*
G02*
X117550000Y-88175000I250000J0D01*
G01*
X118300000Y-88175000D01*
G75*
G02*
X118550000Y-88425000I0J-250000D01*
G01*
X118550000Y-89675000D01*
G75*
G02*
X118300000Y-89925000I-250000J0D01*
G01*
X117550000Y-89925000D01*
G75*
G02*
X117300000Y-89675000I0J250000D01*
G01*
G37*
%TD*%
%TO.C,D1*%
G36*
G01*
X100550000Y-89675000D02*
X100550000Y-88425000D01*
G75*
G02*
X100800000Y-88175000I250000J0D01*
G01*
X101550000Y-88175000D01*
G75*
G02*
X101800000Y-88425000I0J-250000D01*
G01*
X101800000Y-89675000D01*
G75*
G02*
X101550000Y-89925000I-250000J0D01*
G01*
X100800000Y-89925000D01*
G75*
G02*
X100550000Y-89675000I0J250000D01*
G01*
G37*
G36*
G01*
X97750000Y-89675000D02*
X97750000Y-88425000D01*
G75*
G02*
X98000000Y-88175000I250000J0D01*
G01*
X98750000Y-88175000D01*
G75*
G02*
X99000000Y-88425000I0J-250000D01*
G01*
X99000000Y-89675000D01*
G75*
G02*
X98750000Y-89925000I-250000J0D01*
G01*
X98000000Y-89925000D01*
G75*
G02*
X97750000Y-89675000I0J250000D01*
G01*
G37*
%TD*%
%TO.C,D1*%
G36*
G01*
X178750000Y-70125000D02*
X178750000Y-68875000D01*
G75*
G02*
X179000000Y-68625000I250000J0D01*
G01*
X179750000Y-68625000D01*
G75*
G02*
X180000000Y-68875000I0J-250000D01*
G01*
X180000000Y-70125000D01*
G75*
G02*
X179750000Y-70375000I-250000J0D01*
G01*
X179000000Y-70375000D01*
G75*
G02*
X178750000Y-70125000I0J250000D01*
G01*
G37*
G36*
G01*
X175950000Y-70125000D02*
X175950000Y-68875000D01*
G75*
G02*
X176200000Y-68625000I250000J0D01*
G01*
X176950000Y-68625000D01*
G75*
G02*
X177200000Y-68875000I0J-250000D01*
G01*
X177200000Y-70125000D01*
G75*
G02*
X176950000Y-70375000I-250000J0D01*
G01*
X176200000Y-70375000D01*
G75*
G02*
X175950000Y-70125000I0J250000D01*
G01*
G37*
%TD*%
%TO.C,D1*%
G36*
G01*
X159200000Y-70125000D02*
X159200000Y-68875000D01*
G75*
G02*
X159450000Y-68625000I250000J0D01*
G01*
X160200000Y-68625000D01*
G75*
G02*
X160450000Y-68875000I0J-250000D01*
G01*
X160450000Y-70125000D01*
G75*
G02*
X160200000Y-70375000I-250000J0D01*
G01*
X159450000Y-70375000D01*
G75*
G02*
X159200000Y-70125000I0J250000D01*
G01*
G37*
G36*
G01*
X156400000Y-70125000D02*
X156400000Y-68875000D01*
G75*
G02*
X156650000Y-68625000I250000J0D01*
G01*
X157400000Y-68625000D01*
G75*
G02*
X157650000Y-68875000I0J-250000D01*
G01*
X157650000Y-70125000D01*
G75*
G02*
X157400000Y-70375000I-250000J0D01*
G01*
X156650000Y-70375000D01*
G75*
G02*
X156400000Y-70125000I0J250000D01*
G01*
G37*
%TD*%
%TO.C,D1*%
G36*
G01*
X139650000Y-70125000D02*
X139650000Y-68875000D01*
G75*
G02*
X139900000Y-68625000I250000J0D01*
G01*
X140650000Y-68625000D01*
G75*
G02*
X140900000Y-68875000I0J-250000D01*
G01*
X140900000Y-70125000D01*
G75*
G02*
X140650000Y-70375000I-250000J0D01*
G01*
X139900000Y-70375000D01*
G75*
G02*
X139650000Y-70125000I0J250000D01*
G01*
G37*
G36*
G01*
X136850000Y-70125000D02*
X136850000Y-68875000D01*
G75*
G02*
X137100000Y-68625000I250000J0D01*
G01*
X137850000Y-68625000D01*
G75*
G02*
X138100000Y-68875000I0J-250000D01*
G01*
X138100000Y-70125000D01*
G75*
G02*
X137850000Y-70375000I-250000J0D01*
G01*
X137100000Y-70375000D01*
G75*
G02*
X136850000Y-70125000I0J250000D01*
G01*
G37*
%TD*%
%TO.C,D1*%
G36*
G01*
X120100000Y-70125000D02*
X120100000Y-68875000D01*
G75*
G02*
X120350000Y-68625000I250000J0D01*
G01*
X121100000Y-68625000D01*
G75*
G02*
X121350000Y-68875000I0J-250000D01*
G01*
X121350000Y-70125000D01*
G75*
G02*
X121100000Y-70375000I-250000J0D01*
G01*
X120350000Y-70375000D01*
G75*
G02*
X120100000Y-70125000I0J250000D01*
G01*
G37*
G36*
G01*
X117300000Y-70125000D02*
X117300000Y-68875000D01*
G75*
G02*
X117550000Y-68625000I250000J0D01*
G01*
X118300000Y-68625000D01*
G75*
G02*
X118550000Y-68875000I0J-250000D01*
G01*
X118550000Y-70125000D01*
G75*
G02*
X118300000Y-70375000I-250000J0D01*
G01*
X117550000Y-70375000D01*
G75*
G02*
X117300000Y-70125000I0J250000D01*
G01*
G37*
%TD*%
%TO.C,C1*%
G36*
G01*
X180000000Y-163649999D02*
X180000000Y-164950001D01*
G75*
G02*
X179750001Y-165200000I-249999J0D01*
G01*
X179099999Y-165200000D01*
G75*
G02*
X178850000Y-164950001I0J249999D01*
G01*
X178850000Y-163649999D01*
G75*
G02*
X179099999Y-163400000I249999J0D01*
G01*
X179750001Y-163400000D01*
G75*
G02*
X180000000Y-163649999I0J-249999D01*
G01*
G37*
G36*
G01*
X177050000Y-163649999D02*
X177050000Y-164950001D01*
G75*
G02*
X176800001Y-165200000I-249999J0D01*
G01*
X176149999Y-165200000D01*
G75*
G02*
X175900000Y-164950001I0J249999D01*
G01*
X175900000Y-163649999D01*
G75*
G02*
X176149999Y-163400000I249999J0D01*
G01*
X176800001Y-163400000D01*
G75*
G02*
X177050000Y-163649999I0J-249999D01*
G01*
G37*
%TD*%
%TO.C,C1*%
G36*
G01*
X160450000Y-163649999D02*
X160450000Y-164950001D01*
G75*
G02*
X160200001Y-165200000I-249999J0D01*
G01*
X159549999Y-165200000D01*
G75*
G02*
X159300000Y-164950001I0J249999D01*
G01*
X159300000Y-163649999D01*
G75*
G02*
X159549999Y-163400000I249999J0D01*
G01*
X160200001Y-163400000D01*
G75*
G02*
X160450000Y-163649999I0J-249999D01*
G01*
G37*
G36*
G01*
X157500000Y-163649999D02*
X157500000Y-164950001D01*
G75*
G02*
X157250001Y-165200000I-249999J0D01*
G01*
X156599999Y-165200000D01*
G75*
G02*
X156350000Y-164950001I0J249999D01*
G01*
X156350000Y-163649999D01*
G75*
G02*
X156599999Y-163400000I249999J0D01*
G01*
X157250001Y-163400000D01*
G75*
G02*
X157500000Y-163649999I0J-249999D01*
G01*
G37*
%TD*%
%TO.C,C1*%
G36*
G01*
X140900000Y-163649999D02*
X140900000Y-164950001D01*
G75*
G02*
X140650001Y-165200000I-249999J0D01*
G01*
X139999999Y-165200000D01*
G75*
G02*
X139750000Y-164950001I0J249999D01*
G01*
X139750000Y-163649999D01*
G75*
G02*
X139999999Y-163400000I249999J0D01*
G01*
X140650001Y-163400000D01*
G75*
G02*
X140900000Y-163649999I0J-249999D01*
G01*
G37*
G36*
G01*
X137950000Y-163649999D02*
X137950000Y-164950001D01*
G75*
G02*
X137700001Y-165200000I-249999J0D01*
G01*
X137049999Y-165200000D01*
G75*
G02*
X136800000Y-164950001I0J249999D01*
G01*
X136800000Y-163649999D01*
G75*
G02*
X137049999Y-163400000I249999J0D01*
G01*
X137700001Y-163400000D01*
G75*
G02*
X137950000Y-163649999I0J-249999D01*
G01*
G37*
%TD*%
%TO.C,C1*%
G36*
G01*
X121350000Y-163649999D02*
X121350000Y-164950001D01*
G75*
G02*
X121100001Y-165200000I-249999J0D01*
G01*
X120449999Y-165200000D01*
G75*
G02*
X120200000Y-164950001I0J249999D01*
G01*
X120200000Y-163649999D01*
G75*
G02*
X120449999Y-163400000I249999J0D01*
G01*
X121100001Y-163400000D01*
G75*
G02*
X121350000Y-163649999I0J-249999D01*
G01*
G37*
G36*
G01*
X118400000Y-163649999D02*
X118400000Y-164950001D01*
G75*
G02*
X118150001Y-165200000I-249999J0D01*
G01*
X117499999Y-165200000D01*
G75*
G02*
X117250000Y-164950001I0J249999D01*
G01*
X117250000Y-163649999D01*
G75*
G02*
X117499999Y-163400000I249999J0D01*
G01*
X118150001Y-163400000D01*
G75*
G02*
X118400000Y-163649999I0J-249999D01*
G01*
G37*
%TD*%
%TO.C,C1*%
G36*
G01*
X101800000Y-163649999D02*
X101800000Y-164950001D01*
G75*
G02*
X101550001Y-165200000I-249999J0D01*
G01*
X100899999Y-165200000D01*
G75*
G02*
X100650000Y-164950001I0J249999D01*
G01*
X100650000Y-163649999D01*
G75*
G02*
X100899999Y-163400000I249999J0D01*
G01*
X101550001Y-163400000D01*
G75*
G02*
X101800000Y-163649999I0J-249999D01*
G01*
G37*
G36*
G01*
X98850000Y-163649999D02*
X98850000Y-164950001D01*
G75*
G02*
X98600001Y-165200000I-249999J0D01*
G01*
X97949999Y-165200000D01*
G75*
G02*
X97700000Y-164950001I0J249999D01*
G01*
X97700000Y-163649999D01*
G75*
G02*
X97949999Y-163400000I249999J0D01*
G01*
X98600001Y-163400000D01*
G75*
G02*
X98850000Y-163649999I0J-249999D01*
G01*
G37*
%TD*%
%TO.C,C1*%
G36*
G01*
X180000000Y-144099999D02*
X180000000Y-145400001D01*
G75*
G02*
X179750001Y-145650000I-249999J0D01*
G01*
X179099999Y-145650000D01*
G75*
G02*
X178850000Y-145400001I0J249999D01*
G01*
X178850000Y-144099999D01*
G75*
G02*
X179099999Y-143850000I249999J0D01*
G01*
X179750001Y-143850000D01*
G75*
G02*
X180000000Y-144099999I0J-249999D01*
G01*
G37*
G36*
G01*
X177050000Y-144099999D02*
X177050000Y-145400001D01*
G75*
G02*
X176800001Y-145650000I-249999J0D01*
G01*
X176149999Y-145650000D01*
G75*
G02*
X175900000Y-145400001I0J249999D01*
G01*
X175900000Y-144099999D01*
G75*
G02*
X176149999Y-143850000I249999J0D01*
G01*
X176800001Y-143850000D01*
G75*
G02*
X177050000Y-144099999I0J-249999D01*
G01*
G37*
%TD*%
%TO.C,C1*%
G36*
G01*
X160450000Y-144099999D02*
X160450000Y-145400001D01*
G75*
G02*
X160200001Y-145650000I-249999J0D01*
G01*
X159549999Y-145650000D01*
G75*
G02*
X159300000Y-145400001I0J249999D01*
G01*
X159300000Y-144099999D01*
G75*
G02*
X159549999Y-143850000I249999J0D01*
G01*
X160200001Y-143850000D01*
G75*
G02*
X160450000Y-144099999I0J-249999D01*
G01*
G37*
G36*
G01*
X157500000Y-144099999D02*
X157500000Y-145400001D01*
G75*
G02*
X157250001Y-145650000I-249999J0D01*
G01*
X156599999Y-145650000D01*
G75*
G02*
X156350000Y-145400001I0J249999D01*
G01*
X156350000Y-144099999D01*
G75*
G02*
X156599999Y-143850000I249999J0D01*
G01*
X157250001Y-143850000D01*
G75*
G02*
X157500000Y-144099999I0J-249999D01*
G01*
G37*
%TD*%
%TO.C,C1*%
G36*
G01*
X140900000Y-144099999D02*
X140900000Y-145400001D01*
G75*
G02*
X140650001Y-145650000I-249999J0D01*
G01*
X139999999Y-145650000D01*
G75*
G02*
X139750000Y-145400001I0J249999D01*
G01*
X139750000Y-144099999D01*
G75*
G02*
X139999999Y-143850000I249999J0D01*
G01*
X140650001Y-143850000D01*
G75*
G02*
X140900000Y-144099999I0J-249999D01*
G01*
G37*
G36*
G01*
X137950000Y-144099999D02*
X137950000Y-145400001D01*
G75*
G02*
X137700001Y-145650000I-249999J0D01*
G01*
X137049999Y-145650000D01*
G75*
G02*
X136800000Y-145400001I0J249999D01*
G01*
X136800000Y-144099999D01*
G75*
G02*
X137049999Y-143850000I249999J0D01*
G01*
X137700001Y-143850000D01*
G75*
G02*
X137950000Y-144099999I0J-249999D01*
G01*
G37*
%TD*%
%TO.C,C1*%
G36*
G01*
X121350000Y-144099999D02*
X121350000Y-145400001D01*
G75*
G02*
X121100001Y-145650000I-249999J0D01*
G01*
X120449999Y-145650000D01*
G75*
G02*
X120200000Y-145400001I0J249999D01*
G01*
X120200000Y-144099999D01*
G75*
G02*
X120449999Y-143850000I249999J0D01*
G01*
X121100001Y-143850000D01*
G75*
G02*
X121350000Y-144099999I0J-249999D01*
G01*
G37*
G36*
G01*
X118400000Y-144099999D02*
X118400000Y-145400001D01*
G75*
G02*
X118150001Y-145650000I-249999J0D01*
G01*
X117499999Y-145650000D01*
G75*
G02*
X117250000Y-145400001I0J249999D01*
G01*
X117250000Y-144099999D01*
G75*
G02*
X117499999Y-143850000I249999J0D01*
G01*
X118150001Y-143850000D01*
G75*
G02*
X118400000Y-144099999I0J-249999D01*
G01*
G37*
%TD*%
%TO.C,C1*%
G36*
G01*
X101800000Y-144099999D02*
X101800000Y-145400001D01*
G75*
G02*
X101550001Y-145650000I-249999J0D01*
G01*
X100899999Y-145650000D01*
G75*
G02*
X100650000Y-145400001I0J249999D01*
G01*
X100650000Y-144099999D01*
G75*
G02*
X100899999Y-143850000I249999J0D01*
G01*
X101550001Y-143850000D01*
G75*
G02*
X101800000Y-144099999I0J-249999D01*
G01*
G37*
G36*
G01*
X98850000Y-144099999D02*
X98850000Y-145400001D01*
G75*
G02*
X98600001Y-145650000I-249999J0D01*
G01*
X97949999Y-145650000D01*
G75*
G02*
X97700000Y-145400001I0J249999D01*
G01*
X97700000Y-144099999D01*
G75*
G02*
X97949999Y-143850000I249999J0D01*
G01*
X98600001Y-143850000D01*
G75*
G02*
X98850000Y-144099999I0J-249999D01*
G01*
G37*
%TD*%
%TO.C,C1*%
G36*
G01*
X180000000Y-124549999D02*
X180000000Y-125850001D01*
G75*
G02*
X179750001Y-126100000I-249999J0D01*
G01*
X179099999Y-126100000D01*
G75*
G02*
X178850000Y-125850001I0J249999D01*
G01*
X178850000Y-124549999D01*
G75*
G02*
X179099999Y-124300000I249999J0D01*
G01*
X179750001Y-124300000D01*
G75*
G02*
X180000000Y-124549999I0J-249999D01*
G01*
G37*
G36*
G01*
X177050000Y-124549999D02*
X177050000Y-125850001D01*
G75*
G02*
X176800001Y-126100000I-249999J0D01*
G01*
X176149999Y-126100000D01*
G75*
G02*
X175900000Y-125850001I0J249999D01*
G01*
X175900000Y-124549999D01*
G75*
G02*
X176149999Y-124300000I249999J0D01*
G01*
X176800001Y-124300000D01*
G75*
G02*
X177050000Y-124549999I0J-249999D01*
G01*
G37*
%TD*%
%TO.C,C1*%
G36*
G01*
X160450000Y-124549999D02*
X160450000Y-125850001D01*
G75*
G02*
X160200001Y-126100000I-249999J0D01*
G01*
X159549999Y-126100000D01*
G75*
G02*
X159300000Y-125850001I0J249999D01*
G01*
X159300000Y-124549999D01*
G75*
G02*
X159549999Y-124300000I249999J0D01*
G01*
X160200001Y-124300000D01*
G75*
G02*
X160450000Y-124549999I0J-249999D01*
G01*
G37*
G36*
G01*
X157500000Y-124549999D02*
X157500000Y-125850001D01*
G75*
G02*
X157250001Y-126100000I-249999J0D01*
G01*
X156599999Y-126100000D01*
G75*
G02*
X156350000Y-125850001I0J249999D01*
G01*
X156350000Y-124549999D01*
G75*
G02*
X156599999Y-124300000I249999J0D01*
G01*
X157250001Y-124300000D01*
G75*
G02*
X157500000Y-124549999I0J-249999D01*
G01*
G37*
%TD*%
%TO.C,C1*%
G36*
G01*
X140900000Y-124549999D02*
X140900000Y-125850001D01*
G75*
G02*
X140650001Y-126100000I-249999J0D01*
G01*
X139999999Y-126100000D01*
G75*
G02*
X139750000Y-125850001I0J249999D01*
G01*
X139750000Y-124549999D01*
G75*
G02*
X139999999Y-124300000I249999J0D01*
G01*
X140650001Y-124300000D01*
G75*
G02*
X140900000Y-124549999I0J-249999D01*
G01*
G37*
G36*
G01*
X137950000Y-124549999D02*
X137950000Y-125850001D01*
G75*
G02*
X137700001Y-126100000I-249999J0D01*
G01*
X137049999Y-126100000D01*
G75*
G02*
X136800000Y-125850001I0J249999D01*
G01*
X136800000Y-124549999D01*
G75*
G02*
X137049999Y-124300000I249999J0D01*
G01*
X137700001Y-124300000D01*
G75*
G02*
X137950000Y-124549999I0J-249999D01*
G01*
G37*
%TD*%
%TO.C,C1*%
G36*
G01*
X121350000Y-124549999D02*
X121350000Y-125850001D01*
G75*
G02*
X121100001Y-126100000I-249999J0D01*
G01*
X120449999Y-126100000D01*
G75*
G02*
X120200000Y-125850001I0J249999D01*
G01*
X120200000Y-124549999D01*
G75*
G02*
X120449999Y-124300000I249999J0D01*
G01*
X121100001Y-124300000D01*
G75*
G02*
X121350000Y-124549999I0J-249999D01*
G01*
G37*
G36*
G01*
X118400000Y-124549999D02*
X118400000Y-125850001D01*
G75*
G02*
X118150001Y-126100000I-249999J0D01*
G01*
X117499999Y-126100000D01*
G75*
G02*
X117250000Y-125850001I0J249999D01*
G01*
X117250000Y-124549999D01*
G75*
G02*
X117499999Y-124300000I249999J0D01*
G01*
X118150001Y-124300000D01*
G75*
G02*
X118400000Y-124549999I0J-249999D01*
G01*
G37*
%TD*%
%TO.C,C1*%
G36*
G01*
X101800000Y-124549999D02*
X101800000Y-125850001D01*
G75*
G02*
X101550001Y-126100000I-249999J0D01*
G01*
X100899999Y-126100000D01*
G75*
G02*
X100650000Y-125850001I0J249999D01*
G01*
X100650000Y-124549999D01*
G75*
G02*
X100899999Y-124300000I249999J0D01*
G01*
X101550001Y-124300000D01*
G75*
G02*
X101800000Y-124549999I0J-249999D01*
G01*
G37*
G36*
G01*
X98850000Y-124549999D02*
X98850000Y-125850001D01*
G75*
G02*
X98600001Y-126100000I-249999J0D01*
G01*
X97949999Y-126100000D01*
G75*
G02*
X97700000Y-125850001I0J249999D01*
G01*
X97700000Y-124549999D01*
G75*
G02*
X97949999Y-124300000I249999J0D01*
G01*
X98600001Y-124300000D01*
G75*
G02*
X98850000Y-124549999I0J-249999D01*
G01*
G37*
%TD*%
%TO.C,C1*%
G36*
G01*
X180000000Y-104999999D02*
X180000000Y-106300001D01*
G75*
G02*
X179750001Y-106550000I-249999J0D01*
G01*
X179099999Y-106550000D01*
G75*
G02*
X178850000Y-106300001I0J249999D01*
G01*
X178850000Y-104999999D01*
G75*
G02*
X179099999Y-104750000I249999J0D01*
G01*
X179750001Y-104750000D01*
G75*
G02*
X180000000Y-104999999I0J-249999D01*
G01*
G37*
G36*
G01*
X177050000Y-104999999D02*
X177050000Y-106300001D01*
G75*
G02*
X176800001Y-106550000I-249999J0D01*
G01*
X176149999Y-106550000D01*
G75*
G02*
X175900000Y-106300001I0J249999D01*
G01*
X175900000Y-104999999D01*
G75*
G02*
X176149999Y-104750000I249999J0D01*
G01*
X176800001Y-104750000D01*
G75*
G02*
X177050000Y-104999999I0J-249999D01*
G01*
G37*
%TD*%
%TO.C,C1*%
G36*
G01*
X160450000Y-104999999D02*
X160450000Y-106300001D01*
G75*
G02*
X160200001Y-106550000I-249999J0D01*
G01*
X159549999Y-106550000D01*
G75*
G02*
X159300000Y-106300001I0J249999D01*
G01*
X159300000Y-104999999D01*
G75*
G02*
X159549999Y-104750000I249999J0D01*
G01*
X160200001Y-104750000D01*
G75*
G02*
X160450000Y-104999999I0J-249999D01*
G01*
G37*
G36*
G01*
X157500000Y-104999999D02*
X157500000Y-106300001D01*
G75*
G02*
X157250001Y-106550000I-249999J0D01*
G01*
X156599999Y-106550000D01*
G75*
G02*
X156350000Y-106300001I0J249999D01*
G01*
X156350000Y-104999999D01*
G75*
G02*
X156599999Y-104750000I249999J0D01*
G01*
X157250001Y-104750000D01*
G75*
G02*
X157500000Y-104999999I0J-249999D01*
G01*
G37*
%TD*%
%TO.C,C1*%
G36*
G01*
X140900000Y-104999999D02*
X140900000Y-106300001D01*
G75*
G02*
X140650001Y-106550000I-249999J0D01*
G01*
X139999999Y-106550000D01*
G75*
G02*
X139750000Y-106300001I0J249999D01*
G01*
X139750000Y-104999999D01*
G75*
G02*
X139999999Y-104750000I249999J0D01*
G01*
X140650001Y-104750000D01*
G75*
G02*
X140900000Y-104999999I0J-249999D01*
G01*
G37*
G36*
G01*
X137950000Y-104999999D02*
X137950000Y-106300001D01*
G75*
G02*
X137700001Y-106550000I-249999J0D01*
G01*
X137049999Y-106550000D01*
G75*
G02*
X136800000Y-106300001I0J249999D01*
G01*
X136800000Y-104999999D01*
G75*
G02*
X137049999Y-104750000I249999J0D01*
G01*
X137700001Y-104750000D01*
G75*
G02*
X137950000Y-104999999I0J-249999D01*
G01*
G37*
%TD*%
%TO.C,C1*%
G36*
G01*
X121350000Y-104999999D02*
X121350000Y-106300001D01*
G75*
G02*
X121100001Y-106550000I-249999J0D01*
G01*
X120449999Y-106550000D01*
G75*
G02*
X120200000Y-106300001I0J249999D01*
G01*
X120200000Y-104999999D01*
G75*
G02*
X120449999Y-104750000I249999J0D01*
G01*
X121100001Y-104750000D01*
G75*
G02*
X121350000Y-104999999I0J-249999D01*
G01*
G37*
G36*
G01*
X118400000Y-104999999D02*
X118400000Y-106300001D01*
G75*
G02*
X118150001Y-106550000I-249999J0D01*
G01*
X117499999Y-106550000D01*
G75*
G02*
X117250000Y-106300001I0J249999D01*
G01*
X117250000Y-104999999D01*
G75*
G02*
X117499999Y-104750000I249999J0D01*
G01*
X118150001Y-104750000D01*
G75*
G02*
X118400000Y-104999999I0J-249999D01*
G01*
G37*
%TD*%
%TO.C,C1*%
G36*
G01*
X101800000Y-104999999D02*
X101800000Y-106300001D01*
G75*
G02*
X101550001Y-106550000I-249999J0D01*
G01*
X100899999Y-106550000D01*
G75*
G02*
X100650000Y-106300001I0J249999D01*
G01*
X100650000Y-104999999D01*
G75*
G02*
X100899999Y-104750000I249999J0D01*
G01*
X101550001Y-104750000D01*
G75*
G02*
X101800000Y-104999999I0J-249999D01*
G01*
G37*
G36*
G01*
X98850000Y-104999999D02*
X98850000Y-106300001D01*
G75*
G02*
X98600001Y-106550000I-249999J0D01*
G01*
X97949999Y-106550000D01*
G75*
G02*
X97700000Y-106300001I0J249999D01*
G01*
X97700000Y-104999999D01*
G75*
G02*
X97949999Y-104750000I249999J0D01*
G01*
X98600001Y-104750000D01*
G75*
G02*
X98850000Y-104999999I0J-249999D01*
G01*
G37*
%TD*%
%TO.C,C1*%
G36*
G01*
X180000000Y-85449999D02*
X180000000Y-86750001D01*
G75*
G02*
X179750001Y-87000000I-249999J0D01*
G01*
X179099999Y-87000000D01*
G75*
G02*
X178850000Y-86750001I0J249999D01*
G01*
X178850000Y-85449999D01*
G75*
G02*
X179099999Y-85200000I249999J0D01*
G01*
X179750001Y-85200000D01*
G75*
G02*
X180000000Y-85449999I0J-249999D01*
G01*
G37*
G36*
G01*
X177050000Y-85449999D02*
X177050000Y-86750001D01*
G75*
G02*
X176800001Y-87000000I-249999J0D01*
G01*
X176149999Y-87000000D01*
G75*
G02*
X175900000Y-86750001I0J249999D01*
G01*
X175900000Y-85449999D01*
G75*
G02*
X176149999Y-85200000I249999J0D01*
G01*
X176800001Y-85200000D01*
G75*
G02*
X177050000Y-85449999I0J-249999D01*
G01*
G37*
%TD*%
%TO.C,C1*%
G36*
G01*
X160450000Y-85449999D02*
X160450000Y-86750001D01*
G75*
G02*
X160200001Y-87000000I-249999J0D01*
G01*
X159549999Y-87000000D01*
G75*
G02*
X159300000Y-86750001I0J249999D01*
G01*
X159300000Y-85449999D01*
G75*
G02*
X159549999Y-85200000I249999J0D01*
G01*
X160200001Y-85200000D01*
G75*
G02*
X160450000Y-85449999I0J-249999D01*
G01*
G37*
G36*
G01*
X157500000Y-85449999D02*
X157500000Y-86750001D01*
G75*
G02*
X157250001Y-87000000I-249999J0D01*
G01*
X156599999Y-87000000D01*
G75*
G02*
X156350000Y-86750001I0J249999D01*
G01*
X156350000Y-85449999D01*
G75*
G02*
X156599999Y-85200000I249999J0D01*
G01*
X157250001Y-85200000D01*
G75*
G02*
X157500000Y-85449999I0J-249999D01*
G01*
G37*
%TD*%
%TO.C,C1*%
G36*
G01*
X140900000Y-85449999D02*
X140900000Y-86750001D01*
G75*
G02*
X140650001Y-87000000I-249999J0D01*
G01*
X139999999Y-87000000D01*
G75*
G02*
X139750000Y-86750001I0J249999D01*
G01*
X139750000Y-85449999D01*
G75*
G02*
X139999999Y-85200000I249999J0D01*
G01*
X140650001Y-85200000D01*
G75*
G02*
X140900000Y-85449999I0J-249999D01*
G01*
G37*
G36*
G01*
X137950000Y-85449999D02*
X137950000Y-86750001D01*
G75*
G02*
X137700001Y-87000000I-249999J0D01*
G01*
X137049999Y-87000000D01*
G75*
G02*
X136800000Y-86750001I0J249999D01*
G01*
X136800000Y-85449999D01*
G75*
G02*
X137049999Y-85200000I249999J0D01*
G01*
X137700001Y-85200000D01*
G75*
G02*
X137950000Y-85449999I0J-249999D01*
G01*
G37*
%TD*%
%TO.C,C1*%
G36*
G01*
X121350000Y-85449999D02*
X121350000Y-86750001D01*
G75*
G02*
X121100001Y-87000000I-249999J0D01*
G01*
X120449999Y-87000000D01*
G75*
G02*
X120200000Y-86750001I0J249999D01*
G01*
X120200000Y-85449999D01*
G75*
G02*
X120449999Y-85200000I249999J0D01*
G01*
X121100001Y-85200000D01*
G75*
G02*
X121350000Y-85449999I0J-249999D01*
G01*
G37*
G36*
G01*
X118400000Y-85449999D02*
X118400000Y-86750001D01*
G75*
G02*
X118150001Y-87000000I-249999J0D01*
G01*
X117499999Y-87000000D01*
G75*
G02*
X117250000Y-86750001I0J249999D01*
G01*
X117250000Y-85449999D01*
G75*
G02*
X117499999Y-85200000I249999J0D01*
G01*
X118150001Y-85200000D01*
G75*
G02*
X118400000Y-85449999I0J-249999D01*
G01*
G37*
%TD*%
D10*
%TO.C,L1*%
X102500000Y-82300000D03*
X102500000Y-83700000D03*
X97000000Y-82300000D03*
X97000000Y-83700000D03*
%TD*%
D11*
%TO.C,SW1*%
X92665000Y-75210000D03*
X105592000Y-72670000D03*
%TD*%
%TO.C,C1*%
G36*
G01*
X98850000Y-85449999D02*
X98850000Y-86750001D01*
G75*
G02*
X98600001Y-87000000I-249999J0D01*
G01*
X97949999Y-87000000D01*
G75*
G02*
X97700000Y-86750001I0J249999D01*
G01*
X97700000Y-85449999D01*
G75*
G02*
X97949999Y-85200000I249999J0D01*
G01*
X98600001Y-85200000D01*
G75*
G02*
X98850000Y-85449999I0J-249999D01*
G01*
G37*
G36*
G01*
X101800000Y-85449999D02*
X101800000Y-86750001D01*
G75*
G02*
X101550001Y-87000000I-249999J0D01*
G01*
X100899999Y-87000000D01*
G75*
G02*
X100650000Y-86750001I0J249999D01*
G01*
X100650000Y-85449999D01*
G75*
G02*
X100899999Y-85200000I249999J0D01*
G01*
X101550001Y-85200000D01*
G75*
G02*
X101800000Y-85449999I0J-249999D01*
G01*
G37*
%TD*%
%TO.C,D1*%
G36*
G01*
X97750000Y-70125000D02*
X97750000Y-68875000D01*
G75*
G02*
X98000000Y-68625000I250000J0D01*
G01*
X98750000Y-68625000D01*
G75*
G02*
X99000000Y-68875000I0J-250000D01*
G01*
X99000000Y-70125000D01*
G75*
G02*
X98750000Y-70375000I-250000J0D01*
G01*
X98000000Y-70375000D01*
G75*
G02*
X97750000Y-70125000I0J250000D01*
G01*
G37*
G36*
G01*
X100550000Y-70125000D02*
X100550000Y-68875000D01*
G75*
G02*
X100800000Y-68625000I250000J0D01*
G01*
X101550000Y-68625000D01*
G75*
G02*
X101800000Y-68875000I0J-250000D01*
G01*
X101800000Y-70125000D01*
G75*
G02*
X101550000Y-70375000I-250000J0D01*
G01*
X100800000Y-70375000D01*
G75*
G02*
X100550000Y-70125000I0J250000D01*
G01*
G37*
%TD*%
M02*
