%TF.GenerationSoftware,KiCad,Pcbnew,(5.1.9)-1*%
%TF.CreationDate,2021-03-09T21:07:52+01:00*%
%TF.ProjectId,cell,63656c6c-2e6b-4696-9361-645f70636258,rev?*%
%TF.SameCoordinates,Original*%
%TF.FileFunction,Soldermask,Top*%
%TF.FilePolarity,Negative*%
%FSLAX46Y46*%
G04 Gerber Fmt 4.6, Leading zero omitted, Abs format (unit mm)*
G04 Created by KiCad (PCBNEW (5.1.9)-1) date 2021-03-09 21:07:52*
%MOMM*%
%LPD*%
G01*
G04 APERTURE LIST*
%ADD10C,0.300000*%
%ADD11C,1.998980*%
%ADD12C,3.000000*%
%ADD13C,1.900000*%
%ADD14C,4.100000*%
G04 APERTURE END LIST*
D10*
%TO.C,REF\u002A\u002A*%
X176762500Y-146175000D03*
X175575000Y-146175000D03*
X177356250Y-146175000D03*
X176168750Y-146175000D03*
X180325000Y-146175000D03*
X179731250Y-146175000D03*
X179137500Y-146175000D03*
X178543750Y-146175000D03*
X177950000Y-146175000D03*
%TD*%
%TO.C,REF\u002A\u002A*%
X157212500Y-146175000D03*
X156025000Y-146175000D03*
X157806250Y-146175000D03*
X156618750Y-146175000D03*
X160775000Y-146175000D03*
X160181250Y-146175000D03*
X159587500Y-146175000D03*
X158993750Y-146175000D03*
X158400000Y-146175000D03*
%TD*%
%TO.C,REF\u002A\u002A*%
X137662500Y-146175000D03*
X136475000Y-146175000D03*
X138256250Y-146175000D03*
X137068750Y-146175000D03*
X141225000Y-146175000D03*
X140631250Y-146175000D03*
X140037500Y-146175000D03*
X139443750Y-146175000D03*
X138850000Y-146175000D03*
%TD*%
%TO.C,REF\u002A\u002A*%
X118112500Y-146175000D03*
X116925000Y-146175000D03*
X118706250Y-146175000D03*
X117518750Y-146175000D03*
X121675000Y-146175000D03*
X121081250Y-146175000D03*
X120487500Y-146175000D03*
X119893750Y-146175000D03*
X119300000Y-146175000D03*
%TD*%
%TO.C,REF\u002A\u002A*%
X98562500Y-146175000D03*
X97375000Y-146175000D03*
X99156250Y-146175000D03*
X97968750Y-146175000D03*
X102125000Y-146175000D03*
X101531250Y-146175000D03*
X100937500Y-146175000D03*
X100343750Y-146175000D03*
X99750000Y-146175000D03*
%TD*%
%TO.C,REF\u002A\u002A*%
X176762500Y-126625000D03*
X175575000Y-126625000D03*
X177356250Y-126625000D03*
X176168750Y-126625000D03*
X180325000Y-126625000D03*
X179731250Y-126625000D03*
X179137500Y-126625000D03*
X178543750Y-126625000D03*
X177950000Y-126625000D03*
%TD*%
%TO.C,REF\u002A\u002A*%
X157212500Y-126625000D03*
X156025000Y-126625000D03*
X157806250Y-126625000D03*
X156618750Y-126625000D03*
X160775000Y-126625000D03*
X160181250Y-126625000D03*
X159587500Y-126625000D03*
X158993750Y-126625000D03*
X158400000Y-126625000D03*
%TD*%
%TO.C,REF\u002A\u002A*%
X137662500Y-126625000D03*
X136475000Y-126625000D03*
X138256250Y-126625000D03*
X137068750Y-126625000D03*
X141225000Y-126625000D03*
X140631250Y-126625000D03*
X140037500Y-126625000D03*
X139443750Y-126625000D03*
X138850000Y-126625000D03*
%TD*%
%TO.C,REF\u002A\u002A*%
X118112500Y-126625000D03*
X116925000Y-126625000D03*
X118706250Y-126625000D03*
X117518750Y-126625000D03*
X121675000Y-126625000D03*
X121081250Y-126625000D03*
X120487500Y-126625000D03*
X119893750Y-126625000D03*
X119300000Y-126625000D03*
%TD*%
%TO.C,REF\u002A\u002A*%
X98562500Y-126625000D03*
X97375000Y-126625000D03*
X99156250Y-126625000D03*
X97968750Y-126625000D03*
X102125000Y-126625000D03*
X101531250Y-126625000D03*
X100937500Y-126625000D03*
X100343750Y-126625000D03*
X99750000Y-126625000D03*
%TD*%
%TO.C,REF\u002A\u002A*%
X176762500Y-107075000D03*
X175575000Y-107075000D03*
X177356250Y-107075000D03*
X176168750Y-107075000D03*
X180325000Y-107075000D03*
X179731250Y-107075000D03*
X179137500Y-107075000D03*
X178543750Y-107075000D03*
X177950000Y-107075000D03*
%TD*%
%TO.C,REF\u002A\u002A*%
X157212500Y-107075000D03*
X156025000Y-107075000D03*
X157806250Y-107075000D03*
X156618750Y-107075000D03*
X160775000Y-107075000D03*
X160181250Y-107075000D03*
X159587500Y-107075000D03*
X158993750Y-107075000D03*
X158400000Y-107075000D03*
%TD*%
%TO.C,REF\u002A\u002A*%
X137662500Y-107075000D03*
X136475000Y-107075000D03*
X138256250Y-107075000D03*
X137068750Y-107075000D03*
X141225000Y-107075000D03*
X140631250Y-107075000D03*
X140037500Y-107075000D03*
X139443750Y-107075000D03*
X138850000Y-107075000D03*
%TD*%
%TO.C,REF\u002A\u002A*%
X118112500Y-107075000D03*
X116925000Y-107075000D03*
X118706250Y-107075000D03*
X117518750Y-107075000D03*
X121675000Y-107075000D03*
X121081250Y-107075000D03*
X120487500Y-107075000D03*
X119893750Y-107075000D03*
X119300000Y-107075000D03*
%TD*%
%TO.C,REF\u002A\u002A*%
X98562500Y-107075000D03*
X97375000Y-107075000D03*
X99156250Y-107075000D03*
X97968750Y-107075000D03*
X102125000Y-107075000D03*
X101531250Y-107075000D03*
X100937500Y-107075000D03*
X100343750Y-107075000D03*
X99750000Y-107075000D03*
%TD*%
%TO.C,REF\u002A\u002A*%
X176762500Y-87525000D03*
X175575000Y-87525000D03*
X177356250Y-87525000D03*
X176168750Y-87525000D03*
X180325000Y-87525000D03*
X179731250Y-87525000D03*
X179137500Y-87525000D03*
X178543750Y-87525000D03*
X177950000Y-87525000D03*
%TD*%
%TO.C,REF\u002A\u002A*%
X157212500Y-87525000D03*
X156025000Y-87525000D03*
X157806250Y-87525000D03*
X156618750Y-87525000D03*
X160775000Y-87525000D03*
X160181250Y-87525000D03*
X159587500Y-87525000D03*
X158993750Y-87525000D03*
X158400000Y-87525000D03*
%TD*%
%TO.C,REF\u002A\u002A*%
X137662500Y-87525000D03*
X136475000Y-87525000D03*
X138256250Y-87525000D03*
X137068750Y-87525000D03*
X141225000Y-87525000D03*
X140631250Y-87525000D03*
X140037500Y-87525000D03*
X139443750Y-87525000D03*
X138850000Y-87525000D03*
%TD*%
%TO.C,REF\u002A\u002A*%
X118112500Y-87525000D03*
X116925000Y-87525000D03*
X118706250Y-87525000D03*
X117518750Y-87525000D03*
X121675000Y-87525000D03*
X121081250Y-87525000D03*
X120487500Y-87525000D03*
X119893750Y-87525000D03*
X119300000Y-87525000D03*
%TD*%
%TO.C,REF\u002A\u002A*%
X168175000Y-157137500D03*
X168175000Y-158325000D03*
X168175000Y-156543750D03*
X168175000Y-157731250D03*
X168175000Y-153575000D03*
X168175000Y-154168750D03*
X168175000Y-154762500D03*
X168175000Y-155356250D03*
X168175000Y-155950000D03*
%TD*%
%TO.C,REF\u002A\u002A*%
X148625000Y-157137500D03*
X148625000Y-158325000D03*
X148625000Y-156543750D03*
X148625000Y-157731250D03*
X148625000Y-153575000D03*
X148625000Y-154168750D03*
X148625000Y-154762500D03*
X148625000Y-155356250D03*
X148625000Y-155950000D03*
%TD*%
%TO.C,REF\u002A\u002A*%
X129075000Y-157137500D03*
X129075000Y-158325000D03*
X129075000Y-156543750D03*
X129075000Y-157731250D03*
X129075000Y-153575000D03*
X129075000Y-154168750D03*
X129075000Y-154762500D03*
X129075000Y-155356250D03*
X129075000Y-155950000D03*
%TD*%
%TO.C,REF\u002A\u002A*%
X109525000Y-157137500D03*
X109525000Y-158325000D03*
X109525000Y-156543750D03*
X109525000Y-157731250D03*
X109525000Y-153575000D03*
X109525000Y-154168750D03*
X109525000Y-154762500D03*
X109525000Y-155356250D03*
X109525000Y-155950000D03*
%TD*%
%TO.C,REF\u002A\u002A*%
X168175000Y-137587500D03*
X168175000Y-138775000D03*
X168175000Y-136993750D03*
X168175000Y-138181250D03*
X168175000Y-134025000D03*
X168175000Y-134618750D03*
X168175000Y-135212500D03*
X168175000Y-135806250D03*
X168175000Y-136400000D03*
%TD*%
%TO.C,REF\u002A\u002A*%
X148625000Y-137587500D03*
X148625000Y-138775000D03*
X148625000Y-136993750D03*
X148625000Y-138181250D03*
X148625000Y-134025000D03*
X148625000Y-134618750D03*
X148625000Y-135212500D03*
X148625000Y-135806250D03*
X148625000Y-136400000D03*
%TD*%
%TO.C,REF\u002A\u002A*%
X129075000Y-137587500D03*
X129075000Y-138775000D03*
X129075000Y-136993750D03*
X129075000Y-138181250D03*
X129075000Y-134025000D03*
X129075000Y-134618750D03*
X129075000Y-135212500D03*
X129075000Y-135806250D03*
X129075000Y-136400000D03*
%TD*%
%TO.C,REF\u002A\u002A*%
X109525000Y-137587500D03*
X109525000Y-138775000D03*
X109525000Y-136993750D03*
X109525000Y-138181250D03*
X109525000Y-134025000D03*
X109525000Y-134618750D03*
X109525000Y-135212500D03*
X109525000Y-135806250D03*
X109525000Y-136400000D03*
%TD*%
%TO.C,REF\u002A\u002A*%
X168175000Y-118037500D03*
X168175000Y-119225000D03*
X168175000Y-117443750D03*
X168175000Y-118631250D03*
X168175000Y-114475000D03*
X168175000Y-115068750D03*
X168175000Y-115662500D03*
X168175000Y-116256250D03*
X168175000Y-116850000D03*
%TD*%
%TO.C,REF\u002A\u002A*%
X148625000Y-118037500D03*
X148625000Y-119225000D03*
X148625000Y-117443750D03*
X148625000Y-118631250D03*
X148625000Y-114475000D03*
X148625000Y-115068750D03*
X148625000Y-115662500D03*
X148625000Y-116256250D03*
X148625000Y-116850000D03*
%TD*%
%TO.C,REF\u002A\u002A*%
X129075000Y-118037500D03*
X129075000Y-119225000D03*
X129075000Y-117443750D03*
X129075000Y-118631250D03*
X129075000Y-114475000D03*
X129075000Y-115068750D03*
X129075000Y-115662500D03*
X129075000Y-116256250D03*
X129075000Y-116850000D03*
%TD*%
%TO.C,REF\u002A\u002A*%
X109525000Y-118037500D03*
X109525000Y-119225000D03*
X109525000Y-117443750D03*
X109525000Y-118631250D03*
X109525000Y-114475000D03*
X109525000Y-115068750D03*
X109525000Y-115662500D03*
X109525000Y-116256250D03*
X109525000Y-116850000D03*
%TD*%
%TO.C,REF\u002A\u002A*%
X168175000Y-98487500D03*
X168175000Y-99675000D03*
X168175000Y-97893750D03*
X168175000Y-99081250D03*
X168175000Y-94925000D03*
X168175000Y-95518750D03*
X168175000Y-96112500D03*
X168175000Y-96706250D03*
X168175000Y-97300000D03*
%TD*%
%TO.C,REF\u002A\u002A*%
X148625000Y-98487500D03*
X148625000Y-99675000D03*
X148625000Y-97893750D03*
X148625000Y-99081250D03*
X148625000Y-94925000D03*
X148625000Y-95518750D03*
X148625000Y-96112500D03*
X148625000Y-96706250D03*
X148625000Y-97300000D03*
%TD*%
%TO.C,REF\u002A\u002A*%
X129075000Y-98487500D03*
X129075000Y-99675000D03*
X129075000Y-97893750D03*
X129075000Y-99081250D03*
X129075000Y-94925000D03*
X129075000Y-95518750D03*
X129075000Y-96112500D03*
X129075000Y-96706250D03*
X129075000Y-97300000D03*
%TD*%
%TO.C,REF\u002A\u002A*%
X109525000Y-98487500D03*
X109525000Y-99675000D03*
X109525000Y-97893750D03*
X109525000Y-99081250D03*
X109525000Y-94925000D03*
X109525000Y-95518750D03*
X109525000Y-96112500D03*
X109525000Y-96706250D03*
X109525000Y-97300000D03*
%TD*%
%TO.C,REF\u002A\u002A*%
X168175000Y-78937500D03*
X168175000Y-80125000D03*
X168175000Y-78343750D03*
X168175000Y-79531250D03*
X168175000Y-75375000D03*
X168175000Y-75968750D03*
X168175000Y-76562500D03*
X168175000Y-77156250D03*
X168175000Y-77750000D03*
%TD*%
%TO.C,REF\u002A\u002A*%
X148625000Y-78937500D03*
X148625000Y-80125000D03*
X148625000Y-78343750D03*
X148625000Y-79531250D03*
X148625000Y-75375000D03*
X148625000Y-75968750D03*
X148625000Y-76562500D03*
X148625000Y-77156250D03*
X148625000Y-77750000D03*
%TD*%
%TO.C,REF\u002A\u002A*%
X129075000Y-78937500D03*
X129075000Y-80125000D03*
X129075000Y-78343750D03*
X129075000Y-79531250D03*
X129075000Y-75375000D03*
X129075000Y-75968750D03*
X129075000Y-76562500D03*
X129075000Y-77156250D03*
X129075000Y-77750000D03*
%TD*%
D11*
%TO.C,J10*%
X172700000Y-147700000D03*
%TD*%
%TO.C,J10*%
X153150000Y-147700000D03*
%TD*%
%TO.C,J10*%
X133600000Y-147700000D03*
%TD*%
%TO.C,J10*%
X114050000Y-147700000D03*
%TD*%
%TO.C,J10*%
X94500000Y-147700000D03*
%TD*%
%TO.C,J10*%
X172700000Y-128150000D03*
%TD*%
%TO.C,J10*%
X153150000Y-128150000D03*
%TD*%
%TO.C,J10*%
X133600000Y-128150000D03*
%TD*%
%TO.C,J10*%
X114050000Y-128150000D03*
%TD*%
%TO.C,J10*%
X94500000Y-128150000D03*
%TD*%
%TO.C,J10*%
X172700000Y-108600000D03*
%TD*%
%TO.C,J10*%
X153150000Y-108600000D03*
%TD*%
%TO.C,J10*%
X133600000Y-108600000D03*
%TD*%
%TO.C,J10*%
X114050000Y-108600000D03*
%TD*%
%TO.C,J10*%
X94500000Y-108600000D03*
%TD*%
%TO.C,J10*%
X172700000Y-89050000D03*
%TD*%
%TO.C,J10*%
X153150000Y-89050000D03*
%TD*%
%TO.C,J10*%
X133600000Y-89050000D03*
%TD*%
%TO.C,J10*%
X114050000Y-89050000D03*
%TD*%
%TO.C,J10*%
X94500000Y-89050000D03*
%TD*%
%TO.C,J10*%
X172700000Y-69500000D03*
%TD*%
%TO.C,J10*%
X153150000Y-69500000D03*
%TD*%
%TO.C,J10*%
X133600000Y-69500000D03*
%TD*%
%TO.C,J10*%
X114050000Y-69500000D03*
%TD*%
%TO.C,J9*%
X186200000Y-156686000D03*
%TD*%
%TO.C,J9*%
X166650000Y-156686000D03*
%TD*%
%TO.C,J9*%
X147100000Y-156686000D03*
%TD*%
%TO.C,J9*%
X127550000Y-156686000D03*
%TD*%
%TO.C,J9*%
X108000000Y-156686000D03*
%TD*%
%TO.C,J9*%
X186200000Y-137136000D03*
%TD*%
%TO.C,J9*%
X166650000Y-137136000D03*
%TD*%
%TO.C,J9*%
X147100000Y-137136000D03*
%TD*%
%TO.C,J9*%
X127550000Y-137136000D03*
%TD*%
%TO.C,J9*%
X108000000Y-137136000D03*
%TD*%
%TO.C,J9*%
X186200000Y-117586000D03*
%TD*%
%TO.C,J9*%
X166650000Y-117586000D03*
%TD*%
%TO.C,J9*%
X147100000Y-117586000D03*
%TD*%
%TO.C,J9*%
X127550000Y-117586000D03*
%TD*%
%TO.C,J9*%
X108000000Y-117586000D03*
%TD*%
%TO.C,J9*%
X186200000Y-98036000D03*
%TD*%
%TO.C,J9*%
X166650000Y-98036000D03*
%TD*%
%TO.C,J9*%
X147100000Y-98036000D03*
%TD*%
%TO.C,J9*%
X127550000Y-98036000D03*
%TD*%
%TO.C,J9*%
X108000000Y-98036000D03*
%TD*%
%TO.C,J9*%
X186200000Y-78486000D03*
%TD*%
%TO.C,J9*%
X166650000Y-78486000D03*
%TD*%
%TO.C,J9*%
X147100000Y-78486000D03*
%TD*%
%TO.C,J9*%
X127550000Y-78486000D03*
%TD*%
%TO.C,J5*%
X183200000Y-164200000D03*
%TD*%
%TO.C,J5*%
X163650000Y-164200000D03*
%TD*%
%TO.C,J5*%
X144100000Y-164200000D03*
%TD*%
%TO.C,J5*%
X124550000Y-164200000D03*
%TD*%
%TO.C,J5*%
X105000000Y-164200000D03*
%TD*%
%TO.C,J5*%
X183200000Y-144650000D03*
%TD*%
%TO.C,J5*%
X163650000Y-144650000D03*
%TD*%
%TO.C,J5*%
X144100000Y-144650000D03*
%TD*%
%TO.C,J5*%
X124550000Y-144650000D03*
%TD*%
%TO.C,J5*%
X105000000Y-144650000D03*
%TD*%
%TO.C,J5*%
X183200000Y-125100000D03*
%TD*%
%TO.C,J5*%
X163650000Y-125100000D03*
%TD*%
%TO.C,J5*%
X144100000Y-125100000D03*
%TD*%
%TO.C,J5*%
X124550000Y-125100000D03*
%TD*%
%TO.C,J5*%
X105000000Y-125100000D03*
%TD*%
%TO.C,J5*%
X183200000Y-105550000D03*
%TD*%
%TO.C,J5*%
X163650000Y-105550000D03*
%TD*%
%TO.C,J5*%
X144100000Y-105550000D03*
%TD*%
%TO.C,J5*%
X124550000Y-105550000D03*
%TD*%
%TO.C,J5*%
X105000000Y-105550000D03*
%TD*%
%TO.C,J5*%
X183200000Y-86000000D03*
%TD*%
%TO.C,J5*%
X163650000Y-86000000D03*
%TD*%
%TO.C,J5*%
X144100000Y-86000000D03*
%TD*%
%TO.C,J5*%
X124550000Y-86000000D03*
%TD*%
%TO.C,J4*%
X172700000Y-164200000D03*
%TD*%
%TO.C,J4*%
X153150000Y-164200000D03*
%TD*%
%TO.C,J4*%
X133600000Y-164200000D03*
%TD*%
%TO.C,J4*%
X114050000Y-164200000D03*
%TD*%
%TO.C,J4*%
X94500000Y-164200000D03*
%TD*%
%TO.C,J4*%
X172700000Y-144650000D03*
%TD*%
%TO.C,J4*%
X153150000Y-144650000D03*
%TD*%
%TO.C,J4*%
X133600000Y-144650000D03*
%TD*%
%TO.C,J4*%
X114050000Y-144650000D03*
%TD*%
%TO.C,J4*%
X94500000Y-144650000D03*
%TD*%
%TO.C,J4*%
X172700000Y-125100000D03*
%TD*%
%TO.C,J4*%
X153150000Y-125100000D03*
%TD*%
%TO.C,J4*%
X133600000Y-125100000D03*
%TD*%
%TO.C,J4*%
X114050000Y-125100000D03*
%TD*%
%TO.C,J4*%
X94500000Y-125100000D03*
%TD*%
%TO.C,J4*%
X172700000Y-105550000D03*
%TD*%
%TO.C,J4*%
X153150000Y-105550000D03*
%TD*%
%TO.C,J4*%
X133600000Y-105550000D03*
%TD*%
%TO.C,J4*%
X114050000Y-105550000D03*
%TD*%
%TO.C,J4*%
X94500000Y-105550000D03*
%TD*%
%TO.C,J4*%
X172700000Y-86000000D03*
%TD*%
%TO.C,J4*%
X153150000Y-86000000D03*
%TD*%
%TO.C,J4*%
X133600000Y-86000000D03*
%TD*%
%TO.C,J4*%
X114050000Y-86000000D03*
%TD*%
%TO.C,J3*%
X169700000Y-156700000D03*
%TD*%
%TO.C,J3*%
X150150000Y-156700000D03*
%TD*%
%TO.C,J3*%
X130600000Y-156700000D03*
%TD*%
%TO.C,J3*%
X111050000Y-156700000D03*
%TD*%
%TO.C,J3*%
X91500000Y-156700000D03*
%TD*%
%TO.C,J3*%
X169700000Y-137150000D03*
%TD*%
%TO.C,J3*%
X150150000Y-137150000D03*
%TD*%
%TO.C,J3*%
X130600000Y-137150000D03*
%TD*%
%TO.C,J3*%
X111050000Y-137150000D03*
%TD*%
%TO.C,J3*%
X91500000Y-137150000D03*
%TD*%
%TO.C,J3*%
X169700000Y-117600000D03*
%TD*%
%TO.C,J3*%
X150150000Y-117600000D03*
%TD*%
%TO.C,J3*%
X130600000Y-117600000D03*
%TD*%
%TO.C,J3*%
X111050000Y-117600000D03*
%TD*%
%TO.C,J3*%
X91500000Y-117600000D03*
%TD*%
%TO.C,J3*%
X169700000Y-98050000D03*
%TD*%
%TO.C,J3*%
X150150000Y-98050000D03*
%TD*%
%TO.C,J3*%
X130600000Y-98050000D03*
%TD*%
%TO.C,J3*%
X111050000Y-98050000D03*
%TD*%
%TO.C,J3*%
X91500000Y-98050000D03*
%TD*%
%TO.C,J3*%
X169700000Y-78500000D03*
%TD*%
%TO.C,J3*%
X150150000Y-78500000D03*
%TD*%
%TO.C,J3*%
X130600000Y-78500000D03*
%TD*%
%TO.C,J3*%
X111050000Y-78500000D03*
%TD*%
%TO.C,J6*%
X186200000Y-159700000D03*
%TD*%
%TO.C,J6*%
X166650000Y-159700000D03*
%TD*%
%TO.C,J6*%
X147100000Y-159700000D03*
%TD*%
%TO.C,J6*%
X127550000Y-159700000D03*
%TD*%
%TO.C,J6*%
X108000000Y-159700000D03*
%TD*%
%TO.C,J6*%
X186200000Y-140150000D03*
%TD*%
%TO.C,J6*%
X166650000Y-140150000D03*
%TD*%
%TO.C,J6*%
X147100000Y-140150000D03*
%TD*%
%TO.C,J6*%
X127550000Y-140150000D03*
%TD*%
%TO.C,J6*%
X108000000Y-140150000D03*
%TD*%
%TO.C,J6*%
X186200000Y-120600000D03*
%TD*%
%TO.C,J6*%
X166650000Y-120600000D03*
%TD*%
%TO.C,J6*%
X147100000Y-120600000D03*
%TD*%
%TO.C,J6*%
X127550000Y-120600000D03*
%TD*%
%TO.C,J6*%
X108000000Y-120600000D03*
%TD*%
%TO.C,J6*%
X186200000Y-101050000D03*
%TD*%
%TO.C,J6*%
X166650000Y-101050000D03*
%TD*%
%TO.C,J6*%
X147100000Y-101050000D03*
%TD*%
%TO.C,J6*%
X127550000Y-101050000D03*
%TD*%
%TO.C,J6*%
X108000000Y-101050000D03*
%TD*%
%TO.C,J6*%
X186200000Y-81500000D03*
%TD*%
%TO.C,J6*%
X166650000Y-81500000D03*
%TD*%
%TO.C,J6*%
X147100000Y-81500000D03*
%TD*%
%TO.C,J6*%
X127550000Y-81500000D03*
%TD*%
%TO.C,J2*%
X169700000Y-147700000D03*
%TD*%
%TO.C,J2*%
X150150000Y-147700000D03*
%TD*%
%TO.C,J2*%
X130600000Y-147700000D03*
%TD*%
%TO.C,J2*%
X111050000Y-147700000D03*
%TD*%
%TO.C,J2*%
X91500000Y-147700000D03*
%TD*%
%TO.C,J2*%
X169700000Y-128150000D03*
%TD*%
%TO.C,J2*%
X150150000Y-128150000D03*
%TD*%
%TO.C,J2*%
X130600000Y-128150000D03*
%TD*%
%TO.C,J2*%
X111050000Y-128150000D03*
%TD*%
%TO.C,J2*%
X91500000Y-128150000D03*
%TD*%
%TO.C,J2*%
X169700000Y-108600000D03*
%TD*%
%TO.C,J2*%
X150150000Y-108600000D03*
%TD*%
%TO.C,J2*%
X130600000Y-108600000D03*
%TD*%
%TO.C,J2*%
X111050000Y-108600000D03*
%TD*%
%TO.C,J2*%
X91500000Y-108600000D03*
%TD*%
%TO.C,J2*%
X169700000Y-89050000D03*
%TD*%
%TO.C,J2*%
X150150000Y-89050000D03*
%TD*%
%TO.C,J2*%
X130600000Y-89050000D03*
%TD*%
%TO.C,J2*%
X111050000Y-89050000D03*
%TD*%
%TO.C,J2*%
X91500000Y-89050000D03*
%TD*%
%TO.C,J2*%
X169700000Y-69500000D03*
%TD*%
%TO.C,J2*%
X150150000Y-69500000D03*
%TD*%
%TO.C,J2*%
X130600000Y-69500000D03*
%TD*%
%TO.C,J2*%
X111050000Y-69500000D03*
%TD*%
%TO.C,J1*%
X186200000Y-164200000D03*
%TD*%
%TO.C,J1*%
X166650000Y-164200000D03*
%TD*%
%TO.C,J1*%
X147100000Y-164200000D03*
%TD*%
%TO.C,J1*%
X127550000Y-164200000D03*
%TD*%
%TO.C,J1*%
X108000000Y-164200000D03*
%TD*%
%TO.C,J1*%
X186200000Y-144650000D03*
%TD*%
%TO.C,J1*%
X166650000Y-144650000D03*
%TD*%
%TO.C,J1*%
X147100000Y-144650000D03*
%TD*%
%TO.C,J1*%
X127550000Y-144650000D03*
%TD*%
%TO.C,J1*%
X108000000Y-144650000D03*
%TD*%
%TO.C,J1*%
X186200000Y-125100000D03*
%TD*%
%TO.C,J1*%
X166650000Y-125100000D03*
%TD*%
%TO.C,J1*%
X147100000Y-125100000D03*
%TD*%
%TO.C,J1*%
X127550000Y-125100000D03*
%TD*%
%TO.C,J1*%
X108000000Y-125100000D03*
%TD*%
%TO.C,J1*%
X186200000Y-105550000D03*
%TD*%
%TO.C,J1*%
X166650000Y-105550000D03*
%TD*%
%TO.C,J1*%
X147100000Y-105550000D03*
%TD*%
%TO.C,J1*%
X127550000Y-105550000D03*
%TD*%
%TO.C,J1*%
X108000000Y-105550000D03*
%TD*%
%TO.C,J1*%
X186200000Y-86000000D03*
%TD*%
%TO.C,J1*%
X166650000Y-86000000D03*
%TD*%
%TO.C,J1*%
X147100000Y-86000000D03*
%TD*%
%TO.C,J1*%
X127550000Y-86000000D03*
%TD*%
%TO.C,J7*%
X186200000Y-147700000D03*
%TD*%
%TO.C,J7*%
X166650000Y-147700000D03*
%TD*%
%TO.C,J7*%
X147100000Y-147700000D03*
%TD*%
%TO.C,J7*%
X127550000Y-147700000D03*
%TD*%
%TO.C,J7*%
X108000000Y-147700000D03*
%TD*%
%TO.C,J7*%
X186200000Y-128150000D03*
%TD*%
%TO.C,J7*%
X166650000Y-128150000D03*
%TD*%
%TO.C,J7*%
X147100000Y-128150000D03*
%TD*%
%TO.C,J7*%
X127550000Y-128150000D03*
%TD*%
%TO.C,J7*%
X108000000Y-128150000D03*
%TD*%
%TO.C,J7*%
X186200000Y-108600000D03*
%TD*%
%TO.C,J7*%
X166650000Y-108600000D03*
%TD*%
%TO.C,J7*%
X147100000Y-108600000D03*
%TD*%
%TO.C,J7*%
X127550000Y-108600000D03*
%TD*%
%TO.C,J7*%
X108000000Y-108600000D03*
%TD*%
%TO.C,J7*%
X186200000Y-89050000D03*
%TD*%
%TO.C,J7*%
X166650000Y-89050000D03*
%TD*%
%TO.C,J7*%
X147100000Y-89050000D03*
%TD*%
%TO.C,J7*%
X127550000Y-89050000D03*
%TD*%
%TO.C,J7*%
X108000000Y-89050000D03*
%TD*%
%TO.C,J7*%
X186200000Y-69500000D03*
%TD*%
%TO.C,J7*%
X166650000Y-69500000D03*
%TD*%
%TO.C,J7*%
X147100000Y-69500000D03*
%TD*%
%TO.C,J7*%
X127550000Y-69500000D03*
%TD*%
%TO.C,J11*%
X169700000Y-159700000D03*
%TD*%
%TO.C,J11*%
X150150000Y-159700000D03*
%TD*%
%TO.C,J11*%
X130600000Y-159700000D03*
%TD*%
%TO.C,J11*%
X111050000Y-159700000D03*
%TD*%
%TO.C,J11*%
X91500000Y-159700000D03*
%TD*%
%TO.C,J11*%
X169700000Y-140150000D03*
%TD*%
%TO.C,J11*%
X150150000Y-140150000D03*
%TD*%
%TO.C,J11*%
X130600000Y-140150000D03*
%TD*%
%TO.C,J11*%
X111050000Y-140150000D03*
%TD*%
%TO.C,J11*%
X91500000Y-140150000D03*
%TD*%
%TO.C,J11*%
X169700000Y-120600000D03*
%TD*%
%TO.C,J11*%
X150150000Y-120600000D03*
%TD*%
%TO.C,J11*%
X130600000Y-120600000D03*
%TD*%
%TO.C,J11*%
X111050000Y-120600000D03*
%TD*%
%TO.C,J11*%
X91500000Y-120600000D03*
%TD*%
%TO.C,J11*%
X169700000Y-101050000D03*
%TD*%
%TO.C,J11*%
X150150000Y-101050000D03*
%TD*%
%TO.C,J11*%
X130600000Y-101050000D03*
%TD*%
%TO.C,J11*%
X111050000Y-101050000D03*
%TD*%
%TO.C,J11*%
X91500000Y-101050000D03*
%TD*%
%TO.C,J11*%
X169700000Y-81500000D03*
%TD*%
%TO.C,J11*%
X150150000Y-81500000D03*
%TD*%
%TO.C,J11*%
X130600000Y-81500000D03*
%TD*%
%TO.C,J11*%
X111050000Y-81500000D03*
%TD*%
%TO.C,J8*%
X169700000Y-164200000D03*
%TD*%
%TO.C,J8*%
X150150000Y-164200000D03*
%TD*%
%TO.C,J8*%
X130600000Y-164200000D03*
%TD*%
%TO.C,J8*%
X111050000Y-164200000D03*
%TD*%
%TO.C,J8*%
X91500000Y-164200000D03*
%TD*%
%TO.C,J8*%
X169700000Y-144650000D03*
%TD*%
%TO.C,J8*%
X150150000Y-144650000D03*
%TD*%
%TO.C,J8*%
X130600000Y-144650000D03*
%TD*%
%TO.C,J8*%
X111050000Y-144650000D03*
%TD*%
%TO.C,J8*%
X91500000Y-144650000D03*
%TD*%
%TO.C,J8*%
X169700000Y-125100000D03*
%TD*%
%TO.C,J8*%
X150150000Y-125100000D03*
%TD*%
%TO.C,J8*%
X130600000Y-125100000D03*
%TD*%
%TO.C,J8*%
X111050000Y-125100000D03*
%TD*%
%TO.C,J8*%
X91500000Y-125100000D03*
%TD*%
%TO.C,J8*%
X169700000Y-105550000D03*
%TD*%
%TO.C,J8*%
X150150000Y-105550000D03*
%TD*%
%TO.C,J8*%
X130600000Y-105550000D03*
%TD*%
%TO.C,J8*%
X111050000Y-105550000D03*
%TD*%
%TO.C,J8*%
X91500000Y-105550000D03*
%TD*%
%TO.C,J8*%
X169700000Y-86000000D03*
%TD*%
%TO.C,J8*%
X150150000Y-86000000D03*
%TD*%
%TO.C,J8*%
X130600000Y-86000000D03*
%TD*%
%TO.C,J8*%
X111050000Y-86000000D03*
%TD*%
D12*
%TO.C,SW1*%
X180490000Y-150870000D03*
X174140000Y-153410000D03*
D13*
X172870000Y-155950000D03*
X183030000Y-155950000D03*
D14*
X177950000Y-155950000D03*
%TD*%
D12*
%TO.C,SW1*%
X160940000Y-150870000D03*
X154590000Y-153410000D03*
D13*
X153320000Y-155950000D03*
X163480000Y-155950000D03*
D14*
X158400000Y-155950000D03*
%TD*%
D12*
%TO.C,SW1*%
X141390000Y-150870000D03*
X135040000Y-153410000D03*
D13*
X133770000Y-155950000D03*
X143930000Y-155950000D03*
D14*
X138850000Y-155950000D03*
%TD*%
D12*
%TO.C,SW1*%
X121840000Y-150870000D03*
X115490000Y-153410000D03*
D13*
X114220000Y-155950000D03*
X124380000Y-155950000D03*
D14*
X119300000Y-155950000D03*
%TD*%
D12*
%TO.C,SW1*%
X102290000Y-150870000D03*
X95940000Y-153410000D03*
D13*
X94670000Y-155950000D03*
X104830000Y-155950000D03*
D14*
X99750000Y-155950000D03*
%TD*%
D12*
%TO.C,SW1*%
X180490000Y-131320000D03*
X174140000Y-133860000D03*
D13*
X172870000Y-136400000D03*
X183030000Y-136400000D03*
D14*
X177950000Y-136400000D03*
%TD*%
D12*
%TO.C,SW1*%
X160940000Y-131320000D03*
X154590000Y-133860000D03*
D13*
X153320000Y-136400000D03*
X163480000Y-136400000D03*
D14*
X158400000Y-136400000D03*
%TD*%
D12*
%TO.C,SW1*%
X141390000Y-131320000D03*
X135040000Y-133860000D03*
D13*
X133770000Y-136400000D03*
X143930000Y-136400000D03*
D14*
X138850000Y-136400000D03*
%TD*%
D12*
%TO.C,SW1*%
X121840000Y-131320000D03*
X115490000Y-133860000D03*
D13*
X114220000Y-136400000D03*
X124380000Y-136400000D03*
D14*
X119300000Y-136400000D03*
%TD*%
D12*
%TO.C,SW1*%
X102290000Y-131320000D03*
X95940000Y-133860000D03*
D13*
X94670000Y-136400000D03*
X104830000Y-136400000D03*
D14*
X99750000Y-136400000D03*
%TD*%
D12*
%TO.C,SW1*%
X180490000Y-111770000D03*
X174140000Y-114310000D03*
D13*
X172870000Y-116850000D03*
X183030000Y-116850000D03*
D14*
X177950000Y-116850000D03*
%TD*%
D12*
%TO.C,SW1*%
X160940000Y-111770000D03*
X154590000Y-114310000D03*
D13*
X153320000Y-116850000D03*
X163480000Y-116850000D03*
D14*
X158400000Y-116850000D03*
%TD*%
D12*
%TO.C,SW1*%
X141390000Y-111770000D03*
X135040000Y-114310000D03*
D13*
X133770000Y-116850000D03*
X143930000Y-116850000D03*
D14*
X138850000Y-116850000D03*
%TD*%
D12*
%TO.C,SW1*%
X121840000Y-111770000D03*
X115490000Y-114310000D03*
D13*
X114220000Y-116850000D03*
X124380000Y-116850000D03*
D14*
X119300000Y-116850000D03*
%TD*%
D12*
%TO.C,SW1*%
X102290000Y-111770000D03*
X95940000Y-114310000D03*
D13*
X94670000Y-116850000D03*
X104830000Y-116850000D03*
D14*
X99750000Y-116850000D03*
%TD*%
D12*
%TO.C,SW1*%
X180490000Y-92220000D03*
X174140000Y-94760000D03*
D13*
X172870000Y-97300000D03*
X183030000Y-97300000D03*
D14*
X177950000Y-97300000D03*
%TD*%
D12*
%TO.C,SW1*%
X160940000Y-92220000D03*
X154590000Y-94760000D03*
D13*
X153320000Y-97300000D03*
X163480000Y-97300000D03*
D14*
X158400000Y-97300000D03*
%TD*%
D12*
%TO.C,SW1*%
X141390000Y-92220000D03*
X135040000Y-94760000D03*
D13*
X133770000Y-97300000D03*
X143930000Y-97300000D03*
D14*
X138850000Y-97300000D03*
%TD*%
D12*
%TO.C,SW1*%
X121840000Y-92220000D03*
X115490000Y-94760000D03*
D13*
X114220000Y-97300000D03*
X124380000Y-97300000D03*
D14*
X119300000Y-97300000D03*
%TD*%
D12*
%TO.C,SW1*%
X102290000Y-92220000D03*
X95940000Y-94760000D03*
D13*
X94670000Y-97300000D03*
X104830000Y-97300000D03*
D14*
X99750000Y-97300000D03*
%TD*%
D12*
%TO.C,SW1*%
X180490000Y-72670000D03*
X174140000Y-75210000D03*
D13*
X172870000Y-77750000D03*
X183030000Y-77750000D03*
D14*
X177950000Y-77750000D03*
%TD*%
D12*
%TO.C,SW1*%
X160940000Y-72670000D03*
X154590000Y-75210000D03*
D13*
X153320000Y-77750000D03*
X163480000Y-77750000D03*
D14*
X158400000Y-77750000D03*
%TD*%
D12*
%TO.C,SW1*%
X141390000Y-72670000D03*
X135040000Y-75210000D03*
D13*
X133770000Y-77750000D03*
X143930000Y-77750000D03*
D14*
X138850000Y-77750000D03*
%TD*%
D12*
%TO.C,SW1*%
X121840000Y-72670000D03*
X115490000Y-75210000D03*
D13*
X114220000Y-77750000D03*
X124380000Y-77750000D03*
D14*
X119300000Y-77750000D03*
%TD*%
D11*
%TO.C,J12*%
X183200000Y-147700000D03*
%TD*%
%TO.C,J12*%
X163650000Y-147700000D03*
%TD*%
%TO.C,J12*%
X144100000Y-147700000D03*
%TD*%
%TO.C,J12*%
X124550000Y-147700000D03*
%TD*%
%TO.C,J12*%
X105000000Y-147700000D03*
%TD*%
%TO.C,J12*%
X183200000Y-128150000D03*
%TD*%
%TO.C,J12*%
X163650000Y-128150000D03*
%TD*%
%TO.C,J12*%
X144100000Y-128150000D03*
%TD*%
%TO.C,J12*%
X124550000Y-128150000D03*
%TD*%
%TO.C,J12*%
X105000000Y-128150000D03*
%TD*%
%TO.C,J12*%
X183200000Y-108600000D03*
%TD*%
%TO.C,J12*%
X163650000Y-108600000D03*
%TD*%
%TO.C,J12*%
X144100000Y-108600000D03*
%TD*%
%TO.C,J12*%
X124550000Y-108600000D03*
%TD*%
%TO.C,J12*%
X105000000Y-108600000D03*
%TD*%
%TO.C,J12*%
X183200000Y-89050000D03*
%TD*%
%TO.C,J12*%
X163650000Y-89050000D03*
%TD*%
%TO.C,J12*%
X144100000Y-89050000D03*
%TD*%
%TO.C,J12*%
X124550000Y-89050000D03*
%TD*%
%TO.C,J12*%
X105000000Y-89050000D03*
%TD*%
%TO.C,J12*%
X183200000Y-69500000D03*
%TD*%
%TO.C,J12*%
X163650000Y-69500000D03*
%TD*%
%TO.C,J12*%
X144100000Y-69500000D03*
%TD*%
%TO.C,J12*%
X124550000Y-69500000D03*
%TD*%
D10*
%TO.C,REF\u002A\u002A*%
X109525000Y-77750000D03*
X109525000Y-77156250D03*
X109525000Y-76562500D03*
X109525000Y-75968750D03*
X109525000Y-75375000D03*
X109525000Y-79531250D03*
X109525000Y-78343750D03*
X109525000Y-80125000D03*
X109525000Y-78937500D03*
%TD*%
%TO.C,REF\u002A\u002A*%
X99750000Y-87525000D03*
X100343750Y-87525000D03*
X100937500Y-87525000D03*
X101531250Y-87525000D03*
X102125000Y-87525000D03*
X97968750Y-87525000D03*
X99156250Y-87525000D03*
X97375000Y-87525000D03*
X98562500Y-87525000D03*
%TD*%
D14*
%TO.C,SW1*%
X99750000Y-77750000D03*
D13*
X104830000Y-77750000D03*
X94670000Y-77750000D03*
D12*
X95940000Y-75210000D03*
X102290000Y-72670000D03*
%TD*%
D11*
%TO.C,J1*%
X108000000Y-86000000D03*
%TD*%
%TO.C,J2*%
X91500000Y-69500000D03*
%TD*%
%TO.C,J3*%
X91500000Y-78500000D03*
%TD*%
%TO.C,J4*%
X94500000Y-86000000D03*
%TD*%
%TO.C,J5*%
X105000000Y-86000000D03*
%TD*%
%TO.C,J6*%
X108000000Y-81500000D03*
%TD*%
%TO.C,J7*%
X108000000Y-69500000D03*
%TD*%
%TO.C,J8*%
X91500000Y-86000000D03*
%TD*%
%TO.C,J9*%
X108000000Y-78486000D03*
%TD*%
%TO.C,J10*%
X94500000Y-69500000D03*
%TD*%
%TO.C,J11*%
X91500000Y-81500000D03*
%TD*%
%TO.C,J12*%
X105000000Y-69500000D03*
%TD*%
M02*
